solid OpenSCAD_Model
  facet normal -1 0 0
    outer loop
      vertex 0 15 -1
      vertex 0 13 1
      vertex 0 15 1
    endloop
  endfacet
  facet normal -1 0 0
    outer loop
      vertex 0 -1 -1
      vertex 0 13 1
      vertex 0 15 -1
    endloop
  endfacet
  facet normal -1 0 0
    outer loop
      vertex 0 -1 4
      vertex 0 0 1
      vertex 0 -1 -1
    endloop
  endfacet
  facet normal -1 -0 0
    outer loop
      vertex 0 13 1
      vertex 0 -1 -1
      vertex 0 0 1
    endloop
  endfacet
  facet normal -1 0 0
    outer loop
      vertex 0 15 1
      vertex 0 16.5 2
      vertex 0 16.5 1
    endloop
  endfacet
  facet normal -1 0 0
    outer loop
      vertex 0 13 2
      vertex 0 15 1
      vertex 0 13 1
    endloop
  endfacet
  facet normal -1 0 0
    outer loop
      vertex 0 15 1
      vertex 0 13 2
      vertex 0 16.5 2
    endloop
  endfacet
  facet normal -1 0 0
    outer loop
      vertex 0 0 3
      vertex 0 1 4
      vertex 0 1 3
    endloop
  endfacet
  facet normal -1 0 0
    outer loop
      vertex 0 0 3
      vertex 0 -1 4
      vertex 0 1 4
    endloop
  endfacet
  facet normal -1 0 0
    outer loop
      vertex 0 0 1
      vertex 0 -1 4
      vertex 0 0 3
    endloop
  endfacet
  facet normal 0 0 1
    outer loop
      vertex 15 13 1
      vertex 13.5 6.5 1
      vertex 15 0 1
    endloop
  endfacet
  facet normal 0 0 1
    outer loop
      vertex 15 13 1
      vertex 13.4671 7.12717 1
      vertex 13.5 6.5 1
    endloop
  endfacet
  facet normal 0 0 1
    outer loop
      vertex 15 13 1
      vertex 13.3689 7.74747 1
      vertex 13.4671 7.12717 1
    endloop
  endfacet
  facet normal 0 0 1
    outer loop
      vertex 15 13 1
      vertex 13.2063 8.3541 1
      vertex 13.3689 7.74747 1
    endloop
  endfacet
  facet normal 0 0 1
    outer loop
      vertex 15 13 1
      vertex 12.9813 8.94042 1
      vertex 13.2063 8.3541 1
    endloop
  endfacet
  facet normal 0 0 1
    outer loop
      vertex 15 13 1
      vertex 12.6962 9.5 1
      vertex 12.9813 8.94042 1
    endloop
  endfacet
  facet normal 0 0 1
    outer loop
      vertex 15 13 1
      vertex 12.3541 10.0267 1
      vertex 12.6962 9.5 1
    endloop
  endfacet
  facet normal 0 0 1
    outer loop
      vertex 15 13 1
      vertex 11.9589 10.5148 1
      vertex 12.3541 10.0267 1
    endloop
  endfacet
  facet normal 0 0 1
    outer loop
      vertex 15 13 1
      vertex 11.5148 10.9589 1
      vertex 11.9589 10.5148 1
    endloop
  endfacet
  facet normal 0 0 1
    outer loop
      vertex 15 13 1
      vertex 11.0267 11.3541 1
      vertex 11.5148 10.9589 1
    endloop
  endfacet
  facet normal 0 0 1
    outer loop
      vertex 15 13 1
      vertex 10.5 11.6962 1
      vertex 11.0267 11.3541 1
    endloop
  endfacet
  facet normal 0 0 1
    outer loop
      vertex 15 13 1
      vertex 9.94042 11.9813 1
      vertex 10.5 11.6962 1
    endloop
  endfacet
  facet normal 0 0 1
    outer loop
      vertex 15 13 1
      vertex 9.3541 12.2063 1
      vertex 9.94042 11.9813 1
    endloop
  endfacet
  facet normal 0 0 1
    outer loop
      vertex 15 13 1
      vertex 8.74747 12.3689 1
      vertex 9.3541 12.2063 1
    endloop
  endfacet
  facet normal 0 0 1
    outer loop
      vertex 15 13 1
      vertex 8.12717 12.4671 1
      vertex 8.74747 12.3689 1
    endloop
  endfacet
  facet normal 0 0 1
    outer loop
      vertex 15 13 1
      vertex 7.5 12.5 1
      vertex 8.12717 12.4671 1
    endloop
  endfacet
  facet normal -0 0 1
    outer loop
      vertex 0 13 1
      vertex 7.5 12.5 1
      vertex 15 13 1
    endloop
  endfacet
  facet normal 0 0 1
    outer loop
      vertex 1.53287 7.12717 1
      vertex 0 13 1
      vertex 1.5 6.5 1
    endloop
  endfacet
  facet normal 0 0 1
    outer loop
      vertex 1.63111 7.74747 1
      vertex 0 13 1
      vertex 1.53287 7.12717 1
    endloop
  endfacet
  facet normal 0 0 1
    outer loop
      vertex 1.79366 8.3541 1
      vertex 0 13 1
      vertex 1.63111 7.74747 1
    endloop
  endfacet
  facet normal 0 0 1
    outer loop
      vertex 2.01873 8.94042 1
      vertex 0 13 1
      vertex 1.79366 8.3541 1
    endloop
  endfacet
  facet normal 0 0 1
    outer loop
      vertex 2.30385 9.5 1
      vertex 0 13 1
      vertex 2.01873 8.94042 1
    endloop
  endfacet
  facet normal 0 0 1
    outer loop
      vertex 2.6459 10.0267 1
      vertex 0 13 1
      vertex 2.30385 9.5 1
    endloop
  endfacet
  facet normal 0 0 1
    outer loop
      vertex 3.04113 10.5148 1
      vertex 0 13 1
      vertex 2.6459 10.0267 1
    endloop
  endfacet
  facet normal 0 0 1
    outer loop
      vertex 3.48522 10.9589 1
      vertex 0 13 1
      vertex 3.04113 10.5148 1
    endloop
  endfacet
  facet normal 0 0 1
    outer loop
      vertex 3.97329 11.3541 1
      vertex 0 13 1
      vertex 3.48522 10.9589 1
    endloop
  endfacet
  facet normal 0 0 1
    outer loop
      vertex 4.5 11.6962 1
      vertex 0 13 1
      vertex 3.97329 11.3541 1
    endloop
  endfacet
  facet normal 0 0 1
    outer loop
      vertex 5.05958 11.9813 1
      vertex 0 13 1
      vertex 4.5 11.6962 1
    endloop
  endfacet
  facet normal 0 0 1
    outer loop
      vertex 5.6459 12.2063 1
      vertex 0 13 1
      vertex 5.05958 11.9813 1
    endloop
  endfacet
  facet normal 0 0 1
    outer loop
      vertex 6.25253 12.3689 1
      vertex 0 13 1
      vertex 5.6459 12.2063 1
    endloop
  endfacet
  facet normal 0 0 1
    outer loop
      vertex 6.87283 12.4671 1
      vertex 0 13 1
      vertex 6.25253 12.3689 1
    endloop
  endfacet
  facet normal 0 0 1
    outer loop
      vertex 7.5 12.5 1
      vertex 0 13 1
      vertex 6.87283 12.4671 1
    endloop
  endfacet
  facet normal -0 0 1
    outer loop
      vertex 13.4671 5.87283 1
      vertex 15 0 1
      vertex 13.5 6.5 1
    endloop
  endfacet
  facet normal -0 0 1
    outer loop
      vertex 13.3689 5.25253 1
      vertex 15 0 1
      vertex 13.4671 5.87283 1
    endloop
  endfacet
  facet normal -0 0 1
    outer loop
      vertex 13.2063 4.6459 1
      vertex 15 0 1
      vertex 13.3689 5.25253 1
    endloop
  endfacet
  facet normal -0 0 1
    outer loop
      vertex 12.9813 4.05958 1
      vertex 15 0 1
      vertex 13.2063 4.6459 1
    endloop
  endfacet
  facet normal -0 0 1
    outer loop
      vertex 12.6962 3.5 1
      vertex 15 0 1
      vertex 12.9813 4.05958 1
    endloop
  endfacet
  facet normal -0 0 1
    outer loop
      vertex 12.3541 2.97329 1
      vertex 15 0 1
      vertex 12.6962 3.5 1
    endloop
  endfacet
  facet normal -0 0 1
    outer loop
      vertex 11.9589 2.48522 1
      vertex 15 0 1
      vertex 12.3541 2.97329 1
    endloop
  endfacet
  facet normal -0 0 1
    outer loop
      vertex 11.5148 2.04113 1
      vertex 15 0 1
      vertex 11.9589 2.48522 1
    endloop
  endfacet
  facet normal -0 0 1
    outer loop
      vertex 11.0267 1.6459 1
      vertex 15 0 1
      vertex 11.5148 2.04113 1
    endloop
  endfacet
  facet normal -0 0 1
    outer loop
      vertex 10.5 1.30385 1
      vertex 15 0 1
      vertex 11.0267 1.6459 1
    endloop
  endfacet
  facet normal -0 0 1
    outer loop
      vertex 9.94042 1.01873 1
      vertex 15 0 1
      vertex 10.5 1.30385 1
    endloop
  endfacet
  facet normal -0 0 1
    outer loop
      vertex 9.3541 0.79366 1
      vertex 15 0 1
      vertex 9.94042 1.01873 1
    endloop
  endfacet
  facet normal -0 0 1
    outer loop
      vertex 8.74747 0.631114 1
      vertex 15 0 1
      vertex 9.3541 0.79366 1
    endloop
  endfacet
  facet normal -0 0 1
    outer loop
      vertex 8.12717 0.532868 1
      vertex 15 0 1
      vertex 8.74747 0.631114 1
    endloop
  endfacet
  facet normal -0 0 1
    outer loop
      vertex 7.5 0.5 1
      vertex 15 0 1
      vertex 8.12717 0.532868 1
    endloop
  endfacet
  facet normal 0 0 1
    outer loop
      vertex 0 0 1
      vertex 7.5 0.5 1
      vertex 6.87283 0.532868 1
    endloop
  endfacet
  facet normal 0 0 1
    outer loop
      vertex 0 0 1
      vertex 1.5 6.5 1
      vertex 0 13 1
    endloop
  endfacet
  facet normal 0 0 1
    outer loop
      vertex 1.5 6.5 1
      vertex 0 0 1
      vertex 1.53287 5.87283 1
    endloop
  endfacet
  facet normal 0 0 1
    outer loop
      vertex 7.5 0.5 1
      vertex 0 0 1
      vertex 15 0 1
    endloop
  endfacet
  facet normal 0 0 1
    outer loop
      vertex 6.25253 0.631114 1
      vertex 0 0 1
      vertex 6.87283 0.532868 1
    endloop
  endfacet
  facet normal 0 0 1
    outer loop
      vertex 5.6459 0.79366 1
      vertex 0 0 1
      vertex 6.25253 0.631114 1
    endloop
  endfacet
  facet normal 0 0 1
    outer loop
      vertex 5.05958 1.01873 1
      vertex 0 0 1
      vertex 5.6459 0.79366 1
    endloop
  endfacet
  facet normal 0 0 1
    outer loop
      vertex 4.5 1.30385 1
      vertex 0 0 1
      vertex 5.05958 1.01873 1
    endloop
  endfacet
  facet normal 0 0 1
    outer loop
      vertex 3.97329 1.6459 1
      vertex 0 0 1
      vertex 4.5 1.30385 1
    endloop
  endfacet
  facet normal 0 0 1
    outer loop
      vertex 3.48522 2.04113 1
      vertex 0 0 1
      vertex 3.97329 1.6459 1
    endloop
  endfacet
  facet normal 0 0 1
    outer loop
      vertex 3.04113 2.48522 1
      vertex 0 0 1
      vertex 3.48522 2.04113 1
    endloop
  endfacet
  facet normal 0 0 1
    outer loop
      vertex 2.6459 2.97329 1
      vertex 0 0 1
      vertex 3.04113 2.48522 1
    endloop
  endfacet
  facet normal 0 0 1
    outer loop
      vertex 2.30385 3.5 1
      vertex 0 0 1
      vertex 2.6459 2.97329 1
    endloop
  endfacet
  facet normal 0 0 1
    outer loop
      vertex 2.01873 4.05958 1
      vertex 0 0 1
      vertex 2.30385 3.5 1
    endloop
  endfacet
  facet normal 0 0 1
    outer loop
      vertex 1.79366 4.6459 1
      vertex 0 0 1
      vertex 2.01873 4.05958 1
    endloop
  endfacet
  facet normal 0 0 1
    outer loop
      vertex 1.63111 5.25253 1
      vertex 0 0 1
      vertex 1.79366 4.6459 1
    endloop
  endfacet
  facet normal 0 0 1
    outer loop
      vertex 1.53287 5.87283 1
      vertex 0 0 1
      vertex 1.63111 5.25253 1
    endloop
  endfacet
  facet normal 0 0 -1
    outer loop
      vertex 0 15 1
      vertex 2 16.5 1
      vertex 2 15 1
    endloop
  endfacet
  facet normal -0 0 -1
    outer loop
      vertex 2 16.5 1
      vertex 0 15 1
      vertex 0 16.5 1
    endloop
  endfacet
  facet normal 0 0 -1
    outer loop
      vertex 13 15 1
      vertex 15 16.5 1
      vertex 15 15 1
    endloop
  endfacet
  facet normal -0 0 -1
    outer loop
      vertex 15 16.5 1
      vertex 13 15 1
      vertex 13 16.5 1
    endloop
  endfacet
  facet normal 1 0 0
    outer loop
      vertex 15 1 4
      vertex 15 0 3
      vertex 15 1 3
    endloop
  endfacet
  facet normal 1 0 0
    outer loop
      vertex 15 0 3
      vertex 15 -1 4
      vertex 15 0 1
    endloop
  endfacet
  facet normal 1 -0 0
    outer loop
      vertex 15 -1 4
      vertex 15 0 3
      vertex 15 1 4
    endloop
  endfacet
  facet normal 1 0 0
    outer loop
      vertex 15 16.5 2
      vertex 15 15 1
      vertex 15 16.5 1
    endloop
  endfacet
  facet normal 1 -0 0
    outer loop
      vertex 15 13 2
      vertex 15 15 1
      vertex 15 16.5 2
    endloop
  endfacet
  facet normal 1 0 0
    outer loop
      vertex 15 13 1
      vertex 15 15 1
      vertex 15 13 2
    endloop
  endfacet
  facet normal 1 0 0
    outer loop
      vertex 15 15 1
      vertex 15 13 1
      vertex 15 15 -1
    endloop
  endfacet
  facet normal 1 0 0
    outer loop
      vertex 15 -1 -1
      vertex 15 13 1
      vertex 15 0 1
    endloop
  endfacet
  facet normal 1 0 0
    outer loop
      vertex 15 13 1
      vertex 15 -1 -1
      vertex 15 15 -1
    endloop
  endfacet
  facet normal 1 0 0
    outer loop
      vertex 15 -1 -1
      vertex 15 0 1
      vertex 15 -1 4
    endloop
  endfacet
  facet normal 0 1 -0
    outer loop
      vertex 15 15 -1
      vertex 13 15 1
      vertex 15 15 1
    endloop
  endfacet
  facet normal 0 1 0
    outer loop
      vertex 13 15 1
      vertex 15 15 -1
      vertex 2 15 1
    endloop
  endfacet
  facet normal 0 1 0
    outer loop
      vertex 0 15 -1
      vertex 2 15 1
      vertex 15 15 -1
    endloop
  endfacet
  facet normal 0 1 0
    outer loop
      vertex 2 15 1
      vertex 0 15 -1
      vertex 0 15 1
    endloop
  endfacet
  facet normal 0 1 -0
    outer loop
      vertex 13 15 1
      vertex 2 15 2
      vertex 13 15 2
    endloop
  endfacet
  facet normal 0 1 0
    outer loop
      vertex 2 15 2
      vertex 13 15 1
      vertex 2 15 1
    endloop
  endfacet
  facet normal 0 0 -1
    outer loop
      vertex 11.7414 0.778771 -1
      vertex 15 -1 -1
      vertex 12.4648 0 -1
    endloop
  endfacet
  facet normal 0 0 -1
    outer loop
      vertex 15 -1 -1
      vertex 2.53522 0 -1
      vertex 12.4648 0 -1
    endloop
  endfacet
  facet normal 0 -0 -1
    outer loop
      vertex 2.53522 0 -1
      vertex 15 -1 -1
      vertex 0 -1 -1
    endloop
  endfacet
  facet normal 0 0 -1
    outer loop
      vertex 11.399 1.14736 -1
      vertex 15 -1 -1
      vertex 11.7414 0.778771 -1
    endloop
  endfacet
  facet normal 0 0 -1
    outer loop
      vertex 15 -1 -1
      vertex 11.399 1.14736 -1
      vertex 15 15 -1
    endloop
  endfacet
  facet normal 0 0 -1
    outer loop
      vertex 10.6327 1.74324 -1
      vertex 15 15 -1
      vertex 11.399 1.14736 -1
    endloop
  endfacet
  facet normal 0 0 -1
    outer loop
      vertex 10.0507 2.19574 -1
      vertex 15 15 -1
      vertex 10.6327 1.74324 -1
    endloop
  endfacet
  facet normal 0 0 -1
    outer loop
      vertex 9.74481 2.33948 -1
      vertex 15 15 -1
      vertex 10.0507 2.19574 -1
    endloop
  endfacet
  facet normal 0 0 -1
    outer loop
      vertex 8.76125 2.8017 -1
      vertex 15 15 -1
      vertex 9.74481 2.33948 -1
    endloop
  endfacet
  facet normal 0 0 -1
    outer loop
      vertex 7.5 3 -1
      vertex 15 15 -1
      vertex 8.76125 2.8017 -1
    endloop
  endfacet
  facet normal 0 0 -1
    outer loop
      vertex 0 15 -1
      vertex 7.5 3 -1
      vertex 6.23875 2.8017 -1
    endloop
  endfacet
  facet normal 0 0 -1
    outer loop
      vertex 0 15 -1
      vertex 6.23875 2.8017 -1
      vertex 5.25519 2.33948 -1
    endloop
  endfacet
  facet normal 0 0 -1
    outer loop
      vertex 0 15 -1
      vertex 5.25519 2.33948 -1
      vertex 4.94932 2.19574 -1
    endloop
  endfacet
  facet normal 0 0 -1
    outer loop
      vertex 0 15 -1
      vertex 4.94932 2.19574 -1
      vertex 4.36735 1.74324 -1
    endloop
  endfacet
  facet normal 0 0 -1
    outer loop
      vertex 0 15 -1
      vertex 4.36735 1.74324 -1
      vertex 3.60096 1.14736 -1
    endloop
  endfacet
  facet normal 0 0 -1
    outer loop
      vertex 0 -1 -1
      vertex 3.60096 1.14736 -1
      vertex 3.25859 0.778771 -1
    endloop
  endfacet
  facet normal 0 0 -1
    outer loop
      vertex 0 -1 -1
      vertex 3.25859 0.778771 -1
      vertex 2.53522 0 -1
    endloop
  endfacet
  facet normal -0 0 -1
    outer loop
      vertex 3.60096 1.14736 -1
      vertex 0 -1 -1
      vertex 0 15 -1
    endloop
  endfacet
  facet normal 0 0 -1
    outer loop
      vertex 7.5 3 -1
      vertex 0 15 -1
      vertex 15 15 -1
    endloop
  endfacet
  facet normal 0 -1 0
    outer loop
      vertex 0 -1 -1
      vertex 15 -1 4
      vertex 0 -1 4
    endloop
  endfacet
  facet normal 0 -1 -0
    outer loop
      vertex 15 -1 4
      vertex 0 -1 -1
      vertex 15 -1 -1
    endloop
  endfacet
  facet normal 0 0 1
    outer loop
      vertex 2 1 4
      vertex 0 1 4
      vertex 2 0 4
    endloop
  endfacet
  facet normal 0 0 1
    outer loop
      vertex 13 0 4
      vertex 15 1 4
      vertex 13 1 4
    endloop
  endfacet
  facet normal 0 0 1
    outer loop
      vertex 15 1 4
      vertex 13 0 4
      vertex 15 -1 4
    endloop
  endfacet
  facet normal -0 0 1
    outer loop
      vertex 2 0 4
      vertex 15 -1 4
      vertex 13 0 4
    endloop
  endfacet
  facet normal 0 0 1
    outer loop
      vertex 2 0 4
      vertex 0 -1 4
      vertex 15 -1 4
    endloop
  endfacet
  facet normal 0 0 1
    outer loop
      vertex 0 -1 4
      vertex 2 0 4
      vertex 0 1 4
    endloop
  endfacet
  facet normal 1 -0 0
    outer loop
      vertex 2 0 4
      vertex 2 1 3
      vertex 2 1 4
    endloop
  endfacet
  facet normal 1 0 0
    outer loop
      vertex 2 1 3
      vertex 2 0 4
      vertex 2 0 3
    endloop
  endfacet
  facet normal 0 1 -0
    outer loop
      vertex 2 1 3
      vertex 0 1 4
      vertex 2 1 4
    endloop
  endfacet
  facet normal 0 1 0
    outer loop
      vertex 0 1 4
      vertex 2 1 3
      vertex 0 1 3
    endloop
  endfacet
  facet normal 0 0 -1
    outer loop
      vertex 0 0 3
      vertex 2 1 3
      vertex 2 0 3
    endloop
  endfacet
  facet normal -0 0 -1
    outer loop
      vertex 2 1 3
      vertex 0 0 3
      vertex 0 1 3
    endloop
  endfacet
  facet normal -1 0 0
    outer loop
      vertex 13 0 3
      vertex 13 1 4
      vertex 13 1 3
    endloop
  endfacet
  facet normal -1 -0 0
    outer loop
      vertex 13 1 4
      vertex 13 0 3
      vertex 13 0 4
    endloop
  endfacet
  facet normal 0 1 -0
    outer loop
      vertex 15 1 3
      vertex 13 1 4
      vertex 15 1 4
    endloop
  endfacet
  facet normal 0 1 0
    outer loop
      vertex 13 1 4
      vertex 15 1 3
      vertex 13 1 3
    endloop
  endfacet
  facet normal 0 0 -1
    outer loop
      vertex 13 0 3
      vertex 15 1 3
      vertex 15 0 3
    endloop
  endfacet
  facet normal -0 0 -1
    outer loop
      vertex 15 1 3
      vertex 13 0 3
      vertex 13 1 3
    endloop
  endfacet
  facet normal 0 1 -0
    outer loop
      vertex 15 0 1
      vertex 13 0 3
      vertex 15 0 3
    endloop
  endfacet
  facet normal 0 1 0
    outer loop
      vertex 13 0 3
      vertex 15 0 1
      vertex 2 0 3
    endloop
  endfacet
  facet normal 0 1 0
    outer loop
      vertex 0 0 1
      vertex 2 0 3
      vertex 15 0 1
    endloop
  endfacet
  facet normal 0 1 0
    outer loop
      vertex 2 0 3
      vertex 0 0 1
      vertex 0 0 3
    endloop
  endfacet
  facet normal 0 1 -0
    outer loop
      vertex 13 0 3
      vertex 2 0 4
      vertex 13 0 4
    endloop
  endfacet
  facet normal 0 1 0
    outer loop
      vertex 2 0 4
      vertex 13 0 3
      vertex 2 0 3
    endloop
  endfacet
  facet normal -1 0 0
    outer loop
      vertex 13 15 1
      vertex 13 16.5 2
      vertex 13 16.5 1
    endloop
  endfacet
  facet normal -1 -0 0
    outer loop
      vertex 13 16.5 2
      vertex 13 15 1
      vertex 13 15 2
    endloop
  endfacet
  facet normal 0 0 1
    outer loop
      vertex 2 16.5 2
      vertex 0 16.5 2
      vertex 2 15 2
    endloop
  endfacet
  facet normal 0 0 1
    outer loop
      vertex 13 15 2
      vertex 15 16.5 2
      vertex 13 16.5 2
    endloop
  endfacet
  facet normal 0 0 1
    outer loop
      vertex 15 16.5 2
      vertex 13 15 2
      vertex 15 13 2
    endloop
  endfacet
  facet normal -0 0 1
    outer loop
      vertex 2 15 2
      vertex 15 13 2
      vertex 13 15 2
    endloop
  endfacet
  facet normal 0 0 1
    outer loop
      vertex 2 15 2
      vertex 0 13 2
      vertex 15 13 2
    endloop
  endfacet
  facet normal 0 0 1
    outer loop
      vertex 0 13 2
      vertex 2 15 2
      vertex 0 16.5 2
    endloop
  endfacet
  facet normal 0 1 -0
    outer loop
      vertex 15 16.5 1
      vertex 13 16.5 2
      vertex 15 16.5 2
    endloop
  endfacet
  facet normal 0 1 0
    outer loop
      vertex 13 16.5 2
      vertex 15 16.5 1
      vertex 13 16.5 1
    endloop
  endfacet
  facet normal 1 -0 0
    outer loop
      vertex 2 15 2
      vertex 2 16.5 1
      vertex 2 16.5 2
    endloop
  endfacet
  facet normal 1 0 0
    outer loop
      vertex 2 16.5 1
      vertex 2 15 2
      vertex 2 15 1
    endloop
  endfacet
  facet normal 0 1 -0
    outer loop
      vertex 2 16.5 1
      vertex 0 16.5 2
      vertex 2 16.5 2
    endloop
  endfacet
  facet normal 0 1 0
    outer loop
      vertex 0 16.5 2
      vertex 2 16.5 1
      vertex 0 16.5 1
    endloop
  endfacet
  facet normal 0 -1 0
    outer loop
      vertex 0 13 1
      vertex 15 13 2
      vertex 0 13 2
    endloop
  endfacet
  facet normal 0 -1 -0
    outer loop
      vertex 15 13 2
      vertex 0 13 1
      vertex 15 13 1
    endloop
  endfacet
  facet normal -0.998629 -0.0523371 0
    outer loop
      vertex 13.5 6.5 0
      vertex 13.4671 7.12717 1
      vertex 13.4671 7.12717 0
    endloop
  endfacet
  facet normal -0.998629 -0.0523371 0
    outer loop
      vertex 13.4671 7.12717 1
      vertex 13.5 6.5 0
      vertex 13.5 6.5 1
    endloop
  endfacet
  facet normal 0.052337 -0.998629 0
    outer loop
      vertex 6.87283 12.4671 0
      vertex 7.5 12.5 1
      vertex 6.87283 12.4671 1
    endloop
  endfacet
  facet normal 0.052337 -0.998629 0
    outer loop
      vertex 7.5 12.5 1
      vertex 6.87283 12.4671 0
      vertex 7.5 12.5 0
    endloop
  endfacet
  facet normal -0.0523355 0.99863 0
    outer loop
      vertex 8.12717 0.532868 0
      vertex 7.5 0.5 1
      vertex 8.12717 0.532868 1
    endloop
  endfacet
  facet normal -0.0523355 0.99863 0
    outer loop
      vertex 7.5 0.5 1
      vertex 8.12717 0.532868 0
      vertex 7.5 0.5 0
    endloop
  endfacet
  facet normal -0.629321 -0.777145 0
    outer loop
      vertex 11.0267 11.3541 0
      vertex 11.5148 10.9589 1
      vertex 11.0267 11.3541 1
    endloop
  endfacet
  facet normal -0.629321 -0.777145 -0
    outer loop
      vertex 11.5148 10.9589 1
      vertex 11.0267 11.3541 0
      vertex 11.5148 10.9589 0
    endloop
  endfacet
  facet normal 0.777145 -0.629321 0
    outer loop
      vertex 2.6459 10.0267 1
      vertex 3.04113 10.5148 0
      vertex 3.04113 10.5148 1
    endloop
  endfacet
  facet normal 0.777145 -0.629321 0
    outer loop
      vertex 3.04113 10.5148 0
      vertex 2.6459 10.0267 1
      vertex 2.6459 10.0267 0
    endloop
  endfacet
  facet normal 0.453991 -0.891006 0
    outer loop
      vertex 4.5 11.6962 0
      vertex 5.05958 11.9813 1
      vertex 4.5 11.6962 1
    endloop
  endfacet
  facet normal 0.453991 -0.891006 0
    outer loop
      vertex 5.05958 11.9813 1
      vertex 4.5 11.6962 0
      vertex 5.05958 11.9813 0
    endloop
  endfacet
  facet normal 0.933581 0.358368 0
    outer loop
      vertex 2.01873 4.05958 1
      vertex 1.79366 4.6459 0
      vertex 1.79366 4.6459 1
    endloop
  endfacet
  facet normal 0.933581 0.358368 0
    outer loop
      vertex 1.79366 4.6459 0
      vertex 2.01873 4.05958 1
      vertex 2.01873 4.05958 0
    endloop
  endfacet
  facet normal -0.891006 -0.453991 0
    outer loop
      vertex 12.9813 8.94042 0
      vertex 12.6962 9.5 1
      vertex 12.6962 9.5 0
    endloop
  endfacet
  facet normal -0.891006 -0.453991 0
    outer loop
      vertex 12.6962 9.5 1
      vertex 12.9813 8.94042 0
      vertex 12.9813 8.94042 1
    endloop
  endfacet
  facet normal -0.358368 -0.933581 0
    outer loop
      vertex 9.3541 12.2063 0
      vertex 9.94042 11.9813 1
      vertex 9.3541 12.2063 1
    endloop
  endfacet
  facet normal -0.358368 -0.933581 -0
    outer loop
      vertex 9.94042 11.9813 1
      vertex 9.3541 12.2063 0
      vertex 9.94042 11.9813 0
    endloop
  endfacet
  facet normal -0.453991 -0.891006 0
    outer loop
      vertex 9.94042 11.9813 0
      vertex 10.5 11.6962 1
      vertex 9.94042 11.9813 1
    endloop
  endfacet
  facet normal -0.453991 -0.891006 -0
    outer loop
      vertex 10.5 11.6962 1
      vertex 9.94042 11.9813 0
      vertex 10.5 11.6962 0
    endloop
  endfacet
  facet normal 0.933581 -0.358368 0
    outer loop
      vertex 1.79366 8.3541 1
      vertex 2.01873 8.94042 0
      vertex 2.01873 8.94042 1
    endloop
  endfacet
  facet normal 0.933581 -0.358368 0
    outer loop
      vertex 2.01873 8.94042 0
      vertex 1.79366 8.3541 1
      vertex 1.79366 8.3541 0
    endloop
  endfacet
  facet normal 0.891006 -0.453991 0
    outer loop
      vertex 2.01873 8.94042 1
      vertex 2.30385 9.5 0
      vertex 2.30385 9.5 1
    endloop
  endfacet
  facet normal 0.891006 -0.453991 0
    outer loop
      vertex 2.30385 9.5 0
      vertex 2.01873 8.94042 1
      vertex 2.01873 8.94042 0
    endloop
  endfacet
  facet normal 0.258819 -0.965926 0
    outer loop
      vertex 5.6459 12.2063 0
      vertex 6.25253 12.3689 1
      vertex 5.6459 12.2063 1
    endloop
  endfacet
  facet normal 0.258819 -0.965926 0
    outer loop
      vertex 6.25253 12.3689 1
      vertex 5.6459 12.2063 0
      vertex 6.25253 12.3689 0
    endloop
  endfacet
  facet normal -0.358368 0.933581 0
    outer loop
      vertex 9.94042 1.01873 0
      vertex 9.3541 0.79366 1
      vertex 9.94042 1.01873 1
    endloop
  endfacet
  facet normal -0.358368 0.933581 0
    outer loop
      vertex 9.3541 0.79366 1
      vertex 9.94042 1.01873 0
      vertex 9.3541 0.79366 0
    endloop
  endfacet
  facet normal -0.777145 0.629321 0
    outer loop
      vertex 11.9589 2.48522 0
      vertex 12.3541 2.97329 1
      vertex 12.3541 2.97329 0
    endloop
  endfacet
  facet normal -0.777145 0.629321 0
    outer loop
      vertex 12.3541 2.97329 1
      vertex 11.9589 2.48522 0
      vertex 11.9589 2.48522 1
    endloop
  endfacet
  facet normal -0.965926 0.258819 0
    outer loop
      vertex 13.2063 4.6459 0
      vertex 13.3689 5.25253 1
      vertex 13.3689 5.25253 0
    endloop
  endfacet
  facet normal -0.965926 0.258819 0
    outer loop
      vertex 13.3689 5.25253 1
      vertex 13.2063 4.6459 0
      vertex 13.2063 4.6459 1
    endloop
  endfacet
  facet normal 0.358368 0.933581 -0
    outer loop
      vertex 5.6459 0.79366 0
      vertex 5.05958 1.01873 1
      vertex 5.6459 0.79366 1
    endloop
  endfacet
  facet normal 0.358368 0.933581 0
    outer loop
      vertex 5.05958 1.01873 1
      vertex 5.6459 0.79366 0
      vertex 5.05958 1.01873 0
    endloop
  endfacet
  facet normal 0.258819 0.965926 -0
    outer loop
      vertex 6.25253 0.631114 0
      vertex 5.6459 0.79366 1
      vertex 6.25253 0.631114 1
    endloop
  endfacet
  facet normal 0.258819 0.965926 0
    outer loop
      vertex 5.6459 0.79366 1
      vertex 6.25253 0.631114 0
      vertex 5.6459 0.79366 0
    endloop
  endfacet
  facet normal 0.629321 0.777145 -0
    outer loop
      vertex 3.97329 1.6459 0
      vertex 3.48522 2.04113 1
      vertex 3.97329 1.6459 1
    endloop
  endfacet
  facet normal 0.629321 0.777145 0
    outer loop
      vertex 3.48522 2.04113 1
      vertex 3.97329 1.6459 0
      vertex 3.48522 2.04113 0
    endloop
  endfacet
  facet normal 0.707107 0.707107 0
    outer loop
      vertex 3.48522 2.04113 1
      vertex 3.04113 2.48522 0
      vertex 3.04113 2.48522 1
    endloop
  endfacet
  facet normal 0.707107 0.707107 0
    outer loop
      vertex 3.04113 2.48522 0
      vertex 3.48522 2.04113 1
      vertex 3.48522 2.04113 0
    endloop
  endfacet
  facet normal -0.965926 -0.258819 0
    outer loop
      vertex 13.3689 7.74747 0
      vertex 13.2063 8.3541 1
      vertex 13.2063 8.3541 0
    endloop
  endfacet
  facet normal -0.965926 -0.258819 0
    outer loop
      vertex 13.2063 8.3541 1
      vertex 13.3689 7.74747 0
      vertex 13.3689 7.74747 1
    endloop
  endfacet
  facet normal -0.987688 -0.156434 0
    outer loop
      vertex 13.4671 7.12717 0
      vertex 13.3689 7.74747 1
      vertex 13.3689 7.74747 0
    endloop
  endfacet
  facet normal -0.987688 -0.156434 0
    outer loop
      vertex 13.3689 7.74747 1
      vertex 13.4671 7.12717 0
      vertex 13.4671 7.12717 1
    endloop
  endfacet
  facet normal -0.933581 -0.358368 0
    outer loop
      vertex 13.2063 8.3541 0
      vertex 12.9813 8.94042 1
      vertex 12.9813 8.94042 0
    endloop
  endfacet
  facet normal -0.933581 -0.358368 0
    outer loop
      vertex 12.9813 8.94042 1
      vertex 13.2063 8.3541 0
      vertex 13.2063 8.3541 1
    endloop
  endfacet
  facet normal -0.777145 -0.629321 0
    outer loop
      vertex 12.3541 10.0267 0
      vertex 11.9589 10.5148 1
      vertex 11.9589 10.5148 0
    endloop
  endfacet
  facet normal -0.777145 -0.629321 0
    outer loop
      vertex 11.9589 10.5148 1
      vertex 12.3541 10.0267 0
      vertex 12.3541 10.0267 1
    endloop
  endfacet
  facet normal -0.707107 -0.707107 0
    outer loop
      vertex 11.9589 10.5148 0
      vertex 11.5148 10.9589 1
      vertex 11.5148 10.9589 0
    endloop
  endfacet
  facet normal -0.707107 -0.707107 0
    outer loop
      vertex 11.5148 10.9589 1
      vertex 11.9589 10.5148 0
      vertex 11.9589 10.5148 1
    endloop
  endfacet
  facet normal -0.83867 -0.544639 0
    outer loop
      vertex 12.6962 9.5 0
      vertex 12.3541 10.0267 1
      vertex 12.3541 10.0267 0
    endloop
  endfacet
  facet normal -0.83867 -0.544639 0
    outer loop
      vertex 12.3541 10.0267 1
      vertex 12.6962 9.5 0
      vertex 12.6962 9.5 1
    endloop
  endfacet
  facet normal -0.156434 -0.987688 0
    outer loop
      vertex 8.12717 12.4671 0
      vertex 8.74747 12.3689 1
      vertex 8.12717 12.4671 1
    endloop
  endfacet
  facet normal -0.156434 -0.987688 -0
    outer loop
      vertex 8.74747 12.3689 1
      vertex 8.12717 12.4671 0
      vertex 8.74747 12.3689 0
    endloop
  endfacet
  facet normal -0.0523371 -0.998629 0
    outer loop
      vertex 7.5 12.5 0
      vertex 8.12717 12.4671 1
      vertex 7.5 12.5 1
    endloop
  endfacet
  facet normal -0.0523371 -0.998629 -0
    outer loop
      vertex 8.12717 12.4671 1
      vertex 7.5 12.5 0
      vertex 8.12717 12.4671 0
    endloop
  endfacet
  facet normal -0.544639 -0.83867 0
    outer loop
      vertex 10.5 11.6962 0
      vertex 11.0267 11.3541 1
      vertex 10.5 11.6962 1
    endloop
  endfacet
  facet normal -0.544639 -0.83867 -0
    outer loop
      vertex 11.0267 11.3541 1
      vertex 10.5 11.6962 0
      vertex 11.0267 11.3541 0
    endloop
  endfacet
  facet normal 0.987688 -0.156434 0
    outer loop
      vertex 1.53287 7.12717 1
      vertex 1.63111 7.74747 0
      vertex 1.63111 7.74747 1
    endloop
  endfacet
  facet normal 0.987688 -0.156434 0
    outer loop
      vertex 1.63111 7.74747 0
      vertex 1.53287 7.12717 1
      vertex 1.53287 7.12717 0
    endloop
  endfacet
  facet normal 0 0 1
    outer loop
      vertex 13.4671 7.12717 0
      vertex 13.4671 5.87283 0
      vertex 13.5 6.5 0
    endloop
  endfacet
  facet normal 0 0 1
    outer loop
      vertex 13.3689 7.74747 0
      vertex 13.4671 5.87283 0
      vertex 13.4671 7.12717 0
    endloop
  endfacet
  facet normal 0 0 1
    outer loop
      vertex 13.3689 7.74747 0
      vertex 13.3689 5.25253 0
      vertex 13.4671 5.87283 0
    endloop
  endfacet
  facet normal 0 0 1
    outer loop
      vertex 13.2063 8.3541 0
      vertex 13.3689 5.25253 0
      vertex 13.3689 7.74747 0
    endloop
  endfacet
  facet normal 0 0 1
    outer loop
      vertex 13.2063 8.3541 0
      vertex 13.2063 4.6459 0
      vertex 13.3689 5.25253 0
    endloop
  endfacet
  facet normal 0 0 1
    outer loop
      vertex 12.9813 8.94042 0
      vertex 13.2063 4.6459 0
      vertex 13.2063 8.3541 0
    endloop
  endfacet
  facet normal 0 0 1
    outer loop
      vertex 12.9813 8.94042 0
      vertex 12.9813 4.05958 0
      vertex 13.2063 4.6459 0
    endloop
  endfacet
  facet normal 0 0 1
    outer loop
      vertex 12.6962 9.5 0
      vertex 12.9813 4.05958 0
      vertex 12.9813 8.94042 0
    endloop
  endfacet
  facet normal 0 0 1
    outer loop
      vertex 12.6962 9.5 0
      vertex 12.6962 3.5 0
      vertex 12.9813 4.05958 0
    endloop
  endfacet
  facet normal 0 0 1
    outer loop
      vertex 12.3541 10.0267 0
      vertex 12.6962 3.5 0
      vertex 12.6962 9.5 0
    endloop
  endfacet
  facet normal 0 0 1
    outer loop
      vertex 12.3541 10.0267 0
      vertex 12.3541 2.97329 0
      vertex 12.6962 3.5 0
    endloop
  endfacet
  facet normal 0 0 1
    outer loop
      vertex 11.9589 10.5148 0
      vertex 12.3541 2.97329 0
      vertex 12.3541 10.0267 0
    endloop
  endfacet
  facet normal 0 0 1
    outer loop
      vertex 11.9589 10.5148 0
      vertex 11.9589 2.48522 0
      vertex 12.3541 2.97329 0
    endloop
  endfacet
  facet normal 0 0 1
    outer loop
      vertex 11.5148 10.9589 0
      vertex 11.9589 2.48522 0
      vertex 11.9589 10.5148 0
    endloop
  endfacet
  facet normal 0 0 1
    outer loop
      vertex 11.5148 10.9589 0
      vertex 11.5148 2.04113 0
      vertex 11.9589 2.48522 0
    endloop
  endfacet
  facet normal 0 0 1
    outer loop
      vertex 11.0267 11.3541 0
      vertex 11.5148 2.04113 0
      vertex 11.5148 10.9589 0
    endloop
  endfacet
  facet normal 0 0 1
    outer loop
      vertex 11.0267 11.3541 0
      vertex 11.0267 1.6459 0
      vertex 11.5148 2.04113 0
    endloop
  endfacet
  facet normal 0 0 1
    outer loop
      vertex 10.5 11.6962 0
      vertex 11.0267 1.6459 0
      vertex 11.0267 11.3541 0
    endloop
  endfacet
  facet normal 0 0 1
    outer loop
      vertex 10.5 11.6962 0
      vertex 10.5 1.30385 0
      vertex 11.0267 1.6459 0
    endloop
  endfacet
  facet normal 0 0 1
    outer loop
      vertex 9.94042 11.9813 0
      vertex 10.5 1.30385 0
      vertex 10.5 11.6962 0
    endloop
  endfacet
  facet normal 0 0 1
    outer loop
      vertex 9.94042 11.9813 0
      vertex 9.94042 1.01873 0
      vertex 10.5 1.30385 0
    endloop
  endfacet
  facet normal 0 0 1
    outer loop
      vertex 9.3541 12.2063 0
      vertex 9.94042 1.01873 0
      vertex 9.94042 11.9813 0
    endloop
  endfacet
  facet normal 0 0 1
    outer loop
      vertex 9.3541 12.2063 0
      vertex 9.3541 0.79366 0
      vertex 9.94042 1.01873 0
    endloop
  endfacet
  facet normal 0 0 1
    outer loop
      vertex 8.74747 12.3689 0
      vertex 9.3541 0.79366 0
      vertex 9.3541 12.2063 0
    endloop
  endfacet
  facet normal 0 0 1
    outer loop
      vertex 8.74747 12.3689 0
      vertex 8.74747 0.631114 0
      vertex 9.3541 0.79366 0
    endloop
  endfacet
  facet normal 0 0 1
    outer loop
      vertex 8.12717 12.4671 0
      vertex 8.74747 0.631114 0
      vertex 8.74747 12.3689 0
    endloop
  endfacet
  facet normal 0 0 1
    outer loop
      vertex 8.12717 12.4671 0
      vertex 8.12717 0.532868 0
      vertex 8.74747 0.631114 0
    endloop
  endfacet
  facet normal 0 0 1
    outer loop
      vertex 7.5 12.5 0
      vertex 8.12717 0.532868 0
      vertex 8.12717 12.4671 0
    endloop
  endfacet
  facet normal 0 0 1
    outer loop
      vertex 7.5 12.5 0
      vertex 7.5 0.5 0
      vertex 8.12717 0.532868 0
    endloop
  endfacet
  facet normal -0 0 1
    outer loop
      vertex 6.87283 12.4671 0
      vertex 7.5 0.5 0
      vertex 7.5 12.5 0
    endloop
  endfacet
  facet normal 0 0 1
    outer loop
      vertex 6.87283 12.4671 0
      vertex 6.87283 0.532868 0
      vertex 7.5 0.5 0
    endloop
  endfacet
  facet normal -0 0 1
    outer loop
      vertex 6.25253 12.3689 0
      vertex 6.87283 0.532868 0
      vertex 6.87283 12.4671 0
    endloop
  endfacet
  facet normal 0 0 1
    outer loop
      vertex 6.25253 12.3689 0
      vertex 6.25253 0.631114 0
      vertex 6.87283 0.532868 0
    endloop
  endfacet
  facet normal -0 0 1
    outer loop
      vertex 5.6459 12.2063 0
      vertex 6.25253 0.631114 0
      vertex 6.25253 12.3689 0
    endloop
  endfacet
  facet normal 0 0 1
    outer loop
      vertex 5.6459 12.2063 0
      vertex 5.6459 0.79366 0
      vertex 6.25253 0.631114 0
    endloop
  endfacet
  facet normal -0 0 1
    outer loop
      vertex 5.05958 11.9813 0
      vertex 5.6459 0.79366 0
      vertex 5.6459 12.2063 0
    endloop
  endfacet
  facet normal 0 0 1
    outer loop
      vertex 5.05958 11.9813 0
      vertex 5.05958 1.01873 0
      vertex 5.6459 0.79366 0
    endloop
  endfacet
  facet normal -0 0 1
    outer loop
      vertex 4.5 11.6962 0
      vertex 5.05958 1.01873 0
      vertex 5.05958 11.9813 0
    endloop
  endfacet
  facet normal 0 0 1
    outer loop
      vertex 4.5 11.6962 0
      vertex 4.5 1.30385 0
      vertex 5.05958 1.01873 0
    endloop
  endfacet
  facet normal -0 0 1
    outer loop
      vertex 3.97329 11.3541 0
      vertex 4.5 1.30385 0
      vertex 4.5 11.6962 0
    endloop
  endfacet
  facet normal 0 0 1
    outer loop
      vertex 3.97329 11.3541 0
      vertex 3.97329 1.6459 0
      vertex 4.5 1.30385 0
    endloop
  endfacet
  facet normal -0 0 1
    outer loop
      vertex 3.48522 10.9589 0
      vertex 3.97329 1.6459 0
      vertex 3.97329 11.3541 0
    endloop
  endfacet
  facet normal 0 0 1
    outer loop
      vertex 3.48522 10.9589 0
      vertex 3.48522 2.04113 0
      vertex 3.97329 1.6459 0
    endloop
  endfacet
  facet normal -0 0 1
    outer loop
      vertex 3.04113 10.5148 0
      vertex 3.48522 2.04113 0
      vertex 3.48522 10.9589 0
    endloop
  endfacet
  facet normal 0 0 1
    outer loop
      vertex 3.04113 10.5148 0
      vertex 3.04113 2.48522 0
      vertex 3.48522 2.04113 0
    endloop
  endfacet
  facet normal -0 0 1
    outer loop
      vertex 2.6459 10.0267 0
      vertex 3.04113 2.48522 0
      vertex 3.04113 10.5148 0
    endloop
  endfacet
  facet normal 0 0 1
    outer loop
      vertex 2.6459 10.0267 0
      vertex 2.6459 2.97329 0
      vertex 3.04113 2.48522 0
    endloop
  endfacet
  facet normal -0 0 1
    outer loop
      vertex 2.30385 9.5 0
      vertex 2.6459 2.97329 0
      vertex 2.6459 10.0267 0
    endloop
  endfacet
  facet normal 0 0 1
    outer loop
      vertex 2.30385 9.5 0
      vertex 2.30385 3.5 0
      vertex 2.6459 2.97329 0
    endloop
  endfacet
  facet normal -0 0 1
    outer loop
      vertex 2.01873 8.94042 0
      vertex 2.30385 3.5 0
      vertex 2.30385 9.5 0
    endloop
  endfacet
  facet normal 0 0 1
    outer loop
      vertex 2.01873 8.94042 0
      vertex 2.01873 4.05958 0
      vertex 2.30385 3.5 0
    endloop
  endfacet
  facet normal -0 0 1
    outer loop
      vertex 1.79366 8.3541 0
      vertex 2.01873 4.05958 0
      vertex 2.01873 8.94042 0
    endloop
  endfacet
  facet normal 0 0 1
    outer loop
      vertex 1.79366 8.3541 0
      vertex 1.79366 4.6459 0
      vertex 2.01873 4.05958 0
    endloop
  endfacet
  facet normal -0 0 1
    outer loop
      vertex 1.63111 7.74747 0
      vertex 1.79366 4.6459 0
      vertex 1.79366 8.3541 0
    endloop
  endfacet
  facet normal 0 0 1
    outer loop
      vertex 1.63111 7.74747 0
      vertex 1.63111 5.25253 0
      vertex 1.79366 4.6459 0
    endloop
  endfacet
  facet normal -0 0 1
    outer loop
      vertex 1.53287 7.12717 0
      vertex 1.63111 5.25253 0
      vertex 1.63111 7.74747 0
    endloop
  endfacet
  facet normal 0 0 1
    outer loop
      vertex 1.53287 7.12717 0
      vertex 1.53287 5.87283 0
      vertex 1.63111 5.25253 0
    endloop
  endfacet
  facet normal 0 -0 1
    outer loop
      vertex 1.53287 5.87283 0
      vertex 1.53287 7.12717 0
      vertex 1.5 6.5 0
    endloop
  endfacet
  facet normal 0.99863 -0.0523356 0
    outer loop
      vertex 1.5 6.5 1
      vertex 1.53287 7.12717 0
      vertex 1.53287 7.12717 1
    endloop
  endfacet
  facet normal 0.99863 -0.0523356 0
    outer loop
      vertex 1.53287 7.12717 0
      vertex 1.5 6.5 1
      vertex 1.5 6.5 0
    endloop
  endfacet
  facet normal 0.629321 -0.777145 0
    outer loop
      vertex 3.48522 10.9589 0
      vertex 3.97329 11.3541 1
      vertex 3.48522 10.9589 1
    endloop
  endfacet
  facet normal 0.629321 -0.777145 0
    outer loop
      vertex 3.97329 11.3541 1
      vertex 3.48522 10.9589 0
      vertex 3.97329 11.3541 0
    endloop
  endfacet
  facet normal 0.707107 -0.707107 0
    outer loop
      vertex 3.04113 10.5148 1
      vertex 3.48522 10.9589 0
      vertex 3.48522 10.9589 1
    endloop
  endfacet
  facet normal 0.707107 -0.707107 0
    outer loop
      vertex 3.48522 10.9589 0
      vertex 3.04113 10.5148 1
      vertex 3.04113 10.5148 0
    endloop
  endfacet
  facet normal 0.156434 -0.987688 0
    outer loop
      vertex 6.25253 12.3689 0
      vertex 6.87283 12.4671 1
      vertex 6.25253 12.3689 1
    endloop
  endfacet
  facet normal 0.156434 -0.987688 0
    outer loop
      vertex 6.87283 12.4671 1
      vertex 6.25253 12.3689 0
      vertex 6.87283 12.4671 0
    endloop
  endfacet
  facet normal -0.156434 0.987688 0
    outer loop
      vertex 8.74747 0.631114 0
      vertex 8.12717 0.532868 1
      vertex 8.74747 0.631114 1
    endloop
  endfacet
  facet normal -0.156434 0.987688 0
    outer loop
      vertex 8.12717 0.532868 1
      vertex 8.74747 0.631114 0
      vertex 8.12717 0.532868 0
    endloop
  endfacet
  facet normal -0.544639 0.83867 0
    outer loop
      vertex 11.0267 1.6459 0
      vertex 10.5 1.30385 1
      vertex 11.0267 1.6459 1
    endloop
  endfacet
  facet normal -0.544639 0.83867 0
    outer loop
      vertex 10.5 1.30385 1
      vertex 11.0267 1.6459 0
      vertex 10.5 1.30385 0
    endloop
  endfacet
  facet normal -0.707107 0.707107 0
    outer loop
      vertex 11.5148 2.04113 0
      vertex 11.9589 2.48522 1
      vertex 11.9589 2.48522 0
    endloop
  endfacet
  facet normal -0.707107 0.707107 0
    outer loop
      vertex 11.9589 2.48522 1
      vertex 11.5148 2.04113 0
      vertex 11.5148 2.04113 1
    endloop
  endfacet
  facet normal -0.933581 0.358368 0
    outer loop
      vertex 12.9813 4.05958 0
      vertex 13.2063 4.6459 1
      vertex 13.2063 4.6459 0
    endloop
  endfacet
  facet normal -0.933581 0.358368 0
    outer loop
      vertex 13.2063 4.6459 1
      vertex 12.9813 4.05958 0
      vertex 12.9813 4.05958 1
    endloop
  endfacet
  facet normal -0.838671 0.544638 0
    outer loop
      vertex 12.3541 2.97329 0
      vertex 12.6962 3.5 1
      vertex 12.6962 3.5 0
    endloop
  endfacet
  facet normal -0.838671 0.544638 0
    outer loop
      vertex 12.6962 3.5 1
      vertex 12.3541 2.97329 0
      vertex 12.3541 2.97329 1
    endloop
  endfacet
  facet normal -0.891006 0.453991 0
    outer loop
      vertex 12.6962 3.5 0
      vertex 12.9813 4.05958 1
      vertex 12.9813 4.05958 0
    endloop
  endfacet
  facet normal -0.891006 0.453991 0
    outer loop
      vertex 12.9813 4.05958 1
      vertex 12.6962 3.5 0
      vertex 12.6962 3.5 1
    endloop
  endfacet
  facet normal 0.544639 0.83867 -0
    outer loop
      vertex 4.5 1.30385 0
      vertex 3.97329 1.6459 1
      vertex 4.5 1.30385 1
    endloop
  endfacet
  facet normal 0.544639 0.83867 0
    outer loop
      vertex 3.97329 1.6459 1
      vertex 4.5 1.30385 0
      vertex 3.97329 1.6459 0
    endloop
  endfacet
  facet normal 0.453991 0.891006 -0
    outer loop
      vertex 5.05958 1.01873 0
      vertex 4.5 1.30385 1
      vertex 5.05958 1.01873 1
    endloop
  endfacet
  facet normal 0.453991 0.891006 0
    outer loop
      vertex 4.5 1.30385 1
      vertex 5.05958 1.01873 0
      vertex 4.5 1.30385 0
    endloop
  endfacet
  facet normal 0.0523356 0.99863 -0
    outer loop
      vertex 7.5 0.5 0
      vertex 6.87283 0.532868 1
      vertex 7.5 0.5 1
    endloop
  endfacet
  facet normal 0.0523356 0.99863 0
    outer loop
      vertex 6.87283 0.532868 1
      vertex 7.5 0.5 0
      vertex 6.87283 0.532868 0
    endloop
  endfacet
  facet normal 0.838671 0.544638 0
    outer loop
      vertex 2.6459 2.97329 1
      vertex 2.30385 3.5 0
      vertex 2.30385 3.5 1
    endloop
  endfacet
  facet normal 0.838671 0.544638 0
    outer loop
      vertex 2.30385 3.5 0
      vertex 2.6459 2.97329 1
      vertex 2.6459 2.97329 0
    endloop
  endfacet
  facet normal 0.987688 0.156434 0
    outer loop
      vertex 1.63111 5.25253 1
      vertex 1.53287 5.87283 0
      vertex 1.53287 5.87283 1
    endloop
  endfacet
  facet normal 0.987688 0.156434 0
    outer loop
      vertex 1.53287 5.87283 0
      vertex 1.63111 5.25253 1
      vertex 1.63111 5.25253 0
    endloop
  endfacet
  facet normal -0.258819 -0.965926 0
    outer loop
      vertex 8.74747 12.3689 0
      vertex 9.3541 12.2063 1
      vertex 8.74747 12.3689 1
    endloop
  endfacet
  facet normal -0.258819 -0.965926 -0
    outer loop
      vertex 9.3541 12.2063 1
      vertex 8.74747 12.3689 0
      vertex 9.3541 12.2063 0
    endloop
  endfacet
  facet normal 0.83867 -0.544639 0
    outer loop
      vertex 2.30385 9.5 1
      vertex 2.6459 10.0267 0
      vertex 2.6459 10.0267 1
    endloop
  endfacet
  facet normal 0.83867 -0.544639 0
    outer loop
      vertex 2.6459 10.0267 0
      vertex 2.30385 9.5 1
      vertex 2.30385 9.5 0
    endloop
  endfacet
  facet normal 0.965926 -0.258819 0
    outer loop
      vertex 1.63111 7.74747 1
      vertex 1.79366 8.3541 0
      vertex 1.79366 8.3541 1
    endloop
  endfacet
  facet normal 0.965926 -0.258819 0
    outer loop
      vertex 1.79366 8.3541 0
      vertex 1.63111 7.74747 1
      vertex 1.63111 7.74747 0
    endloop
  endfacet
  facet normal 0.99863 0.0523355 0
    outer loop
      vertex 1.53287 5.87283 1
      vertex 1.5 6.5 0
      vertex 1.5 6.5 1
    endloop
  endfacet
  facet normal 0.99863 0.0523355 0
    outer loop
      vertex 1.5 6.5 0
      vertex 1.53287 5.87283 1
      vertex 1.53287 5.87283 0
    endloop
  endfacet
  facet normal 0.544638 -0.838671 0
    outer loop
      vertex 3.97329 11.3541 0
      vertex 4.5 11.6962 1
      vertex 3.97329 11.3541 1
    endloop
  endfacet
  facet normal 0.544638 -0.838671 0
    outer loop
      vertex 4.5 11.6962 1
      vertex 3.97329 11.3541 0
      vertex 4.5 11.6962 0
    endloop
  endfacet
  facet normal 0.358368 -0.933581 0
    outer loop
      vertex 5.05958 11.9813 0
      vertex 5.6459 12.2063 1
      vertex 5.05958 11.9813 1
    endloop
  endfacet
  facet normal 0.358368 -0.933581 0
    outer loop
      vertex 5.6459 12.2063 1
      vertex 5.05958 11.9813 0
      vertex 5.6459 12.2063 0
    endloop
  endfacet
  facet normal -0.258819 0.965926 0
    outer loop
      vertex 9.3541 0.79366 0
      vertex 8.74747 0.631114 1
      vertex 9.3541 0.79366 1
    endloop
  endfacet
  facet normal -0.258819 0.965926 0
    outer loop
      vertex 8.74747 0.631114 1
      vertex 9.3541 0.79366 0
      vertex 8.74747 0.631114 0
    endloop
  endfacet
  facet normal -0.453991 0.891006 0
    outer loop
      vertex 10.5 1.30385 0
      vertex 9.94042 1.01873 1
      vertex 10.5 1.30385 1
    endloop
  endfacet
  facet normal -0.453991 0.891006 0
    outer loop
      vertex 9.94042 1.01873 1
      vertex 10.5 1.30385 0
      vertex 9.94042 1.01873 0
    endloop
  endfacet
  facet normal -0.629321 0.777145 0
    outer loop
      vertex 11.5148 2.04113 0
      vertex 11.0267 1.6459 1
      vertex 11.5148 2.04113 1
    endloop
  endfacet
  facet normal -0.629321 0.777145 0
    outer loop
      vertex 11.0267 1.6459 1
      vertex 11.5148 2.04113 0
      vertex 11.0267 1.6459 0
    endloop
  endfacet
  facet normal -0.987688 0.156434 0
    outer loop
      vertex 13.3689 5.25253 0
      vertex 13.4671 5.87283 1
      vertex 13.4671 5.87283 0
    endloop
  endfacet
  facet normal -0.987688 0.156434 0
    outer loop
      vertex 13.4671 5.87283 1
      vertex 13.3689 5.25253 0
      vertex 13.3689 5.25253 1
    endloop
  endfacet
  facet normal -0.998629 0.052337 0
    outer loop
      vertex 13.4671 5.87283 0
      vertex 13.5 6.5 1
      vertex 13.5 6.5 0
    endloop
  endfacet
  facet normal -0.998629 0.052337 0
    outer loop
      vertex 13.5 6.5 1
      vertex 13.4671 5.87283 0
      vertex 13.4671 5.87283 1
    endloop
  endfacet
  facet normal 0.156434 0.987688 -0
    outer loop
      vertex 6.87283 0.532868 0
      vertex 6.25253 0.631114 1
      vertex 6.87283 0.532868 1
    endloop
  endfacet
  facet normal 0.156434 0.987688 0
    outer loop
      vertex 6.25253 0.631114 1
      vertex 6.87283 0.532868 0
      vertex 6.25253 0.631114 0
    endloop
  endfacet
  facet normal 0.777145 0.629321 0
    outer loop
      vertex 3.04113 2.48522 1
      vertex 2.6459 2.97329 0
      vertex 2.6459 2.97329 1
    endloop
  endfacet
  facet normal 0.777145 0.629321 0
    outer loop
      vertex 2.6459 2.97329 0
      vertex 3.04113 2.48522 1
      vertex 3.04113 2.48522 0
    endloop
  endfacet
  facet normal 0.891006 0.453991 0
    outer loop
      vertex 2.30385 3.5 1
      vertex 2.01873 4.05958 0
      vertex 2.01873 4.05958 1
    endloop
  endfacet
  facet normal 0.891006 0.453991 0
    outer loop
      vertex 2.01873 4.05958 0
      vertex 2.30385 3.5 1
      vertex 2.30385 3.5 0
    endloop
  endfacet
  facet normal 0.965926 0.258819 0
    outer loop
      vertex 1.79366 4.6459 1
      vertex 1.63111 5.25253 0
      vertex 1.63111 5.25253 1
    endloop
  endfacet
  facet normal 0.965926 0.258819 0
    outer loop
      vertex 1.63111 5.25253 0
      vertex 1.79366 4.6459 1
      vertex 1.79366 4.6459 0
    endloop
  endfacet
  facet normal 0.245571 -0.315838 -0.916483
    outer loop
      vertex 4.79715 0 -0.284081
      vertex 4.36735 1.74324 -1
      vertex 4.94932 2.19574 -1
    endloop
  endfacet
  facet normal 0.245571 -0.315838 -0.916483
    outer loop
      vertex 4.36735 1.74324 -1
      vertex 4.79715 0 -0.284081
      vertex 3.48278 0 -0.636265
    endloop
  endfacet
  facet normal 0 1 0
    outer loop
      vertex 8.85887 0 -0.0712147
      vertex 6.14113 0 -0.0712147
      vertex 7.5 0 0
    endloop
  endfacet
  facet normal 0 1 0
    outer loop
      vertex 10.2029 0 -0.284081
      vertex 6.14113 0 -0.0712147
      vertex 8.85887 0 -0.0712147
    endloop
  endfacet
  facet normal 0 1 0
    outer loop
      vertex 10.2029 0 -0.284081
      vertex 4.79715 0 -0.284081
      vertex 6.14113 0 -0.0712147
    endloop
  endfacet
  facet normal 0 1 0
    outer loop
      vertex 12.4648 0 -1
      vertex 10.2029 0 -0.284081
      vertex 11.5172 0 -0.636265
    endloop
  endfacet
  facet normal 0 1 0
    outer loop
      vertex 10.2029 0 -0.284081
      vertex 12.4648 0 -1
      vertex 4.79715 0 -0.284081
    endloop
  endfacet
  facet normal 0 1 0
    outer loop
      vertex 2.53522 0 -1
      vertex 4.79715 0 -0.284081
      vertex 12.4648 0 -1
    endloop
  endfacet
  facet normal 0 1 0
    outer loop
      vertex 4.79715 0 -0.284081
      vertex 2.53522 0 -1
      vertex 3.48278 0 -0.636265
    endloop
  endfacet
  facet normal 0.0496569 -0.315838 -0.947513
    outer loop
      vertex 6.23875 2.8017 -1
      vertex 7.5 3 -1
      vertex 6.14113 0 -0.0712147
    endloop
  endfacet
  facet normal -0.245571 -0.315838 -0.916483
    outer loop
      vertex 11.399 1.14736 -1
      vertex 11.5172 0 -0.636265
      vertex 10.6327 1.74324 -1
    endloop
  endfacet
  facet normal -0.148427 -0.315838 -0.937132
    outer loop
      vertex 8.85887 0 -0.0712147
      vertex 10.0507 2.19574 -1
      vertex 10.2029 0 -0.284081
    endloop
  endfacet
  facet normal -0.148427 -0.315838 -0.937132
    outer loop
      vertex 10.0507 2.19574 -1
      vertex 8.85887 0 -0.0712147
      vertex 9.74481 2.33948 -1
    endloop
  endfacet
  facet normal -0.0496569 -0.315838 -0.947513
    outer loop
      vertex 8.76125 2.8017 -1
      vertex 8.85887 0 -0.0712147
      vertex 7.5 3 -1
    endloop
  endfacet
  facet normal -0.340024 -0.315838 -0.885793
    outer loop
      vertex 11.7414 0.778771 -1
      vertex 11.5172 0 -0.636265
      vertex 11.399 1.14736 -1
    endloop
  endfacet
  facet normal 0.245571 -0.315838 -0.916483
    outer loop
      vertex 3.60096 1.14736 -1
      vertex 4.36735 1.74324 -1
      vertex 3.48278 0 -0.636265
    endloop
  endfacet
  facet normal 0.148427 -0.315838 -0.937132
    outer loop
      vertex 6.23875 2.8017 -1
      vertex 6.14113 0 -0.0712147
      vertex 5.25519 2.33948 -1
    endloop
  endfacet
  facet normal 0.148427 -0.315838 -0.937132
    outer loop
      vertex 6.14113 0 -0.0712147
      vertex 4.94932 2.19574 -1
      vertex 5.25519 2.33948 -1
    endloop
  endfacet
  facet normal 0.148427 -0.315838 -0.937132
    outer loop
      vertex 4.94932 2.19574 -1
      vertex 6.14113 0 -0.0712147
      vertex 4.79715 0 -0.284081
    endloop
  endfacet
  facet normal -0.245571 -0.315838 -0.916483
    outer loop
      vertex 10.2029 0 -0.284081
      vertex 10.6327 1.74324 -1
      vertex 11.5172 0 -0.636265
    endloop
  endfacet
  facet normal -0.245571 -0.315838 -0.916483
    outer loop
      vertex 10.6327 1.74324 -1
      vertex 10.2029 0 -0.284081
      vertex 10.0507 2.19574 -1
    endloop
  endfacet
  facet normal -0.148427 -0.315838 -0.937132
    outer loop
      vertex 9.74481 2.33948 -1
      vertex 8.85887 0 -0.0712147
      vertex 8.76125 2.8017 -1
    endloop
  endfacet
  facet normal 0.340024 -0.315838 -0.885794
    outer loop
      vertex 3.60096 1.14736 -1
      vertex 3.48278 0 -0.636265
      vertex 3.25859 0.778771 -1
    endloop
  endfacet
  facet normal 0.340025 -0.315838 -0.885793
    outer loop
      vertex 3.25859 0.778771 -1
      vertex 3.48278 0 -0.636265
      vertex 2.53522 0 -1
    endloop
  endfacet
  facet normal 0.0496566 -0.315838 -0.947513
    outer loop
      vertex 7.5 3 -1
      vertex 7.5 0 0
      vertex 6.14113 0 -0.0712147
    endloop
  endfacet
  facet normal -0.340025 -0.315838 -0.885793
    outer loop
      vertex 11.7414 0.778771 -1
      vertex 12.4648 0 -1
      vertex 11.5172 0 -0.636265
    endloop
  endfacet
  facet normal -0.0496566 -0.315838 -0.947513
    outer loop
      vertex 7.5 3 -1
      vertex 8.85887 0 -0.0712147
      vertex 7.5 0 0
    endloop
  endfacet
endsolid OpenSCAD_Model
