solid ascii
  facet normal 9.961947e-001 0.000000e+000 8.715574e-002
    outer loop
      vertex   -1.660137e+001 2.279168e+001 8.265895e+001
      vertex   -1.660137e+001 -2.720832e+001 8.265895e+001
      vertex   -1.631419e+001 2.279168e+001 7.937644e+001
    endloop
  endfacet
  facet normal 9.659258e-001 0.000000e+000 2.588190e-001
    outer loop
      vertex   -1.660137e+001 2.279168e+001 8.265895e+001
      vertex   -1.745419e+001 -2.720832e+001 8.584173e+001
      vertex   -1.660137e+001 -2.720832e+001 8.265895e+001
    endloop
  endfacet
  facet normal 9.659258e-001 0.000000e+000 2.588190e-001
    outer loop
      vertex   -1.660137e+001 2.279168e+001 8.265895e+001
      vertex   -1.745419e+001 2.279168e+001 8.584173e+001
      vertex   -1.745419e+001 -2.720832e+001 8.584173e+001
    endloop
  endfacet
  facet normal 9.063078e-001 -0.000000e+000 4.226183e-001
    outer loop
      vertex   -1.745419e+001 -2.720832e+001 8.584173e+001
      vertex   -1.745419e+001 2.279168e+001 8.584173e+001
      vertex   -1.884674e+001 -2.720832e+001 8.882806e+001
    endloop
  endfacet
  facet normal 9.063078e-001 0.000000e+000 4.226183e-001
    outer loop
      vertex   -1.884674e+001 -2.720832e+001 8.882806e+001
      vertex   -1.745419e+001 2.279168e+001 8.584173e+001
      vertex   -1.884674e+001 2.279168e+001 8.882806e+001
    endloop
  endfacet
  facet normal 8.191520e-001 0.000000e+000 5.735764e-001
    outer loop
      vertex   -2.073671e+001 -2.720832e+001 9.152721e+001
      vertex   -1.884674e+001 2.279168e+001 8.882806e+001
      vertex   -2.073671e+001 2.279168e+001 9.152721e+001
    endloop
  endfacet
  facet normal 7.071068e-001 0.000000e+000 7.071068e-001
    outer loop
      vertex   -2.306666e+001 -2.720832e+001 9.385717e+001
      vertex   -2.073671e+001 2.279168e+001 9.152721e+001
      vertex   -2.306666e+001 2.279168e+001 9.385717e+001
    endloop
  endfacet
  facet normal 5.735764e-001 0.000000e+000 8.191520e-001
    outer loop
      vertex   -2.576581e+001 -2.720832e+001 9.574713e+001
      vertex   -2.306666e+001 2.279168e+001 9.385717e+001
      vertex   -2.576581e+001 2.279168e+001 9.574713e+001
    endloop
  endfacet
  facet normal 4.226183e-001 0.000000e+000 9.063078e-001
    outer loop
      vertex   -2.875214e+001 -2.720832e+001 9.713968e+001
      vertex   -2.576581e+001 2.279168e+001 9.574713e+001
      vertex   -2.875214e+001 2.279168e+001 9.713968e+001
    endloop
  endfacet
  facet normal 2.588190e-001 0.000000e+000 9.659258e-001
    outer loop
      vertex   -3.193492e+001 -2.720832e+001 9.799251e+001
      vertex   -2.875214e+001 2.279168e+001 9.713968e+001
      vertex   -3.193492e+001 2.279168e+001 9.799251e+001
    endloop
  endfacet
  facet normal 8.715574e-002 0.000000e+000 9.961947e-001
    outer loop
      vertex   -3.521744e+001 -2.720832e+001 9.827969e+001
      vertex   -3.193492e+001 2.279168e+001 9.799251e+001
      vertex   -3.521744e+001 2.279168e+001 9.827969e+001
    endloop
  endfacet
  facet normal -8.715574e-002 0.000000e+000 9.961947e-001
    outer loop
      vertex   -3.849995e+001 -2.720832e+001 9.799251e+001
      vertex   -3.521744e+001 2.279168e+001 9.827969e+001
      vertex   -3.849995e+001 2.279168e+001 9.799251e+001
    endloop
  endfacet
  facet normal -2.588190e-001 0.000000e+000 9.659258e-001
    outer loop
      vertex   -4.168273e+001 -2.720832e+001 9.713968e+001
      vertex   -3.849995e+001 2.279168e+001 9.799251e+001
      vertex   -4.168273e+001 2.279168e+001 9.713968e+001
    endloop
  endfacet
  facet normal -4.226183e-001 0.000000e+000 9.063078e-001
    outer loop
      vertex   -4.466906e+001 -2.720832e+001 9.574713e+001
      vertex   -4.168273e+001 2.279168e+001 9.713968e+001
      vertex   -4.466906e+001 2.279168e+001 9.574713e+001
    endloop
  endfacet
  facet normal -5.735764e-001 0.000000e+000 8.191520e-001
    outer loop
      vertex   -4.736821e+001 -2.720832e+001 9.385717e+001
      vertex   -4.466906e+001 2.279168e+001 9.574713e+001
      vertex   -4.736821e+001 2.279168e+001 9.385717e+001
    endloop
  endfacet
  facet normal -7.071068e-001 0.000000e+000 7.071068e-001
    outer loop
      vertex   -4.969816e+001 -2.720832e+001 9.152721e+001
      vertex   -4.736821e+001 2.279168e+001 9.385717e+001
      vertex   -4.969816e+001 2.279168e+001 9.152721e+001
    endloop
  endfacet
  facet normal -8.191520e-001 0.000000e+000 5.735764e-001
    outer loop
      vertex   -5.158813e+001 -2.720832e+001 8.882806e+001
      vertex   -4.969816e+001 2.279168e+001 9.152721e+001
      vertex   -5.158813e+001 2.279168e+001 8.882806e+001
    endloop
  endfacet
  facet normal -9.063078e-001 0.000000e+000 4.226183e-001
    outer loop
      vertex   -5.298068e+001 -2.720832e+001 8.584173e+001
      vertex   -5.158813e+001 2.279168e+001 8.882806e+001
      vertex   -5.298068e+001 2.279168e+001 8.584173e+001
    endloop
  endfacet
  facet normal -9.659258e-001 0.000000e+000 2.588190e-001
    outer loop
      vertex   -5.383350e+001 -2.720832e+001 8.265895e+001
      vertex   -5.298068e+001 2.279168e+001 8.584173e+001
      vertex   -5.383350e+001 2.279168e+001 8.265895e+001
    endloop
  endfacet
  facet normal -9.961947e-001 0.000000e+000 8.715574e-002
    outer loop
      vertex   -5.412068e+001 -2.720832e+001 7.937644e+001
      vertex   -5.383350e+001 2.279168e+001 8.265895e+001
      vertex   -5.412068e+001 2.279168e+001 7.937644e+001
    endloop
  endfacet
  facet normal -9.961947e-001 0.000000e+000 -8.715574e-002
    outer loop
      vertex   -5.383350e+001 -2.720832e+001 7.609393e+001
      vertex   -5.412068e+001 2.279168e+001 7.937644e+001
      vertex   -5.383350e+001 2.279168e+001 7.609393e+001
    endloop
  endfacet
  facet normal -9.659258e-001 0.000000e+000 -2.588190e-001
    outer loop
      vertex   -5.298068e+001 -2.720832e+001 7.291115e+001
      vertex   -5.383350e+001 2.279168e+001 7.609393e+001
      vertex   -5.298068e+001 2.279168e+001 7.291115e+001
    endloop
  endfacet
  facet normal -9.063078e-001 0.000000e+000 -4.226183e-001
    outer loop
      vertex   -5.158813e+001 -2.720832e+001 6.992482e+001
      vertex   -5.298068e+001 2.279168e+001 7.291115e+001
      vertex   -5.158813e+001 2.279168e+001 6.992482e+001
    endloop
  endfacet
  facet normal -8.191520e-001 0.000000e+000 -5.735764e-001
    outer loop
      vertex   -4.969816e+001 -2.720832e+001 6.722567e+001
      vertex   -5.158813e+001 2.279168e+001 6.992482e+001
      vertex   -4.969816e+001 2.279168e+001 6.722567e+001
    endloop
  endfacet
  facet normal -7.071068e-001 0.000000e+000 -7.071068e-001
    outer loop
      vertex   -4.736821e+001 -2.720832e+001 6.489571e+001
      vertex   -4.969816e+001 2.279168e+001 6.722567e+001
      vertex   -4.736821e+001 2.279168e+001 6.489571e+001
    endloop
  endfacet
  facet normal -5.735764e-001 0.000000e+000 -8.191520e-001
    outer loop
      vertex   -4.466906e+001 -2.720832e+001 6.300575e+001
      vertex   -4.736821e+001 2.279168e+001 6.489571e+001
      vertex   -4.466906e+001 2.279168e+001 6.300575e+001
    endloop
  endfacet
  facet normal -4.226183e-001 0.000000e+000 -9.063078e-001
    outer loop
      vertex   -4.168273e+001 -2.720832e+001 6.161320e+001
      vertex   -4.466906e+001 2.279168e+001 6.300575e+001
      vertex   -4.168273e+001 2.279168e+001 6.161320e+001
    endloop
  endfacet
  facet normal -2.588190e-001 0.000000e+000 -9.659258e-001
    outer loop
      vertex   -3.849995e+001 -2.720832e+001 6.076037e+001
      vertex   -4.168273e+001 2.279168e+001 6.161320e+001
      vertex   -3.849995e+001 2.279168e+001 6.076037e+001
    endloop
  endfacet
  facet normal -8.715574e-002 0.000000e+000 -9.961947e-001
    outer loop
      vertex   -3.521744e+001 -2.720832e+001 6.047319e+001
      vertex   -3.849995e+001 2.279168e+001 6.076037e+001
      vertex   -3.521744e+001 2.279168e+001 6.047319e+001
    endloop
  endfacet
  facet normal 8.715574e-002 0.000000e+000 -9.961947e-001
    outer loop
      vertex   -3.193492e+001 -2.720832e+001 6.076037e+001
      vertex   -3.521744e+001 2.279168e+001 6.047319e+001
      vertex   -3.193492e+001 2.279168e+001 6.076037e+001
    endloop
  endfacet
  facet normal 2.588190e-001 0.000000e+000 -9.659258e-001
    outer loop
      vertex   -2.875214e+001 -2.720832e+001 6.161320e+001
      vertex   -3.193492e+001 2.279168e+001 6.076037e+001
      vertex   -2.875214e+001 2.279168e+001 6.161320e+001
    endloop
  endfacet
  facet normal 4.226183e-001 0.000000e+000 -9.063078e-001
    outer loop
      vertex   -2.576581e+001 -2.720832e+001 6.300575e+001
      vertex   -2.875214e+001 2.279168e+001 6.161320e+001
      vertex   -2.576581e+001 2.279168e+001 6.300575e+001
    endloop
  endfacet
  facet normal 5.735764e-001 0.000000e+000 -8.191520e-001
    outer loop
      vertex   -2.306666e+001 -2.720832e+001 6.489571e+001
      vertex   -2.576581e+001 2.279168e+001 6.300575e+001
      vertex   -2.306666e+001 2.279168e+001 6.489571e+001
    endloop
  endfacet
  facet normal 7.071068e-001 0.000000e+000 -7.071068e-001
    outer loop
      vertex   -2.073671e+001 -2.720832e+001 6.722567e+001
      vertex   -2.306666e+001 2.279168e+001 6.489571e+001
      vertex   -2.073671e+001 2.279168e+001 6.722567e+001
    endloop
  endfacet
  facet normal 8.191520e-001 0.000000e+000 -5.735764e-001
    outer loop
      vertex   -1.884674e+001 -2.720832e+001 6.992482e+001
      vertex   -2.073671e+001 2.279168e+001 6.722567e+001
      vertex   -1.884674e+001 2.279168e+001 6.992482e+001
    endloop
  endfacet
  facet normal 9.063078e-001 0.000000e+000 -4.226183e-001
    outer loop
      vertex   -1.745419e+001 -2.720832e+001 7.291115e+001
      vertex   -1.884674e+001 2.279168e+001 6.992482e+001
      vertex   -1.745419e+001 2.279168e+001 7.291115e+001
    endloop
  endfacet
  facet normal 9.659258e-001 0.000000e+000 -2.588190e-001
    outer loop
      vertex   -1.660137e+001 -2.720832e+001 7.609393e+001
      vertex   -1.745419e+001 2.279168e+001 7.291115e+001
      vertex   -1.660137e+001 2.279168e+001 7.609393e+001
    endloop
  endfacet
  facet normal 9.961947e-001 0.000000e+000 -8.715574e-002
    outer loop
      vertex   -1.631419e+001 -2.720832e+001 7.937644e+001
      vertex   -1.660137e+001 2.279168e+001 7.609393e+001
      vertex   -1.631419e+001 2.279168e+001 7.937644e+001
    endloop
  endfacet
  facet normal 9.961947e-001 -0.000000e+000 8.715574e-002
    outer loop
      vertex   -1.660137e+001 -2.720832e+001 8.265895e+001
      vertex   -1.631419e+001 -2.720832e+001 7.937644e+001
      vertex   -1.631419e+001 2.279168e+001 7.937644e+001
    endloop
  endfacet
  facet normal 9.961947e-001 0.000000e+000 -8.715574e-002
    outer loop
      vertex   -1.631419e+001 -2.720832e+001 7.937644e+001
      vertex   -1.660137e+001 -2.720832e+001 7.609393e+001
      vertex   -1.660137e+001 2.279168e+001 7.609393e+001
    endloop
  endfacet
  facet normal 9.659258e-001 0.000000e+000 -2.588190e-001
    outer loop
      vertex   -1.660137e+001 -2.720832e+001 7.609393e+001
      vertex   -1.745419e+001 -2.720832e+001 7.291115e+001
      vertex   -1.745419e+001 2.279168e+001 7.291115e+001
    endloop
  endfacet
  facet normal 9.063078e-001 0.000000e+000 -4.226183e-001
    outer loop
      vertex   -1.745419e+001 -2.720832e+001 7.291115e+001
      vertex   -1.884674e+001 -2.720832e+001 6.992482e+001
      vertex   -1.884674e+001 2.279168e+001 6.992482e+001
    endloop
  endfacet
  facet normal 8.191520e-001 0.000000e+000 -5.735764e-001
    outer loop
      vertex   -1.884674e+001 -2.720832e+001 6.992482e+001
      vertex   -2.073671e+001 -2.720832e+001 6.722567e+001
      vertex   -2.073671e+001 2.279168e+001 6.722567e+001
    endloop
  endfacet
  facet normal 7.071068e-001 0.000000e+000 -7.071068e-001
    outer loop
      vertex   -2.073671e+001 -2.720832e+001 6.722567e+001
      vertex   -2.306666e+001 -2.720832e+001 6.489571e+001
      vertex   -2.306666e+001 2.279168e+001 6.489571e+001
    endloop
  endfacet
  facet normal 5.735764e-001 0.000000e+000 -8.191520e-001
    outer loop
      vertex   -2.306666e+001 -2.720832e+001 6.489571e+001
      vertex   -2.576581e+001 -2.720832e+001 6.300575e+001
      vertex   -2.576581e+001 2.279168e+001 6.300575e+001
    endloop
  endfacet
  facet normal 4.226183e-001 0.000000e+000 -9.063078e-001
    outer loop
      vertex   -2.576581e+001 -2.720832e+001 6.300575e+001
      vertex   -2.875214e+001 -2.720832e+001 6.161320e+001
      vertex   -2.875214e+001 2.279168e+001 6.161320e+001
    endloop
  endfacet
  facet normal 2.588190e-001 0.000000e+000 -9.659258e-001
    outer loop
      vertex   -2.875214e+001 -2.720832e+001 6.161320e+001
      vertex   -3.193492e+001 -2.720832e+001 6.076037e+001
      vertex   -3.193492e+001 2.279168e+001 6.076037e+001
    endloop
  endfacet
  facet normal 8.715574e-002 0.000000e+000 -9.961947e-001
    outer loop
      vertex   -3.193492e+001 -2.720832e+001 6.076037e+001
      vertex   -3.521744e+001 -2.720832e+001 6.047319e+001
      vertex   -3.521744e+001 2.279168e+001 6.047319e+001
    endloop
  endfacet
  facet normal -8.715574e-002 0.000000e+000 -9.961947e-001
    outer loop
      vertex   -3.521744e+001 -2.720832e+001 6.047319e+001
      vertex   -3.849995e+001 -2.720832e+001 6.076037e+001
      vertex   -3.849995e+001 2.279168e+001 6.076037e+001
    endloop
  endfacet
  facet normal -2.588190e-001 0.000000e+000 -9.659258e-001
    outer loop
      vertex   -3.849995e+001 -2.720832e+001 6.076037e+001
      vertex   -4.168273e+001 -2.720832e+001 6.161320e+001
      vertex   -4.168273e+001 2.279168e+001 6.161320e+001
    endloop
  endfacet
  facet normal -4.226183e-001 0.000000e+000 -9.063078e-001
    outer loop
      vertex   -4.168273e+001 -2.720832e+001 6.161320e+001
      vertex   -4.466906e+001 -2.720832e+001 6.300575e+001
      vertex   -4.466906e+001 2.279168e+001 6.300575e+001
    endloop
  endfacet
  facet normal -5.735764e-001 0.000000e+000 -8.191520e-001
    outer loop
      vertex   -4.466906e+001 -2.720832e+001 6.300575e+001
      vertex   -4.736821e+001 -2.720832e+001 6.489571e+001
      vertex   -4.736821e+001 2.279168e+001 6.489571e+001
    endloop
  endfacet
  facet normal -7.071068e-001 0.000000e+000 -7.071068e-001
    outer loop
      vertex   -4.736821e+001 -2.720832e+001 6.489571e+001
      vertex   -4.969816e+001 -2.720832e+001 6.722567e+001
      vertex   -4.969816e+001 2.279168e+001 6.722567e+001
    endloop
  endfacet
  facet normal -8.191520e-001 0.000000e+000 -5.735764e-001
    outer loop
      vertex   -4.969816e+001 -2.720832e+001 6.722567e+001
      vertex   -5.158813e+001 -2.720832e+001 6.992482e+001
      vertex   -5.158813e+001 2.279168e+001 6.992482e+001
    endloop
  endfacet
  facet normal -9.063078e-001 0.000000e+000 -4.226183e-001
    outer loop
      vertex   -5.158813e+001 -2.720832e+001 6.992482e+001
      vertex   -5.298068e+001 -2.720832e+001 7.291115e+001
      vertex   -5.298068e+001 2.279168e+001 7.291115e+001
    endloop
  endfacet
  facet normal -9.659258e-001 0.000000e+000 -2.588190e-001
    outer loop
      vertex   -5.298068e+001 -2.720832e+001 7.291115e+001
      vertex   -5.383350e+001 -2.720832e+001 7.609393e+001
      vertex   -5.383350e+001 2.279168e+001 7.609393e+001
    endloop
  endfacet
  facet normal -9.961947e-001 0.000000e+000 -8.715574e-002
    outer loop
      vertex   -5.383350e+001 -2.720832e+001 7.609393e+001
      vertex   -5.412068e+001 -2.720832e+001 7.937644e+001
      vertex   -5.412068e+001 2.279168e+001 7.937644e+001
    endloop
  endfacet
  facet normal -9.961947e-001 0.000000e+000 8.715574e-002
    outer loop
      vertex   -5.412068e+001 -2.720832e+001 7.937644e+001
      vertex   -5.383350e+001 -2.720832e+001 8.265895e+001
      vertex   -5.383350e+001 2.279168e+001 8.265895e+001
    endloop
  endfacet
  facet normal -9.659258e-001 0.000000e+000 2.588190e-001
    outer loop
      vertex   -5.383350e+001 -2.720832e+001 8.265895e+001
      vertex   -5.298068e+001 -2.720832e+001 8.584173e+001
      vertex   -5.298068e+001 2.279168e+001 8.584173e+001
    endloop
  endfacet
  facet normal -9.063078e-001 0.000000e+000 4.226183e-001
    outer loop
      vertex   -5.298068e+001 -2.720832e+001 8.584173e+001
      vertex   -5.158813e+001 -2.720832e+001 8.882806e+001
      vertex   -5.158813e+001 2.279168e+001 8.882806e+001
    endloop
  endfacet
  facet normal -8.191520e-001 0.000000e+000 5.735764e-001
    outer loop
      vertex   -5.158813e+001 -2.720832e+001 8.882806e+001
      vertex   -4.969816e+001 -2.720832e+001 9.152721e+001
      vertex   -4.969816e+001 2.279168e+001 9.152721e+001
    endloop
  endfacet
  facet normal -7.071068e-001 0.000000e+000 7.071068e-001
    outer loop
      vertex   -4.969816e+001 -2.720832e+001 9.152721e+001
      vertex   -4.736821e+001 -2.720832e+001 9.385717e+001
      vertex   -4.736821e+001 2.279168e+001 9.385717e+001
    endloop
  endfacet
  facet normal -5.735764e-001 0.000000e+000 8.191520e-001
    outer loop
      vertex   -4.736821e+001 -2.720832e+001 9.385717e+001
      vertex   -4.466906e+001 -2.720832e+001 9.574713e+001
      vertex   -4.466906e+001 2.279168e+001 9.574713e+001
    endloop
  endfacet
  facet normal -4.226183e-001 0.000000e+000 9.063078e-001
    outer loop
      vertex   -4.466906e+001 -2.720832e+001 9.574713e+001
      vertex   -4.168273e+001 -2.720832e+001 9.713968e+001
      vertex   -4.168273e+001 2.279168e+001 9.713968e+001
    endloop
  endfacet
  facet normal -2.588190e-001 0.000000e+000 9.659258e-001
    outer loop
      vertex   -4.168273e+001 -2.720832e+001 9.713968e+001
      vertex   -3.849995e+001 -2.720832e+001 9.799251e+001
      vertex   -3.849995e+001 2.279168e+001 9.799251e+001
    endloop
  endfacet
  facet normal -8.715574e-002 0.000000e+000 9.961947e-001
    outer loop
      vertex   -3.849995e+001 -2.720832e+001 9.799251e+001
      vertex   -3.521744e+001 -2.720832e+001 9.827969e+001
      vertex   -3.521744e+001 2.279168e+001 9.827969e+001
    endloop
  endfacet
  facet normal 8.715574e-002 -0.000000e+000 9.961947e-001
    outer loop
      vertex   -3.521744e+001 -2.720832e+001 9.827969e+001
      vertex   -3.193492e+001 -2.720832e+001 9.799251e+001
      vertex   -3.193492e+001 2.279168e+001 9.799251e+001
    endloop
  endfacet
  facet normal 2.588190e-001 -0.000000e+000 9.659258e-001
    outer loop
      vertex   -3.193492e+001 -2.720832e+001 9.799251e+001
      vertex   -2.875214e+001 -2.720832e+001 9.713968e+001
      vertex   -2.875214e+001 2.279168e+001 9.713968e+001
    endloop
  endfacet
  facet normal 4.226183e-001 -0.000000e+000 9.063078e-001
    outer loop
      vertex   -2.875214e+001 -2.720832e+001 9.713968e+001
      vertex   -2.576581e+001 -2.720832e+001 9.574713e+001
      vertex   -2.576581e+001 2.279168e+001 9.574713e+001
    endloop
  endfacet
  facet normal 5.735764e-001 -0.000000e+000 8.191520e-001
    outer loop
      vertex   -2.576581e+001 -2.720832e+001 9.574713e+001
      vertex   -2.306666e+001 -2.720832e+001 9.385717e+001
      vertex   -2.306666e+001 2.279168e+001 9.385717e+001
    endloop
  endfacet
  facet normal 7.071068e-001 -0.000000e+000 7.071068e-001
    outer loop
      vertex   -2.306666e+001 -2.720832e+001 9.385717e+001
      vertex   -2.073671e+001 -2.720832e+001 9.152721e+001
      vertex   -2.073671e+001 2.279168e+001 9.152721e+001
    endloop
  endfacet
  facet normal 8.191520e-001 -0.000000e+000 5.735764e-001
    outer loop
      vertex   -2.073671e+001 -2.720832e+001 9.152721e+001
      vertex   -1.884674e+001 -2.720832e+001 8.882806e+001
      vertex   -1.884674e+001 2.279168e+001 8.882806e+001
    endloop
  endfacet
  facet normal 0.000000e+000 1.000000e+000 -0.000000e+000
    outer loop
      vertex   -1.631419e+001 2.279168e+001 7.937644e+001
      vertex   -1.660137e+001 2.279168e+001 7.609393e+001
      vertex   -1.660137e+001 2.279168e+001 8.265895e+001
    endloop
  endfacet
  facet normal 0.000000e+000 1.000000e+000 0.000000e+000
    outer loop
      vertex   -1.660137e+001 2.279168e+001 8.265895e+001
      vertex   -1.660137e+001 2.279168e+001 7.609393e+001
      vertex   -1.745419e+001 2.279168e+001 8.584173e+001
    endloop
  endfacet
  facet normal 0.000000e+000 1.000000e+000 0.000000e+000
    outer loop
      vertex   -1.745419e+001 2.279168e+001 8.584173e+001
      vertex   -1.660137e+001 2.279168e+001 7.609393e+001
      vertex   -1.745419e+001 2.279168e+001 7.291115e+001
    endloop
  endfacet
  facet normal 0.000000e+000 1.000000e+000 0.000000e+000
    outer loop
      vertex   -1.884674e+001 2.279168e+001 8.882806e+001
      vertex   -1.745419e+001 2.279168e+001 7.291115e+001
      vertex   -1.884674e+001 2.279168e+001 6.992482e+001
    endloop
  endfacet
  facet normal 0.000000e+000 1.000000e+000 0.000000e+000
    outer loop
      vertex   -2.073671e+001 2.279168e+001 9.152721e+001
      vertex   -1.884674e+001 2.279168e+001 6.992482e+001
      vertex   -2.073671e+001 2.279168e+001 6.722567e+001
    endloop
  endfacet
  facet normal 0.000000e+000 1.000000e+000 0.000000e+000
    outer loop
      vertex   -2.306666e+001 2.279168e+001 9.385717e+001
      vertex   -2.073671e+001 2.279168e+001 6.722567e+001
      vertex   -2.306666e+001 2.279168e+001 6.489571e+001
    endloop
  endfacet
  facet normal 0.000000e+000 1.000000e+000 0.000000e+000
    outer loop
      vertex   -2.576581e+001 2.279168e+001 9.574713e+001
      vertex   -2.306666e+001 2.279168e+001 6.489571e+001
      vertex   -2.576581e+001 2.279168e+001 6.300575e+001
    endloop
  endfacet
  facet normal 0.000000e+000 1.000000e+000 0.000000e+000
    outer loop
      vertex   -2.875214e+001 2.279168e+001 9.713968e+001
      vertex   -2.576581e+001 2.279168e+001 6.300575e+001
      vertex   -2.875214e+001 2.279168e+001 6.161320e+001
    endloop
  endfacet
  facet normal 0.000000e+000 1.000000e+000 0.000000e+000
    outer loop
      vertex   -3.193492e+001 2.279168e+001 9.799251e+001
      vertex   -2.875214e+001 2.279168e+001 6.161320e+001
      vertex   -3.193492e+001 2.279168e+001 6.076037e+001
    endloop
  endfacet
  facet normal 0.000000e+000 1.000000e+000 0.000000e+000
    outer loop
      vertex   -3.521744e+001 2.279168e+001 9.827969e+001
      vertex   -3.193492e+001 2.279168e+001 6.076037e+001
      vertex   -3.521744e+001 2.279168e+001 6.047319e+001
    endloop
  endfacet
  facet normal 0.000000e+000 1.000000e+000 0.000000e+000
    outer loop
      vertex   -3.849995e+001 2.279168e+001 9.799251e+001
      vertex   -3.521744e+001 2.279168e+001 6.047319e+001
      vertex   -3.849995e+001 2.279168e+001 6.076037e+001
    endloop
  endfacet
  facet normal 0.000000e+000 1.000000e+000 0.000000e+000
    outer loop
      vertex   -4.168273e+001 2.279168e+001 9.713968e+001
      vertex   -3.849995e+001 2.279168e+001 6.076037e+001
      vertex   -4.168273e+001 2.279168e+001 6.161320e+001
    endloop
  endfacet
  facet normal 0.000000e+000 1.000000e+000 0.000000e+000
    outer loop
      vertex   -4.466906e+001 2.279168e+001 9.574713e+001
      vertex   -4.168273e+001 2.279168e+001 6.161320e+001
      vertex   -4.466906e+001 2.279168e+001 6.300575e+001
    endloop
  endfacet
  facet normal 0.000000e+000 1.000000e+000 0.000000e+000
    outer loop
      vertex   -4.736821e+001 2.279168e+001 9.385717e+001
      vertex   -4.466906e+001 2.279168e+001 6.300575e+001
      vertex   -4.736821e+001 2.279168e+001 6.489571e+001
    endloop
  endfacet
  facet normal 0.000000e+000 1.000000e+000 0.000000e+000
    outer loop
      vertex   -4.969816e+001 2.279168e+001 9.152721e+001
      vertex   -4.736821e+001 2.279168e+001 6.489571e+001
      vertex   -4.969816e+001 2.279168e+001 6.722567e+001
    endloop
  endfacet
  facet normal 0.000000e+000 1.000000e+000 0.000000e+000
    outer loop
      vertex   -5.158813e+001 2.279168e+001 8.882806e+001
      vertex   -4.969816e+001 2.279168e+001 6.722567e+001
      vertex   -5.158813e+001 2.279168e+001 6.992482e+001
    endloop
  endfacet
  facet normal 0.000000e+000 1.000000e+000 0.000000e+000
    outer loop
      vertex   -5.298068e+001 2.279168e+001 8.584173e+001
      vertex   -5.158813e+001 2.279168e+001 6.992482e+001
      vertex   -5.298068e+001 2.279168e+001 7.291115e+001
    endloop
  endfacet
  facet normal 0.000000e+000 1.000000e+000 0.000000e+000
    outer loop
      vertex   -5.383350e+001 2.279168e+001 8.265895e+001
      vertex   -5.298068e+001 2.279168e+001 7.291115e+001
      vertex   -5.383350e+001 2.279168e+001 7.609393e+001
    endloop
  endfacet
  facet normal -0.000000e+000 1.000000e+000 0.000000e+000
    outer loop
      vertex   -5.412068e+001 2.279168e+001 7.937644e+001
      vertex   -5.383350e+001 2.279168e+001 8.265895e+001
      vertex   -5.383350e+001 2.279168e+001 7.609393e+001
    endloop
  endfacet
  facet normal -0.000000e+000 1.000000e+000 0.000000e+000
    outer loop
      vertex   -5.383350e+001 2.279168e+001 8.265895e+001
      vertex   -5.298068e+001 2.279168e+001 8.584173e+001
      vertex   -5.298068e+001 2.279168e+001 7.291115e+001
    endloop
  endfacet
  facet normal -0.000000e+000 1.000000e+000 0.000000e+000
    outer loop
      vertex   -5.298068e+001 2.279168e+001 8.584173e+001
      vertex   -5.158813e+001 2.279168e+001 8.882806e+001
      vertex   -5.158813e+001 2.279168e+001 6.992482e+001
    endloop
  endfacet
  facet normal -0.000000e+000 1.000000e+000 0.000000e+000
    outer loop
      vertex   -5.158813e+001 2.279168e+001 8.882806e+001
      vertex   -4.969816e+001 2.279168e+001 9.152721e+001
      vertex   -4.969816e+001 2.279168e+001 6.722567e+001
    endloop
  endfacet
  facet normal -0.000000e+000 1.000000e+000 0.000000e+000
    outer loop
      vertex   -4.969816e+001 2.279168e+001 9.152721e+001
      vertex   -4.736821e+001 2.279168e+001 9.385717e+001
      vertex   -4.736821e+001 2.279168e+001 6.489571e+001
    endloop
  endfacet
  facet normal -0.000000e+000 1.000000e+000 0.000000e+000
    outer loop
      vertex   -4.736821e+001 2.279168e+001 9.385717e+001
      vertex   -4.466906e+001 2.279168e+001 9.574713e+001
      vertex   -4.466906e+001 2.279168e+001 6.300575e+001
    endloop
  endfacet
  facet normal -0.000000e+000 1.000000e+000 0.000000e+000
    outer loop
      vertex   -4.466906e+001 2.279168e+001 9.574713e+001
      vertex   -4.168273e+001 2.279168e+001 9.713968e+001
      vertex   -4.168273e+001 2.279168e+001 6.161320e+001
    endloop
  endfacet
  facet normal -0.000000e+000 1.000000e+000 0.000000e+000
    outer loop
      vertex   -4.168273e+001 2.279168e+001 9.713968e+001
      vertex   -3.849995e+001 2.279168e+001 9.799251e+001
      vertex   -3.849995e+001 2.279168e+001 6.076037e+001
    endloop
  endfacet
  facet normal -0.000000e+000 1.000000e+000 0.000000e+000
    outer loop
      vertex   -3.849995e+001 2.279168e+001 9.799251e+001
      vertex   -3.521744e+001 2.279168e+001 9.827969e+001
      vertex   -3.521744e+001 2.279168e+001 6.047319e+001
    endloop
  endfacet
  facet normal 0.000000e+000 1.000000e+000 0.000000e+000
    outer loop
      vertex   -3.521744e+001 2.279168e+001 9.827969e+001
      vertex   -3.193492e+001 2.279168e+001 9.799251e+001
      vertex   -3.193492e+001 2.279168e+001 6.076037e+001
    endloop
  endfacet
  facet normal 0.000000e+000 1.000000e+000 0.000000e+000
    outer loop
      vertex   -3.193492e+001 2.279168e+001 9.799251e+001
      vertex   -2.875214e+001 2.279168e+001 9.713968e+001
      vertex   -2.875214e+001 2.279168e+001 6.161320e+001
    endloop
  endfacet
  facet normal 0.000000e+000 1.000000e+000 0.000000e+000
    outer loop
      vertex   -2.875214e+001 2.279168e+001 9.713968e+001
      vertex   -2.576581e+001 2.279168e+001 9.574713e+001
      vertex   -2.576581e+001 2.279168e+001 6.300575e+001
    endloop
  endfacet
  facet normal 0.000000e+000 1.000000e+000 0.000000e+000
    outer loop
      vertex   -2.576581e+001 2.279168e+001 9.574713e+001
      vertex   -2.306666e+001 2.279168e+001 9.385717e+001
      vertex   -2.306666e+001 2.279168e+001 6.489571e+001
    endloop
  endfacet
  facet normal 0.000000e+000 1.000000e+000 0.000000e+000
    outer loop
      vertex   -2.306666e+001 2.279168e+001 9.385717e+001
      vertex   -2.073671e+001 2.279168e+001 9.152721e+001
      vertex   -2.073671e+001 2.279168e+001 6.722567e+001
    endloop
  endfacet
  facet normal 0.000000e+000 1.000000e+000 0.000000e+000
    outer loop
      vertex   -2.073671e+001 2.279168e+001 9.152721e+001
      vertex   -1.884674e+001 2.279168e+001 8.882806e+001
      vertex   -1.884674e+001 2.279168e+001 6.992482e+001
    endloop
  endfacet
  facet normal 0.000000e+000 1.000000e+000 0.000000e+000
    outer loop
      vertex   -1.884674e+001 2.279168e+001 8.882806e+001
      vertex   -1.745419e+001 2.279168e+001 8.584173e+001
      vertex   -1.745419e+001 2.279168e+001 7.291115e+001
    endloop
  endfacet
  facet normal -0.000000e+000 1.000000e+000 0.000000e+000
    outer loop
      vertex   -1.660137e+001 -2.720832e+001 8.265895e+001
      vertex   -9.957619e+000 -2.720832e+001 9.939953e+001
      vertex   -1.631419e+001 -2.720832e+001 7.937644e+001
    endloop
  endfacet
  facet normal 0.000000e+000 1.000000e+000 -0.000000e+000
    outer loop
      vertex   -1.660137e+001 -2.720832e+001 8.265895e+001
      vertex   -1.745419e+001 -2.720832e+001 8.584173e+001
      vertex   -9.957619e+000 -2.720832e+001 9.939953e+001
    endloop
  endfacet
  facet normal 0.000000e+000 1.000000e+000 0.000000e+000
    outer loop
      vertex   -9.957619e+000 -2.720832e+001 9.939953e+001
      vertex   -1.745419e+001 -2.720832e+001 8.584173e+001
      vertex   -1.884674e+001 -2.720832e+001 8.882806e+001
    endloop
  endfacet
  facet normal -0.000000e+000 1.000000e+000 0.000000e+000
    outer loop
      vertex   -2.073671e+001 -2.720832e+001 9.152721e+001
      vertex   -9.957619e+000 -2.720832e+001 9.939953e+001
      vertex   -1.884674e+001 -2.720832e+001 8.882806e+001
    endloop
  endfacet
  facet normal 0.000000e+000 1.000000e+000 -0.000000e+000
    outer loop
      vertex   -2.073671e+001 -2.720832e+001 9.152721e+001
      vertex   -2.306666e+001 -2.720832e+001 9.385717e+001
      vertex   -9.957619e+000 -2.720832e+001 9.939953e+001
    endloop
  endfacet
  facet normal 0.000000e+000 1.000000e+000 0.000000e+000
    outer loop
      vertex   -9.957619e+000 -2.720832e+001 9.939953e+001
      vertex   -2.306666e+001 -2.720832e+001 9.385717e+001
      vertex   -2.576581e+001 -2.720832e+001 9.574713e+001
    endloop
  endfacet
  facet normal -0.000000e+000 1.000000e+000 0.000000e+000
    outer loop
      vertex   -2.875214e+001 -2.720832e+001 9.713968e+001
      vertex   -9.957619e+000 -2.720832e+001 9.939953e+001
      vertex   -2.576581e+001 -2.720832e+001 9.574713e+001
    endloop
  endfacet
  facet normal 0.000000e+000 1.000000e+000 -0.000000e+000
    outer loop
      vertex   -2.875214e+001 -2.720832e+001 9.713968e+001
      vertex   -3.193492e+001 -2.720832e+001 9.799251e+001
      vertex   -9.957619e+000 -2.720832e+001 9.939953e+001
    endloop
  endfacet
  facet normal 0.000000e+000 1.000000e+000 0.000000e+000
    outer loop
      vertex   -9.957619e+000 -2.720832e+001 9.939953e+001
      vertex   -3.193492e+001 -2.720832e+001 9.799251e+001
      vertex   -3.521744e+001 -2.720832e+001 9.827969e+001
    endloop
  endfacet
  facet normal 0.000000e+000 1.000000e+000 0.000000e+000
    outer loop
      vertex   -5.995762e+001 -2.720832e+001 9.939953e+001
      vertex   -3.521744e+001 -2.720832e+001 9.827969e+001
      vertex   -3.849995e+001 -2.720832e+001 9.799251e+001
    endloop
  endfacet
  facet normal -0.000000e+000 1.000000e+000 -0.000000e+000
    outer loop
      vertex   -4.168273e+001 -2.720832e+001 9.713968e+001
      vertex   -5.995762e+001 -2.720832e+001 9.939953e+001
      vertex   -3.849995e+001 -2.720832e+001 9.799251e+001
    endloop
  endfacet
  facet normal 0.000000e+000 1.000000e+000 0.000000e+000
    outer loop
      vertex   -4.168273e+001 -2.720832e+001 9.713968e+001
      vertex   -4.466906e+001 -2.720832e+001 9.574713e+001
      vertex   -5.995762e+001 -2.720832e+001 9.939953e+001
    endloop
  endfacet
  facet normal 0.000000e+000 1.000000e+000 0.000000e+000
    outer loop
      vertex   -5.995762e+001 -2.720832e+001 9.939953e+001
      vertex   -4.466906e+001 -2.720832e+001 9.574713e+001
      vertex   -4.736821e+001 -2.720832e+001 9.385717e+001
    endloop
  endfacet
  facet normal -0.000000e+000 1.000000e+000 -0.000000e+000
    outer loop
      vertex   -4.969816e+001 -2.720832e+001 9.152721e+001
      vertex   -5.995762e+001 -2.720832e+001 9.939953e+001
      vertex   -4.736821e+001 -2.720832e+001 9.385717e+001
    endloop
  endfacet
  facet normal 0.000000e+000 1.000000e+000 0.000000e+000
    outer loop
      vertex   -4.969816e+001 -2.720832e+001 9.152721e+001
      vertex   -5.158813e+001 -2.720832e+001 8.882806e+001
      vertex   -5.995762e+001 -2.720832e+001 9.939953e+001
    endloop
  endfacet
  facet normal 0.000000e+000 1.000000e+000 0.000000e+000
    outer loop
      vertex   -5.995762e+001 -2.720832e+001 9.939953e+001
      vertex   -5.158813e+001 -2.720832e+001 8.882806e+001
      vertex   -5.298068e+001 -2.720832e+001 8.584173e+001
    endloop
  endfacet
  facet normal -0.000000e+000 1.000000e+000 -0.000000e+000
    outer loop
      vertex   -5.383350e+001 -2.720832e+001 8.265895e+001
      vertex   -5.995762e+001 -2.720832e+001 9.939953e+001
      vertex   -5.298068e+001 -2.720832e+001 8.584173e+001
    endloop
  endfacet
  facet normal 0.000000e+000 1.000000e+000 0.000000e+000
    outer loop
      vertex   -5.383350e+001 -2.720832e+001 8.265895e+001
      vertex   -5.412068e+001 -2.720832e+001 7.937644e+001
      vertex   -5.995762e+001 -2.720832e+001 9.939953e+001
    endloop
  endfacet
  facet normal 0.000000e+000 1.000000e+000 0.000000e+000
    outer loop
      vertex   -5.995762e+001 -2.720832e+001 9.939953e+001
      vertex   -5.412068e+001 -2.720832e+001 7.937644e+001
      vertex   -5.995762e+001 -2.720832e+001 5.935334e+001
    endloop
  endfacet
  facet normal -0.000000e+000 1.000000e+000 0.000000e+000
    outer loop
      vertex   -5.995762e+001 -2.720832e+001 5.935334e+001
      vertex   -5.412068e+001 -2.720832e+001 7.937644e+001
      vertex   -5.383350e+001 -2.720832e+001 7.609393e+001
    endloop
  endfacet
  facet normal 0.000000e+000 1.000000e+000 -0.000000e+000
    outer loop
      vertex   -5.298068e+001 -2.720832e+001 7.291115e+001
      vertex   -5.995762e+001 -2.720832e+001 5.935334e+001
      vertex   -5.383350e+001 -2.720832e+001 7.609393e+001
    endloop
  endfacet
  facet normal 0.000000e+000 1.000000e+000 0.000000e+000
    outer loop
      vertex   -5.298068e+001 -2.720832e+001 7.291115e+001
      vertex   -5.158813e+001 -2.720832e+001 6.992482e+001
      vertex   -5.995762e+001 -2.720832e+001 5.935334e+001
    endloop
  endfacet
  facet normal -0.000000e+000 1.000000e+000 0.000000e+000
    outer loop
      vertex   -5.995762e+001 -2.720832e+001 5.935334e+001
      vertex   -5.158813e+001 -2.720832e+001 6.992482e+001
      vertex   -4.969816e+001 -2.720832e+001 6.722567e+001
    endloop
  endfacet
  facet normal 0.000000e+000 1.000000e+000 -0.000000e+000
    outer loop
      vertex   -4.736821e+001 -2.720832e+001 6.489571e+001
      vertex   -5.995762e+001 -2.720832e+001 5.935334e+001
      vertex   -4.969816e+001 -2.720832e+001 6.722567e+001
    endloop
  endfacet
  facet normal 0.000000e+000 1.000000e+000 0.000000e+000
    outer loop
      vertex   -4.736821e+001 -2.720832e+001 6.489571e+001
      vertex   -4.466906e+001 -2.720832e+001 6.300575e+001
      vertex   -5.995762e+001 -2.720832e+001 5.935334e+001
    endloop
  endfacet
  facet normal -0.000000e+000 1.000000e+000 0.000000e+000
    outer loop
      vertex   -5.995762e+001 -2.720832e+001 5.935334e+001
      vertex   -4.466906e+001 -2.720832e+001 6.300575e+001
      vertex   -4.168273e+001 -2.720832e+001 6.161320e+001
    endloop
  endfacet
  facet normal 0.000000e+000 1.000000e+000 -0.000000e+000
    outer loop
      vertex   -3.849995e+001 -2.720832e+001 6.076037e+001
      vertex   -5.995762e+001 -2.720832e+001 5.935334e+001
      vertex   -4.168273e+001 -2.720832e+001 6.161320e+001
    endloop
  endfacet
  facet normal 0.000000e+000 1.000000e+000 0.000000e+000
    outer loop
      vertex   -3.849995e+001 -2.720832e+001 6.076037e+001
      vertex   -3.521744e+001 -2.720832e+001 6.047319e+001
      vertex   -5.995762e+001 -2.720832e+001 5.935334e+001
    endloop
  endfacet
  facet normal -0.000000e+000 1.000000e+000 0.000000e+000
    outer loop
      vertex   -5.995762e+001 -2.720832e+001 5.935334e+001
      vertex   -3.521744e+001 -2.720832e+001 6.047319e+001
      vertex   -9.957619e+000 -2.720832e+001 5.935334e+001
    endloop
  endfacet
  facet normal 0.000000e+000 1.000000e+000 -0.000000e+000
    outer loop
      vertex   -9.957619e+000 -2.720832e+001 5.935334e+001
      vertex   -3.521744e+001 -2.720832e+001 6.047319e+001
      vertex   -3.193492e+001 -2.720832e+001 6.076037e+001
    endloop
  endfacet
  facet normal 0.000000e+000 1.000000e+000 0.000000e+000
    outer loop
      vertex   -2.875214e+001 -2.720832e+001 6.161320e+001
      vertex   -9.957619e+000 -2.720832e+001 5.935334e+001
      vertex   -3.193492e+001 -2.720832e+001 6.076037e+001
    endloop
  endfacet
  facet normal -0.000000e+000 1.000000e+000 0.000000e+000
    outer loop
      vertex   -2.875214e+001 -2.720832e+001 6.161320e+001
      vertex   -2.576581e+001 -2.720832e+001 6.300575e+001
      vertex   -9.957619e+000 -2.720832e+001 5.935334e+001
    endloop
  endfacet
  facet normal 0.000000e+000 1.000000e+000 -0.000000e+000
    outer loop
      vertex   -9.957619e+000 -2.720832e+001 5.935334e+001
      vertex   -2.576581e+001 -2.720832e+001 6.300575e+001
      vertex   -2.306666e+001 -2.720832e+001 6.489571e+001
    endloop
  endfacet
  facet normal 0.000000e+000 1.000000e+000 0.000000e+000
    outer loop
      vertex   -2.073671e+001 -2.720832e+001 6.722567e+001
      vertex   -9.957619e+000 -2.720832e+001 5.935334e+001
      vertex   -2.306666e+001 -2.720832e+001 6.489571e+001
    endloop
  endfacet
  facet normal -0.000000e+000 1.000000e+000 0.000000e+000
    outer loop
      vertex   -2.073671e+001 -2.720832e+001 6.722567e+001
      vertex   -1.884674e+001 -2.720832e+001 6.992482e+001
      vertex   -9.957619e+000 -2.720832e+001 5.935334e+001
    endloop
  endfacet
  facet normal 0.000000e+000 1.000000e+000 -0.000000e+000
    outer loop
      vertex   -9.957619e+000 -2.720832e+001 5.935334e+001
      vertex   -1.884674e+001 -2.720832e+001 6.992482e+001
      vertex   -1.745419e+001 -2.720832e+001 7.291115e+001
    endloop
  endfacet
  facet normal 0.000000e+000 1.000000e+000 0.000000e+000
    outer loop
      vertex   -1.660137e+001 -2.720832e+001 7.609393e+001
      vertex   -9.957619e+000 -2.720832e+001 5.935334e+001
      vertex   -1.745419e+001 -2.720832e+001 7.291115e+001
    endloop
  endfacet
  facet normal -0.000000e+000 1.000000e+000 0.000000e+000
    outer loop
      vertex   -1.660137e+001 -2.720832e+001 7.609393e+001
      vertex   -1.631419e+001 -2.720832e+001 7.937644e+001
      vertex   -9.957619e+000 -2.720832e+001 5.935334e+001
    endloop
  endfacet
  facet normal 0.000000e+000 1.000000e+000 -0.000000e+000
    outer loop
      vertex   -9.957619e+000 -2.720832e+001 5.935334e+001
      vertex   -1.631419e+001 -2.720832e+001 7.937644e+001
      vertex   -9.957619e+000 -2.720832e+001 9.939953e+001
    endloop
  endfacet
  facet normal -0.000000e+000 1.000000e+000 0.000000e+000
    outer loop
      vertex   -5.995762e+001 -2.720832e+001 9.939953e+001
      vertex   -9.957619e+000 -2.720832e+001 9.939953e+001
      vertex   -3.521744e+001 -2.720832e+001 9.827969e+001
    endloop
  endfacet
  facet normal -0.000000e+000 0.000000e+000 1.000000e+000
    outer loop
      vertex   -5.995762e+001 -2.720832e+001 9.939953e+001
      vertex   -5.995762e+001 -5.921756e+001 9.939953e+001
      vertex   -9.957619e+000 -2.720832e+001 9.939953e+001
    endloop
  endfacet
  facet normal -0.000000e+000 0.000000e+000 1.000000e+000
    outer loop
      vertex   -9.957619e+000 -2.720832e+001 9.939953e+001
      vertex   -5.995762e+001 -5.921756e+001 9.939953e+001
      vertex   -9.957619e+000 -5.921756e+001 9.939953e+001
    endloop
  endfacet
  facet normal 0.000000e+000 -1.000000e+000 0.000000e+000
    outer loop
      vertex   -5.995762e+001 -5.921756e+001 9.939953e+001
      vertex   -5.995762e+001 -5.921756e+001 5.935334e+001
      vertex   -9.957619e+000 -5.921756e+001 9.939953e+001
    endloop
  endfacet
  facet normal 0.000000e+000 -1.000000e+000 -0.000000e+000
    outer loop
      vertex   -9.957619e+000 -5.921756e+001 9.939953e+001
      vertex   -5.995762e+001 -5.921756e+001 5.935334e+001
      vertex   -9.957619e+000 -5.921756e+001 5.935334e+001
    endloop
  endfacet
  facet normal 0.000000e+000 0.000000e+000 -1.000000e+000
    outer loop
      vertex   -5.995762e+001 -5.921756e+001 5.935334e+001
      vertex   -5.995762e+001 -2.720832e+001 5.935334e+001
      vertex   -9.957619e+000 -5.921756e+001 5.935334e+001
    endloop
  endfacet
  facet normal 0.000000e+000 0.000000e+000 -1.000000e+000
    outer loop
      vertex   -9.957619e+000 -5.921756e+001 5.935334e+001
      vertex   -5.995762e+001 -2.720832e+001 5.935334e+001
      vertex   -9.957619e+000 -2.720832e+001 5.935334e+001
    endloop
  endfacet
  facet normal -1.000000e+000 -0.000000e+000 -0.000000e+000
    outer loop
      vertex   -5.995762e+001 -2.720832e+001 9.939953e+001
      vertex   -5.995762e+001 -2.720832e+001 5.935334e+001
      vertex   -5.995762e+001 -5.921756e+001 9.939953e+001
    endloop
  endfacet
  facet normal -1.000000e+000 -0.000000e+000 -0.000000e+000
    outer loop
      vertex   -5.995762e+001 -5.921756e+001 9.939953e+001
      vertex   -5.995762e+001 -2.720832e+001 5.935334e+001
      vertex   -5.995762e+001 -5.921756e+001 5.935334e+001
    endloop
  endfacet
  facet normal 1.548197e-017 -8.715574e-002 -9.961947e-001
    outer loop
      vertex   6.504238e+001 -1.059856e+001 4.760725e+001
      vertex   4.004238e+001 -1.059856e+001 4.760725e+001
      vertex   6.504238e+001 -1.016444e+001 4.756927e+001
    endloop
  endfacet
  facet normal 4.577856e-017 -2.588190e-001 -9.659258e-001
    outer loop
      vertex   6.504238e+001 -1.059856e+001 4.760725e+001
      vertex   4.004238e+001 -1.101949e+001 4.772004e+001
      vertex   4.004238e+001 -1.059856e+001 4.760725e+001
    endloop
  endfacet
  facet normal 4.597550e-017 -2.588190e-001 -9.659258e-001
    outer loop
      vertex   6.504238e+001 -1.059856e+001 4.760725e+001
      vertex   6.504238e+001 -1.101949e+001 4.772004e+001
      vertex   4.004238e+001 -1.101949e+001 4.772004e+001
    endloop
  endfacet
  facet normal 7.507208e-017 -4.226183e-001 -9.063078e-001
    outer loop
      vertex   4.004238e+001 -1.101949e+001 4.772004e+001
      vertex   6.504238e+001 -1.101949e+001 4.772004e+001
      vertex   4.004238e+001 -1.141444e+001 4.790421e+001
    endloop
  endfacet
  facet normal 7.563413e-017 -4.226183e-001 -9.063078e-001
    outer loop
      vertex   4.004238e+001 -1.141444e+001 4.790421e+001
      vertex   6.504238e+001 -1.101949e+001 4.772004e+001
      vertex   6.504238e+001 -1.141444e+001 4.790421e+001
    endloop
  endfacet
  facet normal 1.015090e-016 -5.735764e-001 -8.191520e-001
    outer loop
      vertex   4.004238e+001 -1.177141e+001 4.815416e+001
      vertex   6.504238e+001 -1.141444e+001 4.790421e+001
      vertex   6.504238e+001 -1.177141e+001 4.815416e+001
    endloop
  endfacet
  facet normal 1.253934e-016 -7.071068e-001 -7.071068e-001
    outer loop
      vertex   4.004238e+001 -1.207955e+001 4.846230e+001
      vertex   6.504238e+001 -1.177141e+001 4.815416e+001
      vertex   6.504238e+001 -1.207955e+001 4.846230e+001
    endloop
  endfacet
  facet normal 1.452972e-016 -8.191520e-001 -5.735764e-001
    outer loop
      vertex   4.004238e+001 -1.232950e+001 4.881927e+001
      vertex   6.504238e+001 -1.207955e+001 4.846230e+001
      vertex   6.504238e+001 -1.232950e+001 4.881927e+001
    endloop
  endfacet
  facet normal 1.612201e-016 -9.063078e-001 -4.226183e-001
    outer loop
      vertex   4.004238e+001 -1.251367e+001 4.921422e+001
      vertex   6.504238e+001 -1.232950e+001 4.881927e+001
      vertex   6.504238e+001 -1.251367e+001 4.921422e+001
    endloop
  endfacet
  facet normal 1.716696e-016 -9.659258e-001 -2.588190e-001
    outer loop
      vertex   4.004238e+001 -1.262646e+001 4.963515e+001
      vertex   6.504238e+001 -1.251367e+001 4.921422e+001
      vertex   6.504238e+001 -1.262646e+001 4.963515e+001
    endloop
  endfacet
  facet normal 1.771431e-016 -9.961947e-001 -8.715574e-002
    outer loop
      vertex   4.004238e+001 -1.266444e+001 5.006927e+001
      vertex   6.504238e+001 -1.262646e+001 4.963515e+001
      vertex   6.504238e+001 -1.266444e+001 5.006927e+001
    endloop
  endfacet
  facet normal 1.768943e-016 -9.961947e-001 8.715574e-002
    outer loop
      vertex   4.004238e+001 -1.262646e+001 5.050339e+001
      vertex   6.504238e+001 -1.266444e+001 5.006927e+001
      vertex   6.504238e+001 -1.262646e+001 5.050339e+001
    endloop
  endfacet
  facet normal 1.711720e-016 -9.659258e-001 2.588190e-001
    outer loop
      vertex   4.004238e+001 -1.251367e+001 5.092432e+001
      vertex   6.504238e+001 -1.262646e+001 5.050339e+001
      vertex   6.504238e+001 -1.251367e+001 5.092432e+001
    endloop
  endfacet
  facet normal 1.612201e-016 -9.063078e-001 4.226183e-001
    outer loop
      vertex   4.004238e+001 -1.232950e+001 5.131927e+001
      vertex   6.504238e+001 -1.251367e+001 5.092432e+001
      vertex   6.504238e+001 -1.232950e+001 5.131927e+001
    endloop
  endfacet
  facet normal 1.452972e-016 -8.191520e-001 5.735764e-001
    outer loop
      vertex   4.004238e+001 -1.207955e+001 5.167624e+001
      vertex   6.504238e+001 -1.232950e+001 5.131927e+001
      vertex   6.504238e+001 -1.207955e+001 5.167624e+001
    endloop
  endfacet
  facet normal 1.253934e-016 -7.071068e-001 7.071068e-001
    outer loop
      vertex   4.004238e+001 -1.177141e+001 5.198438e+001
      vertex   6.504238e+001 -1.207955e+001 5.167624e+001
      vertex   6.504238e+001 -1.177141e+001 5.198438e+001
    endloop
  endfacet
  facet normal 1.025042e-016 -5.735764e-001 8.191520e-001
    outer loop
      vertex   4.004238e+001 -1.141444e+001 5.223433e+001
      vertex   6.504238e+001 -1.177141e+001 5.198438e+001
      vertex   6.504238e+001 -1.141444e+001 5.223433e+001
    endloop
  endfacet
  facet normal 7.563413e-017 -4.226183e-001 9.063078e-001
    outer loop
      vertex   4.004238e+001 -1.101949e+001 5.241850e+001
      vertex   6.504238e+001 -1.141444e+001 5.223433e+001
      vertex   6.504238e+001 -1.101949e+001 5.241850e+001
    endloop
  endfacet
  facet normal 4.627615e-017 -2.588190e-001 9.659258e-001
    outer loop
      vertex   4.004238e+001 -1.059856e+001 5.253129e+001
      vertex   6.504238e+001 -1.101949e+001 5.241850e+001
      vertex   6.504238e+001 -1.059856e+001 5.253129e+001
    endloop
  endfacet
  facet normal 1.542538e-017 -8.715574e-002 9.961947e-001
    outer loop
      vertex   4.004238e+001 -1.016444e+001 5.256927e+001
      vertex   6.504238e+001 -1.059856e+001 5.253129e+001
      vertex   6.504238e+001 -1.016444e+001 5.256927e+001
    endloop
  endfacet
  facet normal -1.567418e-017 8.715574e-002 9.961947e-001
    outer loop
      vertex   4.004238e+001 -9.730317e+000 5.253129e+001
      vertex   6.504238e+001 -1.016444e+001 5.256927e+001
      vertex   6.504238e+001 -9.730317e+000 5.253129e+001
    endloop
  endfacet
  facet normal -4.627615e-017 2.588190e-001 9.659258e-001
    outer loop
      vertex   4.004238e+001 -9.309387e+000 5.241850e+001
      vertex   6.504238e+001 -9.730317e+000 5.253129e+001
      vertex   6.504238e+001 -9.309387e+000 5.241850e+001
    endloop
  endfacet
  facet normal -7.563413e-017 4.226183e-001 9.063078e-001
    outer loop
      vertex   4.004238e+001 -8.914437e+000 5.223433e+001
      vertex   6.504238e+001 -9.309387e+000 5.241850e+001
      vertex   6.504238e+001 -8.914437e+000 5.223433e+001
    endloop
  endfacet
  facet normal -1.025042e-016 5.735764e-001 8.191520e-001
    outer loop
      vertex   4.004238e+001 -8.557468e+000 5.198438e+001
      vertex   6.504238e+001 -8.914437e+000 5.223433e+001
      vertex   6.504238e+001 -8.557468e+000 5.198438e+001
    endloop
  endfacet
  facet normal -1.253934e-016 7.071068e-001 7.071068e-001
    outer loop
      vertex   4.004238e+001 -8.249326e+000 5.167624e+001
      vertex   6.504238e+001 -8.557468e+000 5.198438e+001
      vertex   6.504238e+001 -8.249326e+000 5.167624e+001
    endloop
  endfacet
  facet normal -1.452972e-016 8.191520e-001 5.735764e-001
    outer loop
      vertex   4.004238e+001 -7.999374e+000 5.131927e+001
      vertex   6.504238e+001 -8.249326e+000 5.167624e+001
      vertex   6.504238e+001 -7.999374e+000 5.131927e+001
    endloop
  endfacet
  facet normal -1.612201e-016 9.063078e-001 4.226183e-001
    outer loop
      vertex   4.004238e+001 -7.815206e+000 5.092432e+001
      vertex   6.504238e+001 -7.999374e+000 5.131927e+001
      vertex   6.504238e+001 -7.815206e+000 5.092432e+001
    endloop
  endfacet
  facet normal -1.716696e-016 9.659258e-001 2.588190e-001
    outer loop
      vertex   4.004238e+001 -7.702418e+000 5.050339e+001
      vertex   6.504238e+001 -7.815206e+000 5.092432e+001
      vertex   6.504238e+001 -7.702418e+000 5.050339e+001
    endloop
  endfacet
  facet normal -1.768943e-016 9.961947e-001 8.715574e-002
    outer loop
      vertex   4.004238e+001 -7.664437e+000 5.006927e+001
      vertex   6.504238e+001 -7.702418e+000 5.050339e+001
      vertex   6.504238e+001 -7.664437e+000 5.006927e+001
    endloop
  endfacet
  facet normal -1.771431e-016 9.961947e-001 -8.715574e-002
    outer loop
      vertex   4.004238e+001 -7.702418e+000 4.963515e+001
      vertex   6.504238e+001 -7.664437e+000 5.006927e+001
      vertex   6.504238e+001 -7.702418e+000 4.963515e+001
    endloop
  endfacet
  facet normal -1.711720e-016 9.659258e-001 -2.588190e-001
    outer loop
      vertex   4.004238e+001 -7.815206e+000 4.921422e+001
      vertex   6.504238e+001 -7.702418e+000 4.963515e+001
      vertex   6.504238e+001 -7.815206e+000 4.921422e+001
    endloop
  endfacet
  facet normal -1.612201e-016 9.063078e-001 -4.226183e-001
    outer loop
      vertex   4.004238e+001 -7.999374e+000 4.881927e+001
      vertex   6.504238e+001 -7.815206e+000 4.921422e+001
      vertex   6.504238e+001 -7.999374e+000 4.881927e+001
    endloop
  endfacet
  facet normal -1.452972e-016 8.191520e-001 -5.735764e-001
    outer loop
      vertex   4.004238e+001 -8.249326e+000 4.846230e+001
      vertex   6.504238e+001 -7.999374e+000 4.881927e+001
      vertex   6.504238e+001 -8.249326e+000 4.846230e+001
    endloop
  endfacet
  facet normal -1.253934e-016 7.071068e-001 -7.071068e-001
    outer loop
      vertex   4.004238e+001 -8.557468e+000 4.815416e+001
      vertex   6.504238e+001 -8.249326e+000 4.846230e+001
      vertex   6.504238e+001 -8.557468e+000 4.815416e+001
    endloop
  endfacet
  facet normal -1.015090e-016 5.735764e-001 -8.191520e-001
    outer loop
      vertex   4.004238e+001 -8.914437e+000 4.790421e+001
      vertex   6.504238e+001 -8.557468e+000 4.815416e+001
      vertex   6.504238e+001 -8.914437e+000 4.790421e+001
    endloop
  endfacet
  facet normal -7.463895e-017 4.226183e-001 -9.063078e-001
    outer loop
      vertex   4.004238e+001 -9.309387e+000 4.772004e+001
      vertex   6.504238e+001 -8.914437e+000 4.790421e+001
      vertex   6.504238e+001 -9.309387e+000 4.772004e+001
    endloop
  endfacet
  facet normal -4.577856e-017 2.588190e-001 -9.659258e-001
    outer loop
      vertex   4.004238e+001 -9.730317e+000 4.760725e+001
      vertex   6.504238e+001 -9.309387e+000 4.772004e+001
      vertex   6.504238e+001 -9.730317e+000 4.760725e+001
    endloop
  endfacet
  facet normal -1.542538e-017 8.715574e-002 -9.961947e-001
    outer loop
      vertex   4.004238e+001 -1.016444e+001 4.756927e+001
      vertex   6.504238e+001 -9.730317e+000 4.760725e+001
      vertex   6.504238e+001 -1.016444e+001 4.756927e+001
    endloop
  endfacet
  facet normal 1.548197e-017 -8.715574e-002 -9.961947e-001
    outer loop
      vertex   4.004238e+001 -1.059856e+001 4.760725e+001
      vertex   4.004238e+001 -1.016444e+001 4.756927e+001
      vertex   6.504238e+001 -1.016444e+001 4.756927e+001
    endloop
  endfacet
  facet normal -1.548197e-017 8.715574e-002 -9.961947e-001
    outer loop
      vertex   4.004238e+001 -1.016444e+001 4.756927e+001
      vertex   4.004238e+001 -9.730317e+000 4.760725e+001
      vertex   6.504238e+001 -9.730317e+000 4.760725e+001
    endloop
  endfacet
  facet normal -4.597550e-017 2.588190e-001 -9.659258e-001
    outer loop
      vertex   4.004238e+001 -9.730317e+000 4.760725e+001
      vertex   4.004238e+001 -9.309387e+000 4.772004e+001
      vertex   6.504238e+001 -9.309387e+000 4.772004e+001
    endloop
  endfacet
  facet normal -7.507208e-017 4.226183e-001 -9.063078e-001
    outer loop
      vertex   4.004238e+001 -9.309387e+000 4.772004e+001
      vertex   4.004238e+001 -8.914437e+000 4.790421e+001
      vertex   6.504238e+001 -8.914437e+000 4.790421e+001
    endloop
  endfacet
  facet normal -1.018876e-016 5.735764e-001 -8.191520e-001
    outer loop
      vertex   4.004238e+001 -8.914437e+000 4.790421e+001
      vertex   4.004238e+001 -8.557468e+000 4.815416e+001
      vertex   6.504238e+001 -8.557468e+000 4.815416e+001
    endloop
  endfacet
  facet normal -1.256074e-016 7.071068e-001 -7.071068e-001
    outer loop
      vertex   4.004238e+001 -8.557468e+000 4.815416e+001
      vertex   4.004238e+001 -8.249326e+000 4.846230e+001
      vertex   6.504238e+001 -8.249326e+000 4.846230e+001
    endloop
  endfacet
  facet normal -1.455106e-016 8.191520e-001 -5.735764e-001
    outer loop
      vertex   4.004238e+001 -8.249326e+000 4.846230e+001
      vertex   4.004238e+001 -7.999374e+000 4.881927e+001
      vertex   6.504238e+001 -7.999374e+000 4.881927e+001
    endloop
  endfacet
  facet normal -1.609926e-016 9.063078e-001 -4.226183e-001
    outer loop
      vertex   4.004238e+001 -7.999374e+000 4.881927e+001
      vertex   4.004238e+001 -7.815206e+000 4.921422e+001
      vertex   6.504238e+001 -7.815206e+000 4.921422e+001
    endloop
  endfacet
  facet normal -1.715829e-016 9.659258e-001 -2.588190e-001
    outer loop
      vertex   4.004238e+001 -7.815206e+000 4.921422e+001
      vertex   4.004238e+001 -7.702418e+000 4.963515e+001
      vertex   6.504238e+001 -7.702418e+000 4.963515e+001
    endloop
  endfacet
  facet normal -1.769597e-016 9.961947e-001 -8.715574e-002
    outer loop
      vertex   4.004238e+001 -7.702418e+000 4.963515e+001
      vertex   4.004238e+001 -7.664437e+000 5.006927e+001
      vertex   6.504238e+001 -7.664437e+000 5.006927e+001
    endloop
  endfacet
  facet normal -1.769597e-016 9.961947e-001 8.715574e-002
    outer loop
      vertex   4.004238e+001 -7.664437e+000 5.006927e+001
      vertex   4.004238e+001 -7.702418e+000 5.050339e+001
      vertex   6.504238e+001 -7.702418e+000 5.050339e+001
    endloop
  endfacet
  facet normal -1.715829e-016 9.659258e-001 2.588190e-001
    outer loop
      vertex   4.004238e+001 -7.702418e+000 5.050339e+001
      vertex   4.004238e+001 -7.815206e+000 5.092432e+001
      vertex   6.504238e+001 -7.815206e+000 5.092432e+001
    endloop
  endfacet
  facet normal -1.609926e-016 9.063078e-001 4.226183e-001
    outer loop
      vertex   4.004238e+001 -7.815206e+000 5.092432e+001
      vertex   4.004238e+001 -7.999374e+000 5.131927e+001
      vertex   6.504238e+001 -7.999374e+000 5.131927e+001
    endloop
  endfacet
  facet normal -1.455106e-016 8.191520e-001 5.735764e-001
    outer loop
      vertex   4.004238e+001 -7.999374e+000 5.131927e+001
      vertex   4.004238e+001 -8.249326e+000 5.167624e+001
      vertex   6.504238e+001 -8.249326e+000 5.167624e+001
    endloop
  endfacet
  facet normal -1.256074e-016 7.071068e-001 7.071068e-001
    outer loop
      vertex   4.004238e+001 -8.249326e+000 5.167624e+001
      vertex   4.004238e+001 -8.557468e+000 5.198438e+001
      vertex   6.504238e+001 -8.557468e+000 5.198438e+001
    endloop
  endfacet
  facet normal -1.018876e-016 5.735764e-001 8.191520e-001
    outer loop
      vertex   4.004238e+001 -8.557468e+000 5.198438e+001
      vertex   4.004238e+001 -8.914437e+000 5.223433e+001
      vertex   6.504238e+001 -8.914437e+000 5.223433e+001
    endloop
  endfacet
  facet normal -7.507208e-017 4.226183e-001 9.063078e-001
    outer loop
      vertex   4.004238e+001 -8.914437e+000 5.223433e+001
      vertex   4.004238e+001 -9.309387e+000 5.241850e+001
      vertex   6.504238e+001 -9.309387e+000 5.241850e+001
    endloop
  endfacet
  facet normal -4.597550e-017 2.588190e-001 9.659258e-001
    outer loop
      vertex   4.004238e+001 -9.309387e+000 5.241850e+001
      vertex   4.004238e+001 -9.730317e+000 5.253129e+001
      vertex   6.504238e+001 -9.730317e+000 5.253129e+001
    endloop
  endfacet
  facet normal -1.548197e-017 8.715574e-002 9.961947e-001
    outer loop
      vertex   4.004238e+001 -9.730317e+000 5.253129e+001
      vertex   4.004238e+001 -1.016444e+001 5.256927e+001
      vertex   6.504238e+001 -1.016444e+001 5.256927e+001
    endloop
  endfacet
  facet normal 1.548197e-017 -8.715574e-002 9.961947e-001
    outer loop
      vertex   4.004238e+001 -1.016444e+001 5.256927e+001
      vertex   4.004238e+001 -1.059856e+001 5.253129e+001
      vertex   6.504238e+001 -1.059856e+001 5.253129e+001
    endloop
  endfacet
  facet normal 4.597550e-017 -2.588190e-001 9.659258e-001
    outer loop
      vertex   4.004238e+001 -1.059856e+001 5.253129e+001
      vertex   4.004238e+001 -1.101949e+001 5.241850e+001
      vertex   6.504238e+001 -1.101949e+001 5.241850e+001
    endloop
  endfacet
  facet normal 7.507208e-017 -4.226183e-001 9.063078e-001
    outer loop
      vertex   4.004238e+001 -1.101949e+001 5.241850e+001
      vertex   4.004238e+001 -1.141444e+001 5.223433e+001
      vertex   6.504238e+001 -1.141444e+001 5.223433e+001
    endloop
  endfacet
  facet normal 1.018876e-016 -5.735764e-001 8.191520e-001
    outer loop
      vertex   4.004238e+001 -1.141444e+001 5.223433e+001
      vertex   4.004238e+001 -1.177141e+001 5.198438e+001
      vertex   6.504238e+001 -1.177141e+001 5.198438e+001
    endloop
  endfacet
  facet normal 1.256074e-016 -7.071068e-001 7.071068e-001
    outer loop
      vertex   4.004238e+001 -1.177141e+001 5.198438e+001
      vertex   4.004238e+001 -1.207955e+001 5.167624e+001
      vertex   6.504238e+001 -1.207955e+001 5.167624e+001
    endloop
  endfacet
  facet normal 1.455106e-016 -8.191520e-001 5.735764e-001
    outer loop
      vertex   4.004238e+001 -1.207955e+001 5.167624e+001
      vertex   4.004238e+001 -1.232950e+001 5.131927e+001
      vertex   6.504238e+001 -1.232950e+001 5.131927e+001
    endloop
  endfacet
  facet normal 1.609926e-016 -9.063078e-001 4.226183e-001
    outer loop
      vertex   4.004238e+001 -1.232950e+001 5.131927e+001
      vertex   4.004238e+001 -1.251367e+001 5.092432e+001
      vertex   6.504238e+001 -1.251367e+001 5.092432e+001
    endloop
  endfacet
  facet normal 1.715829e-016 -9.659258e-001 2.588190e-001
    outer loop
      vertex   4.004238e+001 -1.251367e+001 5.092432e+001
      vertex   4.004238e+001 -1.262646e+001 5.050339e+001
      vertex   6.504238e+001 -1.262646e+001 5.050339e+001
    endloop
  endfacet
  facet normal 1.769597e-016 -9.961947e-001 8.715574e-002
    outer loop
      vertex   4.004238e+001 -1.262646e+001 5.050339e+001
      vertex   4.004238e+001 -1.266444e+001 5.006927e+001
      vertex   6.504238e+001 -1.266444e+001 5.006927e+001
    endloop
  endfacet
  facet normal 1.769597e-016 -9.961947e-001 -8.715574e-002
    outer loop
      vertex   4.004238e+001 -1.266444e+001 5.006927e+001
      vertex   4.004238e+001 -1.262646e+001 4.963515e+001
      vertex   6.504238e+001 -1.262646e+001 4.963515e+001
    endloop
  endfacet
  facet normal 1.715829e-016 -9.659258e-001 -2.588190e-001
    outer loop
      vertex   4.004238e+001 -1.262646e+001 4.963515e+001
      vertex   4.004238e+001 -1.251367e+001 4.921422e+001
      vertex   6.504238e+001 -1.251367e+001 4.921422e+001
    endloop
  endfacet
  facet normal 1.609926e-016 -9.063078e-001 -4.226183e-001
    outer loop
      vertex   4.004238e+001 -1.251367e+001 4.921422e+001
      vertex   4.004238e+001 -1.232950e+001 4.881927e+001
      vertex   6.504238e+001 -1.232950e+001 4.881927e+001
    endloop
  endfacet
  facet normal 1.455106e-016 -8.191520e-001 -5.735764e-001
    outer loop
      vertex   4.004238e+001 -1.232950e+001 4.881927e+001
      vertex   4.004238e+001 -1.207955e+001 4.846230e+001
      vertex   6.504238e+001 -1.207955e+001 4.846230e+001
    endloop
  endfacet
  facet normal 1.256074e-016 -7.071068e-001 -7.071068e-001
    outer loop
      vertex   4.004238e+001 -1.207955e+001 4.846230e+001
      vertex   4.004238e+001 -1.177141e+001 4.815416e+001
      vertex   6.504238e+001 -1.177141e+001 4.815416e+001
    endloop
  endfacet
  facet normal 1.018876e-016 -5.735764e-001 -8.191520e-001
    outer loop
      vertex   4.004238e+001 -1.177141e+001 4.815416e+001
      vertex   4.004238e+001 -1.141444e+001 4.790421e+001
      vertex   6.504238e+001 -1.141444e+001 4.790421e+001
    endloop
  endfacet
  facet normal 1.000000e+000 0.000000e+000 -0.000000e+000
    outer loop
      vertex   6.504238e+001 -7.702418e+000 4.963515e+001
      vertex   6.504238e+001 -7.702418e+000 5.050339e+001
      vertex   6.504238e+001 -7.815206e+000 4.921422e+001
    endloop
  endfacet
  facet normal 1.000000e+000 0.000000e+000 -0.000000e+000
    outer loop
      vertex   6.504238e+001 -7.702418e+000 4.963515e+001
      vertex   6.504238e+001 -7.664437e+000 5.006927e+001
      vertex   6.504238e+001 -7.702418e+000 5.050339e+001
    endloop
  endfacet
  facet normal 1.000000e+000 0.000000e+000 0.000000e+000
    outer loop
      vertex   6.504238e+001 -7.815206e+000 4.921422e+001
      vertex   6.504238e+001 -7.815206e+000 5.092432e+001
      vertex   6.504238e+001 -7.999374e+000 4.881927e+001
    endloop
  endfacet
  facet normal 1.000000e+000 0.000000e+000 -0.000000e+000
    outer loop
      vertex   6.504238e+001 -7.815206e+000 4.921422e+001
      vertex   6.504238e+001 -7.702418e+000 5.050339e+001
      vertex   6.504238e+001 -7.815206e+000 5.092432e+001
    endloop
  endfacet
  facet normal 1.000000e+000 0.000000e+000 -0.000000e+000
    outer loop
      vertex   6.504238e+001 -7.999374e+000 4.881927e+001
      vertex   6.504238e+001 -7.999374e+000 5.131927e+001
      vertex   6.504238e+001 -8.249326e+000 4.846230e+001
    endloop
  endfacet
  facet normal 1.000000e+000 0.000000e+000 -0.000000e+000
    outer loop
      vertex   6.504238e+001 -7.999374e+000 4.881927e+001
      vertex   6.504238e+001 -7.815206e+000 5.092432e+001
      vertex   6.504238e+001 -7.999374e+000 5.131927e+001
    endloop
  endfacet
  facet normal 1.000000e+000 0.000000e+000 -0.000000e+000
    outer loop
      vertex   6.504238e+001 -8.249326e+000 4.846230e+001
      vertex   6.504238e+001 -8.249326e+000 5.167624e+001
      vertex   6.504238e+001 -8.557468e+000 4.815416e+001
    endloop
  endfacet
  facet normal 1.000000e+000 0.000000e+000 -0.000000e+000
    outer loop
      vertex   6.504238e+001 -8.249326e+000 4.846230e+001
      vertex   6.504238e+001 -7.999374e+000 5.131927e+001
      vertex   6.504238e+001 -8.249326e+000 5.167624e+001
    endloop
  endfacet
  facet normal 1.000000e+000 0.000000e+000 0.000000e+000
    outer loop
      vertex   6.504238e+001 -8.249326e+000 5.167624e+001
      vertex   6.504238e+001 -8.557468e+000 5.198438e+001
      vertex   6.504238e+001 -8.557468e+000 4.815416e+001
    endloop
  endfacet
  facet normal 1.000000e+000 0.000000e+000 0.000000e+000
    outer loop
      vertex   6.504238e+001 -8.557468e+000 4.815416e+001
      vertex   6.504238e+001 -8.557468e+000 5.198438e+001
      vertex   6.504238e+001 -8.914437e+000 4.790421e+001
    endloop
  endfacet
  facet normal 1.000000e+000 0.000000e+000 -0.000000e+000
    outer loop
      vertex   6.504238e+001 -8.914437e+000 4.790421e+001
      vertex   6.504238e+001 -8.557468e+000 5.198438e+001
      vertex   6.504238e+001 -8.914437e+000 5.223433e+001
    endloop
  endfacet
  facet normal 1.000000e+000 0.000000e+000 -0.000000e+000
    outer loop
      vertex   6.504238e+001 -9.309387e+000 4.772004e+001
      vertex   6.504238e+001 -8.914437e+000 5.223433e+001
      vertex   6.504238e+001 -9.309387e+000 5.241850e+001
    endloop
  endfacet
  facet normal 1.000000e+000 0.000000e+000 -0.000000e+000
    outer loop
      vertex   6.504238e+001 -9.730317e+000 4.760725e+001
      vertex   6.504238e+001 -9.309387e+000 5.241850e+001
      vertex   6.504238e+001 -9.730317e+000 5.253129e+001
    endloop
  endfacet
  facet normal 1.000000e+000 0.000000e+000 -0.000000e+000
    outer loop
      vertex   6.504238e+001 -1.016444e+001 4.756927e+001
      vertex   6.504238e+001 -9.730317e+000 5.253129e+001
      vertex   6.504238e+001 -1.016444e+001 5.256927e+001
    endloop
  endfacet
  facet normal 1.000000e+000 0.000000e+000 -0.000000e+000
    outer loop
      vertex   6.504238e+001 -1.059856e+001 4.760725e+001
      vertex   6.504238e+001 -1.016444e+001 5.256927e+001
      vertex   6.504238e+001 -1.059856e+001 5.253129e+001
    endloop
  endfacet
  facet normal 1.000000e+000 0.000000e+000 -0.000000e+000
    outer loop
      vertex   6.504238e+001 -1.101949e+001 4.772004e+001
      vertex   6.504238e+001 -1.059856e+001 5.253129e+001
      vertex   6.504238e+001 -1.101949e+001 5.241850e+001
    endloop
  endfacet
  facet normal 1.000000e+000 0.000000e+000 -0.000000e+000
    outer loop
      vertex   6.504238e+001 -1.141444e+001 4.790421e+001
      vertex   6.504238e+001 -1.101949e+001 5.241850e+001
      vertex   6.504238e+001 -1.141444e+001 5.223433e+001
    endloop
  endfacet
  facet normal 1.000000e+000 0.000000e+000 -0.000000e+000
    outer loop
      vertex   6.504238e+001 -1.177141e+001 4.815416e+001
      vertex   6.504238e+001 -1.141444e+001 5.223433e+001
      vertex   6.504238e+001 -1.177141e+001 5.198438e+001
    endloop
  endfacet
  facet normal 1.000000e+000 0.000000e+000 -0.000000e+000
    outer loop
      vertex   6.504238e+001 -1.207955e+001 4.846230e+001
      vertex   6.504238e+001 -1.177141e+001 5.198438e+001
      vertex   6.504238e+001 -1.207955e+001 5.167624e+001
    endloop
  endfacet
  facet normal 1.000000e+000 0.000000e+000 -0.000000e+000
    outer loop
      vertex   6.504238e+001 -1.232950e+001 4.881927e+001
      vertex   6.504238e+001 -1.207955e+001 5.167624e+001
      vertex   6.504238e+001 -1.232950e+001 5.131927e+001
    endloop
  endfacet
  facet normal 1.000000e+000 0.000000e+000 -0.000000e+000
    outer loop
      vertex   6.504238e+001 -1.251367e+001 4.921422e+001
      vertex   6.504238e+001 -1.232950e+001 5.131927e+001
      vertex   6.504238e+001 -1.251367e+001 5.092432e+001
    endloop
  endfacet
  facet normal 1.000000e+000 0.000000e+000 -0.000000e+000
    outer loop
      vertex   6.504238e+001 -1.262646e+001 4.963515e+001
      vertex   6.504238e+001 -1.251367e+001 5.092432e+001
      vertex   6.504238e+001 -1.262646e+001 5.050339e+001
    endloop
  endfacet
  facet normal 1.000000e+000 -0.000000e+000 0.000000e+000
    outer loop
      vertex   6.504238e+001 -1.266444e+001 5.006927e+001
      vertex   6.504238e+001 -1.262646e+001 4.963515e+001
      vertex   6.504238e+001 -1.262646e+001 5.050339e+001
    endloop
  endfacet
  facet normal 1.000000e+000 -0.000000e+000 -0.000000e+000
    outer loop
      vertex   6.504238e+001 -1.262646e+001 4.963515e+001
      vertex   6.504238e+001 -1.251367e+001 4.921422e+001
      vertex   6.504238e+001 -1.251367e+001 5.092432e+001
    endloop
  endfacet
  facet normal 1.000000e+000 -0.000000e+000 0.000000e+000
    outer loop
      vertex   6.504238e+001 -1.251367e+001 4.921422e+001
      vertex   6.504238e+001 -1.232950e+001 4.881927e+001
      vertex   6.504238e+001 -1.232950e+001 5.131927e+001
    endloop
  endfacet
  facet normal 1.000000e+000 -0.000000e+000 0.000000e+000
    outer loop
      vertex   6.504238e+001 -1.232950e+001 4.881927e+001
      vertex   6.504238e+001 -1.207955e+001 4.846230e+001
      vertex   6.504238e+001 -1.207955e+001 5.167624e+001
    endloop
  endfacet
  facet normal 1.000000e+000 -0.000000e+000 0.000000e+000
    outer loop
      vertex   6.504238e+001 -1.207955e+001 4.846230e+001
      vertex   6.504238e+001 -1.177141e+001 4.815416e+001
      vertex   6.504238e+001 -1.177141e+001 5.198438e+001
    endloop
  endfacet
  facet normal 1.000000e+000 -0.000000e+000 0.000000e+000
    outer loop
      vertex   6.504238e+001 -1.177141e+001 4.815416e+001
      vertex   6.504238e+001 -1.141444e+001 4.790421e+001
      vertex   6.504238e+001 -1.141444e+001 5.223433e+001
    endloop
  endfacet
  facet normal 1.000000e+000 -0.000000e+000 -0.000000e+000
    outer loop
      vertex   6.504238e+001 -1.141444e+001 4.790421e+001
      vertex   6.504238e+001 -1.101949e+001 4.772004e+001
      vertex   6.504238e+001 -1.101949e+001 5.241850e+001
    endloop
  endfacet
  facet normal 1.000000e+000 -0.000000e+000 -0.000000e+000
    outer loop
      vertex   6.504238e+001 -1.101949e+001 4.772004e+001
      vertex   6.504238e+001 -1.059856e+001 4.760725e+001
      vertex   6.504238e+001 -1.059856e+001 5.253129e+001
    endloop
  endfacet
  facet normal 1.000000e+000 -0.000000e+000 0.000000e+000
    outer loop
      vertex   6.504238e+001 -1.059856e+001 4.760725e+001
      vertex   6.504238e+001 -1.016444e+001 4.756927e+001
      vertex   6.504238e+001 -1.016444e+001 5.256927e+001
    endloop
  endfacet
  facet normal 1.000000e+000 -0.000000e+000 0.000000e+000
    outer loop
      vertex   6.504238e+001 -9.730317e+000 5.253129e+001
      vertex   6.504238e+001 -1.016444e+001 4.756927e+001
      vertex   6.504238e+001 -9.730317e+000 4.760725e+001
    endloop
  endfacet
  facet normal 1.000000e+000 -0.000000e+000 0.000000e+000
    outer loop
      vertex   6.504238e+001 -9.309387e+000 5.241850e+001
      vertex   6.504238e+001 -9.730317e+000 4.760725e+001
      vertex   6.504238e+001 -9.309387e+000 4.772004e+001
    endloop
  endfacet
  facet normal 1.000000e+000 -0.000000e+000 0.000000e+000
    outer loop
      vertex   6.504238e+001 -8.914437e+000 5.223433e+001
      vertex   6.504238e+001 -9.309387e+000 4.772004e+001
      vertex   6.504238e+001 -8.914437e+000 4.790421e+001
    endloop
  endfacet
  facet normal -1.776357e-016 1.000000e+000 0.000000e+000
    outer loop
      vertex   -9.957619e+000 3.941986e+001 1.000000e+002
      vertex   4.004238e+001 3.941986e+001 1.000000e+002
      vertex   -9.957619e+000 3.941986e+001 0.000000e+000
    endloop
  endfacet
  facet normal -1.776357e-016 1.000000e+000 0.000000e+000
    outer loop
      vertex   -9.957619e+000 3.941986e+001 0.000000e+000
      vertex   4.004238e+001 3.941986e+001 1.000000e+002
      vertex   4.004238e+001 3.941986e+001 0.000000e+000
    endloop
  endfacet
  facet normal 1.000000e+000 1.494910e-017 1.708690e-016
    outer loop
      vertex   4.004238e+001 -1.059856e+001 4.760725e+001
      vertex   4.004238e+001 -6.058014e+001 0.000000e+000
      vertex   4.004238e+001 -1.016444e+001 4.756927e+001
    endloop
  endfacet
  facet normal 1.000000e+000 3.901435e-017 1.456036e-016
    outer loop
      vertex   4.004238e+001 -1.059856e+001 4.760725e+001
      vertex   4.004238e+001 -1.101949e+001 4.772004e+001
      vertex   4.004238e+001 -6.058014e+001 0.000000e+000
    endloop
  endfacet
  facet normal 1.000000e+000 5.847256e-017 1.253948e-016
    outer loop
      vertex   4.004238e+001 -6.058014e+001 0.000000e+000
      vertex   4.004238e+001 -1.101949e+001 4.772004e+001
      vertex   4.004238e+001 -1.141444e+001 4.790421e+001
    endloop
  endfacet
  facet normal 1.000000e+000 7.553822e-017 1.078798e-016
    outer loop
      vertex   4.004238e+001 -1.177141e+001 4.815416e+001
      vertex   4.004238e+001 -6.058014e+001 0.000000e+000
      vertex   4.004238e+001 -1.141444e+001 4.790421e+001
    endloop
  endfacet
  facet normal 1.000000e+000 9.159982e-017 9.159982e-017
    outer loop
      vertex   4.004238e+001 -1.177141e+001 4.815416e+001
      vertex   4.004238e+001 -1.207955e+001 4.846230e+001
      vertex   4.004238e+001 -6.058014e+001 0.000000e+000
    endloop
  endfacet
  facet normal 1.000000e+000 1.077438e-016 7.544305e-017
    outer loop
      vertex   4.004238e+001 -6.058014e+001 0.000000e+000
      vertex   4.004238e+001 -1.207955e+001 4.846230e+001
      vertex   4.004238e+001 -1.232950e+001 4.881927e+001
    endloop
  endfacet
  facet normal 1.000000e+000 1.250683e-016 5.832033e-017
    outer loop
      vertex   4.004238e+001 -1.251367e+001 4.921422e+001
      vertex   4.004238e+001 -6.058014e+001 0.000000e+000
      vertex   4.004238e+001 -1.232950e+001 4.881927e+001
    endloop
  endfacet
  facet normal 1.000000e+000 1.450007e-016 3.885282e-017
    outer loop
      vertex   4.004238e+001 -1.251367e+001 4.921422e+001
      vertex   4.004238e+001 -1.262646e+001 4.963515e+001
      vertex   4.004238e+001 -6.058014e+001 0.000000e+000
    endloop
  endfacet
  facet normal 1.000000e+000 1.698361e-016 1.485874e-017
    outer loop
      vertex   4.004238e+001 -6.058014e+001 0.000000e+000
      vertex   4.004238e+001 -1.262646e+001 4.963515e+001
      vertex   4.004238e+001 -1.266444e+001 5.006927e+001
    endloop
  endfacet
  facet normal 1.000000e+000 1.698755e-016 -1.486218e-017
    outer loop
      vertex   4.004238e+001 -6.058014e+001 1.000000e+002
      vertex   4.004238e+001 -1.266444e+001 5.006927e+001
      vertex   4.004238e+001 -1.262646e+001 5.050339e+001
    endloop
  endfacet
  facet normal 1.000000e+000 1.450886e-016 -3.887638e-017
    outer loop
      vertex   4.004238e+001 -1.251367e+001 5.092432e+001
      vertex   4.004238e+001 -6.058014e+001 1.000000e+002
      vertex   4.004238e+001 -1.262646e+001 5.050339e+001
    endloop
  endfacet
  facet normal 1.000000e+000 1.251822e-016 -5.837343e-017
    outer loop
      vertex   4.004238e+001 -1.251367e+001 5.092432e+001
      vertex   4.004238e+001 -1.232950e+001 5.131927e+001
      vertex   4.004238e+001 -6.058014e+001 1.000000e+002
    endloop
  endfacet
  facet normal 1.000000e+000 1.078708e-016 -7.553193e-017
    outer loop
      vertex   4.004238e+001 -6.058014e+001 1.000000e+002
      vertex   4.004238e+001 -1.232950e+001 5.131927e+001
      vertex   4.004238e+001 -1.207955e+001 5.167624e+001
    endloop
  endfacet
  facet normal 1.000000e+000 9.173089e-017 -9.173089e-017
    outer loop
      vertex   4.004238e+001 -1.177141e+001 5.198438e+001
      vertex   4.004238e+001 -6.058014e+001 1.000000e+002
      vertex   4.004238e+001 -1.207955e+001 5.167624e+001
    endloop
  endfacet
  facet normal 1.000000e+000 7.566555e-017 -1.080616e-016
    outer loop
      vertex   4.004238e+001 -1.177141e+001 5.198438e+001
      vertex   4.004238e+001 -1.141444e+001 5.223433e+001
      vertex   4.004238e+001 -6.058014e+001 1.000000e+002
    endloop
  endfacet
  facet normal 1.000000e+000 5.858716e-017 -1.256406e-016
    outer loop
      vertex   4.004238e+001 -6.058014e+001 1.000000e+002
      vertex   4.004238e+001 -1.141444e+001 5.223433e+001
      vertex   4.004238e+001 -1.101949e+001 5.241850e+001
    endloop
  endfacet
  facet normal 1.000000e+000 3.910316e-017 -1.459350e-016
    outer loop
      vertex   4.004238e+001 -1.059856e+001 5.253129e+001
      vertex   4.004238e+001 -6.058014e+001 1.000000e+002
      vertex   4.004238e+001 -1.101949e+001 5.241850e+001
    endloop
  endfacet
  facet normal 1.000000e+000 1.498905e-017 -1.713256e-016
    outer loop
      vertex   4.004238e+001 -1.059856e+001 5.253129e+001
      vertex   4.004238e+001 -1.016444e+001 5.256927e+001
      vertex   4.004238e+001 -6.058014e+001 1.000000e+002
    endloop
  endfacet
  facet normal 1.000000e+000 1.776357e-016 1.556888e-018
    outer loop
      vertex   4.004238e+001 -6.058014e+001 1.000000e+002
      vertex   4.004238e+001 -1.016444e+001 5.256927e+001
      vertex   4.004238e+001 3.941986e+001 1.000000e+002
    endloop
  endfacet
  facet normal 1.000000e+000 1.501011e-017 1.715664e-016
    outer loop
      vertex   4.004238e+001 3.941986e+001 1.000000e+002
      vertex   4.004238e+001 -1.016444e+001 5.256927e+001
      vertex   4.004238e+001 -9.730317e+000 5.253129e+001
    endloop
  endfacet
  facet normal 1.000000e+000 3.924682e-017 1.464711e-016
    outer loop
      vertex   4.004238e+001 -9.309387e+000 5.241850e+001
      vertex   4.004238e+001 3.941986e+001 1.000000e+002
      vertex   4.004238e+001 -9.730317e+000 5.253129e+001
    endloop
  endfacet
  facet normal 1.000000e+000 5.891024e-017 1.263334e-016
    outer loop
      vertex   4.004238e+001 -9.309387e+000 5.241850e+001
      vertex   4.004238e+001 -8.914437e+000 5.223433e+001
      vertex   4.004238e+001 3.941986e+001 1.000000e+002
    endloop
  endfacet
  facet normal 1.000000e+000 7.620530e-017 1.088325e-016
    outer loop
      vertex   4.004238e+001 3.941986e+001 1.000000e+002
      vertex   4.004238e+001 -8.914437e+000 5.223433e+001
      vertex   4.004238e+001 -8.557468e+000 5.198438e+001
    endloop
  endfacet
  facet normal 1.000000e+000 9.252539e-017 9.252539e-017
    outer loop
      vertex   4.004238e+001 -8.249326e+000 5.167624e+001
      vertex   4.004238e+001 3.941986e+001 1.000000e+002
      vertex   4.004238e+001 -8.557468e+000 5.198438e+001
    endloop
  endfacet
  facet normal 1.000000e+000 1.089711e-016 7.630241e-017
    outer loop
      vertex   4.004238e+001 -8.249326e+000 5.167624e+001
      vertex   4.004238e+001 -7.999374e+000 5.131927e+001
      vertex   4.004238e+001 3.941986e+001 1.000000e+002
    endloop
  endfacet
  facet normal 1.000000e+000 1.266665e-016 5.906557e-017
    outer loop
      vertex   4.004238e+001 3.941986e+001 1.000000e+002
      vertex   4.004238e+001 -7.999374e+000 5.131927e+001
      vertex   4.004238e+001 -7.815206e+000 5.092432e+001
    endloop
  endfacet
  facet normal 1.000000e+000 1.470863e-016 3.941166e-017
    outer loop
      vertex   4.004238e+001 -7.702418e+000 5.050339e+001
      vertex   4.004238e+001 3.941986e+001 1.000000e+002
      vertex   4.004238e+001 -7.815206e+000 5.092432e+001
    endloop
  endfacet
  facet normal 1.000000e+000 1.726205e-016 1.510234e-017
    outer loop
      vertex   4.004238e+001 -7.702418e+000 5.050339e+001
      vertex   4.004238e+001 -7.664437e+000 5.006927e+001
      vertex   4.004238e+001 3.941986e+001 1.000000e+002
    endloop
  endfacet
  facet normal 1.000000e+000 1.886358e-016 0.000000e+000
    outer loop
      vertex   4.004238e+001 3.941986e+001 1.000000e+002
      vertex   4.004238e+001 -7.664437e+000 5.006927e+001
      vertex   4.004238e+001 3.941986e+001 0.000000e+000
    endloop
  endfacet
  facet normal 1.000000e+000 1.725798e-016 -1.509878e-017
    outer loop
      vertex   4.004238e+001 3.941986e+001 0.000000e+000
      vertex   4.004238e+001 -7.664437e+000 5.006927e+001
      vertex   4.004238e+001 -7.702418e+000 4.963515e+001
    endloop
  endfacet
  facet normal 1.000000e+000 1.469959e-016 -3.938744e-017
    outer loop
      vertex   4.004238e+001 -7.815206e+000 4.921422e+001
      vertex   4.004238e+001 3.941986e+001 0.000000e+000
      vertex   4.004238e+001 -7.702418e+000 4.963515e+001
    endloop
  endfacet
  facet normal 1.000000e+000 1.265499e-016 -5.901120e-017
    outer loop
      vertex   4.004238e+001 -7.815206e+000 4.921422e+001
      vertex   4.004238e+001 -7.999374e+000 4.881927e+001
      vertex   4.004238e+001 3.941986e+001 0.000000e+000
    endloop
  endfacet
  facet normal 1.000000e+000 1.088416e-016 -7.621170e-017
    outer loop
      vertex   4.004238e+001 3.941986e+001 0.000000e+000
      vertex   4.004238e+001 -7.999374e+000 4.881927e+001
      vertex   4.004238e+001 -8.249326e+000 4.846230e+001
    endloop
  endfacet
  facet normal 1.000000e+000 9.239204e-017 -9.239204e-017
    outer loop
      vertex   4.004238e+001 -8.557468e+000 4.815416e+001
      vertex   4.004238e+001 3.941986e+001 0.000000e+000
      vertex   4.004238e+001 -8.249326e+000 4.846230e+001
    endloop
  endfacet
  facet normal 1.000000e+000 7.607616e-017 -1.086480e-016
    outer loop
      vertex   4.004238e+001 -8.557468e+000 4.815416e+001
      vertex   4.004238e+001 -8.914437e+000 4.790421e+001
      vertex   4.004238e+001 3.941986e+001 0.000000e+000
    endloop
  endfacet
  facet normal 1.000000e+000 5.879438e-017 -1.260849e-016
    outer loop
      vertex   4.004238e+001 3.941986e+001 0.000000e+000
      vertex   4.004238e+001 -8.914437e+000 4.790421e+001
      vertex   4.004238e+001 -9.309387e+000 4.772004e+001
    endloop
  endfacet
  facet normal 1.000000e+000 3.915736e-017 -1.461373e-016
    outer loop
      vertex   4.004238e+001 -9.730317e+000 4.760725e+001
      vertex   4.004238e+001 3.941986e+001 0.000000e+000
      vertex   4.004238e+001 -9.309387e+000 4.772004e+001
    endloop
  endfacet
  facet normal 1.000000e+000 1.497005e-017 -1.711085e-016
    outer loop
      vertex   4.004238e+001 -9.730317e+000 4.760725e+001
      vertex   4.004238e+001 -1.016444e+001 4.756927e+001
      vertex   4.004238e+001 3.941986e+001 0.000000e+000
    endloop
  endfacet
  facet normal 1.000000e+000 1.776357e-016 -1.552354e-018
    outer loop
      vertex   4.004238e+001 3.941986e+001 0.000000e+000
      vertex   4.004238e+001 -1.016444e+001 4.756927e+001
      vertex   4.004238e+001 -6.058014e+001 0.000000e+000
    endloop
  endfacet
  facet normal 1.000000e+000 1.853627e-016 0.000000e+000
    outer loop
      vertex   4.004238e+001 -6.058014e+001 1.000000e+002
      vertex   4.004238e+001 -6.058014e+001 0.000000e+000
      vertex   4.004238e+001 -1.266444e+001 5.006927e+001
    endloop
  endfacet
  facet normal 1.776357e-016 -1.000000e+000 0.000000e+000
    outer loop
      vertex   4.004238e+001 -6.058014e+001 1.000000e+002
      vertex   -9.957619e+000 -6.058014e+001 1.000000e+002
      vertex   4.004238e+001 -6.058014e+001 0.000000e+000
    endloop
  endfacet
  facet normal 1.776357e-016 -1.000000e+000 0.000000e+000
    outer loop
      vertex   4.004238e+001 -6.058014e+001 0.000000e+000
      vertex   -9.957619e+000 -6.058014e+001 1.000000e+002
      vertex   -9.957619e+000 -6.058014e+001 0.000000e+000
    endloop
  endfacet
  facet normal -1.000000e+000 0.000000e+000 0.000000e+000
    outer loop
      vertex   -9.957619e+000 -5.921756e+001 9.939953e+001
      vertex   -9.957619e+000 -6.058014e+001 1.000000e+002
      vertex   -9.957619e+000 -2.720832e+001 9.939953e+001
    endloop
  endfacet
  facet normal -1.000000e+000 -0.000000e+000 -0.000000e+000
    outer loop
      vertex   -9.957619e+000 -5.921756e+001 9.939953e+001
      vertex   -9.957619e+000 -5.921756e+001 5.935334e+001
      vertex   -9.957619e+000 -6.058014e+001 1.000000e+002
    endloop
  endfacet
  facet normal -1.000000e+000 0.000000e+000 -0.000000e+000
    outer loop
      vertex   -9.957619e+000 -6.058014e+001 1.000000e+002
      vertex   -9.957619e+000 -5.921756e+001 5.935334e+001
      vertex   -9.957619e+000 -6.058014e+001 0.000000e+000
    endloop
  endfacet
  facet normal -1.000000e+000 0.000000e+000 0.000000e+000
    outer loop
      vertex   -9.957619e+000 -6.058014e+001 0.000000e+000
      vertex   -9.957619e+000 -5.921756e+001 5.935334e+001
      vertex   -9.957619e+000 -2.720832e+001 5.935334e+001
    endloop
  endfacet
  facet normal -1.000000e+000 0.000000e+000 0.000000e+000
    outer loop
      vertex   -9.957619e+000 3.941986e+001 0.000000e+000
      vertex   -9.957619e+000 -2.720832e+001 5.935334e+001
      vertex   -9.957619e+000 3.941986e+001 1.000000e+002
    endloop
  endfacet
  facet normal -1.000000e+000 0.000000e+000 0.000000e+000
    outer loop
      vertex   -9.957619e+000 3.941986e+001 0.000000e+000
      vertex   -9.957619e+000 -6.058014e+001 0.000000e+000
      vertex   -9.957619e+000 -2.720832e+001 5.935334e+001
    endloop
  endfacet
  facet normal -1.000000e+000 0.000000e+000 -0.000000e+000
    outer loop
      vertex   -9.957619e+000 -6.058014e+001 1.000000e+002
      vertex   -9.957619e+000 3.941986e+001 1.000000e+002
      vertex   -9.957619e+000 -2.720832e+001 9.939953e+001
    endloop
  endfacet
  facet normal -1.000000e+000 0.000000e+000 -0.000000e+000
    outer loop
      vertex   -9.957619e+000 -2.720832e+001 9.939953e+001
      vertex   -9.957619e+000 3.941986e+001 1.000000e+002
      vertex   -9.957619e+000 -2.720832e+001 5.935334e+001
    endloop
  endfacet
  facet normal 0.000000e+000 0.000000e+000 1.000000e+000
    outer loop
      vertex   4.004238e+001 3.941986e+001 1.000000e+002
      vertex   -9.957619e+000 3.941986e+001 1.000000e+002
      vertex   4.004238e+001 -6.058014e+001 1.000000e+002
    endloop
  endfacet
  facet normal 0.000000e+000 0.000000e+000 1.000000e+000
    outer loop
      vertex   4.004238e+001 -6.058014e+001 1.000000e+002
      vertex   -9.957619e+000 3.941986e+001 1.000000e+002
      vertex   -9.957619e+000 -6.058014e+001 1.000000e+002
    endloop
  endfacet
  facet normal 0.000000e+000 -0.000000e+000 -1.000000e+000
    outer loop
      vertex   -9.957619e+000 3.941986e+001 0.000000e+000
      vertex   4.004238e+001 3.941986e+001 0.000000e+000
      vertex   -9.957619e+000 -6.058014e+001 0.000000e+000
    endloop
  endfacet
  facet normal 0.000000e+000 0.000000e+000 -1.000000e+000
    outer loop
      vertex   -9.957619e+000 -6.058014e+001 0.000000e+000
      vertex   4.004238e+001 3.941986e+001 0.000000e+000
      vertex   4.004238e+001 -6.058014e+001 0.000000e+000
    endloop
  endfacet
endsolid
