solid OpenSCAD_Model
  facet normal -2.22045e-016 -4.93038e-032 1
    outer loop
      vertex 8.9 1.9762e-015 -0.2
      vertex 0.1 2.22045e-017 -0.2
      vertex 0.1 -31.4 -0.2
    endloop
  endfacet
  facet normal -2.22045e-016 -4.93038e-032 1
    outer loop
      vertex 8.9 -31.4 -0.2
      vertex 8.9 1.9762e-015 -0.2
      vertex 0.1 -31.4 -0.2
    endloop
  endfacet
  facet normal -1 -2.22045e-016 -2.22045e-016
    outer loop
      vertex 0.1 2.22045e-017 -0.2
      vertex 0.1 2.22045e-017 -9
      vertex 0.1 -31.4 -0.2
    endloop
  endfacet
  facet normal -1 -2.22045e-016 -2.22045e-016
    outer loop
      vertex 0.1 -36.1 -4.8
      vertex 0.1 2.22045e-017 -9
      vertex 0.1 -45 -9
    endloop
  endfacet
  facet normal -1 -2.22045e-016 -2.22045e-016
    outer loop
      vertex 0.1 -36.1 -0.2
      vertex 0.1 -45 -9
      vertex 0.1 -45 -0.2
    endloop
  endfacet
  facet normal -1 -2.22045e-016 -2.22045e-016
    outer loop
      vertex 0.1 -31.4 -4.8
      vertex 0.1 2.22045e-017 -9
      vertex 0.1 -36.1 -4.8
    endloop
  endfacet
  facet normal -1 -2.22045e-016 -2.22045e-016
    outer loop
      vertex 0.1 -31.4 -0.2
      vertex 0.1 2.22045e-017 -9
      vertex 0.1 -31.4 -4.8
    endloop
  endfacet
  facet normal -1 -2.22045e-016 -2.22045e-016
    outer loop
      vertex 0.1 -36.1 -4.8
      vertex 0.1 -45 -9
      vertex 0.1 -36.1 -0.2
    endloop
  endfacet
  facet normal -2.22045e-016 1 -4.93038e-032
    outer loop
      vertex 0.1 2.22045e-017 -0.2
      vertex 8.9 1.9762e-015 -0.2
      vertex 0.1 2.22045e-017 -9
    endloop
  endfacet
  facet normal -2.22045e-016 1 -4.93038e-032
    outer loop
      vertex 0.1 2.22045e-017 -9
      vertex 8.9 1.9762e-015 -0.2
      vertex 8.9 1.9762e-015 -9
    endloop
  endfacet
  facet normal 1 2.22045e-016 2.22045e-016
    outer loop
      vertex 8.9 1.9762e-015 -9
      vertex 8.9 1.9762e-015 -0.2
      vertex 8.9 -31.4 -0.2
    endloop
  endfacet
  facet normal 1 2.22045e-016 2.22045e-016
    outer loop
      vertex 8.9 -36.1 -4.8
      vertex 8.9 1.9762e-015 -9
      vertex 8.9 -31.4 -4.8
    endloop
  endfacet
  facet normal 1 2.22045e-016 2.22045e-016
    outer loop
      vertex 8.9 -31.4 -4.8
      vertex 8.9 1.9762e-015 -9
      vertex 8.9 -31.4 -0.2
    endloop
  endfacet
  facet normal 1 2.22045e-016 2.22045e-016
    outer loop
      vertex 8.9 -45 -9
      vertex 8.9 1.9762e-015 -9
      vertex 8.9 -36.1 -4.8
    endloop
  endfacet
  facet normal 1 2.22045e-016 2.22045e-016
    outer loop
      vertex 8.9 -45 -0.2
      vertex 8.9 -36.1 -4.8
      vertex 8.9 -36.1 -0.2
    endloop
  endfacet
  facet normal 1 2.22045e-016 2.22045e-016
    outer loop
      vertex 8.9 -45 -9
      vertex 8.9 -36.1 -4.8
      vertex 8.9 -45 -0.2
    endloop
  endfacet
  facet normal 2.22045e-016 -1 4.93038e-032
    outer loop
      vertex 0.1 -31.4 -4.8
      vertex 8.9 -31.4 -4.8
      vertex 8.9 -31.4 -0.2
    endloop
  endfacet
  facet normal 2.22045e-016 -1 4.93038e-032
    outer loop
      vertex 0.1 -31.4 -0.2
      vertex 0.1 -31.4 -4.8
      vertex 8.9 -31.4 -0.2
    endloop
  endfacet
  facet normal -2.22045e-016 -4.93038e-032 1
    outer loop
      vertex 0.1 -36.1 -4.8
      vertex 8.9 -36.1 -4.8
      vertex 8.9 -31.4 -4.8
    endloop
  endfacet
  facet normal -2.22045e-016 -4.93038e-032 1
    outer loop
      vertex 0.1 -31.4 -4.8
      vertex 0.1 -36.1 -4.8
      vertex 8.9 -31.4 -4.8
    endloop
  endfacet
  facet normal -2.22045e-016 1 -4.93038e-032
    outer loop
      vertex 8.9 -36.1 -4.8
      vertex 0.1 -36.1 -4.8
      vertex 8.9 -36.1 -0.2
    endloop
  endfacet
  facet normal -2.22045e-016 1 -4.93038e-032
    outer loop
      vertex 8.9 -36.1 -0.2
      vertex 0.1 -36.1 -4.8
      vertex 0.1 -36.1 -0.2
    endloop
  endfacet
  facet normal -2.22045e-016 -4.93038e-032 1
    outer loop
      vertex 8.9 -36.1 -0.2
      vertex 0.1 -36.1 -0.2
      vertex 0.1 -45 -0.2
    endloop
  endfacet
  facet normal -2.22045e-016 -4.93038e-032 1
    outer loop
      vertex 8.9 -45 -0.2
      vertex 8.9 -36.1 -0.2
      vertex 0.1 -45 -0.2
    endloop
  endfacet
  facet normal 2.22045e-016 -1 4.93038e-032
    outer loop
      vertex 8.9 -45 -0.2
      vertex 0.1 -45 -0.2
      vertex 0.1 -45 -9
    endloop
  endfacet
  facet normal 2.22045e-016 -1 4.93038e-032
    outer loop
      vertex 8.9 -45 -9
      vertex 8.9 -45 -0.2
      vertex 0.1 -45 -9
    endloop
  endfacet
  facet normal 2.22045e-016 4.93038e-032 -1
    outer loop
      vertex 0.1 2.22045e-017 -9
      vertex 8.9 1.9762e-015 -9
      vertex 0.1 -45 -9
    endloop
  endfacet
  facet normal 2.22045e-016 4.93038e-032 -1
    outer loop
      vertex 0.1 -45 -9
      vertex 8.9 1.9762e-015 -9
      vertex 8.9 -45 -9
    endloop
  endfacet
endsolid OpenSCAD_Model
