solid OpenSCAD_Model
  facet normal -1 0 0
    outer loop
      vertex 0 75.7 0
      vertex 0 54.4 5
      vertex 0 75.7 10.8
    endloop
  endfacet
  facet normal -1 0 0
    outer loop
      vertex 0 75.7 0
      vertex 0 21.5 5
      vertex 0 54.4 5
    endloop
  endfacet
  facet normal -1 0 0
    outer loop
      vertex 0 0 0
      vertex 0 21.5 5
      vertex 0 75.7 0
    endloop
  endfacet
  facet normal -1 0 0
    outer loop
      vertex 0 0 10.8
      vertex 0 21.5 5
      vertex 0 0 0
    endloop
  endfacet
  facet normal -1 0 0
    outer loop
      vertex 0 21.5 5
      vertex 0 0 10.8
      vertex 0 21.5 10.8
    endloop
  endfacet
  facet normal -1 -0 0
    outer loop
      vertex 0 75.7 10.8
      vertex 0 54.4 5
      vertex 0 54.4 10.8
    endloop
  endfacet
  facet normal -0 0 1
    outer loop
      vertex 0 21.5 10.8
      vertex 11 0 10.8
      vertex 11 21.5 10.8
    endloop
  endfacet
  facet normal 0 0 1
    outer loop
      vertex 11 0 10.8
      vertex 0 21.5 10.8
      vertex 0 0 10.8
    endloop
  endfacet
  facet normal -0 0 1
    outer loop
      vertex 0 75.7 10.8
      vertex 11 54.4 10.8
      vertex 11 75.7 10.8
    endloop
  endfacet
  facet normal 0 0 1
    outer loop
      vertex 11 54.4 10.8
      vertex 0 75.7 10.8
      vertex 0 54.4 10.8
    endloop
  endfacet
  facet normal 1 0 0
    outer loop
      vertex 11 21.5 10.8
      vertex 11 0 10.8
      vertex 11 21.5 5
    endloop
  endfacet
  facet normal 1 -0 0
    outer loop
      vertex 11 21.5 5
      vertex 11 32.3 0
      vertex 11 32.3 5
    endloop
  endfacet
  facet normal 1 0 0
    outer loop
      vertex 11 0 0
      vertex 11 21.5 5
      vertex 11 0 10.8
    endloop
  endfacet
  facet normal 1 0 0
    outer loop
      vertex 11 21.5 5
      vertex 11 0 0
      vertex 11 32.3 0
    endloop
  endfacet
  facet normal 1 0 0
    outer loop
      vertex 11 54.4 5
      vertex 11 75.7 10.8
      vertex 11 54.4 10.8
    endloop
  endfacet
  facet normal 1 0 0
    outer loop
      vertex 11 75.7 10.8
      vertex 11 54.4 5
      vertex 11 75.7 0
    endloop
  endfacet
  facet normal 1 0 0
    outer loop
      vertex 11 43.3 0
      vertex 11 54.4 5
      vertex 11 43.3 5
    endloop
  endfacet
  facet normal 1 0 0
    outer loop
      vertex 11 54.4 5
      vertex 11 43.3 0
      vertex 11 75.7 0
    endloop
  endfacet
  facet normal 0 0 -1
    outer loop
      vertex 11 0 0
      vertex 5 32.3 0
      vertex 11 32.3 0
    endloop
  endfacet
  facet normal -0 0 -1
    outer loop
      vertex 5 32.3 0
      vertex 0 0 0
      vertex 5 43.3 0
    endloop
  endfacet
  facet normal 0 0 -1
    outer loop
      vertex 0 0 0
      vertex 5 32.3 0
      vertex 11 0 0
    endloop
  endfacet
  facet normal 0 0 -1
    outer loop
      vertex 5 43.3 0
      vertex 11 75.7 0
      vertex 11 43.3 0
    endloop
  endfacet
  facet normal 0 0 -1
    outer loop
      vertex 5 43.3 0
      vertex 0 75.7 0
      vertex 11 75.7 0
    endloop
  endfacet
  facet normal 0 0 -1
    outer loop
      vertex 0 75.7 0
      vertex 5 43.3 0
      vertex 0 0 0
    endloop
  endfacet
  facet normal 0 -1 0
    outer loop
      vertex 0 0 0
      vertex 11 0 10.8
      vertex 0 0 10.8
    endloop
  endfacet
  facet normal 0 -1 -0
    outer loop
      vertex 11 0 10.8
      vertex 0 0 0
      vertex 11 0 0
    endloop
  endfacet
  facet normal 0 1 -0
    outer loop
      vertex 11 75.7 0
      vertex 0 75.7 10.8
      vertex 11 75.7 10.8
    endloop
  endfacet
  facet normal 0 1 0
    outer loop
      vertex 0 75.7 10.8
      vertex 11 75.7 0
      vertex 0 75.7 0
    endloop
  endfacet
  facet normal 0 -1 0
    outer loop
      vertex 0 54.4 5
      vertex 11 54.4 10.8
      vertex 0 54.4 10.8
    endloop
  endfacet
  facet normal 0 -1 -0
    outer loop
      vertex 11 54.4 10.8
      vertex 0 54.4 5
      vertex 11 54.4 5
    endloop
  endfacet
  facet normal 0 0 1
    outer loop
      vertex 11 54.4 5
      vertex 5 43.3 5
      vertex 11 43.3 5
    endloop
  endfacet
  facet normal 0 0 1
    outer loop
      vertex 0 21.5 5
      vertex 5 43.3 5
      vertex 0 54.4 5
    endloop
  endfacet
  facet normal -0 0 1
    outer loop
      vertex 0 54.4 5
      vertex 5 43.3 5
      vertex 11 54.4 5
    endloop
  endfacet
  facet normal -0 0 1
    outer loop
      vertex 5 32.3 5
      vertex 11 21.5 5
      vertex 11 32.3 5
    endloop
  endfacet
  facet normal 0 0 1
    outer loop
      vertex 5 32.3 5
      vertex 0 21.5 5
      vertex 11 21.5 5
    endloop
  endfacet
  facet normal 0 0 1
    outer loop
      vertex 5 43.3 5
      vertex 0 21.5 5
      vertex 5 32.3 5
    endloop
  endfacet
  facet normal 0 1 -0
    outer loop
      vertex 11 21.5 5
      vertex 0 21.5 10.8
      vertex 11 21.5 10.8
    endloop
  endfacet
  facet normal 0 1 0
    outer loop
      vertex 0 21.5 10.8
      vertex 11 21.5 5
      vertex 0 21.5 5
    endloop
  endfacet
  facet normal 1 -0 0
    outer loop
      vertex 5 32.3 5
      vertex 5 43.3 0
      vertex 5 43.3 5
    endloop
  endfacet
  facet normal 1 0 0
    outer loop
      vertex 5 43.3 0
      vertex 5 32.3 5
      vertex 5 32.3 0
    endloop
  endfacet
  facet normal 0 1 -0
    outer loop
      vertex 11 32.3 0
      vertex 5 32.3 5
      vertex 11 32.3 5
    endloop
  endfacet
  facet normal 0 1 0
    outer loop
      vertex 5 32.3 5
      vertex 11 32.3 0
      vertex 5 32.3 0
    endloop
  endfacet
  facet normal 0 -1 0
    outer loop
      vertex 5 43.3 0
      vertex 11 43.3 5
      vertex 5 43.3 5
    endloop
  endfacet
  facet normal 0 -1 -0
    outer loop
      vertex 11 43.3 5
      vertex 5 43.3 0
      vertex 11 43.3 0
    endloop
  endfacet
endsolid OpenSCAD_Model
