solid OpenSCAD_Model
  facet normal -1 0 0
    outer loop
      vertex -79 -50 0
      vertex -79 5 3
      vertex -79 5 0
    endloop
  endfacet
  facet normal -1 -0 0
    outer loop
      vertex -79 5 3
      vertex -79 -50 0
      vertex -79 -50 3
    endloop
  endfacet
  facet normal -0 0 1
    outer loop
      vertex -79 5 3
      vertex -75 -20 3
      vertex -75 5 3
    endloop
  endfacet
  facet normal 0 0 1
    outer loop
      vertex -79 -50 3
      vertex -75 -20 3
      vertex -79 5 3
    endloop
  endfacet
  facet normal 0 0 1
    outer loop
      vertex -75 -20 3
      vertex -75.7062 -43.4536 3
      vertex -75.2419 -43.3173 3
    endloop
  endfacet
  facet normal 0 0 1
    outer loop
      vertex -75 -20 3
      vertex -76.1133 -43.7152 3
      vertex -75.7062 -43.4536 3
    endloop
  endfacet
  facet normal 0 0 1
    outer loop
      vertex -75 -20 3
      vertex -76.4301 -44.0809 3
      vertex -76.1133 -43.7152 3
    endloop
  endfacet
  facet normal 0 0 1
    outer loop
      vertex -75 -20 3
      vertex -76.6311 -44.5211 3
      vertex -76.4301 -44.0809 3
    endloop
  endfacet
  facet normal 0 0 1
    outer loop
      vertex -75 -20 3
      vertex -79 -50 3
      vertex -76.6311 -44.5211 3
    endloop
  endfacet
  facet normal -0 0 1
    outer loop
      vertex -73.3689 -44.5211 3
      vertex -71 -50 3
      vertex -71 -20 3
    endloop
  endfacet
  facet normal 0 0 1
    outer loop
      vertex -71 -50 3
      vertex -73.3689 -44.5211 3
      vertex -73.3 -45 3
    endloop
  endfacet
  facet normal 0 0 1
    outer loop
      vertex -71 -20 3
      vertex -73.5699 -44.0809 3
      vertex -73.3689 -44.5211 3
    endloop
  endfacet
  facet normal 0 0 1
    outer loop
      vertex -71 -20 3
      vertex -73.8867 -43.7152 3
      vertex -73.5699 -44.0809 3
    endloop
  endfacet
  facet normal 0 0 1
    outer loop
      vertex -71 -20 3
      vertex -74.2938 -43.4536 3
      vertex -73.8867 -43.7152 3
    endloop
  endfacet
  facet normal 0 0 1
    outer loop
      vertex -71 -20 3
      vertex -74.7581 -43.3173 3
      vertex -74.2938 -43.4536 3
    endloop
  endfacet
  facet normal -0 0 1
    outer loop
      vertex -75 -20 3
      vertex -74.7581 -43.3173 3
      vertex -71 -20 3
    endloop
  endfacet
  facet normal 0 0 1
    outer loop
      vertex -74.7581 -43.3173 3
      vertex -75 -20 3
      vertex -75.2419 -43.3173 3
    endloop
  endfacet
  facet normal -0 0 1
    outer loop
      vertex -73.3689 -45.4789 3
      vertex -71 -50 3
      vertex -73.3 -45 3
    endloop
  endfacet
  facet normal -0 0 1
    outer loop
      vertex -73.5699 -45.9191 3
      vertex -71 -50 3
      vertex -73.3689 -45.4789 3
    endloop
  endfacet
  facet normal -0 0 1
    outer loop
      vertex -73.8867 -46.2848 3
      vertex -71 -50 3
      vertex -73.5699 -45.9191 3
    endloop
  endfacet
  facet normal -0 0 1
    outer loop
      vertex -74.2938 -46.5464 3
      vertex -71 -50 3
      vertex -73.8867 -46.2848 3
    endloop
  endfacet
  facet normal -0 0 1
    outer loop
      vertex -74.7581 -46.6827 3
      vertex -71 -50 3
      vertex -74.2938 -46.5464 3
    endloop
  endfacet
  facet normal -0 0 1
    outer loop
      vertex -75.2419 -46.6827 3
      vertex -71 -50 3
      vertex -74.7581 -46.6827 3
    endloop
  endfacet
  facet normal 0 0 1
    outer loop
      vertex -79 -50 3
      vertex -75.2419 -46.6827 3
      vertex -75.7062 -46.5464 3
    endloop
  endfacet
  facet normal 0 0 1
    outer loop
      vertex -79 -50 3
      vertex -75.7062 -46.5464 3
      vertex -76.1133 -46.2848 3
    endloop
  endfacet
  facet normal 0 0 1
    outer loop
      vertex -75.2419 -46.6827 3
      vertex -79 -50 3
      vertex -71 -50 3
    endloop
  endfacet
  facet normal 0 0 1
    outer loop
      vertex -76.4301 -45.9191 3
      vertex -79 -50 3
      vertex -76.1133 -46.2848 3
    endloop
  endfacet
  facet normal 0 0 1
    outer loop
      vertex -76.6311 -45.4789 3
      vertex -79 -50 3
      vertex -76.4301 -45.9191 3
    endloop
  endfacet
  facet normal 0 0 1
    outer loop
      vertex -76.7 -45 3
      vertex -79 -50 3
      vertex -76.6311 -45.4789 3
    endloop
  endfacet
  facet normal 0 0 1
    outer loop
      vertex -76.6311 -44.5211 3
      vertex -79 -50 3
      vertex -76.7 -45 3
    endloop
  endfacet
  facet normal 1 -0 0
    outer loop
      vertex -71 -15 8.01
      vertex -71 5 0
      vertex -71 5 8.01
    endloop
  endfacet
  facet normal 1 0 0
    outer loop
      vertex -71 5 0
      vertex -71 -15 8.01
      vertex -71 -15 0
    endloop
  endfacet
  facet normal 1 -0 0
    outer loop
      vertex -71 -50 3
      vertex -71 -20 0
      vertex -71 -20 3
    endloop
  endfacet
  facet normal 1 0 0
    outer loop
      vertex -71 -20 0
      vertex -71 -50 3
      vertex -71 -50 0
    endloop
  endfacet
  facet normal 0 1 0
    outer loop
      vertex -71 5 8.01
      vertex -75 5 3
      vertex -71.5 5 8.01
    endloop
  endfacet
  facet normal 0 1 -0
    outer loop
      vertex -71 5 0
      vertex -75 5 3
      vertex -71 5 8.01
    endloop
  endfacet
  facet normal 0 1 0
    outer loop
      vertex -79 5 0
      vertex -75 5 3
      vertex -71 5 0
    endloop
  endfacet
  facet normal 0 1 0
    outer loop
      vertex -75 5 3
      vertex -79 5 0
      vertex -79 5 3
    endloop
  endfacet
  facet normal 0 1 -0
    outer loop
      vertex -71.5 5 8.01
      vertex -75 5 10
      vertex -71.5 5 10
    endloop
  endfacet
  facet normal 0 1 0
    outer loop
      vertex -75 5 10
      vertex -71.5 5 8.01
      vertex -75 5 3
    endloop
  endfacet
  facet normal 0 0 -1
    outer loop
      vertex -73.3689 -44.5211 0
      vertex -71 -20 0
      vertex -71 -50 0
    endloop
  endfacet
  facet normal 0 0 -1
    outer loop
      vertex -73.5699 -44.0809 0
      vertex -71 -20 0
      vertex -73.3689 -44.5211 0
    endloop
  endfacet
  facet normal 0 0 -1
    outer loop
      vertex -73.3689 -44.5211 0
      vertex -71 -50 0
      vertex -73.3 -45 0
    endloop
  endfacet
  facet normal 0 0 -1
    outer loop
      vertex -71 -50 0
      vertex -73.3689 -45.4789 0
      vertex -73.3 -45 0
    endloop
  endfacet
  facet normal 0 0 -1
    outer loop
      vertex -71 -50 0
      vertex -73.5699 -45.9191 0
      vertex -73.3689 -45.4789 0
    endloop
  endfacet
  facet normal 0 0 -1
    outer loop
      vertex -71 -50 0
      vertex -73.8867 -46.2848 0
      vertex -73.5699 -45.9191 0
    endloop
  endfacet
  facet normal 0 0 -1
    outer loop
      vertex -71 -50 0
      vertex -74.2938 -46.5464 0
      vertex -73.8867 -46.2848 0
    endloop
  endfacet
  facet normal 0 0 -1
    outer loop
      vertex -71 -50 0
      vertex -74.7581 -46.6827 0
      vertex -74.2938 -46.5464 0
    endloop
  endfacet
  facet normal 0 0 -1
    outer loop
      vertex -71 -50 0
      vertex -75.2419 -46.6827 0
      vertex -74.7581 -46.6827 0
    endloop
  endfacet
  facet normal 0 0 -1
    outer loop
      vertex -79 -50 0
      vertex -75.2419 -46.6827 0
      vertex -71 -50 0
    endloop
  endfacet
  facet normal -0 0 -1
    outer loop
      vertex -75.2419 -46.6827 0
      vertex -79 -50 0
      vertex -75.7062 -46.5464 0
    endloop
  endfacet
  facet normal -0 0 -1
    outer loop
      vertex -76.6311 -45.4789 0
      vertex -79 -50 0
      vertex -76.7 -45 0
    endloop
  endfacet
  facet normal -0 0 -1
    outer loop
      vertex -76.4301 -45.9191 0
      vertex -79 -50 0
      vertex -76.6311 -45.4789 0
    endloop
  endfacet
  facet normal -0 0 -1
    outer loop
      vertex -76.1133 -46.2848 0
      vertex -79 -50 0
      vertex -76.4301 -45.9191 0
    endloop
  endfacet
  facet normal -0 0 -1
    outer loop
      vertex -75.7062 -46.5464 0
      vertex -79 -50 0
      vertex -76.1133 -46.2848 0
    endloop
  endfacet
  facet normal 0 0 -1
    outer loop
      vertex -39 -20 0
      vertex -53.8 -15 0
      vertex -39 -15 0
    endloop
  endfacet
  facet normal 0 0 -1
    outer loop
      vertex -53.8 -15 0
      vertex -56.2 -15 0
      vertex -53.8 5 0
    endloop
  endfacet
  facet normal 0 0 -1
    outer loop
      vertex -39 -20 0
      vertex -56.2 -15 0
      vertex -53.8 -15 0
    endloop
  endfacet
  facet normal 0 0 -1
    outer loop
      vertex -71 -20 0
      vertex -56.2 -15 0
      vertex -39 -20 0
    endloop
  endfacet
  facet normal -0 0 -1
    outer loop
      vertex -56.2 -15 0
      vertex -71 -20 0
      vertex -71 -15 0
    endloop
  endfacet
  facet normal -0 0 -1
    outer loop
      vertex -53.8 5 0
      vertex -56.2 -15 0
      vertex -56.2 5 0
    endloop
  endfacet
  facet normal 0 0 -1
    outer loop
      vertex -73.8867 -43.7152 0
      vertex -71 -20 0
      vertex -73.5699 -44.0809 0
    endloop
  endfacet
  facet normal 0 0 -1
    outer loop
      vertex -74.2938 -43.4536 0
      vertex -71 -20 0
      vertex -73.8867 -43.7152 0
    endloop
  endfacet
  facet normal 0 0 -1
    outer loop
      vertex -74.7581 -43.3173 0
      vertex -71 -20 0
      vertex -74.2938 -43.4536 0
    endloop
  endfacet
  facet normal 0 0 -1
    outer loop
      vertex -75.2419 -43.3173 0
      vertex -71 -20 0
      vertex -74.7581 -43.3173 0
    endloop
  endfacet
  facet normal 0 0 -1
    outer loop
      vertex -75.7062 -43.4536 0
      vertex -71 -20 0
      vertex -75.2419 -43.3173 0
    endloop
  endfacet
  facet normal 0 0 -1
    outer loop
      vertex -76.1133 -43.7152 0
      vertex -71 -20 0
      vertex -75.7062 -43.4536 0
    endloop
  endfacet
  facet normal 0 0 -1
    outer loop
      vertex -76.4301 -44.0809 0
      vertex -71 -20 0
      vertex -76.1133 -43.7152 0
    endloop
  endfacet
  facet normal 0 0 -1
    outer loop
      vertex -79 5 0
      vertex -71 -20 0
      vertex -76.4301 -44.0809 0
    endloop
  endfacet
  facet normal 0 0 -1
    outer loop
      vertex -71 -20 0
      vertex -79 5 0
      vertex -71 -15 0
    endloop
  endfacet
  facet normal 0 0 -1
    outer loop
      vertex -79 5 0
      vertex -76.4301 -44.0809 0
      vertex -76.6311 -44.5211 0
    endloop
  endfacet
  facet normal 0 0 -1
    outer loop
      vertex -79 -50 0
      vertex -76.6311 -44.5211 0
      vertex -76.7 -45 0
    endloop
  endfacet
  facet normal -0 0 -1
    outer loop
      vertex -76.6311 -44.5211 0
      vertex -79 -50 0
      vertex -79 5 0
    endloop
  endfacet
  facet normal 0 0 -1
    outer loop
      vertex -71 -15 0
      vertex -79 5 0
      vertex -71 5 0
    endloop
  endfacet
  facet normal 0 0 -1
    outer loop
      vertex -33.3689 -44.5211 0
      vertex -31 -50 0
      vertex -33.3 -45 0
    endloop
  endfacet
  facet normal 0 0 -1
    outer loop
      vertex -31 -50 0
      vertex -33.3689 -45.4789 0
      vertex -33.3 -45 0
    endloop
  endfacet
  facet normal 0 0 -1
    outer loop
      vertex -31 -50 0
      vertex -33.5699 -45.9191 0
      vertex -33.3689 -45.4789 0
    endloop
  endfacet
  facet normal 0 0 -1
    outer loop
      vertex -31 -50 0
      vertex -33.8867 -46.2848 0
      vertex -33.5699 -45.9191 0
    endloop
  endfacet
  facet normal 0 0 -1
    outer loop
      vertex -31 -50 0
      vertex -34.2938 -46.5464 0
      vertex -33.8867 -46.2848 0
    endloop
  endfacet
  facet normal 0 0 -1
    outer loop
      vertex -31 -50 0
      vertex -34.7581 -46.6827 0
      vertex -34.2938 -46.5464 0
    endloop
  endfacet
  facet normal 0 0 -1
    outer loop
      vertex -31 -50 0
      vertex -35.2419 -46.6827 0
      vertex -34.7581 -46.6827 0
    endloop
  endfacet
  facet normal 0 0 -1
    outer loop
      vertex -39 -50 0
      vertex -35.2419 -46.6827 0
      vertex -31 -50 0
    endloop
  endfacet
  facet normal -0 0 -1
    outer loop
      vertex -35.2419 -46.6827 0
      vertex -39 -50 0
      vertex -35.7062 -46.5464 0
    endloop
  endfacet
  facet normal -0 0 -1
    outer loop
      vertex -36.6311 -45.4789 0
      vertex -39 -50 0
      vertex -36.7 -45 0
    endloop
  endfacet
  facet normal -0 0 -1
    outer loop
      vertex -36.4301 -45.9191 0
      vertex -39 -50 0
      vertex -36.6311 -45.4789 0
    endloop
  endfacet
  facet normal -0 0 -1
    outer loop
      vertex -36.1133 -46.2848 0
      vertex -39 -50 0
      vertex -36.4301 -45.9191 0
    endloop
  endfacet
  facet normal -0 0 -1
    outer loop
      vertex -35.7062 -46.5464 0
      vertex -39 -50 0
      vertex -36.1133 -46.2848 0
    endloop
  endfacet
  facet normal 0 0 -1
    outer loop
      vertex -31 -50 0
      vertex -33.3689 -44.5211 0
      vertex -31 5 0
    endloop
  endfacet
  facet normal 0 0 -1
    outer loop
      vertex -33.5699 -44.0809 0
      vertex -31 5 0
      vertex -33.3689 -44.5211 0
    endloop
  endfacet
  facet normal 0 0 -1
    outer loop
      vertex -39 -20 0
      vertex -33.5699 -44.0809 0
      vertex -33.8867 -43.7152 0
    endloop
  endfacet
  facet normal 0 0 -1
    outer loop
      vertex -39 -20 0
      vertex -33.8867 -43.7152 0
      vertex -34.2938 -43.4536 0
    endloop
  endfacet
  facet normal 0 0 -1
    outer loop
      vertex -39 -20 0
      vertex -34.2938 -43.4536 0
      vertex -34.7581 -43.3173 0
    endloop
  endfacet
  facet normal 0 0 -1
    outer loop
      vertex -39 -20 0
      vertex -34.7581 -43.3173 0
      vertex -35.2419 -43.3173 0
    endloop
  endfacet
  facet normal 0 0 -1
    outer loop
      vertex -39 -20 0
      vertex -35.2419 -43.3173 0
      vertex -35.7062 -43.4536 0
    endloop
  endfacet
  facet normal 0 0 -1
    outer loop
      vertex -39 -20 0
      vertex -35.7062 -43.4536 0
      vertex -36.1133 -43.7152 0
    endloop
  endfacet
  facet normal 0 0 -1
    outer loop
      vertex -39 -20 0
      vertex -36.1133 -43.7152 0
      vertex -36.4301 -44.0809 0
    endloop
  endfacet
  facet normal 0 0 -1
    outer loop
      vertex -39 -20 0
      vertex -36.4301 -44.0809 0
      vertex -36.6311 -44.5211 0
    endloop
  endfacet
  facet normal 0 0 -1
    outer loop
      vertex -39 -50 0
      vertex -36.6311 -44.5211 0
      vertex -36.7 -45 0
    endloop
  endfacet
  facet normal -0 0 -1
    outer loop
      vertex -36.6311 -44.5211 0
      vertex -39 -50 0
      vertex -39 -20 0
    endloop
  endfacet
  facet normal 0 0 -1
    outer loop
      vertex -33.5699 -44.0809 0
      vertex -39 -20 0
      vertex -31 5 0
    endloop
  endfacet
  facet normal 0 0 -1
    outer loop
      vertex -39 -15 0
      vertex -31 5 0
      vertex -39 -20 0
    endloop
  endfacet
  facet normal -0 0 -1
    outer loop
      vertex -31 5 0
      vertex -39 -15 0
      vertex -39 5 0
    endloop
  endfacet
  facet normal 0 -1 0
    outer loop
      vertex -79 -50 0
      vertex -71 -50 3
      vertex -79 -50 3
    endloop
  endfacet
  facet normal 0 -1 -0
    outer loop
      vertex -71 -50 3
      vertex -79 -50 0
      vertex -71 -50 0
    endloop
  endfacet
  facet normal -1 0 0
    outer loop
      vertex -75 5 3
      vertex -75 1.75 8.01
      vertex -75 5 10
    endloop
  endfacet
  facet normal -1 0 0
    outer loop
      vertex -75 5 3
      vertex -75 -1.75 8.01
      vertex -75 1.75 8.01
    endloop
  endfacet
  facet normal -1 0 0
    outer loop
      vertex -75 -1.75 8.01
      vertex -75 -5.25 8.01
      vertex -75 -1.75 10
    endloop
  endfacet
  facet normal -1 0 0
    outer loop
      vertex -75 5 3
      vertex -75 -5.25 8.01
      vertex -75 -1.75 8.01
    endloop
  endfacet
  facet normal -1 0 0
    outer loop
      vertex -75 5 3
      vertex -75 -8.75 8.01
      vertex -75 -5.25 8.01
    endloop
  endfacet
  facet normal -1 0 0
    outer loop
      vertex -75 -8.75 8.01
      vertex -75 -12.25 8.01
      vertex -75 -8.75 10
    endloop
  endfacet
  facet normal -1 0 0
    outer loop
      vertex -75 -20 3
      vertex -75 -8.75 8.01
      vertex -75 5 3
    endloop
  endfacet
  facet normal -1 -0 0
    outer loop
      vertex -75 -8.75 8.01
      vertex -75 -20 3
      vertex -75 -12.25 8.01
    endloop
  endfacet
  facet normal -1 -0 0
    outer loop
      vertex -75 -12.25 8.01
      vertex -75 -20 3
      vertex -75 -15.75 8.01
    endloop
  endfacet
  facet normal -1 0 0
    outer loop
      vertex -75 -20 10
      vertex -75 -15.75 8.01
      vertex -75 -20 3
    endloop
  endfacet
  facet normal -1 0 0
    outer loop
      vertex -75 -15.75 8.01
      vertex -75 -20 10
      vertex -75 -15.75 10
    endloop
  endfacet
  facet normal -1 -0 0
    outer loop
      vertex -75 5 10
      vertex -75 1.75 8.01
      vertex -75 1.75 10
    endloop
  endfacet
  facet normal -1 -0 0
    outer loop
      vertex -75 -1.75 10
      vertex -75 -5.25 8.01
      vertex -75 -5.25 10
    endloop
  endfacet
  facet normal -1 -0 0
    outer loop
      vertex -75 -8.75 10
      vertex -75 -12.25 8.01
      vertex -75 -12.25 10
    endloop
  endfacet
  facet normal -0 0 1
    outer loop
      vertex -75 -15.75 10
      vertex -71.5 -20 10
      vertex -71.5 -15.75 10
    endloop
  endfacet
  facet normal 0 0 1
    outer loop
      vertex -71.5 -20 10
      vertex -75 -15.75 10
      vertex -75 -20 10
    endloop
  endfacet
  facet normal -0 0 1
    outer loop
      vertex -38.5 -15.75 10
      vertex -35 -20 10
      vertex -35 -15.75 10
    endloop
  endfacet
  facet normal 0 0 1
    outer loop
      vertex -35 -20 10
      vertex -38.5 -15.75 10
      vertex -38.5 -20 10
    endloop
  endfacet
  facet normal -0 0 1
    outer loop
      vertex -38.5 5 10
      vertex -35 1.75 10
      vertex -35 5 10
    endloop
  endfacet
  facet normal 0 0 1
    outer loop
      vertex -35 1.75 10
      vertex -38.5 5 10
      vertex -38.5 1.75 10
    endloop
  endfacet
  facet normal -0 0 1
    outer loop
      vertex -75 5 10
      vertex -71.5 1.75 10
      vertex -71.5 5 10
    endloop
  endfacet
  facet normal 0 0 1
    outer loop
      vertex -71.5 1.75 10
      vertex -75 5 10
      vertex -75 1.75 10
    endloop
  endfacet
  facet normal -0 0 1
    outer loop
      vertex -75 -8.75 10
      vertex -71.5 -12.25 10
      vertex -71.5 -8.75 10
    endloop
  endfacet
  facet normal 0 0 1
    outer loop
      vertex -71.5 -12.25 10
      vertex -75 -8.75 10
      vertex -75 -12.25 10
    endloop
  endfacet
  facet normal -0 0 1
    outer loop
      vertex -38.5 -8.75 10
      vertex -35 -12.25 10
      vertex -35 -8.75 10
    endloop
  endfacet
  facet normal 0 0 1
    outer loop
      vertex -35 -12.25 10
      vertex -38.5 -8.75 10
      vertex -38.5 -12.25 10
    endloop
  endfacet
  facet normal -0 0 1
    outer loop
      vertex -75 -1.75 10
      vertex -71.5 -5.25 10
      vertex -71.5 -1.75 10
    endloop
  endfacet
  facet normal 0 0 1
    outer loop
      vertex -71.5 -5.25 10
      vertex -75 -1.75 10
      vertex -75 -5.25 10
    endloop
  endfacet
  facet normal -0 0 1
    outer loop
      vertex -38.5 -1.75 10
      vertex -35 -5.25 10
      vertex -35 -1.75 10
    endloop
  endfacet
  facet normal 0 0 1
    outer loop
      vertex -35 -5.25 10
      vertex -38.5 -1.75 10
      vertex -38.5 -5.25 10
    endloop
  endfacet
  facet normal -0 0 1
    outer loop
      vertex -68.5 -15.75 10
      vertex -65.5 -20 10
      vertex -65.5 -15.75 10
    endloop
  endfacet
  facet normal 0 0 1
    outer loop
      vertex -65.5 -20 10
      vertex -68.5 -15.75 10
      vertex -68.5 -20 10
    endloop
  endfacet
  facet normal -0 0 1
    outer loop
      vertex -62.5 -15.75 10
      vertex -59.5 -20 10
      vertex -59.5 -15.75 10
    endloop
  endfacet
  facet normal 0 0 1
    outer loop
      vertex -59.5 -20 10
      vertex -62.5 -15.75 10
      vertex -62.5 -20 10
    endloop
  endfacet
  facet normal -0 0 1
    outer loop
      vertex -56.5 -15.75 10
      vertex -53.5 -20 10
      vertex -53.5 -15.75 10
    endloop
  endfacet
  facet normal 0 0 1
    outer loop
      vertex -53.5 -20 10
      vertex -56.5 -15.75 10
      vertex -56.5 -20 10
    endloop
  endfacet
  facet normal -0 0 1
    outer loop
      vertex -50.5 -15.75 10
      vertex -47.5 -20 10
      vertex -47.5 -15.75 10
    endloop
  endfacet
  facet normal 0 0 1
    outer loop
      vertex -47.5 -20 10
      vertex -50.5 -15.75 10
      vertex -50.5 -20 10
    endloop
  endfacet
  facet normal -0 0 1
    outer loop
      vertex -44.5 -15.75 10
      vertex -41.5 -20 10
      vertex -41.5 -15.75 10
    endloop
  endfacet
  facet normal 0 0 1
    outer loop
      vertex -41.5 -20 10
      vertex -44.5 -15.75 10
      vertex -44.5 -20 10
    endloop
  endfacet
  facet normal 0 -1 0
    outer loop
      vertex -75 -20 10
      vertex -71.5 -20 8.01
      vertex -71.5 -20 10
    endloop
  endfacet
  facet normal 0 -1 0
    outer loop
      vertex -71 -20 3
      vertex -68.5 -20 8.01
      vertex -71.5 -20 8.01
    endloop
  endfacet
  facet normal 0 -1 -0
    outer loop
      vertex -68.5 -20 8.01
      vertex -71 -20 3
      vertex -65.5 -20 8.01
    endloop
  endfacet
  facet normal 0 -1 0
    outer loop
      vertex -71 -20 0
      vertex -65.5 -20 8.01
      vertex -71 -20 3
    endloop
  endfacet
  facet normal 0 -1 -0
    outer loop
      vertex -65.5 -20 8.01
      vertex -71 -20 0
      vertex -62.5 -20 8.01
    endloop
  endfacet
  facet normal 0 -1 -0
    outer loop
      vertex -62.5 -20 8.01
      vertex -71 -20 0
      vertex -59.5 -20 8.01
    endloop
  endfacet
  facet normal 0 -1 -0
    outer loop
      vertex -59.5 -20 8.01
      vertex -71 -20 0
      vertex -56.5 -20 8.01
    endloop
  endfacet
  facet normal 0 -1 -0
    outer loop
      vertex -56.5 -20 8.01
      vertex -71 -20 0
      vertex -53.5 -20 8.01
    endloop
  endfacet
  facet normal 0 -1 0
    outer loop
      vertex -39 -20 0
      vertex -53.5 -20 8.01
      vertex -71 -20 0
    endloop
  endfacet
  facet normal 0 -1 0
    outer loop
      vertex -53.5 -20 8.01
      vertex -39 -20 0
      vertex -50.5 -20 8.01
    endloop
  endfacet
  facet normal 0 -1 0
    outer loop
      vertex -50.5 -20 8.01
      vertex -39 -20 0
      vertex -47.5 -20 8.01
    endloop
  endfacet
  facet normal 0 -1 0
    outer loop
      vertex -71 -20 3
      vertex -71.5 -20 8.01
      vertex -75 -20 3
    endloop
  endfacet
  facet normal 0 -1 0
    outer loop
      vertex -75 -20 3
      vertex -71.5 -20 8.01
      vertex -75 -20 10
    endloop
  endfacet
  facet normal 0 -1 0
    outer loop
      vertex -68.5 -20 8.01
      vertex -65.5 -20 10
      vertex -68.5 -20 10
    endloop
  endfacet
  facet normal 0 -1 -0
    outer loop
      vertex -65.5 -20 10
      vertex -68.5 -20 8.01
      vertex -65.5 -20 8.01
    endloop
  endfacet
  facet normal 0 -1 0
    outer loop
      vertex -62.5 -20 8.01
      vertex -59.5 -20 10
      vertex -62.5 -20 10
    endloop
  endfacet
  facet normal 0 -1 -0
    outer loop
      vertex -59.5 -20 10
      vertex -62.5 -20 8.01
      vertex -59.5 -20 8.01
    endloop
  endfacet
  facet normal 0 -1 0
    outer loop
      vertex -56.5 -20 8.01
      vertex -53.5 -20 10
      vertex -56.5 -20 10
    endloop
  endfacet
  facet normal 0 -1 -0
    outer loop
      vertex -53.5 -20 10
      vertex -56.5 -20 8.01
      vertex -53.5 -20 8.01
    endloop
  endfacet
  facet normal 0 -1 0
    outer loop
      vertex -50.5 -20 8.01
      vertex -47.5 -20 10
      vertex -50.5 -20 10
    endloop
  endfacet
  facet normal 0 -1 -0
    outer loop
      vertex -47.5 -20 10
      vertex -50.5 -20 8.01
      vertex -47.5 -20 8.01
    endloop
  endfacet
  facet normal 0 -1 0
    outer loop
      vertex -44.5 -20 8.01
      vertex -41.5 -20 10
      vertex -44.5 -20 10
    endloop
  endfacet
  facet normal 0 -1 -0
    outer loop
      vertex -41.5 -20 10
      vertex -44.5 -20 8.01
      vertex -41.5 -20 8.01
    endloop
  endfacet
  facet normal 0 -1 0
    outer loop
      vertex -38.5 -20 8.01
      vertex -35 -20 10
      vertex -38.5 -20 10
    endloop
  endfacet
  facet normal 0 -1 0
    outer loop
      vertex -47.5 -20 8.01
      vertex -39 -20 0
      vertex -44.5 -20 8.01
    endloop
  endfacet
  facet normal 0 -1 0
    outer loop
      vertex -41.5 -20 8.01
      vertex -39 -20 3
      vertex -38.5 -20 8.01
    endloop
  endfacet
  facet normal 0 -1 0
    outer loop
      vertex -35 -20 3
      vertex -38.5 -20 8.01
      vertex -39 -20 3
    endloop
  endfacet
  facet normal 0 -1 0
    outer loop
      vertex -38.5 -20 8.01
      vertex -35 -20 3
      vertex -35 -20 10
    endloop
  endfacet
  facet normal -0 -1 -0
    outer loop
      vertex -39 -20 3
      vertex -44.5 -20 8.01
      vertex -39 -20 0
    endloop
  endfacet
  facet normal 0 -1 0
    outer loop
      vertex -44.5 -20 8.01
      vertex -39 -20 3
      vertex -41.5 -20 8.01
    endloop
  endfacet
  facet normal 1 -0 0
    outer loop
      vertex -31 -50 3
      vertex -31 5 0
      vertex -31 5 3
    endloop
  endfacet
  facet normal 1 0 0
    outer loop
      vertex -31 5 0
      vertex -31 -50 3
      vertex -31 -50 0
    endloop
  endfacet
  facet normal -0 0 1
    outer loop
      vertex -35 -20 3
      vertex -31 -50 3
      vertex -31 5 3
    endloop
  endfacet
  facet normal 0 0 1
    outer loop
      vertex -31 -50 3
      vertex -33.3689 -44.5211 3
      vertex -33.3 -45 3
    endloop
  endfacet
  facet normal 0 0 1
    outer loop
      vertex -31 -50 3
      vertex -35 -20 3
      vertex -33.3689 -44.5211 3
    endloop
  endfacet
  facet normal 0 0 1
    outer loop
      vertex -33.3689 -44.5211 3
      vertex -35 -20 3
      vertex -33.5699 -44.0809 3
    endloop
  endfacet
  facet normal 0 0 1
    outer loop
      vertex -33.5699 -44.0809 3
      vertex -35 -20 3
      vertex -33.8867 -43.7152 3
    endloop
  endfacet
  facet normal 0 0 1
    outer loop
      vertex -33.8867 -43.7152 3
      vertex -35 -20 3
      vertex -34.2938 -43.4536 3
    endloop
  endfacet
  facet normal 0 0 1
    outer loop
      vertex -35 -20 3
      vertex -31 5 3
      vertex -35 5 3
    endloop
  endfacet
  facet normal 0 0 1
    outer loop
      vertex -34.2938 -43.4536 3
      vertex -35 -20 3
      vertex -34.7581 -43.3173 3
    endloop
  endfacet
  facet normal 0 0 1
    outer loop
      vertex -35 -20 3
      vertex -35.2419 -43.3173 3
      vertex -34.7581 -43.3173 3
    endloop
  endfacet
  facet normal -0 0 1
    outer loop
      vertex -39 -20 3
      vertex -35.2419 -43.3173 3
      vertex -35 -20 3
    endloop
  endfacet
  facet normal 0 0 1
    outer loop
      vertex -35.2419 -43.3173 3
      vertex -39 -20 3
      vertex -35.7062 -43.4536 3
    endloop
  endfacet
  facet normal 0 0 1
    outer loop
      vertex -35.7062 -43.4536 3
      vertex -39 -20 3
      vertex -36.1133 -43.7152 3
    endloop
  endfacet
  facet normal 0 0 1
    outer loop
      vertex -36.1133 -43.7152 3
      vertex -39 -20 3
      vertex -36.4301 -44.0809 3
    endloop
  endfacet
  facet normal 0 0 1
    outer loop
      vertex -36.4301 -44.0809 3
      vertex -39 -20 3
      vertex -36.6311 -44.5211 3
    endloop
  endfacet
  facet normal 0 0 1
    outer loop
      vertex -39 -50 3
      vertex -36.6311 -44.5211 3
      vertex -39 -20 3
    endloop
  endfacet
  facet normal -0 0 1
    outer loop
      vertex -33.3689 -45.4789 3
      vertex -31 -50 3
      vertex -33.3 -45 3
    endloop
  endfacet
  facet normal -0 0 1
    outer loop
      vertex -33.5699 -45.9191 3
      vertex -31 -50 3
      vertex -33.3689 -45.4789 3
    endloop
  endfacet
  facet normal -0 0 1
    outer loop
      vertex -33.8867 -46.2848 3
      vertex -31 -50 3
      vertex -33.5699 -45.9191 3
    endloop
  endfacet
  facet normal -0 0 1
    outer loop
      vertex -34.2938 -46.5464 3
      vertex -31 -50 3
      vertex -33.8867 -46.2848 3
    endloop
  endfacet
  facet normal -0 0 1
    outer loop
      vertex -34.7581 -46.6827 3
      vertex -31 -50 3
      vertex -34.2938 -46.5464 3
    endloop
  endfacet
  facet normal -0 0 1
    outer loop
      vertex -35.2419 -46.6827 3
      vertex -31 -50 3
      vertex -34.7581 -46.6827 3
    endloop
  endfacet
  facet normal 0 0 1
    outer loop
      vertex -39 -50 3
      vertex -35.2419 -46.6827 3
      vertex -35.7062 -46.5464 3
    endloop
  endfacet
  facet normal 0 0 1
    outer loop
      vertex -39 -50 3
      vertex -35.7062 -46.5464 3
      vertex -36.1133 -46.2848 3
    endloop
  endfacet
  facet normal 0 0 1
    outer loop
      vertex -35.2419 -46.6827 3
      vertex -39 -50 3
      vertex -31 -50 3
    endloop
  endfacet
  facet normal 0 0 1
    outer loop
      vertex -36.4301 -45.9191 3
      vertex -39 -50 3
      vertex -36.1133 -46.2848 3
    endloop
  endfacet
  facet normal 0 0 1
    outer loop
      vertex -36.6311 -45.4789 3
      vertex -39 -50 3
      vertex -36.4301 -45.9191 3
    endloop
  endfacet
  facet normal 0 0 1
    outer loop
      vertex -36.7 -45 3
      vertex -39 -50 3
      vertex -36.6311 -45.4789 3
    endloop
  endfacet
  facet normal 0 0 1
    outer loop
      vertex -36.6311 -44.5211 3
      vertex -39 -50 3
      vertex -36.7 -45 3
    endloop
  endfacet
  facet normal -1 0 0
    outer loop
      vertex -39 -15 0
      vertex -39 5 8.01
      vertex -39 5 0
    endloop
  endfacet
  facet normal -1 -0 0
    outer loop
      vertex -39 5 8.01
      vertex -39 -15 0
      vertex -39 -15 8.01
    endloop
  endfacet
  facet normal -1 0 0
    outer loop
      vertex -39 -50 0
      vertex -39 -20 3
      vertex -39 -20 0
    endloop
  endfacet
  facet normal -1 -0 0
    outer loop
      vertex -39 -20 3
      vertex -39 -50 0
      vertex -39 -50 3
    endloop
  endfacet
  facet normal 0 1 0
    outer loop
      vertex -31 5 3
      vertex -31 5 0
      vertex -35 5 3
    endloop
  endfacet
  facet normal 0 1 0
    outer loop
      vertex -35 5 10
      vertex -38.5 5 8.01
      vertex -38.5 5 10
    endloop
  endfacet
  facet normal 0 1 -0
    outer loop
      vertex -35 5 3
      vertex -38.5 5 8.01
      vertex -35 5 10
    endloop
  endfacet
  facet normal 0 1 0
    outer loop
      vertex -35 5 3
      vertex -39 5 8.01
      vertex -38.5 5 8.01
    endloop
  endfacet
  facet normal 0 1 0
    outer loop
      vertex -35 5 3
      vertex -39 5 0
      vertex -39 5 8.01
    endloop
  endfacet
  facet normal 0 1 0
    outer loop
      vertex -39 5 0
      vertex -35 5 3
      vertex -31 5 0
    endloop
  endfacet
  facet normal 0 -1 0
    outer loop
      vertex -39 -50 0
      vertex -31 -50 3
      vertex -39 -50 3
    endloop
  endfacet
  facet normal 0 -1 -0
    outer loop
      vertex -31 -50 3
      vertex -39 -50 0
      vertex -31 -50 0
    endloop
  endfacet
  facet normal 1 0 0
    outer loop
      vertex -35 -15.75 10
      vertex -35 -20 10
      vertex -35 -15.75 8.01
    endloop
  endfacet
  facet normal 1 0 0
    outer loop
      vertex -35 -8.75 10
      vertex -35 -12.25 10
      vertex -35 -8.75 8.01
    endloop
  endfacet
  facet normal 1 0 0
    outer loop
      vertex -35 -1.75 10
      vertex -35 -5.25 10
      vertex -35 -1.75 8.01
    endloop
  endfacet
  facet normal 1 0 0
    outer loop
      vertex -35 1.75 8.01
      vertex -35 5 10
      vertex -35 1.75 10
    endloop
  endfacet
  facet normal 1 0 0
    outer loop
      vertex -35 5 10
      vertex -35 1.75 8.01
      vertex -35 5 3
    endloop
  endfacet
  facet normal 1 -0 0
    outer loop
      vertex -35 -1.75 8.01
      vertex -35 5 3
      vertex -35 1.75 8.01
    endloop
  endfacet
  facet normal 1 0 0
    outer loop
      vertex -35 -5.25 8.01
      vertex -35 -1.75 8.01
      vertex -35 -5.25 10
    endloop
  endfacet
  facet normal 1 0 0
    outer loop
      vertex -35 -1.75 8.01
      vertex -35 -5.25 8.01
      vertex -35 5 3
    endloop
  endfacet
  facet normal 1 -0 0
    outer loop
      vertex -35 -8.75 8.01
      vertex -35 5 3
      vertex -35 -5.25 8.01
    endloop
  endfacet
  facet normal 1 0 0
    outer loop
      vertex -35 -12.25 8.01
      vertex -35 -8.75 8.01
      vertex -35 -12.25 10
    endloop
  endfacet
  facet normal 1 0 0
    outer loop
      vertex -35 -20 3
      vertex -35 -8.75 8.01
      vertex -35 -12.25 8.01
    endloop
  endfacet
  facet normal 1 0 0
    outer loop
      vertex -35 -20 3
      vertex -35 -12.25 8.01
      vertex -35 -15.75 8.01
    endloop
  endfacet
  facet normal 1 0 0
    outer loop
      vertex -35 -8.75 8.01
      vertex -35 -20 3
      vertex -35 5 3
    endloop
  endfacet
  facet normal 1 0 0
    outer loop
      vertex -35 -20 3
      vertex -35 -15.75 8.01
      vertex -35 -20 10
    endloop
  endfacet
  facet normal -1 0 0
    outer loop
      vertex -56.2 5 0
      vertex -56.2 2.6 5
      vertex -56.2 5 7
    endloop
  endfacet
  facet normal -1 0 0
    outer loop
      vertex -56.2 -15 0
      vertex -56.2 2.6 5
      vertex -56.2 5 0
    endloop
  endfacet
  facet normal -1 -0 0
    outer loop
      vertex -56.2 2.6 5
      vertex -56.2 -15 0
      vertex -56.2 -15 5
    endloop
  endfacet
  facet normal -1 -0 0
    outer loop
      vertex -56.2 5 7
      vertex -56.2 2.6 5
      vertex -56.2 2.6 7
    endloop
  endfacet
  facet normal -0 0 1
    outer loop
      vertex -56.2 2.6 5
      vertex -53.8 -15 5
      vertex -53.8 2.6 5
    endloop
  endfacet
  facet normal 0 0 1
    outer loop
      vertex -53.8 -15 5
      vertex -56.2 2.6 5
      vertex -56.2 -15 5
    endloop
  endfacet
  facet normal 1 0 0
    outer loop
      vertex -53.8 2.6 5
      vertex -53.8 5 7
      vertex -53.8 2.6 7
    endloop
  endfacet
  facet normal 1 0 0
    outer loop
      vertex -53.8 5 7
      vertex -53.8 2.6 5
      vertex -53.8 5 0
    endloop
  endfacet
  facet normal 1 0 0
    outer loop
      vertex -53.8 -15 0
      vertex -53.8 2.6 5
      vertex -53.8 -15 5
    endloop
  endfacet
  facet normal 1 0 0
    outer loop
      vertex -53.8 2.6 5
      vertex -53.8 -15 0
      vertex -53.8 5 0
    endloop
  endfacet
  facet normal 0 1 -0
    outer loop
      vertex -53.8 5 0
      vertex -56.2 5 7
      vertex -53.8 5 7
    endloop
  endfacet
  facet normal 0 1 0
    outer loop
      vertex -56.2 5 7
      vertex -53.8 5 0
      vertex -56.2 5 0
    endloop
  endfacet
  facet normal -0 0 1
    outer loop
      vertex -56.2 5 7
      vertex -53.8 2.6 7
      vertex -53.8 5 7
    endloop
  endfacet
  facet normal 0 0 1
    outer loop
      vertex -53.8 2.6 7
      vertex -56.2 5 7
      vertex -56.2 2.6 7
    endloop
  endfacet
  facet normal 0 -1 0
    outer loop
      vertex -56.2 2.6 5
      vertex -53.8 2.6 7
      vertex -56.2 2.6 7
    endloop
  endfacet
  facet normal 0 -1 -0
    outer loop
      vertex -53.8 2.6 7
      vertex -56.2 2.6 5
      vertex -53.8 2.6 5
    endloop
  endfacet
  facet normal 0 1 0
    outer loop
      vertex -39 -15 8.01
      vertex -53.8 -15 5
      vertex -71 -15 8.01
    endloop
  endfacet
  facet normal 0 1 -0
    outer loop
      vertex -39 -15 0
      vertex -53.8 -15 5
      vertex -39 -15 8.01
    endloop
  endfacet
  facet normal 0 1 0
    outer loop
      vertex -53.8 -15 5
      vertex -39 -15 0
      vertex -53.8 -15 0
    endloop
  endfacet
  facet normal 0 1 -0
    outer loop
      vertex -56.2 -15 5
      vertex -71 -15 8.01
      vertex -53.8 -15 5
    endloop
  endfacet
  facet normal 0 1 0
    outer loop
      vertex -71 -15 0
      vertex -56.2 -15 5
      vertex -56.2 -15 0
    endloop
  endfacet
  facet normal 0 1 0
    outer loop
      vertex -56.2 -15 5
      vertex -71 -15 0
      vertex -71 -15 8.01
    endloop
  endfacet
  facet normal -0.989823 -0.142302 0
    outer loop
      vertex -73.3 -45 0
      vertex -73.3689 -44.5211 3
      vertex -73.3689 -44.5211 0
    endloop
  endfacet
  facet normal -0.989823 -0.142302 0
    outer loop
      vertex -73.3689 -44.5211 3
      vertex -73.3 -45 0
      vertex -73.3 -45 3
    endloop
  endfacet
  facet normal 0.281732 -0.959493 0
    outer loop
      vertex -75.7062 -43.4536 0
      vertex -75.2419 -43.3173 3
      vertex -75.7062 -43.4536 3
    endloop
  endfacet
  facet normal 0.281732 -0.959493 0
    outer loop
      vertex -75.2419 -43.3173 3
      vertex -75.7062 -43.4536 0
      vertex -75.2419 -43.3173 0
    endloop
  endfacet
  facet normal -0.281732 0.959493 0
    outer loop
      vertex -74.2938 -46.5464 0
      vertex -74.7581 -46.6827 3
      vertex -74.2938 -46.5464 3
    endloop
  endfacet
  facet normal -0.281732 0.959493 0
    outer loop
      vertex -74.7581 -46.6827 3
      vertex -74.2938 -46.5464 0
      vertex -74.7581 -46.6827 0
    endloop
  endfacet
  facet normal -0.54064 0.841254 0
    outer loop
      vertex -73.8867 -46.2848 0
      vertex -74.2938 -46.5464 3
      vertex -73.8867 -46.2848 3
    endloop
  endfacet
  facet normal -0.54064 0.841254 0
    outer loop
      vertex -74.2938 -46.5464 3
      vertex -73.8867 -46.2848 0
      vertex -74.2938 -46.5464 0
    endloop
  endfacet
  facet normal -0.54064 -0.841254 0
    outer loop
      vertex -74.2938 -43.4536 0
      vertex -73.8867 -43.7152 3
      vertex -74.2938 -43.4536 3
    endloop
  endfacet
  facet normal -0.54064 -0.841254 -0
    outer loop
      vertex -73.8867 -43.7152 3
      vertex -74.2938 -43.4536 0
      vertex -73.8867 -43.7152 0
    endloop
  endfacet
  facet normal -0.90963 -0.41542 0
    outer loop
      vertex -73.3689 -44.5211 0
      vertex -73.5699 -44.0809 3
      vertex -73.5699 -44.0809 0
    endloop
  endfacet
  facet normal -0.90963 -0.41542 0
    outer loop
      vertex -73.5699 -44.0809 3
      vertex -73.3689 -44.5211 0
      vertex -73.3689 -44.5211 3
    endloop
  endfacet
  facet normal -0.281732 -0.959493 0
    outer loop
      vertex -74.7581 -43.3173 0
      vertex -74.2938 -43.4536 3
      vertex -74.7581 -43.3173 3
    endloop
  endfacet
  facet normal -0.281732 -0.959493 -0
    outer loop
      vertex -74.2938 -43.4536 3
      vertex -74.7581 -43.3173 0
      vertex -74.2938 -43.4536 0
    endloop
  endfacet
  facet normal 0.755753 -0.654857 0
    outer loop
      vertex -76.4301 -44.0809 3
      vertex -76.1133 -43.7152 0
      vertex -76.1133 -43.7152 3
    endloop
  endfacet
  facet normal 0.755753 -0.654857 0
    outer loop
      vertex -76.1133 -43.7152 0
      vertex -76.4301 -44.0809 3
      vertex -76.4301 -44.0809 0
    endloop
  endfacet
  facet normal 0.54064 -0.841254 0
    outer loop
      vertex -76.1133 -43.7152 0
      vertex -75.7062 -43.4536 3
      vertex -76.1133 -43.7152 3
    endloop
  endfacet
  facet normal 0.54064 -0.841254 0
    outer loop
      vertex -75.7062 -43.4536 3
      vertex -76.1133 -43.7152 0
      vertex -75.7062 -43.4536 0
    endloop
  endfacet
  facet normal -0.755753 -0.654857 0
    outer loop
      vertex -73.5699 -44.0809 0
      vertex -73.8867 -43.7152 3
      vertex -73.8867 -43.7152 0
    endloop
  endfacet
  facet normal -0.755753 -0.654857 0
    outer loop
      vertex -73.8867 -43.7152 3
      vertex -73.5699 -44.0809 0
      vertex -73.5699 -44.0809 3
    endloop
  endfacet
  facet normal 0 -1 0
    outer loop
      vertex -75.2419 -43.3173 0
      vertex -74.7581 -43.3173 3
      vertex -75.2419 -43.3173 3
    endloop
  endfacet
  facet normal 0 -1 -0
    outer loop
      vertex -74.7581 -43.3173 3
      vertex -75.2419 -43.3173 0
      vertex -74.7581 -43.3173 0
    endloop
  endfacet
  facet normal 0.909636 -0.415407 0
    outer loop
      vertex -76.6311 -44.5211 3
      vertex -76.4301 -44.0809 0
      vertex -76.4301 -44.0809 3
    endloop
  endfacet
  facet normal 0.909636 -0.415407 0
    outer loop
      vertex -76.4301 -44.0809 0
      vertex -76.6311 -44.5211 3
      vertex -76.6311 -44.5211 0
    endloop
  endfacet
  facet normal 0.989821 -0.142318 0
    outer loop
      vertex -76.7 -45 3
      vertex -76.6311 -44.5211 0
      vertex -76.6311 -44.5211 3
    endloop
  endfacet
  facet normal 0.989821 -0.142318 0
    outer loop
      vertex -76.6311 -44.5211 0
      vertex -76.7 -45 3
      vertex -76.7 -45 0
    endloop
  endfacet
  facet normal 0.989821 0.142316 0
    outer loop
      vertex -76.6311 -45.4789 3
      vertex -76.7 -45 0
      vertex -76.7 -45 3
    endloop
  endfacet
  facet normal 0.989821 0.142316 0
    outer loop
      vertex -76.7 -45 0
      vertex -76.6311 -45.4789 3
      vertex -76.6311 -45.4789 0
    endloop
  endfacet
  facet normal -0.989823 0.142301 0
    outer loop
      vertex -73.3689 -45.4789 0
      vertex -73.3 -45 3
      vertex -73.3 -45 0
    endloop
  endfacet
  facet normal -0.989823 0.142301 0
    outer loop
      vertex -73.3 -45 3
      vertex -73.3689 -45.4789 0
      vertex -73.3689 -45.4789 3
    endloop
  endfacet
  facet normal 0.909634 0.41541 0
    outer loop
      vertex -76.4301 -45.9191 3
      vertex -76.6311 -45.4789 0
      vertex -76.6311 -45.4789 3
    endloop
  endfacet
  facet normal 0.909634 0.41541 0
    outer loop
      vertex -76.6311 -45.4789 0
      vertex -76.4301 -45.9191 3
      vertex -76.4301 -45.9191 0
    endloop
  endfacet
  facet normal -0.755753 0.654857 0
    outer loop
      vertex -73.8867 -46.2848 0
      vertex -73.5699 -45.9191 3
      vertex -73.5699 -45.9191 0
    endloop
  endfacet
  facet normal -0.755753 0.654857 0
    outer loop
      vertex -73.5699 -45.9191 3
      vertex -73.8867 -46.2848 0
      vertex -73.8867 -46.2848 3
    endloop
  endfacet
  facet normal -0.909628 0.415423 0
    outer loop
      vertex -73.5699 -45.9191 0
      vertex -73.3689 -45.4789 3
      vertex -73.3689 -45.4789 0
    endloop
  endfacet
  facet normal -0.909628 0.415423 0
    outer loop
      vertex -73.3689 -45.4789 3
      vertex -73.5699 -45.9191 0
      vertex -73.5699 -45.9191 3
    endloop
  endfacet
  facet normal 0.281732 0.959493 -0
    outer loop
      vertex -75.2419 -46.6827 0
      vertex -75.7062 -46.5464 3
      vertex -75.2419 -46.6827 3
    endloop
  endfacet
  facet normal 0.281732 0.959493 0
    outer loop
      vertex -75.7062 -46.5464 3
      vertex -75.2419 -46.6827 0
      vertex -75.7062 -46.5464 0
    endloop
  endfacet
  facet normal 0.755753 0.654857 0
    outer loop
      vertex -76.1133 -46.2848 3
      vertex -76.4301 -45.9191 0
      vertex -76.4301 -45.9191 3
    endloop
  endfacet
  facet normal 0.755753 0.654857 0
    outer loop
      vertex -76.4301 -45.9191 0
      vertex -76.1133 -46.2848 3
      vertex -76.1133 -46.2848 0
    endloop
  endfacet
  facet normal 0.54064 0.841254 -0
    outer loop
      vertex -75.7062 -46.5464 0
      vertex -76.1133 -46.2848 3
      vertex -75.7062 -46.5464 3
    endloop
  endfacet
  facet normal 0.54064 0.841254 0
    outer loop
      vertex -76.1133 -46.2848 3
      vertex -75.7062 -46.5464 0
      vertex -76.1133 -46.2848 0
    endloop
  endfacet
  facet normal 0 1 -0
    outer loop
      vertex -74.7581 -46.6827 0
      vertex -75.2419 -46.6827 3
      vertex -74.7581 -46.6827 3
    endloop
  endfacet
  facet normal 0 1 0
    outer loop
      vertex -75.2419 -46.6827 3
      vertex -74.7581 -46.6827 0
      vertex -75.2419 -46.6827 0
    endloop
  endfacet
  facet normal 0.989821 -0.142318 0
    outer loop
      vertex -36.7 -45 3
      vertex -36.6311 -44.5211 0
      vertex -36.6311 -44.5211 3
    endloop
  endfacet
  facet normal 0.989821 -0.142318 0
    outer loop
      vertex -36.6311 -44.5211 0
      vertex -36.7 -45 3
      vertex -36.7 -45 0
    endloop
  endfacet
  facet normal 0.54064 0.841254 -0
    outer loop
      vertex -35.7062 -46.5464 0
      vertex -36.1133 -46.2848 3
      vertex -35.7062 -46.5464 3
    endloop
  endfacet
  facet normal 0.54064 0.841254 0
    outer loop
      vertex -36.1133 -46.2848 3
      vertex -35.7062 -46.5464 0
      vertex -36.1133 -46.2848 0
    endloop
  endfacet
  facet normal 0.281732 -0.959493 0
    outer loop
      vertex -35.7062 -43.4536 0
      vertex -35.2419 -43.3173 3
      vertex -35.7062 -43.4536 3
    endloop
  endfacet
  facet normal 0.281732 -0.959493 0
    outer loop
      vertex -35.2419 -43.3173 3
      vertex -35.7062 -43.4536 0
      vertex -35.2419 -43.3173 0
    endloop
  endfacet
  facet normal -0.540644 -0.841251 0
    outer loop
      vertex -34.2938 -43.4536 0
      vertex -33.8867 -43.7152 3
      vertex -34.2938 -43.4536 3
    endloop
  endfacet
  facet normal -0.540644 -0.841251 -0
    outer loop
      vertex -33.8867 -43.7152 3
      vertex -34.2938 -43.4536 0
      vertex -33.8867 -43.7152 0
    endloop
  endfacet
  facet normal 0.909633 -0.415414 0
    outer loop
      vertex -36.6311 -44.5211 3
      vertex -36.4301 -44.0809 0
      vertex -36.4301 -44.0809 3
    endloop
  endfacet
  facet normal 0.909633 -0.415414 0
    outer loop
      vertex -36.4301 -44.0809 0
      vertex -36.6311 -44.5211 3
      vertex -36.6311 -44.5211 0
    endloop
  endfacet
  facet normal -0.989821 -0.142318 0
    outer loop
      vertex -33.3 -45 0
      vertex -33.3689 -44.5211 3
      vertex -33.3689 -44.5211 0
    endloop
  endfacet
  facet normal -0.989821 -0.142318 0
    outer loop
      vertex -33.3689 -44.5211 3
      vertex -33.3 -45 0
      vertex -33.3 -45 3
    endloop
  endfacet
  facet normal -0.281732 0.959493 0
    outer loop
      vertex -34.2938 -46.5464 0
      vertex -34.7581 -46.6827 3
      vertex -34.2938 -46.5464 3
    endloop
  endfacet
  facet normal -0.281732 0.959493 0
    outer loop
      vertex -34.7581 -46.6827 3
      vertex -34.2938 -46.5464 0
      vertex -34.7581 -46.6827 0
    endloop
  endfacet
  facet normal 0.755753 0.654857 0
    outer loop
      vertex -36.1133 -46.2848 3
      vertex -36.4301 -45.9191 0
      vertex -36.4301 -45.9191 3
    endloop
  endfacet
  facet normal 0.755753 0.654857 0
    outer loop
      vertex -36.4301 -45.9191 0
      vertex -36.1133 -46.2848 3
      vertex -36.1133 -46.2848 0
    endloop
  endfacet
  facet normal 0.281732 0.959493 -0
    outer loop
      vertex -35.2419 -46.6827 0
      vertex -35.7062 -46.5464 3
      vertex -35.2419 -46.6827 3
    endloop
  endfacet
  facet normal 0.281732 0.959493 0
    outer loop
      vertex -35.7062 -46.5464 3
      vertex -35.2419 -46.6827 0
      vertex -35.7062 -46.5464 0
    endloop
  endfacet
  facet normal 0 -1 0
    outer loop
      vertex -35.2419 -43.3173 0
      vertex -34.7581 -43.3173 3
      vertex -35.2419 -43.3173 3
    endloop
  endfacet
  facet normal 0 -1 -0
    outer loop
      vertex -34.7581 -43.3173 3
      vertex -35.2419 -43.3173 0
      vertex -34.7581 -43.3173 0
    endloop
  endfacet
  facet normal -0.281732 -0.959493 0
    outer loop
      vertex -34.7581 -43.3173 0
      vertex -34.2938 -43.4536 3
      vertex -34.7581 -43.3173 3
    endloop
  endfacet
  facet normal -0.281732 -0.959493 -0
    outer loop
      vertex -34.2938 -43.4536 3
      vertex -34.7581 -43.3173 0
      vertex -34.2938 -43.4536 0
    endloop
  endfacet
  facet normal 0.755753 -0.654857 0
    outer loop
      vertex -36.4301 -44.0809 3
      vertex -36.1133 -43.7152 0
      vertex -36.1133 -43.7152 3
    endloop
  endfacet
  facet normal 0.755753 -0.654857 0
    outer loop
      vertex -36.1133 -43.7152 0
      vertex -36.4301 -44.0809 3
      vertex -36.4301 -44.0809 0
    endloop
  endfacet
  facet normal 0.54064 -0.841254 0
    outer loop
      vertex -36.1133 -43.7152 0
      vertex -35.7062 -43.4536 3
      vertex -36.1133 -43.7152 3
    endloop
  endfacet
  facet normal 0.54064 -0.841254 0
    outer loop
      vertex -35.7062 -43.4536 3
      vertex -36.1133 -43.7152 0
      vertex -35.7062 -43.4536 0
    endloop
  endfacet
  facet normal -0.909631 0.415417 0
    outer loop
      vertex -33.5699 -45.9191 0
      vertex -33.3689 -45.4789 3
      vertex -33.3689 -45.4789 0
    endloop
  endfacet
  facet normal -0.909631 0.415417 0
    outer loop
      vertex -33.3689 -45.4789 3
      vertex -33.5699 -45.9191 0
      vertex -33.5699 -45.9191 3
    endloop
  endfacet
  facet normal -0.540644 0.841251 0
    outer loop
      vertex -33.8867 -46.2848 0
      vertex -34.2938 -46.5464 3
      vertex -33.8867 -46.2848 3
    endloop
  endfacet
  facet normal -0.540644 0.841251 0
    outer loop
      vertex -34.2938 -46.5464 3
      vertex -33.8867 -46.2848 0
      vertex -34.2938 -46.5464 0
    endloop
  endfacet
  facet normal -0.989821 0.142316 0
    outer loop
      vertex -33.3689 -45.4789 0
      vertex -33.3 -45 3
      vertex -33.3 -45 0
    endloop
  endfacet
  facet normal -0.989821 0.142316 0
    outer loop
      vertex -33.3 -45 3
      vertex -33.3689 -45.4789 0
      vertex -33.3689 -45.4789 3
    endloop
  endfacet
  facet normal -0.755749 -0.654861 0
    outer loop
      vertex -33.5699 -44.0809 0
      vertex -33.8867 -43.7152 3
      vertex -33.8867 -43.7152 0
    endloop
  endfacet
  facet normal -0.755749 -0.654861 0
    outer loop
      vertex -33.8867 -43.7152 3
      vertex -33.5699 -44.0809 0
      vertex -33.5699 -44.0809 3
    endloop
  endfacet
  facet normal -0.909633 -0.415414 0
    outer loop
      vertex -33.3689 -44.5211 0
      vertex -33.5699 -44.0809 3
      vertex -33.5699 -44.0809 0
    endloop
  endfacet
  facet normal -0.909633 -0.415414 0
    outer loop
      vertex -33.5699 -44.0809 3
      vertex -33.3689 -44.5211 0
      vertex -33.3689 -44.5211 3
    endloop
  endfacet
  facet normal 0 1 -0
    outer loop
      vertex -34.7581 -46.6827 0
      vertex -35.2419 -46.6827 3
      vertex -34.7581 -46.6827 3
    endloop
  endfacet
  facet normal 0 1 0
    outer loop
      vertex -35.2419 -46.6827 3
      vertex -34.7581 -46.6827 0
      vertex -35.2419 -46.6827 0
    endloop
  endfacet
  facet normal 0.909631 0.415417 0
    outer loop
      vertex -36.4301 -45.9191 3
      vertex -36.6311 -45.4789 0
      vertex -36.6311 -45.4789 3
    endloop
  endfacet
  facet normal 0.909631 0.415417 0
    outer loop
      vertex -36.6311 -45.4789 0
      vertex -36.4301 -45.9191 3
      vertex -36.4301 -45.9191 0
    endloop
  endfacet
  facet normal 0.989821 0.142316 0
    outer loop
      vertex -36.6311 -45.4789 3
      vertex -36.7 -45 0
      vertex -36.7 -45 3
    endloop
  endfacet
  facet normal 0.989821 0.142316 0
    outer loop
      vertex -36.7 -45 0
      vertex -36.6311 -45.4789 3
      vertex -36.6311 -45.4789 0
    endloop
  endfacet
  facet normal -0.755749 0.654861 0
    outer loop
      vertex -33.8867 -46.2848 0
      vertex -33.5699 -45.9191 3
      vertex -33.5699 -45.9191 0
    endloop
  endfacet
  facet normal -0.755749 0.654861 0
    outer loop
      vertex -33.5699 -45.9191 3
      vertex -33.8867 -46.2848 0
      vertex -33.8867 -46.2848 3
    endloop
  endfacet
  facet normal 0 -1 0
    outer loop
      vertex -75 -12.25 8.01
      vertex -71.5 -12.25 10
      vertex -75 -12.25 10
    endloop
  endfacet
  facet normal 0 -1 -0
    outer loop
      vertex -71.5 -12.25 10
      vertex -75 -12.25 8.01
      vertex -71.5 -12.25 8.01
    endloop
  endfacet
  facet normal 0 -1 0
    outer loop
      vertex -38.5 -12.25 8.01
      vertex -35 -12.25 10
      vertex -38.5 -12.25 10
    endloop
  endfacet
  facet normal 0 -1 -0
    outer loop
      vertex -35 -12.25 10
      vertex -38.5 -12.25 8.01
      vertex -35 -12.25 8.01
    endloop
  endfacet
  facet normal 0 0 1
    outer loop
      vertex -71.5 1.75 8.01
      vertex -71 5 8.01
      vertex -71.5 5 8.01
    endloop
  endfacet
  facet normal 0 0 1
    outer loop
      vertex -39 -15 8.01
      vertex -44.5 -15.75 8.01
      vertex -41.5 -15.75 8.01
    endloop
  endfacet
  facet normal 0 0 1
    outer loop
      vertex -44.5 -15.75 8.01
      vertex -47.5 -15.75 8.01
      vertex -44.5 -20 8.01
    endloop
  endfacet
  facet normal 0 0 1
    outer loop
      vertex -39 -15 8.01
      vertex -47.5 -15.75 8.01
      vertex -44.5 -15.75 8.01
    endloop
  endfacet
  facet normal 0 0 1
    outer loop
      vertex -39 -15 8.01
      vertex -50.5 -15.75 8.01
      vertex -47.5 -15.75 8.01
    endloop
  endfacet
  facet normal 0 0 1
    outer loop
      vertex -50.5 -15.75 8.01
      vertex -53.5 -15.75 8.01
      vertex -50.5 -20 8.01
    endloop
  endfacet
  facet normal 0 0 1
    outer loop
      vertex -39 -15 8.01
      vertex -53.5 -15.75 8.01
      vertex -50.5 -15.75 8.01
    endloop
  endfacet
  facet normal 0 0 1
    outer loop
      vertex -39 -15 8.01
      vertex -56.5 -15.75 8.01
      vertex -53.5 -15.75 8.01
    endloop
  endfacet
  facet normal 0 0 1
    outer loop
      vertex -56.5 -15.75 8.01
      vertex -59.5 -15.75 8.01
      vertex -56.5 -20 8.01
    endloop
  endfacet
  facet normal -0 0 1
    outer loop
      vertex -71 -15 8.01
      vertex -56.5 -15.75 8.01
      vertex -39 -15 8.01
    endloop
  endfacet
  facet normal 0 0 1
    outer loop
      vertex -56.5 -15.75 8.01
      vertex -71 -15 8.01
      vertex -59.5 -15.75 8.01
    endloop
  endfacet
  facet normal 0 0 1
    outer loop
      vertex -62.5 -15.75 8.01
      vertex -65.5 -15.75 8.01
      vertex -62.5 -20 8.01
    endloop
  endfacet
  facet normal 0 0 1
    outer loop
      vertex -59.5 -15.75 8.01
      vertex -71 -15 8.01
      vertex -62.5 -15.75 8.01
    endloop
  endfacet
  facet normal 0 0 1
    outer loop
      vertex -62.5 -15.75 8.01
      vertex -71 -15 8.01
      vertex -65.5 -15.75 8.01
    endloop
  endfacet
  facet normal 0 0 1
    outer loop
      vertex -65.5 -15.75 8.01
      vertex -71 -15 8.01
      vertex -68.5 -15.75 8.01
    endloop
  endfacet
  facet normal 0 0 1
    outer loop
      vertex -71.5 -15.75 8.01
      vertex -68.5 -15.75 8.01
      vertex -71 -15 8.01
    endloop
  endfacet
  facet normal 0 0 1
    outer loop
      vertex -71.5 -1.75 8.01
      vertex -71 5 8.01
      vertex -71.5 1.75 8.01
    endloop
  endfacet
  facet normal 0 0 1
    outer loop
      vertex -71.5 -5.25 8.01
      vertex -71 5 8.01
      vertex -71.5 -1.75 8.01
    endloop
  endfacet
  facet normal 0 0 1
    outer loop
      vertex -71 5 8.01
      vertex -71.5 -5.25 8.01
      vertex -71 -15 8.01
    endloop
  endfacet
  facet normal -0 0 1
    outer loop
      vertex -71.5 -8.75 8.01
      vertex -71 -15 8.01
      vertex -71.5 -5.25 8.01
    endloop
  endfacet
  facet normal -0 0 1
    outer loop
      vertex -71.5 -12.25 8.01
      vertex -71 -15 8.01
      vertex -71.5 -8.75 8.01
    endloop
  endfacet
  facet normal -0 0 1
    outer loop
      vertex -75 -12.25 8.01
      vertex -71 -15 8.01
      vertex -71.5 -12.25 8.01
    endloop
  endfacet
  facet normal 0 0 1
    outer loop
      vertex -68.5 -15.75 8.01
      vertex -71.5 -15.75 8.01
      vertex -68.5 -20 8.01
    endloop
  endfacet
  facet normal 0 0 1
    outer loop
      vertex -68.5 -20 8.01
      vertex -71.5 -15.75 8.01
      vertex -71.5 -20 8.01
    endloop
  endfacet
  facet normal -0 0 1
    outer loop
      vertex -39 5 8.01
      vertex -38.5 1.75 8.01
      vertex -38.5 5 8.01
    endloop
  endfacet
  facet normal 0 0 1
    outer loop
      vertex -38.5 1.75 8.01
      vertex -39 5 8.01
      vertex -38.5 -1.75 8.01
    endloop
  endfacet
  facet normal 0 0 1
    outer loop
      vertex -38.5 -1.75 8.01
      vertex -39 5 8.01
      vertex -38.5 -5.25 8.01
    endloop
  endfacet
  facet normal 0 0 1
    outer loop
      vertex -39 -15 8.01
      vertex -38.5 -5.25 8.01
      vertex -39 5 8.01
    endloop
  endfacet
  facet normal 0 0 1
    outer loop
      vertex -38.5 -5.25 8.01
      vertex -39 -15 8.01
      vertex -38.5 -8.75 8.01
    endloop
  endfacet
  facet normal 0 0 1
    outer loop
      vertex -38.5 -12.25 8.01
      vertex -39 -15 8.01
      vertex -38.5 -15.75 8.01
    endloop
  endfacet
  facet normal 0 0 1
    outer loop
      vertex -38.5 -8.75 8.01
      vertex -39 -15 8.01
      vertex -38.5 -12.25 8.01
    endloop
  endfacet
  facet normal 0 0 1
    outer loop
      vertex -41.5 -15.75 8.01
      vertex -38.5 -15.75 8.01
      vertex -39 -15 8.01
    endloop
  endfacet
  facet normal 0 0 1
    outer loop
      vertex -38.5 -15.75 8.01
      vertex -41.5 -15.75 8.01
      vertex -38.5 -20 8.01
    endloop
  endfacet
  facet normal 0 0 1
    outer loop
      vertex -38.5 -20 8.01
      vertex -41.5 -15.75 8.01
      vertex -41.5 -20 8.01
    endloop
  endfacet
  facet normal -0 0 1
    outer loop
      vertex -38.5 1.75 8.01
      vertex -35 -1.75 8.01
      vertex -35 1.75 8.01
    endloop
  endfacet
  facet normal 0 0 1
    outer loop
      vertex -35 -1.75 8.01
      vertex -38.5 1.75 8.01
      vertex -38.5 -1.75 8.01
    endloop
  endfacet
  facet normal -0 0 1
    outer loop
      vertex -38.5 -5.25 8.01
      vertex -35 -8.75 8.01
      vertex -35 -5.25 8.01
    endloop
  endfacet
  facet normal 0 0 1
    outer loop
      vertex -35 -8.75 8.01
      vertex -38.5 -5.25 8.01
      vertex -38.5 -8.75 8.01
    endloop
  endfacet
  facet normal -0 0 1
    outer loop
      vertex -38.5 -12.25 8.01
      vertex -35 -15.75 8.01
      vertex -35 -12.25 8.01
    endloop
  endfacet
  facet normal 0 0 1
    outer loop
      vertex -35 -15.75 8.01
      vertex -38.5 -12.25 8.01
      vertex -38.5 -15.75 8.01
    endloop
  endfacet
  facet normal 0 0 1
    outer loop
      vertex -44.5 -20 8.01
      vertex -47.5 -15.75 8.01
      vertex -47.5 -20 8.01
    endloop
  endfacet
  facet normal 0 0 1
    outer loop
      vertex -50.5 -20 8.01
      vertex -53.5 -15.75 8.01
      vertex -53.5 -20 8.01
    endloop
  endfacet
  facet normal 0 0 1
    outer loop
      vertex -56.5 -20 8.01
      vertex -59.5 -15.75 8.01
      vertex -59.5 -20 8.01
    endloop
  endfacet
  facet normal 0 0 1
    outer loop
      vertex -62.5 -20 8.01
      vertex -65.5 -15.75 8.01
      vertex -65.5 -20 8.01
    endloop
  endfacet
  facet normal 0 0 1
    outer loop
      vertex -75 -15.75 8.01
      vertex -71 -15 8.01
      vertex -75 -12.25 8.01
    endloop
  endfacet
  facet normal 0 0 1
    outer loop
      vertex -71 -15 8.01
      vertex -75 -15.75 8.01
      vertex -71.5 -15.75 8.01
    endloop
  endfacet
  facet normal -0 0 1
    outer loop
      vertex -75 -5.25 8.01
      vertex -71.5 -8.75 8.01
      vertex -71.5 -5.25 8.01
    endloop
  endfacet
  facet normal 0 0 1
    outer loop
      vertex -71.5 -8.75 8.01
      vertex -75 -5.25 8.01
      vertex -75 -8.75 8.01
    endloop
  endfacet
  facet normal -0 0 1
    outer loop
      vertex -75 1.75 8.01
      vertex -71.5 -1.75 8.01
      vertex -71.5 1.75 8.01
    endloop
  endfacet
  facet normal 0 0 1
    outer loop
      vertex -71.5 -1.75 8.01
      vertex -75 1.75 8.01
      vertex -75 -1.75 8.01
    endloop
  endfacet
  facet normal 0 1 -0
    outer loop
      vertex -71.5 -15.75 8.01
      vertex -75 -15.75 10
      vertex -71.5 -15.75 10
    endloop
  endfacet
  facet normal 0 1 0
    outer loop
      vertex -75 -15.75 10
      vertex -71.5 -15.75 8.01
      vertex -75 -15.75 8.01
    endloop
  endfacet
  facet normal 0 1 -0
    outer loop
      vertex -35 -15.75 8.01
      vertex -38.5 -15.75 10
      vertex -35 -15.75 10
    endloop
  endfacet
  facet normal 0 1 0
    outer loop
      vertex -38.5 -15.75 10
      vertex -35 -15.75 8.01
      vertex -38.5 -15.75 8.01
    endloop
  endfacet
  facet normal 0 1 -0
    outer loop
      vertex -65.5 -15.75 8.01
      vertex -68.5 -15.75 10
      vertex -65.5 -15.75 10
    endloop
  endfacet
  facet normal 0 1 0
    outer loop
      vertex -68.5 -15.75 10
      vertex -65.5 -15.75 8.01
      vertex -68.5 -15.75 8.01
    endloop
  endfacet
  facet normal 0 1 -0
    outer loop
      vertex -59.5 -15.75 8.01
      vertex -62.5 -15.75 10
      vertex -59.5 -15.75 10
    endloop
  endfacet
  facet normal 0 1 0
    outer loop
      vertex -62.5 -15.75 10
      vertex -59.5 -15.75 8.01
      vertex -62.5 -15.75 8.01
    endloop
  endfacet
  facet normal 0 1 -0
    outer loop
      vertex -53.5 -15.75 8.01
      vertex -56.5 -15.75 10
      vertex -53.5 -15.75 10
    endloop
  endfacet
  facet normal 0 1 0
    outer loop
      vertex -56.5 -15.75 10
      vertex -53.5 -15.75 8.01
      vertex -56.5 -15.75 8.01
    endloop
  endfacet
  facet normal 0 1 -0
    outer loop
      vertex -47.5 -15.75 8.01
      vertex -50.5 -15.75 10
      vertex -47.5 -15.75 10
    endloop
  endfacet
  facet normal 0 1 0
    outer loop
      vertex -50.5 -15.75 10
      vertex -47.5 -15.75 8.01
      vertex -50.5 -15.75 8.01
    endloop
  endfacet
  facet normal 0 1 -0
    outer loop
      vertex -41.5 -15.75 8.01
      vertex -44.5 -15.75 10
      vertex -41.5 -15.75 10
    endloop
  endfacet
  facet normal 0 1 0
    outer loop
      vertex -44.5 -15.75 10
      vertex -41.5 -15.75 8.01
      vertex -44.5 -15.75 8.01
    endloop
  endfacet
  facet normal 0 1 -0
    outer loop
      vertex -71.5 -8.75 8.01
      vertex -75 -8.75 10
      vertex -71.5 -8.75 10
    endloop
  endfacet
  facet normal 0 1 0
    outer loop
      vertex -75 -8.75 10
      vertex -71.5 -8.75 8.01
      vertex -75 -8.75 8.01
    endloop
  endfacet
  facet normal 0 1 -0
    outer loop
      vertex -35 -8.75 8.01
      vertex -38.5 -8.75 10
      vertex -35 -8.75 10
    endloop
  endfacet
  facet normal 0 1 0
    outer loop
      vertex -38.5 -8.75 10
      vertex -35 -8.75 8.01
      vertex -38.5 -8.75 8.01
    endloop
  endfacet
  facet normal 0 -1 0
    outer loop
      vertex -75 -5.25 8.01
      vertex -71.5 -5.25 10
      vertex -75 -5.25 10
    endloop
  endfacet
  facet normal 0 -1 -0
    outer loop
      vertex -71.5 -5.25 10
      vertex -75 -5.25 8.01
      vertex -71.5 -5.25 8.01
    endloop
  endfacet
  facet normal 0 -1 0
    outer loop
      vertex -38.5 -5.25 8.01
      vertex -35 -5.25 10
      vertex -38.5 -5.25 10
    endloop
  endfacet
  facet normal 0 -1 -0
    outer loop
      vertex -35 -5.25 10
      vertex -38.5 -5.25 8.01
      vertex -35 -5.25 8.01
    endloop
  endfacet
  facet normal 0 -1 0
    outer loop
      vertex -75 1.75 8.01
      vertex -71.5 1.75 10
      vertex -75 1.75 10
    endloop
  endfacet
  facet normal 0 -1 -0
    outer loop
      vertex -71.5 1.75 10
      vertex -75 1.75 8.01
      vertex -71.5 1.75 8.01
    endloop
  endfacet
  facet normal 0 -1 0
    outer loop
      vertex -38.5 1.75 8.01
      vertex -35 1.75 10
      vertex -38.5 1.75 10
    endloop
  endfacet
  facet normal 0 -1 -0
    outer loop
      vertex -35 1.75 10
      vertex -38.5 1.75 8.01
      vertex -35 1.75 8.01
    endloop
  endfacet
  facet normal 0 1 -0
    outer loop
      vertex -71.5 -1.75 8.01
      vertex -75 -1.75 10
      vertex -71.5 -1.75 10
    endloop
  endfacet
  facet normal 0 1 0
    outer loop
      vertex -75 -1.75 10
      vertex -71.5 -1.75 8.01
      vertex -75 -1.75 8.01
    endloop
  endfacet
  facet normal 0 1 -0
    outer loop
      vertex -35 -1.75 8.01
      vertex -38.5 -1.75 10
      vertex -35 -1.75 10
    endloop
  endfacet
  facet normal 0 1 0
    outer loop
      vertex -38.5 -1.75 10
      vertex -35 -1.75 8.01
      vertex -38.5 -1.75 8.01
    endloop
  endfacet
  facet normal 1 -0 0
    outer loop
      vertex -71.5 1.75 10
      vertex -71.5 5 8.01
      vertex -71.5 5 10
    endloop
  endfacet
  facet normal 1 0 0
    outer loop
      vertex -71.5 5 8.01
      vertex -71.5 1.75 10
      vertex -71.5 1.75 8.01
    endloop
  endfacet
  facet normal 1 -0 0
    outer loop
      vertex -71.5 -5.25 10
      vertex -71.5 -1.75 8.01
      vertex -71.5 -1.75 10
    endloop
  endfacet
  facet normal 1 0 0
    outer loop
      vertex -71.5 -1.75 8.01
      vertex -71.5 -5.25 10
      vertex -71.5 -5.25 8.01
    endloop
  endfacet
  facet normal 1 -0 0
    outer loop
      vertex -71.5 -12.25 10
      vertex -71.5 -8.75 8.01
      vertex -71.5 -8.75 10
    endloop
  endfacet
  facet normal 1 0 0
    outer loop
      vertex -71.5 -8.75 8.01
      vertex -71.5 -12.25 10
      vertex -71.5 -12.25 8.01
    endloop
  endfacet
  facet normal 1 -0 0
    outer loop
      vertex -71.5 -20 10
      vertex -71.5 -15.75 8.01
      vertex -71.5 -15.75 10
    endloop
  endfacet
  facet normal 1 0 0
    outer loop
      vertex -71.5 -15.75 8.01
      vertex -71.5 -20 10
      vertex -71.5 -20 8.01
    endloop
  endfacet
  facet normal -1 0 0
    outer loop
      vertex -68.5 -20 8.01
      vertex -68.5 -15.75 10
      vertex -68.5 -15.75 8.01
    endloop
  endfacet
  facet normal -1 -0 0
    outer loop
      vertex -68.5 -15.75 10
      vertex -68.5 -20 8.01
      vertex -68.5 -20 10
    endloop
  endfacet
  facet normal 1 -0 0
    outer loop
      vertex -65.5 -20 10
      vertex -65.5 -15.75 8.01
      vertex -65.5 -15.75 10
    endloop
  endfacet
  facet normal 1 0 0
    outer loop
      vertex -65.5 -15.75 8.01
      vertex -65.5 -20 10
      vertex -65.5 -20 8.01
    endloop
  endfacet
  facet normal -1 0 0
    outer loop
      vertex -62.5 -20 8.01
      vertex -62.5 -15.75 10
      vertex -62.5 -15.75 8.01
    endloop
  endfacet
  facet normal -1 -0 0
    outer loop
      vertex -62.5 -15.75 10
      vertex -62.5 -20 8.01
      vertex -62.5 -20 10
    endloop
  endfacet
  facet normal 1 -0 0
    outer loop
      vertex -59.5 -20 10
      vertex -59.5 -15.75 8.01
      vertex -59.5 -15.75 10
    endloop
  endfacet
  facet normal 1 0 0
    outer loop
      vertex -59.5 -15.75 8.01
      vertex -59.5 -20 10
      vertex -59.5 -20 8.01
    endloop
  endfacet
  facet normal -1 0 0
    outer loop
      vertex -56.5 -20 8.01
      vertex -56.5 -15.75 10
      vertex -56.5 -15.75 8.01
    endloop
  endfacet
  facet normal -1 -0 0
    outer loop
      vertex -56.5 -15.75 10
      vertex -56.5 -20 8.01
      vertex -56.5 -20 10
    endloop
  endfacet
  facet normal 1 -0 0
    outer loop
      vertex -53.5 -20 10
      vertex -53.5 -15.75 8.01
      vertex -53.5 -15.75 10
    endloop
  endfacet
  facet normal 1 0 0
    outer loop
      vertex -53.5 -15.75 8.01
      vertex -53.5 -20 10
      vertex -53.5 -20 8.01
    endloop
  endfacet
  facet normal -1 0 0
    outer loop
      vertex -50.5 -20 8.01
      vertex -50.5 -15.75 10
      vertex -50.5 -15.75 8.01
    endloop
  endfacet
  facet normal -1 -0 0
    outer loop
      vertex -50.5 -15.75 10
      vertex -50.5 -20 8.01
      vertex -50.5 -20 10
    endloop
  endfacet
  facet normal 1 -0 0
    outer loop
      vertex -47.5 -20 10
      vertex -47.5 -15.75 8.01
      vertex -47.5 -15.75 10
    endloop
  endfacet
  facet normal 1 0 0
    outer loop
      vertex -47.5 -15.75 8.01
      vertex -47.5 -20 10
      vertex -47.5 -20 8.01
    endloop
  endfacet
  facet normal -1 0 0
    outer loop
      vertex -44.5 -20 8.01
      vertex -44.5 -15.75 10
      vertex -44.5 -15.75 8.01
    endloop
  endfacet
  facet normal -1 -0 0
    outer loop
      vertex -44.5 -15.75 10
      vertex -44.5 -20 8.01
      vertex -44.5 -20 10
    endloop
  endfacet
  facet normal 1 -0 0
    outer loop
      vertex -41.5 -20 10
      vertex -41.5 -15.75 8.01
      vertex -41.5 -15.75 10
    endloop
  endfacet
  facet normal 1 0 0
    outer loop
      vertex -41.5 -15.75 8.01
      vertex -41.5 -20 10
      vertex -41.5 -20 8.01
    endloop
  endfacet
  facet normal -1 0 0
    outer loop
      vertex -38.5 -20 8.01
      vertex -38.5 -15.75 10
      vertex -38.5 -15.75 8.01
    endloop
  endfacet
  facet normal -1 -0 0
    outer loop
      vertex -38.5 -15.75 10
      vertex -38.5 -20 8.01
      vertex -38.5 -20 10
    endloop
  endfacet
  facet normal -1 0 0
    outer loop
      vertex -38.5 1.75 8.01
      vertex -38.5 5 10
      vertex -38.5 5 8.01
    endloop
  endfacet
  facet normal -1 -0 0
    outer loop
      vertex -38.5 5 10
      vertex -38.5 1.75 8.01
      vertex -38.5 1.75 10
    endloop
  endfacet
  facet normal -1 0 0
    outer loop
      vertex -38.5 -5.25 8.01
      vertex -38.5 -1.75 10
      vertex -38.5 -1.75 8.01
    endloop
  endfacet
  facet normal -1 -0 0
    outer loop
      vertex -38.5 -1.75 10
      vertex -38.5 -5.25 8.01
      vertex -38.5 -5.25 10
    endloop
  endfacet
  facet normal -1 0 0
    outer loop
      vertex -38.5 -12.25 8.01
      vertex -38.5 -8.75 10
      vertex -38.5 -8.75 8.01
    endloop
  endfacet
  facet normal -1 -0 0
    outer loop
      vertex -38.5 -8.75 10
      vertex -38.5 -12.25 8.01
      vertex -38.5 -12.25 10
    endloop
  endfacet
endsolid OpenSCAD_Model
