solid OpenSCAD_Model
  facet normal 0 0 1
    outer loop
      vertex -50 52 3.02
      vertex -46 52 3.02
      vertex -46 60.5 3.02
    endloop
  endfacet
  facet normal 0 0 1
    outer loop
      vertex -46 52 3.02
      vertex -50 52 3.02
      vertex -46.0581 51.5214 3.02
    endloop
  endfacet
  facet normal 0 0 1
    outer loop
      vertex -46.0581 51.5214 3.02
      vertex -50 52 3.02
      vertex -46.2291 51.0706 3.02
    endloop
  endfacet
  facet normal 0 0 1
    outer loop
      vertex -46.2291 51.0706 3.02
      vertex -50 52 3.02
      vertex -46.503 50.6738 3.02
    endloop
  endfacet
  facet normal 0 0 1
    outer loop
      vertex -46.503 50.6738 3.02
      vertex -50 52 3.02
      vertex -46.8639 50.354 3.02
    endloop
  endfacet
  facet normal 0 0 1
    outer loop
      vertex -46.8639 50.354 3.02
      vertex -50 52 3.02
      vertex -47.2908 50.13 3.02
    endloop
  endfacet
  facet normal 0 0 1
    outer loop
      vertex -47.2908 50.13 3.02
      vertex -50 52 3.02
      vertex -47.7589 50.0146 3.02
    endloop
  endfacet
  facet normal 0 0 1
    outer loop
      vertex -47.7589 50.0146 3.02
      vertex -50 52 3.02
      vertex -48.2411 50.0146 3.02
    endloop
  endfacet
  facet normal 0 0 1
    outer loop
      vertex -48.2411 50.0146 3.02
      vertex -50 52 3.02
      vertex -48.7092 50.13 3.02
    endloop
  endfacet
  facet normal 0 0 1
    outer loop
      vertex -48.7092 50.13 3.02
      vertex -50 52 3.02
      vertex -49.1361 50.354 3.02
    endloop
  endfacet
  facet normal 0 0 1
    outer loop
      vertex -49.1361 50.354 3.02
      vertex -50 52 3.02
      vertex -49.497 50.6738 3.02
    endloop
  endfacet
  facet normal 0 0 1
    outer loop
      vertex -49.497 50.6738 3.02
      vertex -50 52 3.02
      vertex -49.7709 51.0706 3.02
    endloop
  endfacet
  facet normal 0 0 1
    outer loop
      vertex -50 52 3.02
      vertex -46 60.5 3.02
      vertex -50 60.5 3.02
    endloop
  endfacet
  facet normal 0 0 1
    outer loop
      vertex -49.7709 51.0706 3.02
      vertex -50 52 3.02
      vertex -49.9419 51.5214 3.02
    endloop
  endfacet
  facet normal -1 0 0
    outer loop
      vertex -48.4 54.1326 7.24792e-07
      vertex -48.4 60.5 1
      vertex -48.4 60.5 7.24792e-07
    endloop
  endfacet
  facet normal -1 -0 0
    outer loop
      vertex -48.4 60.5 1
      vertex -48.4 54.1326 7.24792e-07
      vertex -48.4 53.511 1
    endloop
  endfacet
  facet normal 0 0 -1
    outer loop
      vertex -47.882 54.1753 7.24792e-07
      vertex -47.6 60.5 7.24792e-07
      vertex -47.6 54.1038 7.24792e-07
    endloop
  endfacet
  facet normal 0 0 -1
    outer loop
      vertex -47.9022 54.1804 7.24792e-07
      vertex -47.6 60.5 7.24792e-07
      vertex -47.882 54.1753 7.24792e-07
    endloop
  endfacet
  facet normal 0 0 -1
    outer loop
      vertex -48.4 60.5 7.24792e-07
      vertex -47.9022 54.1804 7.24792e-07
      vertex -47.9229 54.1786 7.24792e-07
    endloop
  endfacet
  facet normal 0 0 -1
    outer loop
      vertex -48.4 60.5 7.24792e-07
      vertex -47.9229 54.1786 7.24792e-07
      vertex -48.2908 54.1482 7.24792e-07
    endloop
  endfacet
  facet normal 0 0 -1
    outer loop
      vertex -48.4 60.5 7.24792e-07
      vertex -48.2908 54.1482 7.24792e-07
      vertex -48.4 54.1326 7.24792e-07
    endloop
  endfacet
  facet normal 0 0 -1
    outer loop
      vertex -47.9022 54.1804 7.24792e-07
      vertex -48.4 60.5 7.24792e-07
      vertex -47.6 60.5 7.24792e-07
    endloop
  endfacet
  facet normal 1 0 0
    outer loop
      vertex -47.6 60.5 1
      vertex -47.6 54.1038 7.24792e-07
      vertex -47.6 60.5 7.24792e-07
    endloop
  endfacet
  facet normal 1 0 0
    outer loop
      vertex -47.6 60.5 1
      vertex -47.6 53.9119 0.304822
      vertex -47.6 54.1038 7.24792e-07
    endloop
  endfacet
  facet normal 1 0 0
    outer loop
      vertex -47.6 60.5 1
      vertex -47.6 53.5151 0.849001
      vertex -47.6 53.9119 0.304822
    endloop
  endfacet
  facet normal 1 0 0
    outer loop
      vertex -47.6 60.5 1
      vertex -47.6 53.4345 0.959596
      vertex -47.6 53.5151 0.849001
    endloop
  endfacet
  facet normal 1 0 -0
    outer loop
      vertex -47.6 53.4345 0.959596
      vertex -47.6 60.5 1
      vertex -47.6 53.3944 1
    endloop
  endfacet
  facet normal -0.19263 -0.781544 -0.593365
    outer loop
      vertex -48.2241 51.1568 1.51
      vertex -48.2411 50.0146 3.02
      vertex -48.7092 50.13 3.02
    endloop
  endfacet
  facet normal -0.192642 -0.781542 -0.593364
    outer loop
      vertex -48.2411 50.0146 3.02
      vertex -48.2241 51.1568 1.51
      vertex -48.1059 51.1277 1.51
    endloop
  endfacet
  facet normal 0.374074 -0.712732 -0.593365
    outer loop
      vertex -47.708 51.23 1.4356
      vertex -46.8639 50.354 3.02
      vertex -47.2908 50.13 3.02
    endloop
  endfacet
  facet normal 0.374069 -0.712735 -0.593364
    outer loop
      vertex -46.8639 50.354 3.02
      vertex -47.708 51.23 1.4356
      vertex -47.6562 51.3279 1.35075
    endloop
  endfacet
  facet normal 0.802852 0 -0.596178
    outer loop
      vertex -46 60.5 3.02
      vertex -47.5 53.2617 1
      vertex -47.5 60.5 1
    endloop
  endfacet
  facet normal 0.802852 0 -0.596178
    outer loop
      vertex -46 52 3.02
      vertex -47.5 53.2617 1
      vertex -46 60.5 3.02
    endloop
  endfacet
  facet normal 0.802844 -2.87761e-05 -0.596189
    outer loop
      vertex -47.5 53.2617 1
      vertex -46 52 3.02
      vertex -47.4899 53.2065 1.01366
    endloop
  endfacet
  facet normal 0.802859 2.45797e-05 -0.596169
    outer loop
      vertex -47.4899 53.2065 1.01366
      vertex -46 52 3.02
      vertex -47.4682 53.0887 1.04278
    endloop
  endfacet
  facet normal 0.802853 0 -0.596178
    outer loop
      vertex -47.4682 53.0887 1.04278
      vertex -46 52 3.02
      vertex -47.4682 52 1.04278
    endloop
  endfacet
  facet normal 0 -0.804934 -0.593364
    outer loop
      vertex -48.1059 51.1277 1.51
      vertex -47.7589 50.0146 3.02
      vertex -48.2411 50.0146 3.02
    endloop
  endfacet
  facet normal 0 -0.804934 -0.593364
    outer loop
      vertex -47.7589 50.0146 3.02
      vertex -48.1059 51.1277 1.51
      vertex -47.8941 51.1277 1.51
    endloop
  endfacet
  facet normal 0.374066 -0.712737 -0.593364
    outer loop
      vertex -46.8639 50.354 3.02
      vertex -47.6562 51.3279 1.35075
      vertex -47.6041 51.4264 1.2653
    endloop
  endfacet
  facet normal 0.53378 -0.602493 -0.593364
    outer loop
      vertex -46.8639 50.354 3.02
      vertex -47.6041 51.4264 1.2653
      vertex -47.5556 51.5474 1.18594
    endloop
  endfacet
  facet normal -0.662451 -0.457248 -0.593366
    outer loop
      vertex -48.6577 51.4173 1.51
      vertex -49.7709 51.0706 3.02
      vertex -48.7269 51.5175 1.51
    endloop
  endfacet
  facet normal -0.662446 -0.457257 -0.593365
    outer loop
      vertex -49.7709 51.0706 3.02
      vertex -48.6577 51.4173 1.51
      vertex -49.497 50.6738 3.02
    endloop
  endfacet
  facet normal 0 0 -1
    outer loop
      vertex -47.5026 53.2692 1
      vertex -47.5 60.5 1
      vertex -47.5 53.2617 1
    endloop
  endfacet
  facet normal 0 0 -1
    outer loop
      vertex -47.5404 53.3177 1
      vertex -47.5 60.5 1
      vertex -47.5026 53.2692 1
    endloop
  endfacet
  facet normal 0 0 -1
    outer loop
      vertex -47.6 53.3944 1
      vertex -47.5 60.5 1
      vertex -47.5404 53.3177 1
    endloop
  endfacet
  facet normal -0 0 -1
    outer loop
      vertex -47.5 60.5 1
      vertex -47.6 53.3944 1
      vertex -47.6 60.5 1
    endloop
  endfacet
  facet normal 0 0 -1
    outer loop
      vertex -48.5 60.5 1
      vertex -48.4 53.511 1
      vertex -48.5 53.4967 1
    endloop
  endfacet
  facet normal 0 0 -1
    outer loop
      vertex -48.4 53.511 1
      vertex -48.5 60.5 1
      vertex -48.4 60.5 1
    endloop
  endfacet
  facet normal 0.799058 -0.0971101 -0.59336
    outer loop
      vertex -46 52 3.02
      vertex -47.4688 51.9896 1.04371
      vertex -47.4682 52 1.04278
    endloop
  endfacet
  facet normal 0.799064 -0.0970252 -0.593365
    outer loop
      vertex -47.4688 51.9896 1.04371
      vertex -46 52 3.02
      vertex -46.0581 51.5214 3.02
    endloop
  endfacet
  facet normal 0.662461 -0.457231 -0.593368
    outer loop
      vertex -46.2291 51.0706 3.02
      vertex -47.5382 51.5909 1.15746
      vertex -47.5282 51.6267 1.14106
    endloop
  endfacet
  facet normal 0.662446 -0.457257 -0.593365
    outer loop
      vertex -47.5382 51.5909 1.15746
      vertex -46.2291 51.0706 3.02
      vertex -46.503 50.6738 3.02
    endloop
  endfacet
  facet normal 0.533771 -0.602501 -0.593365
    outer loop
      vertex -47.5556 51.5474 1.18594
      vertex -46.503 50.6738 3.02
      vertex -46.8639 50.354 3.02
    endloop
  endfacet
  facet normal 0.533762 -0.602509 -0.593364
    outer loop
      vertex -46.503 50.6738 3.02
      vertex -47.5556 51.5474 1.18594
      vertex -47.5382 51.5909 1.15746
    endloop
  endfacet
  facet normal 0.752624 -0.285438 -0.593366
    outer loop
      vertex -46.2291 51.0706 3.02
      vertex -47.4976 51.7363 1.09082
      vertex -47.4776 51.8571 1.05808
    endloop
  endfacet
  facet normal -0.192642 -0.781541 -0.593366
    outer loop
      vertex -48.2241 51.1568 1.51
      vertex -48.7092 50.13 3.02
      vertex -48.3116 51.1784 1.51
    endloop
  endfacet
  facet normal -0.374073 -0.712732 -0.593365
    outer loop
      vertex -48.4194 51.235 1.51
      vertex -48.7092 50.13 3.02
      vertex -49.1361 50.354 3.02
    endloop
  endfacet
  facet normal -0.374073 -0.712732 -0.593366
    outer loop
      vertex -48.7092 50.13 3.02
      vertex -48.4194 51.235 1.51
      vertex -48.3116 51.1784 1.51
    endloop
  endfacet
  facet normal -0.533771 -0.602501 -0.593365
    outer loop
      vertex -48.6577 51.4173 1.51
      vertex -49.1361 50.354 3.02
      vertex -49.497 50.6738 3.02
    endloop
  endfacet
  facet normal -0.533781 -0.602493 -0.593363
    outer loop
      vertex -49.1361 50.354 3.02
      vertex -48.6577 51.4173 1.51
      vertex -48.5666 51.3366 1.51
    endloop
  endfacet
  facet normal -0.799065 -0.0970138 -0.593366
    outer loop
      vertex -48.8532 51.7897 1.51
      vertex -50 52 3.02
      vertex -48.8679 51.9106 1.51
    endloop
  endfacet
  facet normal -0.799065 -0.0970252 -0.593365
    outer loop
      vertex -50 52 3.02
      vertex -48.8532 51.7897 1.51
      vertex -49.9419 51.5214 3.02
    endloop
  endfacet
  facet normal -0.799065 -0.0970205 -0.593366
    outer loop
      vertex -48.8679 51.9106 1.51
      vertex -50 52 3.02
      vertex -48.8787 52 1.51
    endloop
  endfacet
  facet normal -0.752624 -0.285441 -0.593364
    outer loop
      vertex -48.81 51.6759 1.51
      vertex -49.9419 51.5214 3.02
      vertex -48.8532 51.7897 1.51
    endloop
  endfacet
  facet normal -0.752627 -0.285431 -0.593365
    outer loop
      vertex -49.9419 51.5214 3.02
      vertex -48.81 51.6759 1.51
      vertex -49.7709 51.0706 3.02
    endloop
  endfacet
  facet normal -0.662454 -0.457243 -0.593367
    outer loop
      vertex -48.7269 51.5175 1.51
      vertex -49.7709 51.0706 3.02
      vertex -48.7781 51.5916 1.51
    endloop
  endfacet
  facet normal 0.662444 -0.457258 -0.593365
    outer loop
      vertex -46.2291 51.0706 3.02
      vertex -47.5282 51.6267 1.14106
      vertex -47.4976 51.7363 1.09082
    endloop
  endfacet
  facet normal 0.192695 -0.781523 -0.593372
    outer loop
      vertex -47.7534 51.1624 1.51
      vertex -47.2908 50.13 3.02
      vertex -47.7759 51.1568 1.51
    endloop
  endfacet
  facet normal 0.19261 -0.78155 -0.593364
    outer loop
      vertex -47.2908 50.13 3.02
      vertex -47.7534 51.1624 1.51
      vertex -47.708 51.23 1.4356
    endloop
  endfacet
  facet normal 0.192636 -0.781543 -0.593364
    outer loop
      vertex -47.7759 51.1568 1.51
      vertex -47.7589 50.0146 3.02
      vertex -47.8941 51.1277 1.51
    endloop
  endfacet
  facet normal 0.19263 -0.781544 -0.593365
    outer loop
      vertex -47.7589 50.0146 3.02
      vertex -47.7759 51.1568 1.51
      vertex -47.2908 50.13 3.02
    endloop
  endfacet
  facet normal 0.799066 -0.0970159 -0.593364
    outer loop
      vertex -46.0581 51.5214 3.02
      vertex -47.4753 51.8707 1.05439
      vertex -47.4688 51.9896 1.04371
    endloop
  endfacet
  facet normal 0.752615 -0.285466 -0.593363
    outer loop
      vertex -46.0581 51.5214 3.02
      vertex -47.4776 51.8571 1.05808
      vertex -47.4753 51.8707 1.05439
    endloop
  endfacet
  facet normal 0.752627 -0.285431 -0.593365
    outer loop
      vertex -47.4776 51.8571 1.05808
      vertex -46.0581 51.5214 3.02
      vertex -46.2291 51.0706 3.02
    endloop
  endfacet
  facet normal -0.802852 0 -0.596178
    outer loop
      vertex -48.5 53.4967 1
      vertex -50 60.5 3.02
      vertex -48.5 60.5 1
    endloop
  endfacet
  facet normal -0.802853 -3.39418e-07 -0.596177
    outer loop
      vertex -48.8787 53.1256 1.51
      vertex -50 60.5 3.02
      vertex -48.5 53.4967 1
    endloop
  endfacet
  facet normal -0.802852 0 -0.596178
    outer loop
      vertex -50 52 3.02
      vertex -48.8787 53.1256 1.51
      vertex -48.8787 52 1.51
    endloop
  endfacet
  facet normal -0.802852 0 -0.596178
    outer loop
      vertex -48.8787 53.1256 1.51
      vertex -50 52 3.02
      vertex -50 60.5 3.02
    endloop
  endfacet
  facet normal -0.374058 -0.712741 -0.593364
    outer loop
      vertex -48.4194 51.235 1.51
      vertex -49.1361 50.354 3.02
      vertex -48.4992 51.2768 1.51
    endloop
  endfacet
  facet normal -0.53375 -0.602517 -0.593366
    outer loop
      vertex -48.4992 51.2768 1.51
      vertex -49.1361 50.354 3.02
      vertex -48.5666 51.3366 1.51
    endloop
  endfacet
  facet normal -0.752622 -0.285441 -0.593366
    outer loop
      vertex -48.7781 51.5916 1.51
      vertex -49.7709 51.0706 3.02
      vertex -48.81 51.6759 1.51
    endloop
  endfacet
  facet normal 0.853563 -0 0.520989
    outer loop
      vertex -47.4682 52 1.04278
      vertex -46.8317 53.1949 1.00032e-15
      vertex -47.4682 53.0887 1.04278
    endloop
  endfacet
  facet normal 0.853525 -7.42358e-05 0.521051
    outer loop
      vertex -46.8317 50.8051 1.00032e-15
      vertex -47.4682 52 1.04278
      vertex -47.4688 51.9896 1.04371
    endloop
  endfacet
  facet normal 0.853567 8.2797e-06 0.520983
    outer loop
      vertex -46.8317 50.8051 1.00032e-15
      vertex -47.4688 51.9896 1.04371
      vertex -47.4753 51.8707 1.05439
    endloop
  endfacet
  facet normal 0.853545 -4.11308e-05 0.52102
    outer loop
      vertex -46.8317 50.8051 1.00032e-15
      vertex -47.4753 51.8707 1.05439
      vertex -47.4776 51.8571 1.05808
    endloop
  endfacet
  facet normal 0.853564 1.66859e-06 0.520989
    outer loop
      vertex -46.8317 50.8051 1.00032e-15
      vertex -47.4776 51.8571 1.05808
      vertex -47.4976 51.7363 1.09082
    endloop
  endfacet
  facet normal 0.85356 -8.42489e-06 0.520995
    outer loop
      vertex -46.8317 50.8051 1.00032e-15
      vertex -47.4976 51.7363 1.09082
      vertex -47.5282 51.6267 1.14106
    endloop
  endfacet
  facet normal 0.853564 5.706e-06 0.520987
    outer loop
      vertex -46.8317 50.8051 1.00032e-15
      vertex -47.5282 51.6267 1.14106
      vertex -47.5382 51.5909 1.15746
    endloop
  endfacet
  facet normal 0.853561 -5.62253e-06 0.520993
    outer loop
      vertex -46.8317 50.8051 1.00032e-15
      vertex -47.5382 51.5909 1.15746
      vertex -47.5556 51.5474 1.18594
    endloop
  endfacet
  facet normal 0.853565 8.06257e-06 0.520987
    outer loop
      vertex -46.8317 50.8051 1.00032e-15
      vertex -47.5556 51.5474 1.18594
      vertex -47.6041 51.4264 1.2653
    endloop
  endfacet
  facet normal 0.853559 1.60255e-06 0.520995
    outer loop
      vertex -47.7534 50.9589 1.51
      vertex -47.6562 51.3279 1.35075
      vertex -47.708 51.23 1.4356
    endloop
  endfacet
  facet normal 0.853562 -0 0.520991
    outer loop
      vertex -47.7534 50.9589 1.51
      vertex -47.708 51.23 1.4356
      vertex -47.7534 51.1624 1.51
    endloop
  endfacet
  facet normal 0.853562 -1.29127e-06 0.520991
    outer loop
      vertex -46.8317 50.8051 1.00032e-15
      vertex -47.6562 51.3279 1.35075
      vertex -47.7534 50.9589 1.51
    endloop
  endfacet
  facet normal 0.853562 -6.75978e-06 0.520992
    outer loop
      vertex -47.6562 51.3279 1.35075
      vertex -46.8317 50.8051 1.00032e-15
      vertex -47.6041 51.4264 1.2653
    endloop
  endfacet
  facet normal 0.853563 0 0.520989
    outer loop
      vertex -47.4682 52 1.04278
      vertex -46.8317 50.8051 1.00032e-15
      vertex -46.8317 53.1949 1.00032e-15
    endloop
  endfacet
  facet normal -0.0154701 0.186638 0.982307
    outer loop
      vertex -47.9022 54.1804 7.24792e-07
      vertex -47.9229 54.1786 8.66695e-16
      vertex -47.9229 54.1786 7.24792e-07
    endloop
  endfacet
  facet normal -0.0824226 0.996597 0
    outer loop
      vertex -47.9229 54.1786 8.66695e-16
      vertex -47.9022 54.1804 7.24792e-07
      vertex -47.9022 54.1804 8.69231e-16
    endloop
  endfacet
  facet normal -0.141417 0.98995 0
    outer loop
      vertex -48.2908 54.1482 7.24792e-07
      vertex -48.2908 54.1482 8.21646e-16
      vertex -48.4 54.1326 7.24792e-07
    endloop
  endfacet
  facet normal -0.12045 0.843118 0.524064
    outer loop
      vertex -48.4 53.511 1
      vertex -48.4 54.1326 7.24792e-07
      vertex -48.5 53.4967 1
    endloop
  endfacet
  facet normal -0.120442 0.843119 0.524065
    outer loop
      vertex -48.4 54.1326 7.24792e-07
      vertex -48.8787 53.1256 1.51
      vertex -48.5 53.4967 1
    endloop
  endfacet
  facet normal -0.120446 0.843119 0.524064
    outer loop
      vertex -48.8787 53.1256 1.51
      vertex -48.4 54.1326 7.24792e-07
      vertex -55.0654 53.1804 -8.00611e-18
    endloop
  endfacet
  facet normal -0.120446 0.843119 0.524064
    outer loop
      vertex -48.8787 53.1256 1.51
      vertex -55.0654 53.1804 -8.00611e-18
      vertex -55.0138 52.2491 1.51
    endloop
  endfacet
  facet normal -0.112143 0.785 -0.609261
    outer loop
      vertex -55.0654 53.1804 -8.00611e-18
      vertex -48.4 54.1326 7.24792e-07
      vertex -48.2908 54.1482 8.21646e-16
    endloop
  endfacet
  facet normal 0.673653 0.524161 0.521005
    outer loop
      vertex -47.5404 53.3177 1
      vertex -46.9583 53.5637 9.84819e-16
      vertex -46.9711 53.5801 9.83256e-16
    endloop
  endfacet
  facet normal 0.673577 0.524275 0.520989
    outer loop
      vertex -46.9583 53.5637 9.84819e-16
      vertex -47.5404 53.3177 1
      vertex -47.5026 53.2692 1
    endloop
  endfacet
  facet normal -0.0154663 0.186638 0.982307
    outer loop
      vertex -47.9229 54.1786 8.66695e-16
      vertex -48.2908 54.1482 8.21646e-16
      vertex -47.9229 54.1786 7.24792e-07
    endloop
  endfacet
  facet normal -0.0825742 0.996585 0
    outer loop
      vertex -47.9229 54.1786 7.24792e-07
      vertex -48.2908 54.1482 8.21646e-16
      vertex -48.2908 54.1482 7.24792e-07
    endloop
  endfacet
  facet normal 0.807315 -0.277147 0.520991
    outer loop
      vertex -46.8317 50.8051 1.00032e-15
      vertex -47.7534 50.9589 1.51
      vertex -46.9516 50.4559 9.85645e-16
    endloop
  endfacet
  facet normal -0.0705047 -0.850646 0.52099
    outer loop
      vertex -47.9229 49.8214 8.66695e-16
      vertex -47.9794 50.7509 1.51
      vertex -48.0614 50.7577 1.51
    endloop
  endfacet
  facet normal -0.0703523 -0.850652 0.521
    outer loop
      vertex -47.9794 50.7509 1.51
      vertex -47.9229 49.8214 8.66695e-16
      vertex -47.9022 49.8196 8.69231e-16
    endloop
  endfacet
  facet normal 0.209513 0.827451 0.520989
    outer loop
      vertex -47.5242 54.0846 9.15518e-16
      vertex -47.6 54.1038 7.24792e-07
      vertex -47.6 53.9119 0.304822
    endloop
  endfacet
  facet normal 0.0699061 0.276057 0.958596
    outer loop
      vertex -47.882 54.1753 8.71697e-16
      vertex -47.6 54.1038 7.24792e-07
      vertex -47.5242 54.0846 9.15518e-16
    endloop
  endfacet
  facet normal 0.24549 0.969399 0
    outer loop
      vertex -47.6 54.1038 7.24792e-07
      vertex -47.882 54.1753 8.71697e-16
      vertex -47.882 54.1753 7.24792e-07
    endloop
  endfacet
  facet normal 0.807315 0.277147 0.520992
    outer loop
      vertex -47.4899 53.2065 1.01366
      vertex -46.8317 53.1949 1.00032e-15
      vertex -46.9516 53.5441 9.85645e-16
    endloop
  endfacet
  facet normal 0.807307 0.277177 0.520987
    outer loop
      vertex -46.8317 53.1949 1.00032e-15
      vertex -47.4899 53.2065 1.01366
      vertex -47.4682 53.0887 1.04278
    endloop
  endfacet
  facet normal 0.807279 0.277242 0.520997
    outer loop
      vertex -47.5026 53.2692 1
      vertex -46.9516 53.5441 9.85645e-16
      vertex -46.9583 53.5637 9.84819e-16
    endloop
  endfacet
  facet normal 0.807352 0.277053 0.520985
    outer loop
      vertex -47.5 53.2617 1
      vertex -46.9516 53.5441 9.85645e-16
      vertex -47.5026 53.2692 1
    endloop
  endfacet
  facet normal 0.807323 0.277128 0.52099
    outer loop
      vertex -46.9516 53.5441 9.85645e-16
      vertex -47.5 53.2617 1
      vertex -47.4899 53.2065 1.01366
    endloop
  endfacet
  facet normal -0.120445 -0.843119 0.524065
    outer loop
      vertex -55.0138 51.7509 1.51
      vertex -48.2908 49.8518 8.21646e-16
      vertex -48.0614 50.7577 1.51
    endloop
  endfacet
  facet normal -0.120446 -0.843119 0.524064
    outer loop
      vertex -48.2908 49.8518 8.21646e-16
      vertex -55.0138 51.7509 1.51
      vertex -55.0654 50.8196 -8.00611e-18
    endloop
  endfacet
  facet normal -0.0704909 -0.850646 0.520992
    outer loop
      vertex -48.0614 50.7577 1.51
      vertex -48.2908 49.8518 8.21646e-16
      vertex -47.9229 49.8214 8.66695e-16
    endloop
  endfacet
  facet normal 0.245472 0.969404 -0
    outer loop
      vertex -47.882 54.1753 8.71697e-16
      vertex -47.9022 54.1804 7.24792e-07
      vertex -47.882 54.1753 7.24792e-07
    endloop
  endfacet
  facet normal 0.245472 0.969404 0
    outer loop
      vertex -47.9022 54.1804 7.24792e-07
      vertex -47.882 54.1753 8.71697e-16
      vertex -47.9022 54.1804 8.69231e-16
    endloop
  endfacet
  facet normal 0.466857 0.714571 0.520991
    outer loop
      vertex -47.2152 53.8828 9.53361e-16
      vertex -47.6 53.9119 0.304822
      vertex -47.6 53.5151 0.849001
    endloop
  endfacet
  facet normal 0.466856 0.714574 0.520989
    outer loop
      vertex -47.6 53.9119 0.304822
      vertex -47.2152 53.8828 9.53361e-16
      vertex -47.5242 54.0846 9.15518e-16
    endloop
  endfacet
  facet normal 0.67358 0.52427 0.52099
    outer loop
      vertex -47.6 53.4345 0.959596
      vertex -46.9711 53.5801 9.83256e-16
      vertex -47.1978 53.8714 9.55491e-16
    endloop
  endfacet
  facet normal 0.673586 0.524254 0.520999
    outer loop
      vertex -47.5404 53.3177 1
      vertex -47.6 53.4345 0.959596
      vertex -47.6 53.3944 1
    endloop
  endfacet
  facet normal 0.67359 0.524254 0.520994
    outer loop
      vertex -47.6 53.4345 0.959596
      vertex -47.5404 53.3177 1
      vertex -46.9711 53.5801 9.83256e-16
    endloop
  endfacet
  facet normal 0.466876 -0.714558 0.520993
    outer loop
      vertex -47.2152 50.1172 9.53361e-16
      vertex -47.8307 50.8161 1.51
      vertex -47.8996 50.7711 1.51
    endloop
  endfacet
  facet normal 0.466833 -0.714588 0.52099
    outer loop
      vertex -47.8307 50.8161 1.51
      vertex -47.2152 50.1172 9.53361e-16
      vertex -47.1978 50.1286 9.55491e-16
    endloop
  endfacet
  facet normal 0.209532 -0.827445 0.520991
    outer loop
      vertex -47.9022 49.8196 8.69231e-16
      vertex -47.8996 50.7711 1.51
      vertex -47.9794 50.7509 1.51
    endloop
  endfacet
  facet normal 0.209526 -0.827446 0.520991
    outer loop
      vertex -47.8996 50.7711 1.51
      vertex -47.9022 49.8196 8.69231e-16
      vertex -47.882 49.8247 8.71697e-16
    endloop
  endfacet
  facet normal 0.466826 0.714595 0.520987
    outer loop
      vertex -47.1978 53.8714 9.55491e-16
      vertex -47.6 53.5151 0.849001
      vertex -47.6 53.4345 0.959596
    endloop
  endfacet
  facet normal 0.466834 0.714589 0.520988
    outer loop
      vertex -47.6 53.5151 0.849001
      vertex -47.1978 53.8714 9.55491e-16
      vertex -47.2152 53.8828 9.53361e-16
    endloop
  endfacet
  facet normal 0.466855 -0.714573 0.52099
    outer loop
      vertex -47.2152 50.1172 9.53361e-16
      vertex -47.8996 50.7711 1.51
      vertex -47.5242 49.9154 9.15518e-16
    endloop
  endfacet
  facet normal 0.209534 -0.827444 0.520991
    outer loop
      vertex -47.5242 49.9154 9.15518e-16
      vertex -47.8996 50.7711 1.51
      vertex -47.882 49.8247 8.71697e-16
    endloop
  endfacet
  facet normal 0.673579 -0.524269 0.520992
    outer loop
      vertex -46.9711 50.4199 9.83256e-16
      vertex -47.8307 50.8161 1.51
      vertex -47.1978 50.1286 9.55491e-16
    endloop
  endfacet
  facet normal 0 0 1
    outer loop
      vertex -48.8787 53.1256 1.51
      vertex -55.0138 52.2491 1.51
      vertex -48.8787 52 1.51
    endloop
  endfacet
  facet normal -0 0 1
    outer loop
      vertex -47.7759 51.1568 1.51
      vertex -47.7534 50.9589 1.51
      vertex -47.7534 51.1624 1.51
    endloop
  endfacet
  facet normal -0 0 1
    outer loop
      vertex -47.8941 51.1277 1.51
      vertex -47.7534 50.9589 1.51
      vertex -47.7759 51.1568 1.51
    endloop
  endfacet
  facet normal 0 0 1
    outer loop
      vertex -47.7534 50.9589 1.51
      vertex -47.8941 51.1277 1.51
      vertex -47.7801 50.881 1.51
    endloop
  endfacet
  facet normal 0 0 1
    outer loop
      vertex -47.7801 50.881 1.51
      vertex -47.8941 51.1277 1.51
      vertex -47.8307 50.8161 1.51
    endloop
  endfacet
  facet normal 0 0 1
    outer loop
      vertex -47.8941 51.1277 1.51
      vertex -47.8996 50.7711 1.51
      vertex -47.8307 50.8161 1.51
    endloop
  endfacet
  facet normal 0 0 1
    outer loop
      vertex -47.8941 51.1277 1.51
      vertex -47.9794 50.7509 1.51
      vertex -47.8996 50.7711 1.51
    endloop
  endfacet
  facet normal -0 0 1
    outer loop
      vertex -48.1059 51.1277 1.51
      vertex -47.9794 50.7509 1.51
      vertex -47.8941 51.1277 1.51
    endloop
  endfacet
  facet normal 0 0 1
    outer loop
      vertex -47.9794 50.7509 1.51
      vertex -48.1059 51.1277 1.51
      vertex -48.0614 50.7577 1.51
    endloop
  endfacet
  facet normal 0 0 1
    outer loop
      vertex -48.2241 51.1568 1.51
      vertex -48.0614 50.7577 1.51
      vertex -48.1059 51.1277 1.51
    endloop
  endfacet
  facet normal 0 0 1
    outer loop
      vertex -48.3116 51.1784 1.51
      vertex -48.0614 50.7577 1.51
      vertex -48.2241 51.1568 1.51
    endloop
  endfacet
  facet normal 0 0 1
    outer loop
      vertex -48.4194 51.235 1.51
      vertex -48.0614 50.7577 1.51
      vertex -48.3116 51.1784 1.51
    endloop
  endfacet
  facet normal 0 0 1
    outer loop
      vertex -48.4992 51.2768 1.51
      vertex -48.0614 50.7577 1.51
      vertex -48.4194 51.235 1.51
    endloop
  endfacet
  facet normal 0 0 1
    outer loop
      vertex -48.5666 51.3366 1.51
      vertex -48.0614 50.7577 1.51
      vertex -48.4992 51.2768 1.51
    endloop
  endfacet
  facet normal 0 0 1
    outer loop
      vertex -48.6577 51.4173 1.51
      vertex -48.0614 50.7577 1.51
      vertex -48.5666 51.3366 1.51
    endloop
  endfacet
  facet normal 0 0 1
    outer loop
      vertex -55.0138 51.7509 1.51
      vertex -48.8679 51.9106 1.51
      vertex -48.8787 52 1.51
    endloop
  endfacet
  facet normal 0 0 1
    outer loop
      vertex -55.0138 51.7509 1.51
      vertex -48.8787 52 1.51
      vertex -55.0138 52.2491 1.51
    endloop
  endfacet
  facet normal 0 0 1
    outer loop
      vertex -48.8679 51.9106 1.51
      vertex -55.0138 51.7509 1.51
      vertex -48.8532 51.7897 1.51
    endloop
  endfacet
  facet normal 0 0 1
    outer loop
      vertex -48.8532 51.7897 1.51
      vertex -55.0138 51.7509 1.51
      vertex -48.81 51.6759 1.51
    endloop
  endfacet
  facet normal 0 0 1
    outer loop
      vertex -48.81 51.6759 1.51
      vertex -55.0138 51.7509 1.51
      vertex -48.7781 51.5916 1.51
    endloop
  endfacet
  facet normal 0 0 1
    outer loop
      vertex -48.7781 51.5916 1.51
      vertex -55.0138 51.7509 1.51
      vertex -48.7269 51.5175 1.51
    endloop
  endfacet
  facet normal 0 0 1
    outer loop
      vertex -48.7269 51.5175 1.51
      vertex -55.0138 51.7509 1.51
      vertex -48.6577 51.4173 1.51
    endloop
  endfacet
  facet normal 0 0 1
    outer loop
      vertex -48.6577 51.4173 1.51
      vertex -55.0138 51.7509 1.51
      vertex -48.0614 50.7577 1.51
    endloop
  endfacet
  facet normal 0 0 1
    outer loop
      vertex -55.0138 52.2491 1.51
      vertex -59.5 52 1.51
      vertex -55.0138 51.7509 1.51
    endloop
  endfacet
  facet normal 0 -0 1
    outer loop
      vertex -59.5 52 1.51
      vertex -55.0138 52.2491 1.51
      vertex -59.5245 52.2491 1.51
    endloop
  endfacet
  facet normal 0 0 1
    outer loop
      vertex -55.0138 51.7509 1.51
      vertex -59.5 52 1.51
      vertex -59.5245 51.7509 1.51
    endloop
  endfacet
  facet normal 0.673569 -0.524287 0.520988
    outer loop
      vertex -47.8307 50.8161 1.51
      vertex -46.9583 50.4363 9.84819e-16
      vertex -47.7801 50.881 1.51
    endloop
  endfacet
  facet normal 0.673653 -0.524161 0.521005
    outer loop
      vertex -46.9583 50.4363 9.84819e-16
      vertex -47.8307 50.8161 1.51
      vertex -46.9711 50.4199 9.83256e-16
    endloop
  endfacet
  facet normal 0.807314 -0.27715 0.520991
    outer loop
      vertex -47.7801 50.881 1.51
      vertex -46.9516 50.4559 9.85645e-16
      vertex -47.7534 50.9589 1.51
    endloop
  endfacet
  facet normal 0.807278 -0.277242 0.520997
    outer loop
      vertex -46.9516 50.4559 9.85645e-16
      vertex -47.7801 50.881 1.51
      vertex -46.9583 50.4363 9.84819e-16
    endloop
  endfacet
  facet normal 0 0.85116 0.524907
    outer loop
      vertex -55.0138 52.2491 1.51
      vertex -59.548 52.4877 1.12313
      vertex -59.5245 52.2491 1.51
    endloop
  endfacet
  facet normal -1.26188e-07 0.851159 0.524908
    outer loop
      vertex -55.0654 53.1804 -8.00611e-18
      vertex -59.548 52.4877 1.12313
      vertex -55.0138 52.2491 1.51
    endloop
  endfacet
  facet normal -7.36519e-17 0.851159 0.524908
    outer loop
      vertex -59.548 52.4877 1.12313
      vertex -55.0654 53.1804 -8.00611e-18
      vertex -59.6348 53.1804 -5.67604e-16
    endloop
  endfacet
  facet normal 0 -0.85116 0.524907
    outer loop
      vertex -59.548 51.5123 1.12313
      vertex -55.0138 51.7509 1.51
      vertex -59.5245 51.7509 1.51
    endloop
  endfacet
  facet normal 3.6375e-08 -0.851159 0.524908
    outer loop
      vertex -55.0654 50.8196 -8.00611e-18
      vertex -59.548 51.5123 1.12313
      vertex -59.6903 51.0433 0.36266
    endloop
  endfacet
  facet normal -1.26188e-07 -0.851159 0.524908
    outer loop
      vertex -59.548 51.5123 1.12313
      vertex -55.0654 50.8196 -8.00611e-18
      vertex -55.0138 51.7509 1.51
    endloop
  endfacet
  facet normal -6.42827e-17 -0.851159 0.524908
    outer loop
      vertex -55.0654 50.8196 -8.00611e-18
      vertex -59.6903 51.0433 0.36266
      vertex -59.8098 50.8196 -5.89036e-16
    endloop
  endfacet
  facet normal -0.975838 0.162834 0.145686
    outer loop
      vertex -63.7403 58.1033 -1.07038e-15
      vertex -64.452 52.4877 1.51
      vertex -63.6796 58.4674 -1.06294e-15
    endloop
  endfacet
  facet normal -0.995185 0.0980131 0
    outer loop
      vertex -64.5 52 -1.16341e-15
      vertex -64.452 52.4877 1.51
      vertex -64.452 52.4877 -1.15753e-15
    endloop
  endfacet
  facet normal -0.995185 0.0980131 0
    outer loop
      vertex -64.5 52 3.01
      vertex -64.452 52.4877 1.51
      vertex -64.5 52 -1.16341e-15
    endloop
  endfacet
  facet normal -0.995185 0.0980131 0
    outer loop
      vertex -64.452 52.4877 1.51
      vertex -64.5 52 3.01
      vertex -64.452 52.4877 3.01
    endloop
  endfacet
  facet normal -0.992066 0.125716 0
    outer loop
      vertex -64.452 52.4877 -1.15753e-15
      vertex -64.452 52.4877 1.51
      vertex -63.7403 58.1033 -1.07038e-15
    endloop
  endfacet
  facet normal 0.995184 -0.0980221 0
    outer loop
      vertex -59.5 52 3.01
      vertex -59.5245 51.7509 1.51
      vertex -59.5 52 1.51
    endloop
  endfacet
  facet normal 0.995185 -0.0980131 -1.50597e-06
    outer loop
      vertex -59.548 51.5123 3.01
      vertex -59.5245 51.7509 1.51
      vertex -59.5 52 3.01
    endloop
  endfacet
  facet normal 0.995186 -0.0980038 0
    outer loop
      vertex -59.5245 51.7509 1.51
      vertex -59.548 51.5123 3.01
      vertex -59.548 51.5123 1.12313
    endloop
  endfacet
  facet normal -0.0705047 0.850646 0.520989
    outer loop
      vertex -61.9586 60.5 1.10323
      vertex -62.0614 60.2423 1.51
      vertex -61.9794 60.2491 1.51
    endloop
  endfacet
  facet normal -0.0704856 0.850645 0.520994
    outer loop
      vertex -62.0614 60.2423 1.51
      vertex -61.9586 60.5 1.10323
      vertex -62.0233 60.5 1.09448
    endloop
  endfacet
  facet normal 0.992238 0.124352 -1.81888e-06
    outer loop
      vertex -59.548 52.4877 1.51
      vertex -59.6348 53.1804 -5.67604e-16
      vertex -60.2749 58.2879 -6.45994e-16
    endloop
  endfacet
  facet normal 0.992238 0.124356 0
    outer loop
      vertex -59.6348 53.1804 -5.67604e-16
      vertex -59.548 52.4877 1.51
      vertex -59.548 52.4877 1.12313
    endloop
  endfacet
  facet normal 0.466855 0.714574 0.52099
    outer loop
      vertex -61.7807 60.5 1.03168
      vertex -61.8996 60.2289 1.51
      vertex -61.6159 60.5 0.88399
    endloop
  endfacet
  facet normal -0.773011 -0.634392 0
    outer loop
      vertex -63.7678 50.2322 -1.07374e-15
      vertex -64.0787 50.6111 3.01
      vertex -64.0787 50.6111 -1.11182e-15
    endloop
  endfacet
  facet normal -0.773011 -0.634392 0
    outer loop
      vertex -64.0787 50.6111 3.01
      vertex -63.7678 50.2322 -1.07374e-15
      vertex -63.7678 50.2322 3.01
    endloop
  endfacet
  facet normal -0.995185 -0.0980131 0
    outer loop
      vertex -64.452 51.5123 -1.15753e-15
      vertex -64.5 52 3.01
      vertex -64.5 52 -1.16341e-15
    endloop
  endfacet
  facet normal -0.995185 -0.0980131 0
    outer loop
      vertex -64.5 52 3.01
      vertex -64.452 51.5123 -1.15753e-15
      vertex -64.452 51.5123 3.01
    endloop
  endfacet
  facet normal -0.471398 -0.88192 0
    outer loop
      vertex -63.3889 49.9213 3.01
      vertex -62.9567 49.6903 -9.74416e-16
      vertex -62.9567 49.6903 3.01
    endloop
  endfacet
  facet normal -0.471398 -0.88192 0
    outer loop
      vertex -62.9567 49.6903 -9.74416e-16
      vertex -63.3889 49.9213 3.01
      vertex -63.3889 49.9213 -1.02735e-15
    endloop
  endfacet
  facet normal -0.0980208 -0.995184 0
    outer loop
      vertex -62.4877 49.548 3.01
      vertex -62 49.5 -8.57253e-16
      vertex -62 49.5 3.01
    endloop
  endfacet
  facet normal -0.0980208 -0.995184 0
    outer loop
      vertex -62 49.5 -8.57253e-16
      vertex -62.4877 49.548 3.01
      vertex -62.4877 49.548 -9.16982e-16
    endloop
  endfacet
  facet normal -0.578109 0.627979 0.520992
    outer loop
      vertex -62.3267 60.5 0.948839
      vertex -62.5642 60.5 0.685269
      vertex -62.1367 60.2093 1.51
    endloop
  endfacet
  facet normal 0.471398 -0.88192 0
    outer loop
      vertex -61.0433 49.6903 3.01
      vertex -60.6111 49.9213 -6.87158e-16
      vertex -60.6111 49.9213 3.01
    endloop
  endfacet
  facet normal 0.471398 -0.88192 0
    outer loop
      vertex -60.6111 49.9213 -6.87158e-16
      vertex -61.0433 49.6903 3.01
      vertex -61.0433 49.6903 -7.4009e-16
    endloop
  endfacet
  facet normal -0.290279 -0.956942 0
    outer loop
      vertex -62.9567 49.6903 3.01
      vertex -62.4877 49.548 -9.16982e-16
      vertex -62.4877 49.548 3.01
    endloop
  endfacet
  facet normal -0.290279 -0.956942 0
    outer loop
      vertex -62.4877 49.548 -9.16982e-16
      vertex -62.9567 49.6903 3.01
      vertex -62.9567 49.6903 -9.74416e-16
    endloop
  endfacet
  facet normal -0.634391 -0.773012 0
    outer loop
      vertex -63.7678 50.2322 3.01
      vertex -63.3889 49.9213 -1.02735e-15
      vertex -63.3889 49.9213 3.01
    endloop
  endfacet
  facet normal -0.634391 -0.773012 0
    outer loop
      vertex -63.3889 49.9213 -1.02735e-15
      vertex -63.7678 50.2322 3.01
      vertex -63.7678 50.2322 -1.07374e-15
    endloop
  endfacet
  facet normal 0.995186 0.0980038 0
    outer loop
      vertex -59.5245 52.2491 1.51
      vertex -59.548 52.4877 1.51
      vertex -59.548 52.4877 3.01
    endloop
  endfacet
  facet normal 0.995186 0.0980038 0
    outer loop
      vertex -59.548 52.4877 1.51
      vertex -59.5245 52.2491 1.51
      vertex -59.548 52.4877 1.12313
    endloop
  endfacet
  facet normal 0.995185 0.0980131 -1.50597e-06
    outer loop
      vertex -59.5 52 3.01
      vertex -59.5245 52.2491 1.51
      vertex -59.548 52.4877 3.01
    endloop
  endfacet
  facet normal 0.995184 0.0980221 0
    outer loop
      vertex -59.5245 52.2491 1.51
      vertex -59.5 52 3.01
      vertex -59.5 52 1.51
    endloop
  endfacet
  facet normal 0 0 1
    outer loop
      vertex -61.7534 60.0411 1.51
      vertex -59.6903 52.9567 1.51
      vertex -59.548 52.4877 1.51
    endloop
  endfacet
  facet normal 0 0 1
    outer loop
      vertex -61.7534 60.0411 1.51
      vertex -59.9213 53.3889 1.51
      vertex -59.6903 52.9567 1.51
    endloop
  endfacet
  facet normal 0 0 1
    outer loop
      vertex -61.7534 60.0411 1.51
      vertex -60.2322 53.7678 1.51
      vertex -59.9213 53.3889 1.51
    endloop
  endfacet
  facet normal 0 0 1
    outer loop
      vertex -61.7534 60.0411 1.51
      vertex -60.6111 54.0787 1.51
      vertex -60.2322 53.7678 1.51
    endloop
  endfacet
  facet normal 0 0 1
    outer loop
      vertex -61.7534 60.0411 1.51
      vertex -61.0433 54.3097 1.51
      vertex -60.6111 54.0787 1.51
    endloop
  endfacet
  facet normal 0 0 1
    outer loop
      vertex -61.7534 60.0411 1.51
      vertex -61.5123 54.452 1.51
      vertex -61.0433 54.3097 1.51
    endloop
  endfacet
  facet normal -0 0 1
    outer loop
      vertex -62.2365 60.0812 1.51
      vertex -61.7534 60.0411 1.51
      vertex -61.7801 60.119 1.51
    endloop
  endfacet
  facet normal 0 0 1
    outer loop
      vertex -62.2365 60.0812 1.51
      vertex -61.7801 60.119 1.51
      vertex -61.8307 60.1839 1.51
    endloop
  endfacet
  facet normal 0 0 1
    outer loop
      vertex -62.2365 60.0812 1.51
      vertex -61.8307 60.1839 1.51
      vertex -61.8996 60.2289 1.51
    endloop
  endfacet
  facet normal 0 0 1
    outer loop
      vertex -62.2365 60.0812 1.51
      vertex -61.8996 60.2289 1.51
      vertex -61.9794 60.2491 1.51
    endloop
  endfacet
  facet normal 0 0 1
    outer loop
      vertex -61.7534 60.0411 1.51
      vertex -62.2365 60.0812 1.51
      vertex -62 54.5 1.51
    endloop
  endfacet
  facet normal 0 0 1
    outer loop
      vertex -62.2365 60.0812 1.51
      vertex -61.9794 60.2491 1.51
      vertex -62.0614 60.2423 1.51
    endloop
  endfacet
  facet normal 0 0 1
    outer loop
      vertex -62.2365 60.0812 1.51
      vertex -62.0614 60.2423 1.51
      vertex -62.1367 60.2093 1.51
    endloop
  endfacet
  facet normal 0 0 1
    outer loop
      vertex -62.2365 60.0812 1.51
      vertex -62.1367 60.2093 1.51
      vertex -62.1973 60.1536 1.51
    endloop
  endfacet
  facet normal 0 0 1
    outer loop
      vertex -61.7534 60.0411 1.51
      vertex -62 54.5 1.51
      vertex -61.5123 54.452 1.51
    endloop
  endfacet
  facet normal 0 0 1
    outer loop
      vertex -62.2365 60.0812 1.51
      vertex -62.4877 54.452 1.51
      vertex -62 54.5 1.51
    endloop
  endfacet
  facet normal 0 0 1
    outer loop
      vertex -62.2365 60.0812 1.51
      vertex -62.9567 54.3097 1.51
      vertex -62.4877 54.452 1.51
    endloop
  endfacet
  facet normal 0 0 1
    outer loop
      vertex -62.2365 60.0812 1.51
      vertex -63.3889 54.0787 1.51
      vertex -62.9567 54.3097 1.51
    endloop
  endfacet
  facet normal 0 0 1
    outer loop
      vertex -62.2365 60.0812 1.51
      vertex -63.7678 53.7678 1.51
      vertex -63.3889 54.0787 1.51
    endloop
  endfacet
  facet normal 0 0 1
    outer loop
      vertex -62.2365 60.0812 1.51
      vertex -64.0787 53.3889 1.51
      vertex -63.7678 53.7678 1.51
    endloop
  endfacet
  facet normal 0 0 1
    outer loop
      vertex -62.2365 60.0812 1.51
      vertex -64.3097 52.9567 1.51
      vertex -64.0787 53.3889 1.51
    endloop
  endfacet
  facet normal 0 -0 1
    outer loop
      vertex -64.3097 52.9567 1.51
      vertex -62.2365 60.0812 1.51
      vertex -64.452 52.4877 1.51
    endloop
  endfacet
  facet normal 0.290279 -0.956942 0
    outer loop
      vertex -61.5123 49.548 3.01
      vertex -61.0433 49.6903 -7.4009e-16
      vertex -61.0433 49.6903 3.01
    endloop
  endfacet
  facet normal 0.290279 -0.956942 0
    outer loop
      vertex -61.0433 49.6903 -7.4009e-16
      vertex -61.5123 49.548 3.01
      vertex -61.5123 49.548 -7.97524e-16
    endloop
  endfacet
  facet normal 0.634391 -0.773012 0
    outer loop
      vertex -60.6111 49.9213 3.01
      vertex -60.2322 50.2322 -6.40764e-16
      vertex -60.2322 50.2322 3.01
    endloop
  endfacet
  facet normal 0.634391 -0.773012 0
    outer loop
      vertex -60.2322 50.2322 -6.40764e-16
      vertex -60.6111 49.9213 3.01
      vertex -60.6111 49.9213 -6.87158e-16
    endloop
  endfacet
  facet normal 0.466859 0.714571 0.520991
    outer loop
      vertex -61.8307 60.1839 1.51
      vertex -61.6159 60.5 0.88399
      vertex -61.8996 60.2289 1.51
    endloop
  endfacet
  facet normal 0.46685 0.714577 0.520991
    outer loop
      vertex -61.6159 60.5 0.88399
      vertex -61.8307 60.1839 1.51
      vertex -61.5397 60.5 0.815761
    endloop
  endfacet
  facet normal 0.807311 0.27716 0.520991
    outer loop
      vertex -61.0219 60.5 0.132297
      vertex -60.8317 60.1949 -7.14183e-16
      vertex -60.9365 60.5 -7.27008e-16
    endloop
  endfacet
  facet normal 0.807311 0.277159 0.520991
    outer loop
      vertex -60.8317 60.1949 -7.14183e-16
      vertex -61.0219 60.5 0.132297
      vertex -61.7534 60.0411 1.51
    endloop
  endfacet
  facet normal -0.0704863 0.850645 0.520994
    outer loop
      vertex -62.0233 60.5 1.09448
      vertex -62.1266 60.5 1.08049
      vertex -62.0614 60.2423 1.51
    endloop
  endfacet
  facet normal 0.773015 -0.634387 0
    outer loop
      vertex -60.2322 50.2322 3.01
      vertex -59.9213 50.6111 -6.02689e-16
      vertex -59.9213 50.6111 3.01
    endloop
  endfacet
  facet normal 0.773015 -0.634387 0
    outer loop
      vertex -59.9213 50.6111 -6.02689e-16
      vertex -60.2322 50.2322 3.01
      vertex -60.2322 50.2322 -6.40764e-16
    endloop
  endfacet
  facet normal -0.95694 -0.290286 0
    outer loop
      vertex -64.3097 51.0433 -1.14011e-15
      vertex -64.452 51.5123 3.01
      vertex -64.452 51.5123 -1.15753e-15
    endloop
  endfacet
  facet normal -0.95694 -0.290286 0
    outer loop
      vertex -64.452 51.5123 3.01
      vertex -64.3097 51.0433 -1.14011e-15
      vertex -64.3097 51.0433 3.01
    endloop
  endfacet
  facet normal -0.88192 -0.471398 0
    outer loop
      vertex -64.0787 50.6111 -1.11182e-15
      vertex -64.3097 51.0433 3.01
      vertex -64.3097 51.0433 -1.14011e-15
    endloop
  endfacet
  facet normal -0.88192 -0.471398 0
    outer loop
      vertex -64.3097 51.0433 3.01
      vertex -64.0787 50.6111 -1.11182e-15
      vertex -64.0787 50.6111 3.01
    endloop
  endfacet
  facet normal 0.95694 -0.290286 0
    outer loop
      vertex -59.6903 51.0433 3.01
      vertex -59.548 51.5123 1.12313
      vertex -59.548 51.5123 3.01
    endloop
  endfacet
  facet normal 0.95694 -0.290286 0
    outer loop
      vertex -59.548 51.5123 1.12313
      vertex -59.6903 51.0433 3.01
      vertex -59.6903 51.0433 0.36266
    endloop
  endfacet
  facet normal 0.0980201 -0.995184 0
    outer loop
      vertex -62 49.5 3.01
      vertex -61.5123 49.548 -7.97524e-16
      vertex -61.5123 49.548 3.01
    endloop
  endfacet
  facet normal 0.0980201 -0.995184 0
    outer loop
      vertex -61.5123 49.548 -7.97524e-16
      vertex -62 49.5 3.01
      vertex -62 49.5 -8.57253e-16
    endloop
  endfacet
  facet normal 0.209538 0.827443 0.520991
    outer loop
      vertex -61.8946 60.5 1.07748
      vertex -61.8996 60.2289 1.51
      vertex -61.7807 60.5 1.03168
    endloop
  endfacet
  facet normal 0.209532 0.827445 0.520991
    outer loop
      vertex -61.8996 60.2289 1.51
      vertex -61.9586 60.5 1.10323
      vertex -61.9794 60.2491 1.51
    endloop
  endfacet
  facet normal 0.20953 0.827445 0.520991
    outer loop
      vertex -61.9586 60.5 1.10323
      vertex -61.8996 60.2289 1.51
      vertex -61.8946 60.5 1.07748
    endloop
  endfacet
  facet normal 0.807315 0.27715 0.52099
    outer loop
      vertex -61.7534 60.0411 1.51
      vertex -61.0761 60.5 0.216332
      vertex -61.7801 60.119 1.51
    endloop
  endfacet
  facet normal 0.807324 0.277128 0.520988
    outer loop
      vertex -61.0761 60.5 0.216332
      vertex -61.7534 60.0411 1.51
      vertex -61.0219 60.5 0.132297
    endloop
  endfacet
  facet normal 0.817864 0.238791 0.523524
    outer loop
      vertex -61.7534 60.0411 1.51
      vertex -60.2749 58.2879 -6.45994e-16
      vertex -60.8317 60.1949 -7.14183e-16
    endloop
  endfacet
  facet normal 0.817864 0.238792 0.523524
    outer loop
      vertex -60.2749 58.2879 -6.45994e-16
      vertex -61.7534 60.0411 1.51
      vertex -59.548 52.4877 1.51
    endloop
  endfacet
  facet normal 0.88192 -0.471398 0
    outer loop
      vertex -59.9213 50.6111 3.01
      vertex -59.6903 51.0433 0.36266
      vertex -59.6903 51.0433 3.01
    endloop
  endfacet
  facet normal 0.88192 -0.471398 0
    outer loop
      vertex -59.9213 50.6111 -6.02689e-16
      vertex -59.6903 51.0433 0.36266
      vertex -59.9213 50.6111 3.01
    endloop
  endfacet
  facet normal 0.88192 -0.471398 1.42524e-08
    outer loop
      vertex -59.6903 51.0433 0.36266
      vertex -59.9213 50.6111 -6.02689e-16
      vertex -59.8098 50.8196 -5.89036e-16
    endloop
  endfacet
  facet normal 0.673586 0.524261 0.520991
    outer loop
      vertex -61.7801 60.119 1.51
      vertex -61.1449 60.5 0.305335
      vertex -61.8307 60.1839 1.51
    endloop
  endfacet
  facet normal 0.673593 0.524252 0.520992
    outer loop
      vertex -61.1449 60.5 0.305335
      vertex -61.7801 60.119 1.51
      vertex -61.0761 60.5 0.216332
    endloop
  endfacet
  facet normal 0.673583 0.524266 0.520991
    outer loop
      vertex -61.5397 60.5 0.815761
      vertex -61.8307 60.1839 1.51
      vertex -61.1449 60.5 0.305335
    endloop
  endfacet
  facet normal -0.342864 0.781671 0.520994
    outer loop
      vertex -62.1266 60.5 1.08049
      vertex -62.1367 60.2093 1.51
      vertex -62.0614 60.2423 1.51
    endloop
  endfacet
  facet normal -0.342868 0.78167 0.520993
    outer loop
      vertex -62.1367 60.2093 1.51
      vertex -62.1266 60.5 1.08049
      vertex -62.1908 60.5 1.03826
    endloop
  endfacet
  facet normal -0.342871 0.781669 0.520993
    outer loop
      vertex -62.1908 60.5 1.03826
      vertex -62.3267 60.5 0.948839
      vertex -62.1367 60.2093 1.51
    endloop
  endfacet
  facet normal -0.750684 0.406255 0.52099
    outer loop
      vertex -63.1202 60.3846 -9.94441e-16
      vertex -62.7087 60.5 0.502998
      vertex -63.0578 60.5 -9.86792e-16
    endloop
  endfacet
  facet normal -0.750685 0.406254 0.52099
    outer loop
      vertex -62.7087 60.5 0.502998
      vertex -63.1202 60.3846 -9.94441e-16
      vertex -62.2365 60.0812 1.51
    endloop
  endfacet
  facet normal -0.816567 0.238246 0.525793
    outer loop
      vertex -63.6796 58.4674 -1.06294e-15
      vertex -62.2365 60.0812 1.51
      vertex -63.1202 60.3846 -9.94441e-16
    endloop
  endfacet
  facet normal -0.816567 0.238246 0.525792
    outer loop
      vertex -62.2365 60.0812 1.51
      vertex -63.6796 58.4674 -1.06294e-15
      vertex -64.452 52.4877 1.51
    endloop
  endfacet
  facet normal -0.750683 0.406256 0.52099
    outer loop
      vertex -62.2365 60.0812 1.51
      vertex -62.6424 60.5 0.598495
      vertex -62.7087 60.5 0.502998
    endloop
  endfacet
  facet normal -0.75068 0.406261 0.520991
    outer loop
      vertex -62.6424 60.5 0.598495
      vertex -62.2365 60.0812 1.51
      vertex -62.1973 60.1536 1.51
    endloop
  endfacet
  facet normal -0.578098 0.62799 0.52099
    outer loop
      vertex -62.5642 60.5 0.685269
      vertex -62.1973 60.1536 1.51
      vertex -62.1367 60.2093 1.51
    endloop
  endfacet
  facet normal -0.578106 0.627982 0.520991
    outer loop
      vertex -62.1973 60.1536 1.51
      vertex -62.5642 60.5 0.685269
      vertex -62.6424 60.5 0.598495
    endloop
  endfacet
  facet normal -0.88192 0.471398 0
    outer loop
      vertex -64.3097 52.9567 1.51
      vertex -64.0787 53.3889 3.01
      vertex -64.0787 53.3889 1.51
    endloop
  endfacet
  facet normal -0.88192 0.471398 0
    outer loop
      vertex -64.0787 53.3889 3.01
      vertex -64.3097 52.9567 1.51
      vertex -64.3097 52.9567 3.01
    endloop
  endfacet
  facet normal 0 0 1
    outer loop
      vertex -59.548 52.4877 3.01
      vertex -59.548 51.5123 3.01
      vertex -59.5 52 3.01
    endloop
  endfacet
  facet normal 0 0 1
    outer loop
      vertex -59.6903 52.9567 3.01
      vertex -59.548 51.5123 3.01
      vertex -59.548 52.4877 3.01
    endloop
  endfacet
  facet normal 0 0 1
    outer loop
      vertex -59.6903 52.9567 3.01
      vertex -59.6903 51.0433 3.01
      vertex -59.548 51.5123 3.01
    endloop
  endfacet
  facet normal 0 0 1
    outer loop
      vertex -59.9213 53.3889 3.01
      vertex -59.6903 51.0433 3.01
      vertex -59.6903 52.9567 3.01
    endloop
  endfacet
  facet normal 0 0 1
    outer loop
      vertex -59.9213 53.3889 3.01
      vertex -59.9213 50.6111 3.01
      vertex -59.6903 51.0433 3.01
    endloop
  endfacet
  facet normal 0 0 1
    outer loop
      vertex -60.2322 53.7678 3.01
      vertex -59.9213 50.6111 3.01
      vertex -59.9213 53.3889 3.01
    endloop
  endfacet
  facet normal 0 0 1
    outer loop
      vertex -60.2322 53.7678 3.01
      vertex -60.2322 50.2322 3.01
      vertex -59.9213 50.6111 3.01
    endloop
  endfacet
  facet normal 0 0 1
    outer loop
      vertex -60.6111 54.0787 3.01
      vertex -60.2322 50.2322 3.01
      vertex -60.2322 53.7678 3.01
    endloop
  endfacet
  facet normal 0 0 1
    outer loop
      vertex -60.6111 54.0787 3.01
      vertex -60.6111 49.9213 3.01
      vertex -60.2322 50.2322 3.01
    endloop
  endfacet
  facet normal 0 0 1
    outer loop
      vertex -61.0433 54.3097 3.01
      vertex -60.6111 49.9213 3.01
      vertex -60.6111 54.0787 3.01
    endloop
  endfacet
  facet normal 0 0 1
    outer loop
      vertex -61.0433 54.3097 3.01
      vertex -61.0433 49.6903 3.01
      vertex -60.6111 49.9213 3.01
    endloop
  endfacet
  facet normal 0 0 1
    outer loop
      vertex -61.5123 54.452 3.01
      vertex -61.0433 49.6903 3.01
      vertex -61.0433 54.3097 3.01
    endloop
  endfacet
  facet normal 0 0 1
    outer loop
      vertex -61.5123 54.452 3.01
      vertex -61.5123 49.548 3.01
      vertex -61.0433 49.6903 3.01
    endloop
  endfacet
  facet normal 0 0 1
    outer loop
      vertex -62 54.5 3.01
      vertex -61.5123 49.548 3.01
      vertex -61.5123 54.452 3.01
    endloop
  endfacet
  facet normal 0 0 1
    outer loop
      vertex -62 54.5 3.01
      vertex -62 49.5 3.01
      vertex -61.5123 49.548 3.01
    endloop
  endfacet
  facet normal -0 0 1
    outer loop
      vertex -62.4877 54.452 3.01
      vertex -62 49.5 3.01
      vertex -62 54.5 3.01
    endloop
  endfacet
  facet normal 0 0 1
    outer loop
      vertex -62.4877 54.452 3.01
      vertex -62.4877 49.548 3.01
      vertex -62 49.5 3.01
    endloop
  endfacet
  facet normal -0 0 1
    outer loop
      vertex -62.9567 54.3097 3.01
      vertex -62.4877 49.548 3.01
      vertex -62.4877 54.452 3.01
    endloop
  endfacet
  facet normal 0 0 1
    outer loop
      vertex -62.9567 54.3097 3.01
      vertex -62.9567 49.6903 3.01
      vertex -62.4877 49.548 3.01
    endloop
  endfacet
  facet normal -0 0 1
    outer loop
      vertex -63.3889 54.0787 3.01
      vertex -62.9567 49.6903 3.01
      vertex -62.9567 54.3097 3.01
    endloop
  endfacet
  facet normal 0 0 1
    outer loop
      vertex -63.3889 54.0787 3.01
      vertex -63.3889 49.9213 3.01
      vertex -62.9567 49.6903 3.01
    endloop
  endfacet
  facet normal -0 0 1
    outer loop
      vertex -63.7678 53.7678 3.01
      vertex -63.3889 49.9213 3.01
      vertex -63.3889 54.0787 3.01
    endloop
  endfacet
  facet normal 0 0 1
    outer loop
      vertex -63.7678 53.7678 3.01
      vertex -63.7678 50.2322 3.01
      vertex -63.3889 49.9213 3.01
    endloop
  endfacet
  facet normal -0 0 1
    outer loop
      vertex -64.0787 53.3889 3.01
      vertex -63.7678 50.2322 3.01
      vertex -63.7678 53.7678 3.01
    endloop
  endfacet
  facet normal 0 0 1
    outer loop
      vertex -64.0787 53.3889 3.01
      vertex -64.0787 50.6111 3.01
      vertex -63.7678 50.2322 3.01
    endloop
  endfacet
  facet normal -0 0 1
    outer loop
      vertex -64.3097 52.9567 3.01
      vertex -64.0787 50.6111 3.01
      vertex -64.0787 53.3889 3.01
    endloop
  endfacet
  facet normal 0 0 1
    outer loop
      vertex -64.3097 52.9567 3.01
      vertex -64.3097 51.0433 3.01
      vertex -64.0787 50.6111 3.01
    endloop
  endfacet
  facet normal -0 0 1
    outer loop
      vertex -64.452 52.4877 3.01
      vertex -64.3097 51.0433 3.01
      vertex -64.3097 52.9567 3.01
    endloop
  endfacet
  facet normal 0 0 1
    outer loop
      vertex -64.452 52.4877 3.01
      vertex -64.452 51.5123 3.01
      vertex -64.3097 51.0433 3.01
    endloop
  endfacet
  facet normal 0 -0 1
    outer loop
      vertex -64.452 51.5123 3.01
      vertex -64.452 52.4877 3.01
      vertex -64.5 52 3.01
    endloop
  endfacet
  facet normal -0.773011 0.634392 0
    outer loop
      vertex -64.0787 53.3889 1.51
      vertex -63.7678 53.7678 3.01
      vertex -63.7678 53.7678 1.51
    endloop
  endfacet
  facet normal -0.773011 0.634392 0
    outer loop
      vertex -63.7678 53.7678 3.01
      vertex -64.0787 53.3889 1.51
      vertex -64.0787 53.3889 3.01
    endloop
  endfacet
  facet normal -0.290279 0.956942 0
    outer loop
      vertex -62.4877 54.452 1.51
      vertex -62.9567 54.3097 3.01
      vertex -62.4877 54.452 3.01
    endloop
  endfacet
  facet normal -0.290279 0.956942 0
    outer loop
      vertex -62.9567 54.3097 3.01
      vertex -62.4877 54.452 1.51
      vertex -62.9567 54.3097 1.51
    endloop
  endfacet
  facet normal 0.471398 0.88192 -0
    outer loop
      vertex -60.6111 54.0787 1.51
      vertex -61.0433 54.3097 3.01
      vertex -60.6111 54.0787 3.01
    endloop
  endfacet
  facet normal 0.471398 0.88192 0
    outer loop
      vertex -61.0433 54.3097 3.01
      vertex -60.6111 54.0787 1.51
      vertex -61.0433 54.3097 1.51
    endloop
  endfacet
  facet normal 0.95694 0.290286 0
    outer loop
      vertex -59.548 52.4877 3.01
      vertex -59.6903 52.9567 1.51
      vertex -59.6903 52.9567 3.01
    endloop
  endfacet
  facet normal 0.95694 0.290286 0
    outer loop
      vertex -59.6903 52.9567 1.51
      vertex -59.548 52.4877 3.01
      vertex -59.548 52.4877 1.51
    endloop
  endfacet
  facet normal -0.95694 0.290286 0
    outer loop
      vertex -64.452 52.4877 1.51
      vertex -64.3097 52.9567 3.01
      vertex -64.3097 52.9567 1.51
    endloop
  endfacet
  facet normal -0.95694 0.290286 0
    outer loop
      vertex -64.3097 52.9567 3.01
      vertex -64.452 52.4877 1.51
      vertex -64.452 52.4877 3.01
    endloop
  endfacet
  facet normal -0.634391 0.773012 0
    outer loop
      vertex -63.3889 54.0787 1.51
      vertex -63.7678 53.7678 3.01
      vertex -63.3889 54.0787 3.01
    endloop
  endfacet
  facet normal -0.634391 0.773012 0
    outer loop
      vertex -63.7678 53.7678 3.01
      vertex -63.3889 54.0787 1.51
      vertex -63.7678 53.7678 1.51
    endloop
  endfacet
  facet normal 0.0980201 0.995184 -0
    outer loop
      vertex -61.5123 54.452 1.51
      vertex -62 54.5 3.01
      vertex -61.5123 54.452 3.01
    endloop
  endfacet
  facet normal 0.0980201 0.995184 0
    outer loop
      vertex -62 54.5 3.01
      vertex -61.5123 54.452 1.51
      vertex -62 54.5 1.51
    endloop
  endfacet
  facet normal -0.471398 0.88192 0
    outer loop
      vertex -62.9567 54.3097 1.51
      vertex -63.3889 54.0787 3.01
      vertex -62.9567 54.3097 3.01
    endloop
  endfacet
  facet normal -0.471398 0.88192 0
    outer loop
      vertex -63.3889 54.0787 3.01
      vertex -62.9567 54.3097 1.51
      vertex -63.3889 54.0787 1.51
    endloop
  endfacet
  facet normal 0.88192 0.471398 0
    outer loop
      vertex -59.6903 52.9567 3.01
      vertex -59.9213 53.3889 1.51
      vertex -59.9213 53.3889 3.01
    endloop
  endfacet
  facet normal 0.88192 0.471398 0
    outer loop
      vertex -59.9213 53.3889 1.51
      vertex -59.6903 52.9567 3.01
      vertex -59.6903 52.9567 1.51
    endloop
  endfacet
  facet normal 0.634391 0.773012 -0
    outer loop
      vertex -60.2322 53.7678 1.51
      vertex -60.6111 54.0787 3.01
      vertex -60.2322 53.7678 3.01
    endloop
  endfacet
  facet normal 0.634391 0.773012 0
    outer loop
      vertex -60.6111 54.0787 3.01
      vertex -60.2322 53.7678 1.51
      vertex -60.6111 54.0787 1.51
    endloop
  endfacet
  facet normal 0.290279 0.956942 -0
    outer loop
      vertex -61.0433 54.3097 1.51
      vertex -61.5123 54.452 3.01
      vertex -61.0433 54.3097 3.01
    endloop
  endfacet
  facet normal 0.290279 0.956942 0
    outer loop
      vertex -61.5123 54.452 3.01
      vertex -61.0433 54.3097 1.51
      vertex -61.5123 54.452 1.51
    endloop
  endfacet
  facet normal 0.773015 0.634387 0
    outer loop
      vertex -59.9213 53.3889 3.01
      vertex -60.2322 53.7678 1.51
      vertex -60.2322 53.7678 3.01
    endloop
  endfacet
  facet normal 0.773015 0.634387 0
    outer loop
      vertex -60.2322 53.7678 1.51
      vertex -59.9213 53.3889 3.01
      vertex -59.9213 53.3889 1.51
    endloop
  endfacet
  facet normal -0.0980208 0.995184 0
    outer loop
      vertex -62 54.5 1.51
      vertex -62.4877 54.452 3.01
      vertex -62 54.5 3.01
    endloop
  endfacet
  facet normal -0.0980208 0.995184 0
    outer loop
      vertex -62.4877 54.452 3.01
      vertex -62 54.5 1.51
      vertex -62.4877 54.452 1.51
    endloop
  endfacet
  facet normal -1 0 0
    outer loop
      vertex -34.5 34.5 2.51053e-15
      vertex -34.5 60.5 7
      vertex -34.5 60.5 2.51053e-15
    endloop
  endfacet
  facet normal -1 -0 0
    outer loop
      vertex -34.5 60.5 7
      vertex -34.5 34.5 2.51053e-15
      vertex -34.5 34.5 7
    endloop
  endfacet
  facet normal 1 -0 0
    outer loop
      vertex -75.5 34.5 7
      vertex -75.5 60.5 -2.51053e-15
      vertex -75.5 60.5 7
    endloop
  endfacet
  facet normal 1 0 0
    outer loop
      vertex -75.5 60.5 -2.51053e-15
      vertex -75.5 34.5 7
      vertex -75.5 34.5 -2.51053e-15
    endloop
  endfacet
  facet normal 0 1 -0
    outer loop
      vertex -34.5 34.5 2.51053e-15
      vertex -75.5 34.5 7
      vertex -34.5 34.5 7
    endloop
  endfacet
  facet normal 0 1 0
    outer loop
      vertex -75.5 34.5 7
      vertex -34.5 34.5 2.51053e-15
      vertex -75.5 34.5 -2.51053e-15
    endloop
  endfacet
  facet normal 0 -1 0
    outer loop
      vertex -47.6 60.5 1
      vertex -47.6 60.5 7.24792e-07
      vertex -47.5 60.5 1
    endloop
  endfacet
  facet normal 0 -1 0
    outer loop
      vertex -75.5 60.5 7
      vertex -50 60.5 3.02
      vertex -34.5 60.5 7
    endloop
  endfacet
  facet normal 0 -1 0
    outer loop
      vertex -75.5 60.5 7
      vertex -61.9586 60.5 1.10323
      vertex -50 60.5 3.02
    endloop
  endfacet
  facet normal 0 -1 0
    outer loop
      vertex -75.5 60.5 7
      vertex -62.0233 60.5 1.09448
      vertex -61.9586 60.5 1.10323
    endloop
  endfacet
  facet normal 0 -1 0
    outer loop
      vertex -75.5 60.5 7
      vertex -62.1266 60.5 1.08049
      vertex -62.0233 60.5 1.09448
    endloop
  endfacet
  facet normal 0 -1 0
    outer loop
      vertex -75.5 60.5 7
      vertex -62.1908 60.5 1.03826
      vertex -62.1266 60.5 1.08049
    endloop
  endfacet
  facet normal 0 -1 0
    outer loop
      vertex -75.5 60.5 7
      vertex -62.3267 60.5 0.948839
      vertex -62.1908 60.5 1.03826
    endloop
  endfacet
  facet normal 0 -1 0
    outer loop
      vertex -75.5 60.5 7
      vertex -62.5642 60.5 0.685269
      vertex -62.3267 60.5 0.948839
    endloop
  endfacet
  facet normal 0 -1 0
    outer loop
      vertex -75.5 60.5 7
      vertex -62.6424 60.5 0.598495
      vertex -62.5642 60.5 0.685269
    endloop
  endfacet
  facet normal 0 -1 0
    outer loop
      vertex -75.5 60.5 7
      vertex -62.7087 60.5 0.502998
      vertex -62.6424 60.5 0.598495
    endloop
  endfacet
  facet normal 0 -1 0
    outer loop
      vertex -75.5 60.5 7
      vertex -63.0578 60.5 -9.86792e-16
      vertex -62.7087 60.5 0.502998
    endloop
  endfacet
  facet normal -0 -1 0
    outer loop
      vertex -63.0578 60.5 -9.86792e-16
      vertex -75.5 60.5 7
      vertex -75.5 60.5 -2.51053e-15
    endloop
  endfacet
  facet normal 0 -1 0
    outer loop
      vertex -46 60.5 3.02
      vertex -34.5 60.5 7
      vertex -50 60.5 3.02
    endloop
  endfacet
  facet normal 0 -1 0
    outer loop
      vertex -47.6 60.5 7.24792e-07
      vertex -46 60.5 3.02
      vertex -47.5 60.5 1
    endloop
  endfacet
  facet normal 0 -1 -0
    outer loop
      vertex -46 60.5 3.02
      vertex -47.6 60.5 7.24792e-07
      vertex -34.5 60.5 2.51053e-15
    endloop
  endfacet
  facet normal 0 -1 0
    outer loop
      vertex -46 60.5 3.02
      vertex -34.5 60.5 2.51053e-15
      vertex -34.5 60.5 7
    endloop
  endfacet
  facet normal 0 -1 0
    outer loop
      vertex -61.8946 60.5 1.07748
      vertex -50 60.5 3.02
      vertex -61.9586 60.5 1.10323
    endloop
  endfacet
  facet normal 0 -1 0
    outer loop
      vertex -61.7807 60.5 1.03168
      vertex -50 60.5 3.02
      vertex -61.8946 60.5 1.07748
    endloop
  endfacet
  facet normal 0 -1 0
    outer loop
      vertex -61.6159 60.5 0.88399
      vertex -50 60.5 3.02
      vertex -61.7807 60.5 1.03168
    endloop
  endfacet
  facet normal 0 -1 0
    outer loop
      vertex -61.5397 60.5 0.815761
      vertex -50 60.5 3.02
      vertex -61.6159 60.5 0.88399
    endloop
  endfacet
  facet normal 0 -1 0
    outer loop
      vertex -61.1449 60.5 0.305335
      vertex -50 60.5 3.02
      vertex -61.5397 60.5 0.815761
    endloop
  endfacet
  facet normal 0 -1 0
    outer loop
      vertex -61.0761 60.5 0.216332
      vertex -50 60.5 3.02
      vertex -61.1449 60.5 0.305335
    endloop
  endfacet
  facet normal 0 -1 0
    outer loop
      vertex -61.0219 60.5 0.132297
      vertex -50 60.5 3.02
      vertex -61.0761 60.5 0.216332
    endloop
  endfacet
  facet normal 0 -1 0
    outer loop
      vertex -60.9365 60.5 -7.27008e-16
      vertex -50 60.5 3.02
      vertex -61.0219 60.5 0.132297
    endloop
  endfacet
  facet normal -0 -1 0
    outer loop
      vertex -48.4 60.5 7.24792e-07
      vertex -50 60.5 3.02
      vertex -60.9365 60.5 -7.27008e-16
    endloop
  endfacet
  facet normal 0 -1 0
    outer loop
      vertex -50 60.5 3.02
      vertex -48.4 60.5 7.24792e-07
      vertex -48.5 60.5 1
    endloop
  endfacet
  facet normal 0 -1 0
    outer loop
      vertex -48.4 60.5 7.24792e-07
      vertex -34.5 60.5 2.51053e-15
      vertex -47.6 60.5 7.24792e-07
    endloop
  endfacet
  facet normal 0 -1 -0
    outer loop
      vertex -48.4 60.5 7.24792e-07
      vertex -60.9365 60.5 -7.27008e-16
      vertex -34.5 60.5 2.51053e-15
    endloop
  endfacet
  facet normal 0 -1 0
    outer loop
      vertex -48.5 60.5 1
      vertex -48.4 60.5 7.24792e-07
      vertex -48.4 60.5 1
    endloop
  endfacet
  facet normal 1 -0 0
    outer loop
      vertex -32.9 32.6 7
      vertex -32.9 63.4 2.70647e-15
      vertex -32.9 63.4 7
    endloop
  endfacet
  facet normal 1 0 0
    outer loop
      vertex -32.9 63.4 2.70647e-15
      vertex -32.9 32.6 7
      vertex -32.9 32.6 2.70647e-15
    endloop
  endfacet
  facet normal 1.22464e-16 1.07331e-21 -1
    outer loop
      vertex -48.2908 49.8518 8.21646e-16
      vertex -46.8317 50.8051 1.00032e-15
      vertex -46.9516 50.4559 9.85645e-16
    endloop
  endfacet
  facet normal 1.22465e-16 0 -1
    outer loop
      vertex -46.8317 50.8051 1.00032e-15
      vertex -48.2908 49.8518 8.21646e-16
      vertex -46.8317 53.1949 1.00032e-15
    endloop
  endfacet
  facet normal 1.22523e-16 -3.22219e-20 -1
    outer loop
      vertex -46.9711 50.4199 9.83256e-16
      vertex -46.9516 50.4559 9.85645e-16
      vertex -46.9583 50.4363 9.84819e-16
    endloop
  endfacet
  facet normal 1.22465e-16 0 -1
    outer loop
      vertex -48.2908 54.1482 8.21646e-16
      vertex -46.8317 53.1949 1.00032e-15
      vertex -48.2908 49.8518 8.21646e-16
    endloop
  endfacet
  facet normal 1.22465e-16 -9.18931e-22 -1
    outer loop
      vertex -46.9516 50.4559 9.85645e-16
      vertex -46.9711 50.4199 9.83256e-16
      vertex -48.2908 49.8518 8.21646e-16
    endloop
  endfacet
  facet normal 1.22464e-16 -1.07331e-21 -1
    outer loop
      vertex -46.8317 53.1949 1.00032e-15
      vertex -48.2908 54.1482 8.21646e-16
      vertex -46.9516 53.5441 9.85645e-16
    endloop
  endfacet
  facet normal 1.22453e-16 9.14544e-21 -1
    outer loop
      vertex -47.2152 50.1172 9.53361e-16
      vertex -46.9711 50.4199 9.83256e-16
      vertex -47.1978 50.1286 9.55491e-16
    endloop
  endfacet
  facet normal 1.22465e-16 9.18931e-22 -1
    outer loop
      vertex -46.9711 53.5801 9.83256e-16
      vertex -46.9516 53.5441 9.85645e-16
      vertex -48.2908 54.1482 8.21646e-16
    endloop
  endfacet
  facet normal 1.22464e-16 2.0337e-22 -1
    outer loop
      vertex -46.9711 50.4199 9.83256e-16
      vertex -47.2152 50.1172 9.53361e-16
      vertex -48.2908 49.8518 8.21646e-16
    endloop
  endfacet
  facet normal 1.22523e-16 3.22219e-20 -1
    outer loop
      vertex -46.9516 53.5441 9.85645e-16
      vertex -46.9711 53.5801 9.83256e-16
      vertex -46.9583 53.5637 9.84819e-16
    endloop
  endfacet
  facet normal 1.22466e-16 -3.28788e-21 -1
    outer loop
      vertex -47.882 49.8247 8.71697e-16
      vertex -47.2152 50.1172 9.53361e-16
      vertex -47.5242 49.9154 9.15518e-16
    endloop
  endfacet
  facet normal 1.22464e-16 -2.0337e-22 -1
    outer loop
      vertex -47.2152 53.8828 9.53361e-16
      vertex -46.9711 53.5801 9.83256e-16
      vertex -48.2908 54.1482 8.21646e-16
    endloop
  endfacet
  facet normal 1.22464e-16 9.80072e-22 -1
    outer loop
      vertex -47.2152 50.1172 9.53361e-16
      vertex -47.882 49.8247 8.71697e-16
      vertex -48.2908 49.8518 8.21646e-16
    endloop
  endfacet
  facet normal 1.22453e-16 -9.14544e-21 -1
    outer loop
      vertex -46.9711 53.5801 9.83256e-16
      vertex -47.2152 53.8828 9.53361e-16
      vertex -47.1978 53.8714 9.55491e-16
    endloop
  endfacet
  facet normal 1.22454e-16 6.00911e-20 -1
    outer loop
      vertex -47.9229 49.8214 8.66695e-16
      vertex -47.882 49.8247 8.71697e-16
      vertex -47.9022 49.8196 8.69231e-16
    endloop
  endfacet
  facet normal 1.22462e-16 -3.71498e-20 -1
    outer loop
      vertex -48.2908 49.8518 8.21646e-16
      vertex -47.882 49.8247 8.71697e-16
      vertex -47.9229 49.8214 8.66695e-16
    endloop
  endfacet
  facet normal 1.22464e-16 -9.80072e-22 -1
    outer loop
      vertex -47.882 54.1753 8.71697e-16
      vertex -47.2152 53.8828 9.53361e-16
      vertex -48.2908 54.1482 8.21646e-16
    endloop
  endfacet
  facet normal 1.22454e-16 -6.00911e-20 -1
    outer loop
      vertex -47.882 54.1753 8.71697e-16
      vertex -47.9229 54.1786 8.66695e-16
      vertex -47.9022 54.1804 8.69231e-16
    endloop
  endfacet
  facet normal 1.22466e-16 3.28788e-21 -1
    outer loop
      vertex -47.2152 53.8828 9.53361e-16
      vertex -47.882 54.1753 8.71697e-16
      vertex -47.5242 54.0846 9.15518e-16
    endloop
  endfacet
  facet normal 1.22462e-16 3.71498e-20 -1
    outer loop
      vertex -47.882 54.1753 8.71697e-16
      vertex -48.2908 54.1482 8.21646e-16
      vertex -47.9229 54.1786 8.66695e-16
    endloop
  endfacet
  facet normal 1.22465e-16 0 -1
    outer loop
      vertex -55.0654 50.8196 -8.00611e-18
      vertex -48.2908 54.1482 8.21646e-16
      vertex -48.2908 49.8518 8.21646e-16
    endloop
  endfacet
  facet normal 1.22465e-16 0 -1
    outer loop
      vertex -55.0654 50.8196 -8.00611e-18
      vertex -55.0654 53.1804 -8.00611e-18
      vertex -48.2908 54.1482 8.21646e-16
    endloop
  endfacet
  facet normal 1.22465e-16 0 -1
    outer loop
      vertex -55.0654 50.8196 -8.00611e-18
      vertex -59.6348 53.1804 -5.67604e-16
      vertex -55.0654 53.1804 -8.00611e-18
    endloop
  endfacet
  facet normal 1.22465e-16 5.83533e-23 -1
    outer loop
      vertex -59.8098 50.8196 -5.89036e-16
      vertex -59.6348 53.1804 -5.67604e-16
      vertex -55.0654 50.8196 -8.00611e-18
    endloop
  endfacet
  facet normal 1.22467e-16 -1.80476e-21 -1
    outer loop
      vertex -60.2322 50.2322 -6.40764e-16
      vertex -59.8098 50.8196 -5.89036e-16
      vertex -59.9213 50.6111 -6.02689e-16
    endloop
  endfacet
  facet normal 1.22464e-16 2.65679e-22 -1
    outer loop
      vertex -60.6111 49.9213 -6.87158e-16
      vertex -59.8098 50.8196 -5.89036e-16
      vertex -60.2322 50.2322 -6.40764e-16
    endloop
  endfacet
  facet normal 1.22465e-16 6.77214e-23 -1
    outer loop
      vertex -59.8098 50.8196 -5.89036e-16
      vertex -64.452 52.4877 -1.15753e-15
      vertex -59.6348 53.1804 -5.67604e-16
    endloop
  endfacet
  facet normal 1.22465e-16 1.27779e-22 -1
    outer loop
      vertex -59.8098 50.8196 -5.89036e-16
      vertex -60.6111 49.9213 -6.87158e-16
      vertex -64.452 52.4877 -1.15753e-15
    endloop
  endfacet
  facet normal 1.22465e-16 -1.0581e-22 -1
    outer loop
      vertex -63.7403 58.1033 -1.07038e-15
      vertex -59.6348 53.1804 -5.67604e-16
      vertex -64.452 52.4877 -1.15753e-15
    endloop
  endfacet
  facet normal 1.22465e-16 7.06732e-22 -1
    outer loop
      vertex -63.6796 58.4674 -1.06294e-15
      vertex -60.2749 58.2879 -6.45994e-16
      vertex -63.7403 58.1033 -1.07038e-15
    endloop
  endfacet
  facet normal 1.22465e-16 2.70762e-22 -1
    outer loop
      vertex -64.452 52.4877 -1.15753e-15
      vertex -60.6111 49.9213 -6.87158e-16
      vertex -61.0433 49.6903 -7.4009e-16
    endloop
  endfacet
  facet normal 1.22465e-16 0 -1
    outer loop
      vertex -34.5 60.5 2.51053e-15
      vertex -32.9 32.6 2.70647e-15
      vertex -34.5 34.5 2.51053e-15
    endloop
  endfacet
  facet normal 1.22465e-16 1.25574e-23 -1
    outer loop
      vertex -32.9 32.6 2.70647e-15
      vertex -75.5 34.5 -2.51053e-15
      vertex -34.5 34.5 2.51053e-15
    endloop
  endfacet
  facet normal 1.22465e-16 0 -1
    outer loop
      vertex -75.5 34.5 -2.51053e-15
      vertex -77.1 32.6 -2.70647e-15
      vertex -75.5 60.5 -2.51053e-15
    endloop
  endfacet
  facet normal 1.22465e-16 -1.16482e-23 -1
    outer loop
      vertex -77.1 32.6 -2.70647e-15
      vertex -75.5 34.5 -2.51053e-15
      vertex -32.9 32.6 2.70647e-15
    endloop
  endfacet
  facet normal 1.22465e-16 0 -1
    outer loop
      vertex -32.9 32.6 2.70647e-15
      vertex -34.5 60.5 2.51053e-15
      vertex -32.9 63.4 2.70647e-15
    endloop
  endfacet
  facet normal 1.22465e-16 -3.41787e-24 -1
    outer loop
      vertex -60.9365 60.5 -7.27008e-16
      vertex -32.9 63.4 2.70647e-15
      vertex -34.5 60.5 2.51053e-15
    endloop
  endfacet
  facet normal 1.22465e-16 1.49831e-22 -1
    outer loop
      vertex -64.452 52.4877 -1.15753e-15
      vertex -61.0433 49.6903 -7.4009e-16
      vertex -61.5123 49.548 -7.97524e-16
    endloop
  endfacet
  facet normal 1.22464e-16 -3.79403e-22 -1
    outer loop
      vertex -64.452 52.4877 -1.15753e-15
      vertex -61.5123 49.548 -7.97524e-16
      vertex -62 49.5 -8.57253e-16
    endloop
  endfacet
  facet normal 1.22465e-16 5.05992e-22 -1
    outer loop
      vertex -64.452 52.4877 -1.15753e-15
      vertex -62 49.5 -8.57253e-16
      vertex -62.4877 49.548 -9.16982e-16
    endloop
  endfacet
  facet normal 1.22465e-16 2.12104e-22 -1
    outer loop
      vertex -64.452 52.4877 -1.15753e-15
      vertex -62.4877 49.548 -9.16982e-16
      vertex -62.9567 49.6903 -9.74416e-16
    endloop
  endfacet
  facet normal 1.22465e-16 -3.7703e-23 -1
    outer loop
      vertex -59.6348 53.1804 -5.67604e-16
      vertex -63.7403 58.1033 -1.07038e-15
      vertex -60.2749 58.2879 -6.45994e-16
    endloop
  endfacet
  facet normal 1.22465e-16 6.0862e-22 -1
    outer loop
      vertex -77.1 63.4 -2.70647e-15
      vertex -60.9365 60.5 -7.27008e-16
      vertex -63.0578 60.5 -9.86792e-16
    endloop
  endfacet
  facet normal 1.22465e-16 6.97218e-24 -1
    outer loop
      vertex -77.1 63.4 -2.70647e-15
      vertex -63.0578 60.5 -9.86792e-16
      vertex -75.5 60.5 -2.51053e-15
    endloop
  endfacet
  facet normal 1.22465e-16 -7.72542e-23 -1
    outer loop
      vertex -60.9365 60.5 -7.27008e-16
      vertex -77.1 63.4 -2.70647e-15
      vertex -32.9 63.4 2.70647e-15
    endloop
  endfacet
  facet normal 1.22465e-16 0 -1
    outer loop
      vertex -77.1 63.4 -2.70647e-15
      vertex -75.5 60.5 -2.51053e-15
      vertex -77.1 32.6 -2.70647e-15
    endloop
  endfacet
  facet normal 1.22465e-16 8.51217e-23 -1
    outer loop
      vertex -63.1202 60.3846 -9.94441e-16
      vertex -60.8317 60.1949 -7.14183e-16
      vertex -63.6796 58.4674 -1.06294e-15
    endloop
  endfacet
  facet normal 1.22465e-16 4.89006e-22 -1
    outer loop
      vertex -64.452 52.4877 -1.15753e-15
      vertex -62.9567 49.6903 -9.74416e-16
      vertex -63.3889 49.9213 -1.02735e-15
    endloop
  endfacet
  facet normal 1.22464e-16 -1.39598e-21 -1
    outer loop
      vertex -63.0578 60.5 -9.86792e-16
      vertex -60.8317 60.1949 -7.14183e-16
      vertex -63.1202 60.3846 -9.94441e-16
    endloop
  endfacet
  facet normal 1.22465e-16 1.44965e-21 -1
    outer loop
      vertex -60.8317 60.1949 -7.14183e-16
      vertex -63.0578 60.5 -9.86792e-16
      vertex -60.9365 60.5 -7.27008e-16
    endloop
  endfacet
  facet normal 1.22465e-16 3.01292e-22 -1
    outer loop
      vertex -64.452 52.4877 -1.15753e-15
      vertex -63.3889 49.9213 -1.02735e-15
      vertex -63.7678 50.2322 -1.07374e-15
    endloop
  endfacet
  facet normal 1.22464e-16 -7.44524e-23 -1
    outer loop
      vertex -64.452 52.4877 -1.15753e-15
      vertex -63.7678 50.2322 -1.07374e-15
      vertex -64.0787 50.6111 -1.11182e-15
    endloop
  endfacet
  facet normal 1.22464e-16 9.25541e-23 -1
    outer loop
      vertex -64.452 52.4877 -1.15753e-15
      vertex -64.0787 50.6111 -1.11182e-15
      vertex -64.3097 51.0433 -1.14011e-15
    endloop
  endfacet
  facet normal 1.22463e-16 0 -1
    outer loop
      vertex -64.452 52.4877 -1.15753e-15
      vertex -64.3097 51.0433 -1.14011e-15
      vertex -64.452 51.5123 -1.15753e-15
    endloop
  endfacet
  facet normal 1.22465e-16 -6.55387e-23 -1
    outer loop
      vertex -60.2749 58.2879 -6.45994e-16
      vertex -63.6796 58.4674 -1.06294e-15
      vertex -60.8317 60.1949 -7.14183e-16
    endloop
  endfacet
  facet normal 1.22473e-16 0 -1
    outer loop
      vertex -64.452 52.4877 -1.15753e-15
      vertex -64.452 51.5123 -1.15753e-15
      vertex -64.5 52 -1.16341e-15
    endloop
  endfacet
  facet normal -1 0 0
    outer loop
      vertex -77.1 32.6 -2.70647e-15
      vertex -77.1 63.4 7
      vertex -77.1 63.4 -2.70647e-15
    endloop
  endfacet
  facet normal -1 -0 0
    outer loop
      vertex -77.1 63.4 7
      vertex -77.1 32.6 -2.70647e-15
      vertex -77.1 32.6 7
    endloop
  endfacet
  facet normal 0 0 1
    outer loop
      vertex -32.9 63.4 7
      vertex -34.5 60.5 7
      vertex -32.9 32.6 7
    endloop
  endfacet
  facet normal 0 0 1
    outer loop
      vertex -32.9 63.4 7
      vertex -75.5 60.5 7
      vertex -34.5 60.5 7
    endloop
  endfacet
  facet normal 0 0 1
    outer loop
      vertex -77.1 32.6 7
      vertex -75.5 60.5 7
      vertex -77.1 63.4 7
    endloop
  endfacet
  facet normal -0 0 1
    outer loop
      vertex -77.1 63.4 7
      vertex -75.5 60.5 7
      vertex -32.9 63.4 7
    endloop
  endfacet
  facet normal -0 0 1
    outer loop
      vertex -34.5 34.5 7
      vertex -32.9 32.6 7
      vertex -34.5 60.5 7
    endloop
  endfacet
  facet normal -0 0 1
    outer loop
      vertex -75.5 34.5 7
      vertex -32.9 32.6 7
      vertex -34.5 34.5 7
    endloop
  endfacet
  facet normal 0 0 1
    outer loop
      vertex -75.5 34.5 7
      vertex -77.1 32.6 7
      vertex -32.9 32.6 7
    endloop
  endfacet
  facet normal 0 0 1
    outer loop
      vertex -75.5 60.5 7
      vertex -77.1 32.6 7
      vertex -75.5 34.5 7
    endloop
  endfacet
  facet normal 0 -1 0
    outer loop
      vertex -77.1 32.6 7
      vertex -32.9 32.6 2.70647e-15
      vertex -32.9 32.6 7
    endloop
  endfacet
  facet normal -0 -1 0
    outer loop
      vertex -32.9 32.6 2.70647e-15
      vertex -77.1 32.6 7
      vertex -77.1 32.6 -2.70647e-15
    endloop
  endfacet
  facet normal 0 1 -0
    outer loop
      vertex -32.9 63.4 2.70647e-15
      vertex -77.1 63.4 7
      vertex -32.9 63.4 7
    endloop
  endfacet
  facet normal 0 1 0
    outer loop
      vertex -77.1 63.4 7
      vertex -32.9 63.4 2.70647e-15
      vertex -77.1 63.4 -2.70647e-15
    endloop
  endfacet
  facet normal 1 0 0
    outer loop
      vertex -56.75 10 3
      vertex -56.75 29.5 4
      vertex -56.75 10 4
    endloop
  endfacet
  facet normal 1 0 0
    outer loop
      vertex -56.75 29.5 4
      vertex -56.75 10 3
      vertex -56.75 29.5 0
    endloop
  endfacet
  facet normal 1 0 0
    outer loop
      vertex -56.75 9 0
      vertex -56.75 10 3
      vertex -56.75 9 3
    endloop
  endfacet
  facet normal 1 0 0
    outer loop
      vertex -56.75 10 3
      vertex -56.75 9 0
      vertex -56.75 29.5 0
    endloop
  endfacet
  facet normal 0 0 1
    outer loop
      vertex -56.75 29.5 4
      vertex -59 21 4
      vertex -56.75 10 4
    endloop
  endfacet
  facet normal 0 0 1
    outer loop
      vertex -56.75 29.5 4
      vertex -65 21 4
      vertex -59 21 4
    endloop
  endfacet
  facet normal 0 0 1
    outer loop
      vertex -70.5 10 4
      vertex -65 21 4
      vertex -70.5 29.5 4
    endloop
  endfacet
  facet normal -0 0 1
    outer loop
      vertex -70.5 29.5 4
      vertex -65 21 4
      vertex -56.75 29.5 4
    endloop
  endfacet
  facet normal -0 0 1
    outer loop
      vertex -59 15 4
      vertex -56.75 10 4
      vertex -59 21 4
    endloop
  endfacet
  facet normal -0 0 1
    outer loop
      vertex -65 15 4
      vertex -56.75 10 4
      vertex -59 15 4
    endloop
  endfacet
  facet normal 0 0 1
    outer loop
      vertex -65 15 4
      vertex -70.5 10 4
      vertex -56.75 10 4
    endloop
  endfacet
  facet normal 0 0 1
    outer loop
      vertex -65 21 4
      vertex -70.5 10 4
      vertex -65 15 4
    endloop
  endfacet
  facet normal -1 0 0
    outer loop
      vertex -70.5 29.5 0
      vertex -70.5 10 3
      vertex -70.5 29.5 4
    endloop
  endfacet
  facet normal -1 0 0
    outer loop
      vertex -70.5 9 0
      vertex -70.5 10 3
      vertex -70.5 29.5 0
    endloop
  endfacet
  facet normal -1 -0 0
    outer loop
      vertex -70.5 10 3
      vertex -70.5 9 0
      vertex -70.5 9 3
    endloop
  endfacet
  facet normal -1 -0 0
    outer loop
      vertex -70.5 29.5 4
      vertex -70.5 10 3
      vertex -70.5 10 4
    endloop
  endfacet
  facet normal 0 -1 0
    outer loop
      vertex -70.5 10 3
      vertex -56.75 10 4
      vertex -70.5 10 4
    endloop
  endfacet
  facet normal 0 -1 -0
    outer loop
      vertex -56.75 10 4
      vertex -70.5 10 3
      vertex -56.75 10 3
    endloop
  endfacet
  facet normal 0 0 -1
    outer loop
      vertex -32.9 6.6 0
      vertex -39.5 9 0
      vertex -32.9 9 0
    endloop
  endfacet
  facet normal 0 0 -1
    outer loop
      vertex -39.5 9 0
      vertex -53.25 9 0
      vertex -39.5 29.5 0
    endloop
  endfacet
  facet normal 0 0 -1
    outer loop
      vertex -32.9 6.6 0
      vertex -53.25 9 0
      vertex -39.5 9 0
    endloop
  endfacet
  facet normal 0 0 -1
    outer loop
      vertex -32.9 6.6 0
      vertex -56.75 9 0
      vertex -53.25 9 0
    endloop
  endfacet
  facet normal 0 0 -1
    outer loop
      vertex -56.75 9 0
      vertex -70.5 9 0
      vertex -56.75 29.5 0
    endloop
  endfacet
  facet normal 0 0 -1
    outer loop
      vertex -77.1 6.6 0
      vertex -56.75 9 0
      vertex -32.9 6.6 0
    endloop
  endfacet
  facet normal -0 0 -1
    outer loop
      vertex -56.75 9 0
      vertex -77.1 6.6 0
      vertex -70.5 9 0
    endloop
  endfacet
  facet normal -0 0 -1
    outer loop
      vertex -70.5 9 0
      vertex -77.1 6.6 0
      vertex -77.1 9 0
    endloop
  endfacet
  facet normal -0 0 -1
    outer loop
      vertex -39.5 29.5 0
      vertex -53.25 9 0
      vertex -53.25 29.5 0
    endloop
  endfacet
  facet normal -0 0 -1
    outer loop
      vertex -56.75 29.5 0
      vertex -70.5 9 0
      vertex -70.5 29.5 0
    endloop
  endfacet
  facet normal 0 1 -0
    outer loop
      vertex -56.75 29.5 0
      vertex -70.5 29.5 4
      vertex -56.75 29.5 4
    endloop
  endfacet
  facet normal 0 1 0
    outer loop
      vertex -70.5 29.5 4
      vertex -56.75 29.5 0
      vertex -70.5 29.5 0
    endloop
  endfacet
  facet normal 0 0 1
    outer loop
      vertex -56.75 10 3
      vertex -70.5 10 3
      vertex -56.75 9 3
    endloop
  endfacet
  facet normal 0 0 1
    outer loop
      vertex -39.5 10 3
      vertex -53.25 10 3
      vertex -39.5 9 3
    endloop
  endfacet
  facet normal -0 0 1
    outer loop
      vertex -39.5 9 3
      vertex -32.9 6.6 3
      vertex -32.9 9 3
    endloop
  endfacet
  facet normal 0 0 1
    outer loop
      vertex -53.25 9 3
      vertex -39.5 9 3
      vertex -53.25 10 3
    endloop
  endfacet
  facet normal 0 0 1
    outer loop
      vertex -39.5 9 3
      vertex -53.25 9 3
      vertex -32.9 6.6 3
    endloop
  endfacet
  facet normal -0 0 1
    outer loop
      vertex -56.75 9 3
      vertex -32.9 6.6 3
      vertex -53.25 9 3
    endloop
  endfacet
  facet normal 0 0 1
    outer loop
      vertex -70.5 9 3
      vertex -56.75 9 3
      vertex -70.5 10 3
    endloop
  endfacet
  facet normal 0 0 1
    outer loop
      vertex -77.1 6.6 3
      vertex -56.75 9 3
      vertex -70.5 9 3
    endloop
  endfacet
  facet normal 0 0 1
    outer loop
      vertex -77.1 6.6 3
      vertex -70.5 9 3
      vertex -77.1 9 3
    endloop
  endfacet
  facet normal 0 0 1
    outer loop
      vertex -56.75 9 3
      vertex -77.1 6.6 3
      vertex -32.9 6.6 3
    endloop
  endfacet
  facet normal -1 0 0
    outer loop
      vertex -53.25 29.5 0
      vertex -53.25 10 3
      vertex -53.25 29.5 4
    endloop
  endfacet
  facet normal -1 0 0
    outer loop
      vertex -53.25 9 0
      vertex -53.25 10 3
      vertex -53.25 29.5 0
    endloop
  endfacet
  facet normal -1 -0 0
    outer loop
      vertex -53.25 10 3
      vertex -53.25 9 0
      vertex -53.25 9 3
    endloop
  endfacet
  facet normal -1 -0 0
    outer loop
      vertex -53.25 29.5 4
      vertex -53.25 10 3
      vertex -53.25 10 4
    endloop
  endfacet
  facet normal 0 0 1
    outer loop
      vertex -39.5 29.5 4
      vertex -45.5 21 4
      vertex -39.5 10 4
    endloop
  endfacet
  facet normal -0 0 1
    outer loop
      vertex -53.25 29.5 4
      vertex -45.5 21 4
      vertex -39.5 29.5 4
    endloop
  endfacet
  facet normal 0 0 1
    outer loop
      vertex -45.5 21 4
      vertex -53.25 29.5 4
      vertex -50.5 21 4
    endloop
  endfacet
  facet normal 0 0 1
    outer loop
      vertex -53.25 10 4
      vertex -50.5 21 4
      vertex -53.25 29.5 4
    endloop
  endfacet
  facet normal 0 0 1
    outer loop
      vertex -50.5 21 4
      vertex -53.25 10 4
      vertex -50.5 10 4
    endloop
  endfacet
  facet normal 0 0 1
    outer loop
      vertex -39.5 10 4
      vertex -45.5 21 4
      vertex -45.5 10 4
    endloop
  endfacet
  facet normal 1 0 0
    outer loop
      vertex -39.5 10 3
      vertex -39.5 29.5 4
      vertex -39.5 10 4
    endloop
  endfacet
  facet normal 1 0 0
    outer loop
      vertex -39.5 29.5 4
      vertex -39.5 10 3
      vertex -39.5 29.5 0
    endloop
  endfacet
  facet normal 1 0 0
    outer loop
      vertex -39.5 9 0
      vertex -39.5 10 3
      vertex -39.5 9 3
    endloop
  endfacet
  facet normal 1 0 0
    outer loop
      vertex -39.5 10 3
      vertex -39.5 9 0
      vertex -39.5 29.5 0
    endloop
  endfacet
  facet normal 0 -1 0
    outer loop
      vertex -53.25 10 3
      vertex -50.5 10 4
      vertex -53.25 10 4
    endloop
  endfacet
  facet normal 0 -1 -0
    outer loop
      vertex -50.5 10 4
      vertex -53.25 10 3
      vertex -45.5 10 4
    endloop
  endfacet
  facet normal 0 -1 0
    outer loop
      vertex -39.5 10 3
      vertex -45.5 10 4
      vertex -53.25 10 3
    endloop
  endfacet
  facet normal 0 -1 0
    outer loop
      vertex -45.5 10 4
      vertex -39.5 10 3
      vertex -39.5 10 4
    endloop
  endfacet
  facet normal 0 -1 0
    outer loop
      vertex -50.5 10 4
      vertex -45.5 10 7.01
      vertex -50.5 10 7.01
    endloop
  endfacet
  facet normal 0 -1 -0
    outer loop
      vertex -45.5 10 7.01
      vertex -50.5 10 4
      vertex -45.5 10 4
    endloop
  endfacet
  facet normal 0 1 -0
    outer loop
      vertex -39.5 29.5 0
      vertex -53.25 29.5 4
      vertex -39.5 29.5 4
    endloop
  endfacet
  facet normal 0 1 0
    outer loop
      vertex -53.25 29.5 4
      vertex -39.5 29.5 0
      vertex -53.25 29.5 0
    endloop
  endfacet
  facet normal 1 -0 0
    outer loop
      vertex -32.9 6.6 3
      vertex -32.9 9 0
      vertex -32.9 9 3
    endloop
  endfacet
  facet normal 1 0 0
    outer loop
      vertex -32.9 9 0
      vertex -32.9 6.6 3
      vertex -32.9 6.6 0
    endloop
  endfacet
  facet normal -1 0 0
    outer loop
      vertex -77.1 6.6 0
      vertex -77.1 9 3
      vertex -77.1 9 0
    endloop
  endfacet
  facet normal -1 -0 0
    outer loop
      vertex -77.1 9 3
      vertex -77.1 6.6 0
      vertex -77.1 6.6 3
    endloop
  endfacet
  facet normal 0 -1 0
    outer loop
      vertex -77.1 6.6 0
      vertex -32.9 6.6 3
      vertex -77.1 6.6 3
    endloop
  endfacet
  facet normal 0 -1 -0
    outer loop
      vertex -32.9 6.6 3
      vertex -77.1 6.6 0
      vertex -32.9 6.6 0
    endloop
  endfacet
  facet normal 0 1 -0
    outer loop
      vertex -32.9 9 0
      vertex -39.5 9 3
      vertex -32.9 9 3
    endloop
  endfacet
  facet normal 0 1 0
    outer loop
      vertex -39.5 9 3
      vertex -32.9 9 0
      vertex -39.5 9 0
    endloop
  endfacet
  facet normal 0 1 -0
    outer loop
      vertex -70.5 9 0
      vertex -77.1 9 3
      vertex -70.5 9 3
    endloop
  endfacet
  facet normal 0 1 0
    outer loop
      vertex -77.1 9 3
      vertex -70.5 9 0
      vertex -77.1 9 0
    endloop
  endfacet
  facet normal 0 1 -0
    outer loop
      vertex -53.25 9 0
      vertex -56.75 9 3
      vertex -53.25 9 3
    endloop
  endfacet
  facet normal 0 1 0
    outer loop
      vertex -56.75 9 3
      vertex -53.25 9 0
      vertex -56.75 9 0
    endloop
  endfacet
  facet normal 1 -0 0
    outer loop
      vertex -45.5 10 7.01
      vertex -45.5 21 4
      vertex -45.5 21 7.01
    endloop
  endfacet
  facet normal 1 0 0
    outer loop
      vertex -45.5 21 4
      vertex -45.5 10 7.01
      vertex -45.5 10 4
    endloop
  endfacet
  facet normal -0 0 1
    outer loop
      vertex -50.5 21 7.01
      vertex -45.5 10 7.01
      vertex -45.5 21 7.01
    endloop
  endfacet
  facet normal 0 0 1
    outer loop
      vertex -45.5 10 7.01
      vertex -50.5 21 7.01
      vertex -50.5 10 7.01
    endloop
  endfacet
  facet normal -1 0 0
    outer loop
      vertex -50.5 10 4
      vertex -50.5 21 7.01
      vertex -50.5 21 4
    endloop
  endfacet
  facet normal -1 -0 0
    outer loop
      vertex -50.5 21 7.01
      vertex -50.5 10 4
      vertex -50.5 10 7.01
    endloop
  endfacet
  facet normal 0 1 -0
    outer loop
      vertex -45.5 21 4
      vertex -50.5 21 7.01
      vertex -45.5 21 7.01
    endloop
  endfacet
  facet normal 0 1 0
    outer loop
      vertex -50.5 21 7.01
      vertex -45.5 21 4
      vertex -50.5 21 4
    endloop
  endfacet
  facet normal 1 -0 0
    outer loop
      vertex -59 15 7.01
      vertex -59 21 4
      vertex -59 21 7.01
    endloop
  endfacet
  facet normal 1 0 0
    outer loop
      vertex -59 21 4
      vertex -59 15 7.01
      vertex -59 15 4
    endloop
  endfacet
  facet normal -0 0 1
    outer loop
      vertex -65 21 7.01
      vertex -59 15 7.01
      vertex -59 21 7.01
    endloop
  endfacet
  facet normal 0 0 1
    outer loop
      vertex -59 15 7.01
      vertex -65 21 7.01
      vertex -65 15 7.01
    endloop
  endfacet
  facet normal -1 0 0
    outer loop
      vertex -65 15 4
      vertex -65 21 7.01
      vertex -65 21 4
    endloop
  endfacet
  facet normal -1 -0 0
    outer loop
      vertex -65 21 7.01
      vertex -65 15 4
      vertex -65 15 7.01
    endloop
  endfacet
  facet normal 0 -1 0
    outer loop
      vertex -65 15 4
      vertex -59 15 7.01
      vertex -65 15 7.01
    endloop
  endfacet
  facet normal 0 -1 -0
    outer loop
      vertex -59 15 7.01
      vertex -65 15 4
      vertex -59 15 4
    endloop
  endfacet
  facet normal 0 1 -0
    outer loop
      vertex -59 21 4
      vertex -65 21 7.01
      vertex -59 21 7.01
    endloop
  endfacet
  facet normal 0 1 0
    outer loop
      vertex -65 21 7.01
      vertex -59 21 4
      vertex -65 21 4
    endloop
  endfacet
endsolid OpenSCAD_Model
