solid OpenSCAD_Model
  facet normal -1 -0 -0
    outer loop
      vertex 0 0 14
      vertex 0 0 28
      vertex 0 62 14
    endloop
  endfacet
  facet normal -1 0 0
    outer loop
      vertex 0 62 14
      vertex 0 0 28
      vertex 0 62 28
    endloop
  endfacet
  facet normal 0 -1 0
    outer loop
      vertex 15 0 19
      vertex 0 0 14
      vertex 40.4 0 14
    endloop
  endfacet
  facet normal 0 -1 0
    outer loop
      vertex 5 0 19
      vertex 5 0 28
      vertex 0 0 28
    endloop
  endfacet
  facet normal 0 -1 0
    outer loop
      vertex 9 0 19
      vertex 9 0 28
      vertex 7 0 28
    endloop
  endfacet
  facet normal 0 -1 0
    outer loop
      vertex 91 0 14
      vertex 55.4 0 14.5
      vertex 55.4 0 14
    endloop
  endfacet
  facet normal 0 -1 0
    outer loop
      vertex 91 0 28
      vertex 15 0 28
      vertex 91 0 14
    endloop
  endfacet
  facet normal 0 -1 0
    outer loop
      vertex 13 0 19
      vertex 0 0 14
      vertex 15 0 19
    endloop
  endfacet
  facet normal 0 -1 0
    outer loop
      vertex 11 0 19
      vertex 0 0 14
      vertex 13 0 19
    endloop
  endfacet
  facet normal 0 -1 0
    outer loop
      vertex 9 0 19
      vertex 0 0 14
      vertex 11 0 19
    endloop
  endfacet
  facet normal 0 -1 0
    outer loop
      vertex 7 0 19
      vertex 0 0 14
      vertex 9 0 19
    endloop
  endfacet
  facet normal 0 -1 0
    outer loop
      vertex 5 0 19
      vertex 0 0 14
      vertex 7 0 19
    endloop
  endfacet
  facet normal 0 -1 0
    outer loop
      vertex 0 0 28
      vertex 0 0 14
      vertex 5 0 19
    endloop
  endfacet
  facet normal 0 -1 0
    outer loop
      vertex 13 0 19
      vertex 13 0 28
      vertex 11 0 28
    endloop
  endfacet
  facet normal 0 -1 0
    outer loop
      vertex 11 0 28
      vertex 11 0 19
      vertex 13 0 19
    endloop
  endfacet
  facet normal 0 -1 0
    outer loop
      vertex 7 0 28
      vertex 7 0 19
      vertex 9 0 19
    endloop
  endfacet
  facet normal 0 -1 0
    outer loop
      vertex 15 0 28
      vertex 55.4 0 14.5
      vertex 91 0 14
    endloop
  endfacet
  facet normal 0 -1 0
    outer loop
      vertex 15 0 28
      vertex 40.4 0 14.5
      vertex 55.4 0 14.5
    endloop
  endfacet
  facet normal 0 -1 0
    outer loop
      vertex 15 0 28
      vertex 40.4 0 14
      vertex 40.4 0 14.5
    endloop
  endfacet
  facet normal 0 -1 0
    outer loop
      vertex 15 0 28
      vertex 15 0 19
      vertex 40.4 0 14
    endloop
  endfacet
  facet normal 0 0 -1
    outer loop
      vertex 38 2 14
      vertex 40.4 0 14
      vertex 18 2 14
    endloop
  endfacet
  facet normal 0 -0 -1
    outer loop
      vertex 38 60 14
      vertex 0 62 14
      vertex 43.2392 62 14
    endloop
  endfacet
  facet normal -0 -0 -1
    outer loop
      vertex 18 60 14
      vertex 0 62 14
      vertex 38 60 14
    endloop
  endfacet
  facet normal 0 0 -1
    outer loop
      vertex 2 40 14
      vertex 0 62 14
      vertex 2 60 14
    endloop
  endfacet
  facet normal -0 -0 -1
    outer loop
      vertex 2 60 14
      vertex 0 62 14
      vertex 18 60 14
    endloop
  endfacet
  facet normal 0 -0 -1
    outer loop
      vertex 0 0 14
      vertex 0 62 14
      vertex 2 40 14
    endloop
  endfacet
  facet normal 0 0 -1
    outer loop
      vertex 0 0 14
      vertex 2 40 14
      vertex 2 20 14
    endloop
  endfacet
  facet normal 0 0 -1
    outer loop
      vertex 0 0 14
      vertex 2 20 14
      vertex 2 2 14
    endloop
  endfacet
  facet normal -0 0 -1
    outer loop
      vertex 0 0 14
      vertex 2 2 14
      vertex 40.4 0 14
    endloop
  endfacet
  facet normal 0 0 -1
    outer loop
      vertex 2 2 14
      vertex 18 2 14
      vertex 40.4 0 14
    endloop
  endfacet
  facet normal 0 0 -1
    outer loop
      vertex 40.4 2 14
      vertex 40.4 0 14
      vertex 38 2 14
    endloop
  endfacet
  facet normal 0 0 -1
    outer loop
      vertex 38 60 14
      vertex 43.2392 62 14
      vertex 43.7229 60.6766 14
    endloop
  endfacet
  facet normal -0 0 -1
    outer loop
      vertex 38 60 14
      vertex 43.7229 60.6766 14
      vertex 43.9702 60 14
    endloop
  endfacet
  facet normal 0 1 0
    outer loop
      vertex 54.3431 62 17.0846
      vertex 64.5197 62 17.4955
      vertex 54.4218 62 15.8337
    endloop
  endfacet
  facet normal 0 1 0
    outer loop
      vertex 0 62 14
      vertex 0 62 28
      vertex 5 62 19
    endloop
  endfacet
  facet normal 0 1 0
    outer loop
      vertex 0 62 14
      vertex 5 62 19
      vertex 43.2392 62 14
    endloop
  endfacet
  facet normal 0 1 0
    outer loop
      vertex 5 62 19
      vertex 7 62 19
      vertex 43.2392 62 14
    endloop
  endfacet
  facet normal 0 1 0
    outer loop
      vertex 9 62 19
      vertex 7 62 28
      vertex 9 62 28
    endloop
  endfacet
  facet normal 0 1 -0
    outer loop
      vertex 11 62 28
      vertex 13 62 19
      vertex 11 62 19
    endloop
  endfacet
  facet normal 0 1 0
    outer loop
      vertex 7 62 19
      vertex 9 62 19
      vertex 43.2392 62 14
    endloop
  endfacet
  facet normal 0 1 -0
    outer loop
      vertex 15 62 28
      vertex 43.2392 62 14
      vertex 15 62 19
    endloop
  endfacet
  facet normal 0 1 0
    outer loop
      vertex 9 62 19
      vertex 11 62 19
      vertex 43.2392 62 14
    endloop
  endfacet
  facet normal 0 1 0
    outer loop
      vertex 13 62 19
      vertex 11 62 28
      vertex 13 62 28
    endloop
  endfacet
  facet normal 0 1 0
    outer loop
      vertex 11 62 19
      vertex 13 62 19
      vertex 43.2392 62 14
    endloop
  endfacet
  facet normal 0 1 -0
    outer loop
      vertex 7 62 28
      vertex 9 62 19
      vertex 7 62 19
    endloop
  endfacet
  facet normal 0 1 0
    outer loop
      vertex 13 62 19
      vertex 15 62 19
      vertex 43.2392 62 14
    endloop
  endfacet
  facet normal 0 1 0
    outer loop
      vertex 49.3311 62 21.9873
      vertex 15 62 28
      vertex 97.5 62 28
    endloop
  endfacet
  facet normal 0 1 0
    outer loop
      vertex 72.3833 62 14
      vertex 97.5 62 28
      vertex 97.5 62 14
    endloop
  endfacet
  facet normal 0 1 -0
    outer loop
      vertex 72.3954 62 14.0635
      vertex 97.5 62 28
      vertex 72.3833 62 14
    endloop
  endfacet
  facet normal 0 1 -0
    outer loop
      vertex 72.4244 62 14.2154
      vertex 97.5 62 28
      vertex 72.3954 62 14.0635
    endloop
  endfacet
  facet normal 0 1 0
    outer loop
      vertex 72.3627 62 15.1952
      vertex 97.5 62 28
      vertex 72.4244 62 14.2154
    endloop
  endfacet
  facet normal 0 1 0
    outer loop
      vertex 72.353 62 15.3495
      vertex 97.5 62 28
      vertex 72.3627 62 15.1952
    endloop
  endfacet
  facet normal 0 1 0
    outer loop
      vertex 72.0496 62 16.2832
      vertex 97.5 62 28
      vertex 72.353 62 15.3495
    endloop
  endfacet
  facet normal 0 1 0
    outer loop
      vertex 72.0019 62 16.4302
      vertex 97.5 62 28
      vertex 72.0496 62 16.2832
    endloop
  endfacet
  facet normal 0 1 0
    outer loop
      vertex 71.4758 62 17.2591
      vertex 97.5 62 28
      vertex 72.0019 62 16.4302
    endloop
  endfacet
  facet normal 0 1 0
    outer loop
      vertex 54.3431 62 17.0846
      vertex 65.3708 62 18.242
      vertex 65.2354 62 18.1675
    endloop
  endfacet
  facet normal 0 1 0
    outer loop
      vertex 71.393 62 17.3897
      vertex 97.5 62 28
      vertex 71.4758 62 17.2591
    endloop
  endfacet
  facet normal 0 1 0
    outer loop
      vertex 63.3853 62 14.3696
      vertex 54.1478 62 14.3974
      vertex 63.447 62 15.3495
    endloop
  endfacet
  facet normal 0 1 0
    outer loop
      vertex 70.6773 62 18.0617
      vertex 97.5 62 28
      vertex 71.393 62 17.3897
    endloop
  endfacet
  facet normal 0 1 0
    outer loop
      vertex 70.5646 62 18.1675
      vertex 97.5 62 28
      vertex 70.6773 62 18.0617
    endloop
  endfacet
  facet normal 0 1 0
    outer loop
      vertex 69.7043 62 18.6405
      vertex 97.5 62 28
      vertex 70.5646 62 18.1675
    endloop
  endfacet
  facet normal 0 1 0
    outer loop
      vertex 69.5688 62 18.715
      vertex 97.5 62 28
      vertex 69.7043 62 18.6405
    endloop
  endfacet
  facet normal 0 1 0
    outer loop
      vertex 68.6179 62 18.9591
      vertex 97.5 62 28
      vertex 69.5688 62 18.715
    endloop
  endfacet
  facet normal -0 1 0
    outer loop
      vertex 63.8809 62 16.5607
      vertex 54.3827 62 15.6285
      vertex 64.407 62 17.3897
    endloop
  endfacet
  facet normal 0 1 0
    outer loop
      vertex 68.4682 62 18.9976
      vertex 97.5 62 28
      vertex 68.6179 62 18.9591
    endloop
  endfacet
  facet normal 0 1 0
    outer loop
      vertex 67.3318 62 18.9976
      vertex 97.5 62 28
      vertex 68.4682 62 18.9976
    endloop
  endfacet
  facet normal 0 1 0
    outer loop
      vertex 54.3431 62 17.0846
      vertex 67.3318 62 18.9976
      vertex 66.3809 62 18.7534
    endloop
  endfacet
  facet normal 0 1 0
    outer loop
      vertex 54.4218 62 15.8337
      vertex 64.5197 62 17.4955
      vertex 64.407 62 17.3897
    endloop
  endfacet
  facet normal 0 1 0
    outer loop
      vertex 54.3431 62 17.0846
      vertex 66.3809 62 18.7534
      vertex 66.2312 62 18.715
    endloop
  endfacet
  facet normal -0 1 0
    outer loop
      vertex 63.3853 62 14.3696
      vertex 54.0589 62 14.2084
      vertex 54.1478 62 14.3974
    endloop
  endfacet
  facet normal 0 1 0
    outer loop
      vertex 54.3431 62 17.0846
      vertex 66.2312 62 18.715
      vertex 65.3708 62 18.242
    endloop
  endfacet
  facet normal 0 1 0
    outer loop
      vertex 54.3827 62 15.6285
      vertex 63.4947 62 15.4965
      vertex 63.447 62 15.3495
    endloop
  endfacet
  facet normal 0 1 0
    outer loop
      vertex 54.3827 62 15.6285
      vertex 63.7981 62 16.4302
      vertex 63.4947 62 15.4965
    endloop
  endfacet
  facet normal 0 1 -0
    outer loop
      vertex 54.3827 62 15.6285
      vertex 63.447 62 15.3495
      vertex 54.1478 62 14.3974
    endloop
  endfacet
  facet normal 0 1 0
    outer loop
      vertex 54.0589 62 14.2084
      vertex 63.3853 62 14.3696
      vertex 63.3756 62 14.2153
    endloop
  endfacet
  facet normal 0 1 -0
    outer loop
      vertex 54.0589 62 14.2084
      vertex 63.3756 62 14.2153
      vertex 53.9608 62 14
    endloop
  endfacet
  facet normal -0 1 0
    outer loop
      vertex 63.4167 62 14
      vertex 53.9608 62 14
      vertex 63.3756 62 14.2153
    endloop
  endfacet
  facet normal 0 1 0
    outer loop
      vertex 54.3827 62 15.6285
      vertex 63.8809 62 16.5607
      vertex 63.7981 62 16.4302
    endloop
  endfacet
  facet normal 0 1 -0
    outer loop
      vertex 54.4218 62 15.8337
      vertex 64.407 62 17.3897
      vertex 54.3827 62 15.6285
    endloop
  endfacet
  facet normal 0 1 0
    outer loop
      vertex 54.3431 62 17.0846
      vertex 97.5 62 28
      vertex 67.3318 62 18.9976
    endloop
  endfacet
  facet normal 0 1 0
    outer loop
      vertex 47.8689 62 21.9873
      vertex 15 62 28
      vertex 49.3311 62 21.9873
    endloop
  endfacet
  facet normal 0 1 0
    outer loop
      vertex 54.3431 62 17.0846
      vertex 54.33 62 17.2931
      vertex 97.5 62 28
    endloop
  endfacet
  facet normal 0 1 0
    outer loop
      vertex 44.1053 62 19.9183
      vertex 15 62 28
      vertex 44.2576 62 20.0613
    endloop
  endfacet
  facet normal 0 1 0
    outer loop
      vertex 54.33 62 17.2931
      vertex 53.9427 62 18.485
      vertex 97.5 62 28
    endloop
  endfacet
  facet normal 0 1 0
    outer loop
      vertex 53.9427 62 18.485
      vertex 53.8782 62 18.6837
      vertex 97.5 62 28
    endloop
  endfacet
  facet normal 0 1 0
    outer loop
      vertex 44.2576 62 20.0613
      vertex 15 62 28
      vertex 45.1713 62 20.9193
    endloop
  endfacet
  facet normal 0 1 0
    outer loop
      vertex 53.8782 62 18.6837
      vertex 53.2066 62 19.7419
      vertex 97.5 62 28
    endloop
  endfacet
  facet normal 0 1 0
    outer loop
      vertex 53.2066 62 19.7419
      vertex 53.0947 62 19.9183
      vertex 97.5 62 28
    endloop
  endfacet
  facet normal 0 1 0
    outer loop
      vertex 45.3543 62 21.0199
      vertex 15 62 28
      vertex 46.4526 62 21.6237
    endloop
  endfacet
  facet normal 0 1 0
    outer loop
      vertex 53.0947 62 19.9183
      vertex 52.181 62 20.7763
      vertex 97.5 62 28
    endloop
  endfacet
  facet normal 0 1 0
    outer loop
      vertex 52.181 62 20.7763
      vertex 52.0287 62 20.9193
      vertex 97.5 62 28
    endloop
  endfacet
  facet normal 0 1 0
    outer loop
      vertex 46.6549 62 21.6756
      vertex 15 62 28
      vertex 47.8689 62 21.9873
    endloop
  endfacet
  facet normal 0 1 0
    outer loop
      vertex 52.0287 62 20.9193
      vertex 50.9304 62 21.5231
      vertex 97.5 62 28
    endloop
  endfacet
  facet normal 0 1 0
    outer loop
      vertex 50.9304 62 21.5231
      vertex 50.7474 62 21.6237
      vertex 97.5 62 28
    endloop
  endfacet
  facet normal 0 1 0
    outer loop
      vertex 50.7474 62 21.6237
      vertex 49.5334 62 21.9354
      vertex 97.5 62 28
    endloop
  endfacet
  facet normal 0 1 0
    outer loop
      vertex 49.5334 62 21.9354
      vertex 49.3311 62 21.9873
      vertex 97.5 62 28
    endloop
  endfacet
  facet normal 0 1 0
    outer loop
      vertex 46.4526 62 21.6237
      vertex 15 62 28
      vertex 46.6549 62 21.6756
    endloop
  endfacet
  facet normal 0 1 0
    outer loop
      vertex 45.1713 62 20.9193
      vertex 15 62 28
      vertex 45.3543 62 21.0199
    endloop
  endfacet
  facet normal 0 1 0
    outer loop
      vertex 43.4338 62 18.8601
      vertex 15 62 28
      vertex 44.1053 62 19.9183
    endloop
  endfacet
  facet normal 0 1 0
    outer loop
      vertex 43.3218 62 18.6837
      vertex 15 62 28
      vertex 43.4338 62 18.8601
    endloop
  endfacet
  facet normal 0 1 0
    outer loop
      vertex 42.9345 62 17.4917
      vertex 15 62 28
      vertex 43.3218 62 18.6837
    endloop
  endfacet
  facet normal 0 1 0
    outer loop
      vertex 42.87 62 17.2931
      vertex 15 62 28
      vertex 42.9345 62 17.4917
    endloop
  endfacet
  facet normal 0 1 0
    outer loop
      vertex 42.7913 62 16.0422
      vertex 15 62 28
      vertex 42.87 62 17.2931
    endloop
  endfacet
  facet normal 0 1 0
    outer loop
      vertex 42.7782 62 15.8337
      vertex 15 62 28
      vertex 42.7913 62 16.0422
    endloop
  endfacet
  facet normal 0 1 0
    outer loop
      vertex 43.013 62 14.6026
      vertex 15 62 28
      vertex 42.7782 62 15.8337
    endloop
  endfacet
  facet normal 0 1 0
    outer loop
      vertex 43.0522 62 14.3974
      vertex 15 62 28
      vertex 43.013 62 14.6026
    endloop
  endfacet
  facet normal 0 1 0
    outer loop
      vertex 43.2392 62 14
      vertex 15 62 28
      vertex 43.0522 62 14.3974
    endloop
  endfacet
  facet normal 0 1 0
    outer loop
      vertex 5 62 19
      vertex 0 62 28
      vertex 5 62 28
    endloop
  endfacet
  facet normal 0 1 0
    outer loop
      vertex 54.3431 62 17.0846
      vertex 65.2354 62 18.1675
      vertex 64.5197 62 17.4955
    endloop
  endfacet
  facet normal 0 -0 1
    outer loop
      vertex 0 62 28
      vertex 0 0 28
      vertex 5 0 28
    endloop
  endfacet
  facet normal -0 0 1
    outer loop
      vertex 7 9 28
      vertex 0 62 28
      vertex 5 9 28
    endloop
  endfacet
  facet normal -0 0 1
    outer loop
      vertex 5 9 28
      vertex 0 62 28
      vertex 5 0 28
    endloop
  endfacet
  facet normal 0 0 1
    outer loop
      vertex 9 0 28
      vertex 0 62 28
      vertex 7 9 28
    endloop
  endfacet
  facet normal -0 0 1
    outer loop
      vertex 9 0 28
      vertex 7 9 28
      vertex 7 0 28
    endloop
  endfacet
  facet normal -0 0 1
    outer loop
      vertex 9 9 28
      vertex 0 62 28
      vertex 9 0 28
    endloop
  endfacet
  facet normal -0 0 1
    outer loop
      vertex 11 9 28
      vertex 0 62 28
      vertex 9 9 28
    endloop
  endfacet
  facet normal 0 0 1
    outer loop
      vertex 13 0 28
      vertex 0 62 28
      vertex 11 9 28
    endloop
  endfacet
  facet normal -0 0 1
    outer loop
      vertex 13 0 28
      vertex 11 9 28
      vertex 11 0 28
    endloop
  endfacet
  facet normal -0 0 1
    outer loop
      vertex 13 9 28
      vertex 0 62 28
      vertex 13 0 28
    endloop
  endfacet
  facet normal -0 0 1
    outer loop
      vertex 15 9 28
      vertex 0 62 28
      vertex 13 9 28
    endloop
  endfacet
  facet normal -0 -0 1
    outer loop
      vertex 5 53 28
      vertex 0 62 28
      vertex 15 9 28
    endloop
  endfacet
  facet normal -0 0 1
    outer loop
      vertex 91 0 28
      vertex 15 9 28
      vertex 15 0 28
    endloop
  endfacet
  facet normal 0 0 1
    outer loop
      vertex 5 53 28
      vertex 5 62 28
      vertex 0 62 28
    endloop
  endfacet
  facet normal 0 -0 1
    outer loop
      vertex 15 53 28
      vertex 13 53 28
      vertex 91 0 28
    endloop
  endfacet
  facet normal 0 0 1
    outer loop
      vertex 97.5 62 28
      vertex 15 62 28
      vertex 97.5 21 28
    endloop
  endfacet
  facet normal -0 0 1
    outer loop
      vertex 91 21 28
      vertex 15 53 28
      vertex 91 0 28
    endloop
  endfacet
  facet normal 0 0 1
    outer loop
      vertex 91 0 28
      vertex 13 53 28
      vertex 15 9 28
    endloop
  endfacet
  facet normal 0 -0 1
    outer loop
      vertex 13 53 28
      vertex 11 53 28
      vertex 15 9 28
    endloop
  endfacet
  facet normal 0 -0 1
    outer loop
      vertex 11 53 28
      vertex 9 53 28
      vertex 15 9 28
    endloop
  endfacet
  facet normal 0 0 1
    outer loop
      vertex 13 53 28
      vertex 13 62 28
      vertex 11 62 28
    endloop
  endfacet
  facet normal 0 -0 1
    outer loop
      vertex 9 53 28
      vertex 7 53 28
      vertex 15 9 28
    endloop
  endfacet
  facet normal 0 -0 1
    outer loop
      vertex 7 53 28
      vertex 5 53 28
      vertex 15 9 28
    endloop
  endfacet
  facet normal 0 0 1
    outer loop
      vertex 9 53 28
      vertex 9 62 28
      vertex 7 62 28
    endloop
  endfacet
  facet normal 0 -0 1
    outer loop
      vertex 11 62 28
      vertex 11 53 28
      vertex 13 53 28
    endloop
  endfacet
  facet normal 0 -0 1
    outer loop
      vertex 7 62 28
      vertex 7 53 28
      vertex 9 53 28
    endloop
  endfacet
  facet normal 0 0 1
    outer loop
      vertex 15 62 28
      vertex 91 21 28
      vertex 97.5 21 28
    endloop
  endfacet
  facet normal 0 -0 1
    outer loop
      vertex 15 62 28
      vertex 15 53 28
      vertex 91 21 28
    endloop
  endfacet
  facet normal 1 0 0
    outer loop
      vertex 5 9 28
      vertex 5 2 26
      vertex 5 9 26
    endloop
  endfacet
  facet normal 1 0 0
    outer loop
      vertex 5 0 28
      vertex 5 2 26
      vertex 5 9 28
    endloop
  endfacet
  facet normal 1 0 0
    outer loop
      vertex 5 2 19
      vertex 5 2 26
      vertex 5 0 28
    endloop
  endfacet
  facet normal 1 0 0
    outer loop
      vertex 5 0 19
      vertex 5 2 19
      vertex 5 0 28
    endloop
  endfacet
  facet normal 0 0 1
    outer loop
      vertex 7 0 19
      vertex 7 2 19
      vertex 5 2 19
    endloop
  endfacet
  facet normal 0 0 1
    outer loop
      vertex 5 0 19
      vertex 7 0 19
      vertex 5 2 19
    endloop
  endfacet
  facet normal -1 0 0
    outer loop
      vertex 7 9 28
      vertex 7 9 26
      vertex 7 0 28
    endloop
  endfacet
  facet normal -1 0 0
    outer loop
      vertex 7 0 28
      vertex 7 9 26
      vertex 7 2 26
    endloop
  endfacet
  facet normal -1 0 0
    outer loop
      vertex 7 0 28
      vertex 7 2 26
      vertex 7 2 19
    endloop
  endfacet
  facet normal -1 0 0
    outer loop
      vertex 7 0 28
      vertex 7 2 19
      vertex 7 0 19
    endloop
  endfacet
  facet normal 1 0 0
    outer loop
      vertex 9 9 28
      vertex 9 2 26
      vertex 9 9 26
    endloop
  endfacet
  facet normal 1 0 0
    outer loop
      vertex 9 0 28
      vertex 9 2 26
      vertex 9 9 28
    endloop
  endfacet
  facet normal 1 0 0
    outer loop
      vertex 9 2 19
      vertex 9 2 26
      vertex 9 0 28
    endloop
  endfacet
  facet normal 1 0 0
    outer loop
      vertex 9 0 19
      vertex 9 2 19
      vertex 9 0 28
    endloop
  endfacet
  facet normal 0 0 1
    outer loop
      vertex 11 0 19
      vertex 11 2 19
      vertex 9 2 19
    endloop
  endfacet
  facet normal 0 0 1
    outer loop
      vertex 9 0 19
      vertex 11 0 19
      vertex 9 2 19
    endloop
  endfacet
  facet normal -1 0 0
    outer loop
      vertex 11 9 28
      vertex 11 9 26
      vertex 11 0 28
    endloop
  endfacet
  facet normal -1 0 0
    outer loop
      vertex 11 0 28
      vertex 11 9 26
      vertex 11 2 26
    endloop
  endfacet
  facet normal -1 0 0
    outer loop
      vertex 11 0 28
      vertex 11 2 26
      vertex 11 2 19
    endloop
  endfacet
  facet normal -1 0 0
    outer loop
      vertex 11 0 28
      vertex 11 2 19
      vertex 11 0 19
    endloop
  endfacet
  facet normal 1 0 0
    outer loop
      vertex 13 9 28
      vertex 13 2 26
      vertex 13 9 26
    endloop
  endfacet
  facet normal 1 0 0
    outer loop
      vertex 13 0 28
      vertex 13 2 26
      vertex 13 9 28
    endloop
  endfacet
  facet normal 1 0 0
    outer loop
      vertex 13 2 19
      vertex 13 2 26
      vertex 13 0 28
    endloop
  endfacet
  facet normal 1 0 0
    outer loop
      vertex 13 0 19
      vertex 13 2 19
      vertex 13 0 28
    endloop
  endfacet
  facet normal 0 0 1
    outer loop
      vertex 15 0 19
      vertex 15 2 19
      vertex 13 2 19
    endloop
  endfacet
  facet normal 0 0 1
    outer loop
      vertex 13 0 19
      vertex 15 0 19
      vertex 13 2 19
    endloop
  endfacet
  facet normal -1 0 0
    outer loop
      vertex 15 9 28
      vertex 15 9 26
      vertex 15 0 28
    endloop
  endfacet
  facet normal -1 0 0
    outer loop
      vertex 15 0 28
      vertex 15 9 26
      vertex 15 2 26
    endloop
  endfacet
  facet normal -1 0 0
    outer loop
      vertex 15 0 28
      vertex 15 2 26
      vertex 15 2 19
    endloop
  endfacet
  facet normal -1 0 0
    outer loop
      vertex 15 0 28
      vertex 15 2 19
      vertex 15 0 19
    endloop
  endfacet
  facet normal 1 0 0
    outer loop
      vertex 91 21 28
      vertex 91 5 20
      vertex 91 19 20
    endloop
  endfacet
  facet normal 1 0 0
    outer loop
      vertex 91 5 14
      vertex 91 5 20
      vertex 91 0 28
    endloop
  endfacet
  facet normal 1 0 0
    outer loop
      vertex 91 19 14
      vertex 91 21 14
      vertex 91 19 20
    endloop
  endfacet
  facet normal 1 0 0
    outer loop
      vertex 91 21 14
      vertex 91 21 28
      vertex 91 19 20
    endloop
  endfacet
  facet normal 1 0 0
    outer loop
      vertex 91 21 28
      vertex 91 0 28
      vertex 91 5 20
    endloop
  endfacet
  facet normal 1 0 -0
    outer loop
      vertex 91 0 28
      vertex 91 0 14
      vertex 91 5 14
    endloop
  endfacet
  facet normal -0 -0 -1
    outer loop
      vertex 55.4 0 14
      vertex 55.4 2 14
      vertex 91 0 14
    endloop
  endfacet
  facet normal 0 0 -1
    outer loop
      vertex 91 0 14
      vertex 55.4 2 14
      vertex 68 2 14
    endloop
  endfacet
  facet normal 0 0 -1
    outer loop
      vertex 91 0 14
      vertex 68 2 14
      vertex 88 2 14
    endloop
  endfacet
  facet normal 0 0 -1
    outer loop
      vertex 91 0 14
      vertex 88 2 14
      vertex 89 2 14
    endloop
  endfacet
  facet normal 0 0 -1
    outer loop
      vertex 91 0 14
      vertex 89 2 14
      vertex 89 5 14
    endloop
  endfacet
  facet normal 0 0 -1
    outer loop
      vertex 91 0 14
      vertex 89 5 14
      vertex 91 5 14
    endloop
  endfacet
  facet normal -1 0 0
    outer loop
      vertex 55.4 2 14.5
      vertex 55.4 2 14
      vertex 55.4 0 14.5
    endloop
  endfacet
  facet normal -1 0 0
    outer loop
      vertex 55.4 0 14.5
      vertex 55.4 2 14
      vertex 55.4 0 14
    endloop
  endfacet
  facet normal 0 0 -1
    outer loop
      vertex 55.4 2 14.5
      vertex 55.4 0 14.5
      vertex 40.4 2 14.5
    endloop
  endfacet
  facet normal 0 0 -1
    outer loop
      vertex 40.4 2 14.5
      vertex 55.4 0 14.5
      vertex 40.4 0 14.5
    endloop
  endfacet
  facet normal 1 0 0
    outer loop
      vertex 40.4 2 14
      vertex 40.4 2 14.5
      vertex 40.4 0 14.5
    endloop
  endfacet
  facet normal 1 0 0
    outer loop
      vertex 40.4 0 14
      vertex 40.4 2 14
      vertex 40.4 0 14.5
    endloop
  endfacet
  facet normal 0 1 0
    outer loop
      vertex 68 2 26
      vertex 68 2 14
      vertex 38 2 26
    endloop
  endfacet
  facet normal 0 1 -0
    outer loop
      vertex 55.4 2 14.5
      vertex 68 2 14
      vertex 55.4 2 14
    endloop
  endfacet
  facet normal 0 1 0
    outer loop
      vertex 38 2 26
      vertex 68 2 14
      vertex 55.4 2 14.5
    endloop
  endfacet
  facet normal 0 1 0
    outer loop
      vertex 38 2 26
      vertex 40.4 2 14.5
      vertex 40.4 2 14
    endloop
  endfacet
  facet normal 0 1 -0
    outer loop
      vertex 38 2 26
      vertex 40.4 2 14
      vertex 38 2 14
    endloop
  endfacet
  facet normal 0 1 0
    outer loop
      vertex 40.4 2 14.5
      vertex 38 2 26
      vertex 55.4 2 14.5
    endloop
  endfacet
  facet normal 1 0 -0
    outer loop
      vertex 38 2 14
      vertex 38 2 9
      vertex 38 4 9
    endloop
  endfacet
  facet normal 1 0 -0
    outer loop
      vertex 38 2 26
      vertex 38 2 14
      vertex 38 4 26
    endloop
  endfacet
  facet normal 1 0 0
    outer loop
      vertex 38 4 26
      vertex 38 2 14
      vertex 38 4 9
    endloop
  endfacet
  facet normal 0 -1 0
    outer loop
      vertex 18 2 14
      vertex 18 2 9
      vertex 38 2 9
    endloop
  endfacet
  facet normal 0 -1 0
    outer loop
      vertex 38 2 14
      vertex 18 2 14
      vertex 38 2 9
    endloop
  endfacet
  facet normal -1 -0 -0
    outer loop
      vertex 18 2 9
      vertex 18 2 14
      vertex 18 4 9
    endloop
  endfacet
  facet normal -1 0 0
    outer loop
      vertex 18 4 9
      vertex 18 2 14
      vertex 18 2 26
    endloop
  endfacet
  facet normal -1 0 0
    outer loop
      vertex 18 4 9
      vertex 18 2 26
      vertex 18 4 26
    endloop
  endfacet
  facet normal 0 1 0
    outer loop
      vertex 5 2 26
      vertex 5 2 19
      vertex 2 2 26
    endloop
  endfacet
  facet normal 0 1 0
    outer loop
      vertex 2 2 14
      vertex 5 2 19
      vertex 18 2 14
    endloop
  endfacet
  facet normal 0 1 0
    outer loop
      vertex 9 2 26
      vertex 7 2 19
      vertex 7 2 26
    endloop
  endfacet
  facet normal -0 1 0
    outer loop
      vertex 9 2 19
      vertex 7 2 19
      vertex 9 2 26
    endloop
  endfacet
  facet normal 0 1 0
    outer loop
      vertex 5 2 19
      vertex 7 2 19
      vertex 18 2 14
    endloop
  endfacet
  facet normal 0 1 0
    outer loop
      vertex 7 2 19
      vertex 9 2 19
      vertex 18 2 14
    endloop
  endfacet
  facet normal 0 1 0
    outer loop
      vertex 13 2 26
      vertex 11 2 19
      vertex 11 2 26
    endloop
  endfacet
  facet normal -0 1 0
    outer loop
      vertex 13 2 19
      vertex 11 2 19
      vertex 13 2 26
    endloop
  endfacet
  facet normal 0 1 0
    outer loop
      vertex 9 2 19
      vertex 11 2 19
      vertex 18 2 14
    endloop
  endfacet
  facet normal 0 1 0
    outer loop
      vertex 11 2 19
      vertex 13 2 19
      vertex 18 2 14
    endloop
  endfacet
  facet normal 0 1 0
    outer loop
      vertex 18 2 26
      vertex 15 2 19
      vertex 15 2 26
    endloop
  endfacet
  facet normal 0 1 0
    outer loop
      vertex 18 2 14
      vertex 15 2 19
      vertex 18 2 26
    endloop
  endfacet
  facet normal 0 1 0
    outer loop
      vertex 13 2 19
      vertex 15 2 19
      vertex 18 2 14
    endloop
  endfacet
  facet normal 0 1 -0
    outer loop
      vertex 2 2 26
      vertex 5 2 19
      vertex 2 2 14
    endloop
  endfacet
  facet normal 1 0 0
    outer loop
      vertex 2 20 14
      vertex 2 20 26
      vertex 2 2 26
    endloop
  endfacet
  facet normal 1 0 0
    outer loop
      vertex 2 2 14
      vertex 2 20 14
      vertex 2 2 26
    endloop
  endfacet
  facet normal 0 -1 0
    outer loop
      vertex 2 20 14
      vertex 2 20 9
      vertex 4 20 9
    endloop
  endfacet
  facet normal 0 -1 0
    outer loop
      vertex 2 20 26
      vertex 2 20 14
      vertex 4 20 26
    endloop
  endfacet
  facet normal 0 -1 0
    outer loop
      vertex 4 20 26
      vertex 2 20 14
      vertex 4 20 9
    endloop
  endfacet
  facet normal -1 -0 -0
    outer loop
      vertex 2 20 9
      vertex 2 20 14
      vertex 2 40 9
    endloop
  endfacet
  facet normal -1 0 0
    outer loop
      vertex 2 40 9
      vertex 2 20 14
      vertex 2 40 14
    endloop
  endfacet
  facet normal 0 1 0
    outer loop
      vertex 2 40 9
      vertex 2 40 14
      vertex 4 40 9
    endloop
  endfacet
  facet normal 0 1 0
    outer loop
      vertex 4 40 9
      vertex 2 40 14
      vertex 2 40 26
    endloop
  endfacet
  facet normal 0 1 0
    outer loop
      vertex 4 40 9
      vertex 2 40 26
      vertex 4 40 26
    endloop
  endfacet
  facet normal 1 0 0
    outer loop
      vertex 2 60 14
      vertex 2 60 26
      vertex 2 40 26
    endloop
  endfacet
  facet normal 1 0 0
    outer loop
      vertex 2 40 14
      vertex 2 60 14
      vertex 2 40 26
    endloop
  endfacet
  facet normal 0 -1 0
    outer loop
      vertex 18 60 14
      vertex 18 60 26
      vertex 15 60 26
    endloop
  endfacet
  facet normal 0 -1 0
    outer loop
      vertex 13 60 19
      vertex 18 60 14
      vertex 15 60 19
    endloop
  endfacet
  facet normal -0 -1 -0
    outer loop
      vertex 15 60 19
      vertex 18 60 14
      vertex 15 60 26
    endloop
  endfacet
  facet normal 0 -1 0
    outer loop
      vertex 11 60 19
      vertex 18 60 14
      vertex 13 60 19
    endloop
  endfacet
  facet normal 0 -1 0
    outer loop
      vertex 11 60 26
      vertex 13 60 19
      vertex 13 60 26
    endloop
  endfacet
  facet normal -0 -1 -0
    outer loop
      vertex 11 60 19
      vertex 13 60 19
      vertex 11 60 26
    endloop
  endfacet
  facet normal 0 -1 0
    outer loop
      vertex 9 60 19
      vertex 18 60 14
      vertex 11 60 19
    endloop
  endfacet
  facet normal 0 -1 0
    outer loop
      vertex 7 60 19
      vertex 18 60 14
      vertex 9 60 19
    endloop
  endfacet
  facet normal 0 -1 0
    outer loop
      vertex 7 60 26
      vertex 9 60 19
      vertex 9 60 26
    endloop
  endfacet
  facet normal -0 -1 -0
    outer loop
      vertex 7 60 19
      vertex 9 60 19
      vertex 7 60 26
    endloop
  endfacet
  facet normal 0 -1 0
    outer loop
      vertex 5 60 19
      vertex 18 60 14
      vertex 7 60 19
    endloop
  endfacet
  facet normal -0 -1 0
    outer loop
      vertex 2 60 14
      vertex 18 60 14
      vertex 5 60 19
    endloop
  endfacet
  facet normal 0 -1 0
    outer loop
      vertex 2 60 26
      vertex 5 60 19
      vertex 5 60 26
    endloop
  endfacet
  facet normal 0 -1 -0
    outer loop
      vertex 2 60 14
      vertex 5 60 19
      vertex 2 60 26
    endloop
  endfacet
  facet normal -1 -0 -0
    outer loop
      vertex 18 58 9
      vertex 18 58 26
      vertex 18 60 9
    endloop
  endfacet
  facet normal -1 0 0
    outer loop
      vertex 18 60 14
      vertex 18 58 26
      vertex 18 60 26
    endloop
  endfacet
  facet normal -1 0 0
    outer loop
      vertex 18 60 9
      vertex 18 58 26
      vertex 18 60 14
    endloop
  endfacet
  facet normal 0 1 0
    outer loop
      vertex 38 60 14
      vertex 38 60 9
      vertex 18 60 14
    endloop
  endfacet
  facet normal 0 1 -0
    outer loop
      vertex 18 60 14
      vertex 38 60 9
      vertex 18 60 9
    endloop
  endfacet
  facet normal 1 0 -0
    outer loop
      vertex 38 58 26
      vertex 38 58 9
      vertex 38 60 9
    endloop
  endfacet
  facet normal 1 0 0
    outer loop
      vertex 38 60 26
      vertex 38 58 26
      vertex 38 60 14
    endloop
  endfacet
  facet normal 1 -0 0
    outer loop
      vertex 38 60 14
      vertex 38 58 26
      vertex 38 60 9
    endloop
  endfacet
  facet normal 0 -1 0
    outer loop
      vertex 38 60 26
      vertex 43.7929 60 14.3766
      vertex 43.6862 60 14.6034
    endloop
  endfacet
  facet normal 0 -1 0
    outer loop
      vertex 43.4435 60 15.8756
      vertex 38 60 26
      vertex 43.4905 60 15.6294
    endloop
  endfacet
  facet normal 0 -1 0
    outer loop
      vertex 43.4905 60 15.6294
      vertex 38 60 26
      vertex 43.6862 60 14.6034
    endloop
  endfacet
  facet normal 0 -1 0
    outer loop
      vertex 43.9702 60 14
      vertex 43.7929 60 14.3766
      vertex 38 60 26
    endloop
  endfacet
  facet normal 0 -2.45765e-07 -0
    outer loop
      vertex 43.5091 60 16.918
      vertex 43.5248 60 17.1681
      vertex 43.4435 60 15.8756
    endloop
  endfacet
  facet normal 0 -1 0
    outer loop
      vertex 43.5248 60 17.1681
      vertex 38 60 26
      vertex 43.4435 60 15.8756
    endloop
  endfacet
  facet normal 0 -1 0
    outer loop
      vertex 43.8476 60 18.1615
      vertex 38 60 26
      vertex 43.5248 60 17.1681
    endloop
  endfacet
  facet normal 0 -1 0
    outer loop
      vertex 43.9251 60 18.3999
      vertex 38 60 26
      vertex 43.8476 60 18.1615
    endloop
  endfacet
  facet normal 0 -1 0
    outer loop
      vertex 44.4847 60 19.2817
      vertex 38 60 26
      vertex 43.9251 60 18.3999
    endloop
  endfacet
  facet normal 0 -1 0
    outer loop
      vertex 44.619 60 19.4934
      vertex 38 60 26
      vertex 44.4847 60 19.2817
    endloop
  endfacet
  facet normal 0 -2.05565e-07 -0
    outer loop
      vertex 45.3804 60 20.2083
      vertex 45.5631 60 20.3799
      vertex 44.619 60 19.4934
    endloop
  endfacet
  facet normal 0 -1 0
    outer loop
      vertex 45.5631 60 20.3799
      vertex 38 60 26
      vertex 44.619 60 19.4934
    endloop
  endfacet
  facet normal 0 -1 0
    outer loop
      vertex 46.4784 60 20.8831
      vertex 38 60 26
      vertex 45.5631 60 20.3799
    endloop
  endfacet
  facet normal 0 -1 0
    outer loop
      vertex 46.698 60 21.0038
      vertex 38 60 26
      vertex 46.4784 60 20.8831
    endloop
  endfacet
  facet normal 0 -1 0
    outer loop
      vertex 47.7097 60 21.2636
      vertex 38 60 26
      vertex 46.698 60 21.0038
    endloop
  endfacet
  facet normal 0 -1 0
    outer loop
      vertex 47.9524 60 21.3259
      vertex 38 60 26
      vertex 47.7097 60 21.2636
    endloop
  endfacet
  facet normal 0 -1 -0
    outer loop
      vertex 49.2476 60 21.3259
      vertex 75 60 26
      vertex 47.9524 60 21.3259
    endloop
  endfacet
  facet normal -0 -2.1373e-07 -0
    outer loop
      vertex 50.2592 60 21.0662
      vertex 50.502 60 21.0038
      vertex 49.2476 60 21.3259
    endloop
  endfacet
  facet normal -0 -1 -0
    outer loop
      vertex 50.502 60 21.0038
      vertex 65.4841 60 17.4938
      vertex 49.2476 60 21.3259
    endloop
  endfacet
  facet normal -0 -3.08943e-08 -0
    outer loop
      vertex 51.4172 60 20.5007
      vertex 51.6369 60 20.3799
      vertex 50.502 60 21.0038
    endloop
  endfacet
  facet normal -0 -1 -0
    outer loop
      vertex 51.6369 60 20.3799
      vertex 64.09 60 14
      vertex 50.502 60 21.0038
    endloop
  endfacet
  facet normal -0 -1 -0
    outer loop
      vertex 52.3983 60 19.665
      vertex 64.09 60 14
      vertex 51.6369 60 20.3799
    endloop
  endfacet
  facet normal -0 -1 -0
    outer loop
      vertex 52.581 60 19.4934
      vertex 64.09 60 14
      vertex 52.3983 60 19.665
    endloop
  endfacet
  facet normal -0 -1.33751e-07 -0
    outer loop
      vertex 53.1406 60 18.6115
      vertex 53.2749 60 18.3999
      vertex 52.581 60 19.4934
    endloop
  endfacet
  facet normal -0 -1 -0
    outer loop
      vertex 53.2749 60 18.3999
      vertex 64.09 60 14
      vertex 52.581 60 19.4934
    endloop
  endfacet
  facet normal -0 -6.88087e-08 -0
    outer loop
      vertex 53.5977 60 17.4065
      vertex 53.6752 60 17.1681
      vertex 53.2749 60 18.3999
    endloop
  endfacet
  facet normal -0 -1 -0
    outer loop
      vertex 53.6752 60 17.1681
      vertex 64.09 60 14
      vertex 53.2749 60 18.3999
    endloop
  endfacet
  facet normal -0 -1 -0
    outer loop
      vertex 53.7407 60 16.1258
      vertex 64.09 60 14
      vertex 53.6752 60 17.1681
    endloop
  endfacet
  facet normal -0 -1 -0
    outer loop
      vertex 53.7565 60 15.8756
      vertex 64.09 60 14
      vertex 53.7407 60 16.1258
    endloop
  endfacet
  facet normal -0 -5.10841e-08 0
    outer loop
      vertex 53.5608 60 14.8496
      vertex 53.5138 60 14.6034
      vertex 53.7565 60 15.8756
    endloop
  endfacet
  facet normal -0 -1 0
    outer loop
      vertex 53.5138 60 14.6034
      vertex 64.09 60 14
      vertex 53.7565 60 15.8756
    endloop
  endfacet
  facet normal 0 -1 0
    outer loop
      vertex 64.0778 60 14.0643
      vertex 64.041 60 14.2572
      vertex 50.502 60 21.0038
    endloop
  endfacet
  facet normal -0 -1 0
    outer loop
      vertex 53.2298 60 14
      vertex 64.09 60 14
      vertex 53.5138 60 14.6034
    endloop
  endfacet
  facet normal 0 -1 0
    outer loop
      vertex 64.09 60 14
      vertex 64.0778 60 14.0643
      vertex 50.502 60 21.0038
    endloop
  endfacet
  facet normal 0 -1 -0
    outer loop
      vertex 64.041 60 14.2572
      vertex 64.0895 60 15.0286
      vertex 50.502 60 21.0038
    endloop
  endfacet
  facet normal 0 -1 -0
    outer loop
      vertex 64.0895 60 15.0286
      vertex 64.1018 60 15.2245
      vertex 50.502 60 21.0038
    endloop
  endfacet
  facet normal 0 -1 -0
    outer loop
      vertex 64.1018 60 15.2245
      vertex 64.3407 60 15.9596
      vertex 50.502 60 21.0038
    endloop
  endfacet
  facet normal 0 -1 -0
    outer loop
      vertex 64.4013 60 16.1463
      vertex 64.8155 60 16.7989
      vertex 50.502 60 21.0038
    endloop
  endfacet
  facet normal 0 -1 -0
    outer loop
      vertex 64.8155 60 16.7989
      vertex 64.9207 60 16.9647
      vertex 50.502 60 21.0038
    endloop
  endfacet
  facet normal 0 -1 -0
    outer loop
      vertex 64.3407 60 15.9596
      vertex 64.4013 60 16.1463
      vertex 50.502 60 21.0038
    endloop
  endfacet
  facet normal 0 -1 -0
    outer loop
      vertex 64.9207 60 16.9647
      vertex 65.4841 60 17.4938
      vertex 50.502 60 21.0038
    endloop
  endfacet
  facet normal 0 -1 -0
    outer loop
      vertex 65.6272 60 17.6282
      vertex 66.3045 60 18.0005
      vertex 49.2476 60 21.3259
    endloop
  endfacet
  facet normal 0 -1 -0
    outer loop
      vertex 66.3045 60 18.0005
      vertex 66.4766 60 18.0951
      vertex 49.2476 60 21.3259
    endloop
  endfacet
  facet normal 0 -1 -0
    outer loop
      vertex 65.4841 60 17.4938
      vertex 65.6272 60 17.6282
      vertex 49.2476 60 21.3259
    endloop
  endfacet
  facet normal 0 -1 -0
    outer loop
      vertex 66.4766 60 18.0951
      vertex 67.2252 60 18.2873
      vertex 49.2476 60 21.3259
    endloop
  endfacet
  facet normal -0 -1 -0
    outer loop
      vertex 67.4154 60 18.3362
      vertex 68.3846 60 18.3362
      vertex 49.2476 60 21.3259
    endloop
  endfacet
  facet normal 0 -1 -0
    outer loop
      vertex 68.3846 60 18.3362
      vertex 75 60 26
      vertex 49.2476 60 21.3259
    endloop
  endfacet
  facet normal 0 -1 -0
    outer loop
      vertex 67.2252 60 18.2873
      vertex 67.4154 60 18.3362
      vertex 49.2476 60 21.3259
    endloop
  endfacet
  facet normal 0 -1 -0
    outer loop
      vertex 69.1332 60 18.144
      vertex 75 60 26
      vertex 68.3846 60 18.3362
    endloop
  endfacet
  facet normal 0 -1 -0
    outer loop
      vertex 69.3234 60 18.0951
      vertex 75 60 26
      vertex 69.1332 60 18.144
    endloop
  endfacet
  facet normal -0 -3.10505e-07 -0
    outer loop
      vertex 70.0007 60 17.7228
      vertex 70.1728 60 17.6282
      vertex 69.3234 60 18.0951
    endloop
  endfacet
  facet normal 0 -1 -0
    outer loop
      vertex 70.1728 60 17.6282
      vertex 75 60 26
      vertex 69.3234 60 18.0951
    endloop
  endfacet
  facet normal -0 -1 -0
    outer loop
      vertex 70.7362 60 17.0991
      vertex 75 60 14
      vertex 70.1728 60 17.6282
    endloop
  endfacet
  facet normal -0 -1 -0
    outer loop
      vertex 70.8793 60 16.9647
      vertex 75 60 14
      vertex 70.7362 60 17.0991
    endloop
  endfacet
  facet normal -0 -1.954e-07 -0
    outer loop
      vertex 71.2935 60 16.3121
      vertex 71.3987 60 16.1463
      vertex 70.8793 60 16.9647
    endloop
  endfacet
  facet normal -0 -1 -0
    outer loop
      vertex 71.3987 60 16.1463
      vertex 75 60 14
      vertex 70.8793 60 16.9647
    endloop
  endfacet
  facet normal -0 -1 -0
    outer loop
      vertex 71.6375 60 15.4113
      vertex 75 60 14
      vertex 71.3987 60 16.1463
    endloop
  endfacet
  facet normal -0 -1 -0
    outer loop
      vertex 71.6982 60 15.2245
      vertex 75 60 14
      vertex 71.6375 60 15.4113
    endloop
  endfacet
  facet normal -0 -1.28918e-07 -0
    outer loop
      vertex 71.7467 60 14.4532
      vertex 71.759 60 14.2572
      vertex 71.6982 60 15.2245
    endloop
  endfacet
  facet normal -0 -1 -0
    outer loop
      vertex 71.759 60 14.2572
      vertex 75 60 14
      vertex 71.6982 60 15.2245
    endloop
  endfacet
  facet normal -0 -1 0
    outer loop
      vertex 71.71 60 14
      vertex 75 60 14
      vertex 71.759 60 14.2572
    endloop
  endfacet
  facet normal 0 -1 0
    outer loop
      vertex 75 60 14
      vertex 75 60 26
      vertex 70.1728 60 17.6282
    endloop
  endfacet
  facet normal 0 -1 0
    outer loop
      vertex 75 60 26
      vertex 38 60 26
      vertex 47.9524 60 21.3259
    endloop
  endfacet
  facet normal 0 -1 0
    outer loop
      vertex 38 60 26
      vertex 38 60 14
      vertex 43.9702 60 14
    endloop
  endfacet
  facet normal 0.859069 0.313981 0.404247
    outer loop
      vertex 43.7929 60 14.3766
      vertex 43.9702 60 14
      vertex 43.7229 60.6766 14
    endloop
  endfacet
  facet normal 0.859069 0.313981 0.404247
    outer loop
      vertex 43.6862 60 14.6034
      vertex 43.7929 60 14.3766
      vertex 43.7229 60.6766 14
    endloop
  endfacet
  facet normal 0.859069 0.313981 0.404247
    outer loop
      vertex 43.0522 62 14.3974
      vertex 43.6862 60 14.6034
      vertex 43.2392 62 14
    endloop
  endfacet
  facet normal 0.859069 0.313981 0.404247
    outer loop
      vertex 43.2392 62 14
      vertex 43.6862 60 14.6034
      vertex 43.7229 60.6766 14
    endloop
  endfacet
  facet normal 0.932612 0.313981 0.177905
    outer loop
      vertex 43.4905 60 15.6294
      vertex 43.6862 60 14.6034
      vertex 43.0522 62 14.3974
    endloop
  endfacet
  facet normal 0.932612 0.313981 0.177905
    outer loop
      vertex 43.013 62 14.6026
      vertex 43.4905 60 15.6294
      vertex 43.0522 62 14.3974
    endloop
  endfacet
  facet normal 0.932612 0.313981 0.177905
    outer loop
      vertex 43.4435 60 15.8756
      vertex 43.4905 60 15.6294
      vertex 43.013 62 14.6026
    endloop
  endfacet
  facet normal 0.932612 0.313981 0.177905
    outer loop
      vertex 42.7782 62 15.8337
      vertex 43.4435 60 15.8756
      vertex 43.013 62 14.6026
    endloop
  endfacet
  facet normal 0.947556 0.313981 -0.0596156
    outer loop
      vertex 42.7913 62 16.0422
      vertex 43.5091 60 16.918
      vertex 43.4435 60 15.8756
    endloop
  endfacet
  facet normal 0.947556 0.313981 -0.0596156
    outer loop
      vertex 42.7782 62 15.8337
      vertex 42.7913 62 16.0422
      vertex 43.4435 60 15.8756
    endloop
  endfacet
  facet normal 0.947556 0.313981 -0.0596146
    outer loop
      vertex 42.87 62 17.2931
      vertex 43.5248 60 17.1681
      vertex 43.5091 60 16.918
    endloop
  endfacet
  facet normal 0.947556 0.313981 -0.0596146
    outer loop
      vertex 42.7913 62 16.0422
      vertex 42.87 62 17.2931
      vertex 43.5091 60 16.918
    endloop
  endfacet
  facet normal 0.902961 0.313981 -0.29339
    outer loop
      vertex 42.9345 62 17.4917
      vertex 43.8476 60 18.1615
      vertex 43.5248 60 17.1681
    endloop
  endfacet
  facet normal 0.902961 0.313981 -0.29339
    outer loop
      vertex 42.87 62 17.2931
      vertex 42.9345 62 17.4917
      vertex 43.5248 60 17.1681
    endloop
  endfacet
  facet normal 0.902961 0.313981 -0.29339
    outer loop
      vertex 43.3218 62 18.6837
      vertex 43.9251 60 18.3999
      vertex 43.8476 60 18.1615
    endloop
  endfacet
  facet normal 0.902961 0.313981 -0.29339
    outer loop
      vertex 42.9345 62 17.4917
      vertex 43.3218 62 18.6837
      vertex 43.8476 60 18.1615
    endloop
  endfacet
  facet normal 0.80163 0.313981 -0.508729
    outer loop
      vertex 43.4338 62 18.8601
      vertex 44.4847 60 19.2817
      vertex 43.9251 60 18.3999
    endloop
  endfacet
  facet normal 0.80163 0.313981 -0.508729
    outer loop
      vertex 43.3218 62 18.6837
      vertex 43.4338 62 18.8601
      vertex 43.9251 60 18.3999
    endloop
  endfacet
  facet normal 0.80163 0.313981 -0.50873
    outer loop
      vertex 44.1053 62 19.9183
      vertex 44.619 60 19.4934
      vertex 44.4847 60 19.2817
    endloop
  endfacet
  facet normal 0.80163 0.313981 -0.50873
    outer loop
      vertex 43.4338 62 18.8601
      vertex 44.1053 62 19.9183
      vertex 44.4847 60 19.2817
    endloop
  endfacet
  facet normal 0.649929 0.313981 -0.692104
    outer loop
      vertex 45.3804 60 20.2083
      vertex 44.619 60 19.4934
      vertex 44.2576 62 20.0613
    endloop
  endfacet
  facet normal 0.649929 0.313981 -0.692104
    outer loop
      vertex 44.2576 62 20.0613
      vertex 44.619 60 19.4934
      vertex 44.1053 62 19.9183
    endloop
  endfacet
  facet normal 0.649929 0.313981 -0.692104
    outer loop
      vertex 45.5631 60 20.3799
      vertex 45.3804 60 20.2083
      vertex 45.1713 62 20.9193
    endloop
  endfacet
  facet normal 0.649929 0.313981 -0.692104
    outer loop
      vertex 45.1713 62 20.9193
      vertex 45.3804 60 20.2083
      vertex 44.2576 62 20.0613
    endloop
  endfacet
  facet normal 0.457391 0.313981 -0.831991
    outer loop
      vertex 46.4784 60 20.8831
      vertex 45.5631 60 20.3799
      vertex 45.3543 62 21.0199
    endloop
  endfacet
  facet normal 0.457391 0.313981 -0.831991
    outer loop
      vertex 45.3543 62 21.0199
      vertex 45.5631 60 20.3799
      vertex 45.1713 62 20.9193
    endloop
  endfacet
  facet normal 0.457391 0.313981 -0.831991
    outer loop
      vertex 46.698 60 21.0038
      vertex 46.4784 60 20.8831
      vertex 46.4526 62 21.6237
    endloop
  endfacet
  facet normal 0.457391 0.313981 -0.831991
    outer loop
      vertex 46.4526 62 21.6237
      vertex 46.4784 60 20.8831
      vertex 45.3543 62 21.0199
    endloop
  endfacet
  facet normal 0.236114 0.313981 -0.919601
    outer loop
      vertex 47.7097 60 21.2636
      vertex 46.698 60 21.0038
      vertex 46.6549 62 21.6756
    endloop
  endfacet
  facet normal 0.236114 0.313981 -0.919601
    outer loop
      vertex 46.6549 62 21.6756
      vertex 46.698 60 21.0038
      vertex 46.4526 62 21.6237
    endloop
  endfacet
  facet normal 0.236113 0.313981 -0.919601
    outer loop
      vertex 47.9524 60 21.3259
      vertex 47.7097 60 21.2636
      vertex 47.8689 62 21.9873
    endloop
  endfacet
  facet normal 0.236113 0.313981 -0.919601
    outer loop
      vertex 47.8689 62 21.9873
      vertex 47.7097 60 21.2636
      vertex 46.6549 62 21.6756
    endloop
  endfacet
  facet normal 0 0.313981 -0.949429
    outer loop
      vertex 49.2476 60 21.3259
      vertex 47.9524 60 21.3259
      vertex 49.3311 62 21.9873
    endloop
  endfacet
  facet normal 0 0.313981 -0.949429
    outer loop
      vertex 49.3311 62 21.9873
      vertex 47.9524 60 21.3259
      vertex 47.8689 62 21.9873
    endloop
  endfacet
  facet normal -0.236114 0.313981 -0.919601
    outer loop
      vertex 49.5334 62 21.9354
      vertex 50.2592 60 21.0662
      vertex 49.3311 62 21.9873
    endloop
  endfacet
  facet normal -0.236114 0.313981 -0.919601
    outer loop
      vertex 49.3311 62 21.9873
      vertex 50.2592 60 21.0662
      vertex 49.2476 60 21.3259
    endloop
  endfacet
  facet normal -0.236113 0.313981 -0.919601
    outer loop
      vertex 50.502 60 21.0038
      vertex 50.2592 60 21.0662
      vertex 50.7474 62 21.6237
    endloop
  endfacet
  facet normal -0.236113 0.313981 -0.919601
    outer loop
      vertex 50.7474 62 21.6237
      vertex 50.2592 60 21.0662
      vertex 49.5334 62 21.9354
    endloop
  endfacet
  facet normal -0.457391 0.313981 -0.831991
    outer loop
      vertex 50.9304 62 21.5231
      vertex 51.4172 60 20.5007
      vertex 50.7474 62 21.6237
    endloop
  endfacet
  facet normal -0.457391 0.313981 -0.831991
    outer loop
      vertex 50.7474 62 21.6237
      vertex 51.4172 60 20.5007
      vertex 50.502 60 21.0038
    endloop
  endfacet
  facet normal -0.457391 0.313981 -0.831991
    outer loop
      vertex 51.6369 60 20.3799
      vertex 51.4172 60 20.5007
      vertex 52.0287 62 20.9193
    endloop
  endfacet
  facet normal -0.457391 0.313981 -0.831991
    outer loop
      vertex 52.0287 62 20.9193
      vertex 51.4172 60 20.5007
      vertex 50.9304 62 21.5231
    endloop
  endfacet
  facet normal -0.649929 0.313981 -0.692104
    outer loop
      vertex 52.181 62 20.7763
      vertex 52.3983 60 19.665
      vertex 52.0287 62 20.9193
    endloop
  endfacet
  facet normal -0.649929 0.313981 -0.692104
    outer loop
      vertex 52.0287 62 20.9193
      vertex 52.3983 60 19.665
      vertex 51.6369 60 20.3799
    endloop
  endfacet
  facet normal -0.649929 0.313981 -0.692104
    outer loop
      vertex 52.581 60 19.4934
      vertex 52.3983 60 19.665
      vertex 53.0947 62 19.9183
    endloop
  endfacet
  facet normal -0.649929 0.313981 -0.692104
    outer loop
      vertex 53.0947 62 19.9183
      vertex 52.3983 60 19.665
      vertex 52.181 62 20.7763
    endloop
  endfacet
  facet normal -0.80163 0.313981 -0.508729
    outer loop
      vertex 53.2066 62 19.7419
      vertex 53.1406 60 18.6115
      vertex 53.0947 62 19.9183
    endloop
  endfacet
  facet normal -0.80163 0.313981 -0.508729
    outer loop
      vertex 53.0947 62 19.9183
      vertex 53.1406 60 18.6115
      vertex 52.581 60 19.4934
    endloop
  endfacet
  facet normal -0.80163 0.313981 -0.50873
    outer loop
      vertex 53.8782 62 18.6837
      vertex 53.2749 60 18.3999
      vertex 53.2066 62 19.7419
    endloop
  endfacet
  facet normal -0.80163 0.313981 -0.50873
    outer loop
      vertex 53.2066 62 19.7419
      vertex 53.2749 60 18.3999
      vertex 53.1406 60 18.6115
    endloop
  endfacet
  facet normal -0.902961 0.313981 -0.29339
    outer loop
      vertex 53.9427 62 18.485
      vertex 53.5977 60 17.4065
      vertex 53.8782 62 18.6837
    endloop
  endfacet
  facet normal -0.902961 0.313981 -0.29339
    outer loop
      vertex 53.8782 62 18.6837
      vertex 53.5977 60 17.4065
      vertex 53.2749 60 18.3999
    endloop
  endfacet
  facet normal -0.902961 0.313981 -0.29339
    outer loop
      vertex 54.33 62 17.2931
      vertex 53.6752 60 17.1681
      vertex 53.9427 62 18.485
    endloop
  endfacet
  facet normal -0.902961 0.313981 -0.29339
    outer loop
      vertex 53.9427 62 18.485
      vertex 53.6752 60 17.1681
      vertex 53.5977 60 17.4065
    endloop
  endfacet
  facet normal -0.947556 0.313981 -0.0596156
    outer loop
      vertex 54.3431 62 17.0846
      vertex 53.7407 60 16.1258
      vertex 54.33 62 17.2931
    endloop
  endfacet
  facet normal -0.947556 0.313981 -0.0596156
    outer loop
      vertex 54.33 62 17.2931
      vertex 53.7407 60 16.1258
      vertex 53.6752 60 17.1681
    endloop
  endfacet
  facet normal -0.947556 0.313981 -0.0596146
    outer loop
      vertex 54.4218 62 15.8337
      vertex 53.7565 60 15.8756
      vertex 54.3431 62 17.0846
    endloop
  endfacet
  facet normal -0.947556 0.313981 -0.0596146
    outer loop
      vertex 54.3431 62 17.0846
      vertex 53.7565 60 15.8756
      vertex 53.7407 60 16.1258
    endloop
  endfacet
  facet normal -0.932612 0.313981 0.177905
    outer loop
      vertex 54.4218 62 15.8337
      vertex 54.3827 62 15.6285
      vertex 53.7565 60 15.8756
    endloop
  endfacet
  facet normal -0.932612 0.313981 0.177905
    outer loop
      vertex 53.7565 60 15.8756
      vertex 54.3827 62 15.6285
      vertex 53.5608 60 14.8496
    endloop
  endfacet
  facet normal -0.932612 0.313981 0.177905
    outer loop
      vertex 54.3827 62 15.6285
      vertex 54.1478 62 14.3974
      vertex 53.5608 60 14.8496
    endloop
  endfacet
  facet normal -0.932612 0.313981 0.177905
    outer loop
      vertex 53.5608 60 14.8496
      vertex 54.1478 62 14.3974
      vertex 53.5138 60 14.6034
    endloop
  endfacet
  facet normal -0.859069 0.313981 0.404247
    outer loop
      vertex 54.1478 62 14.3974
      vertex 54.0589 62 14.2084
      vertex 53.5138 60 14.6034
    endloop
  endfacet
  facet normal -0.859069 0.313981 0.404247
    outer loop
      vertex 53.5138 60 14.6034
      vertex 54.0589 62 14.2084
      vertex 53.6839 61.2422 14
    endloop
  endfacet
  facet normal -0.859069 0.313981 0.404247
    outer loop
      vertex 53.5138 60 14.6034
      vertex 53.6839 61.2422 14
      vertex 53.2298 60 14
    endloop
  endfacet
  facet normal -0.859069 0.313981 0.404247
    outer loop
      vertex 54.0589 62 14.2084
      vertex 53.9608 62 14
      vertex 53.6839 61.2422 14
    endloop
  endfacet
  facet normal -0 0 -1
    outer loop
      vertex 53.2298 60 14
      vertex 53.6839 61.2422 14
      vertex 64.09 60 14
    endloop
  endfacet
  facet normal 0 0 -1
    outer loop
      vertex 64.09 60 14
      vertex 53.6839 61.2422 14
      vertex 53.9608 62 14
    endloop
  endfacet
  facet normal 0 0 -1
    outer loop
      vertex 64.0368 60.1582 14
      vertex 53.9608 62 14
      vertex 63.4167 62 14
    endloop
  endfacet
  facet normal 0 0 -1
    outer loop
      vertex 64.09 60 14
      vertex 53.9608 62 14
      vertex 64.0368 60.1582 14
    endloop
  endfacet
  facet normal 0.932612 0.313981 0.177905
    outer loop
      vertex 64.041 60 14.2572
      vertex 64.0778 60 14.0643
      vertex 64.0368 60.1582 14
    endloop
  endfacet
  facet normal 0.932612 0.313981 0.177905
    outer loop
      vertex 63.3756 62 14.2153
      vertex 64.041 60 14.2572
      vertex 63.4167 62 14
    endloop
  endfacet
  facet normal 0.932612 0.313981 0.177905
    outer loop
      vertex 63.4167 62 14
      vertex 64.041 60 14.2572
      vertex 64.0368 60.1582 14
    endloop
  endfacet
  facet normal 0.947556 0.313981 -0.0596151
    outer loop
      vertex 63.3853 62 14.3696
      vertex 64.0895 60 15.0286
      vertex 64.041 60 14.2572
    endloop
  endfacet
  facet normal 0.947556 0.313981 -0.0596151
    outer loop
      vertex 63.3756 62 14.2153
      vertex 63.3853 62 14.3696
      vertex 64.041 60 14.2572
    endloop
  endfacet
  facet normal 0.947556 0.313981 -0.0596156
    outer loop
      vertex 63.447 62 15.3495
      vertex 64.1018 60 15.2245
      vertex 64.0895 60 15.0286
    endloop
  endfacet
  facet normal 0.947556 0.313981 -0.0596156
    outer loop
      vertex 63.3853 62 14.3696
      vertex 63.447 62 15.3495
      vertex 64.0895 60 15.0286
    endloop
  endfacet
  facet normal 0.902961 0.313981 -0.29339
    outer loop
      vertex 63.4947 62 15.4965
      vertex 64.3407 60 15.9596
      vertex 64.1018 60 15.2245
    endloop
  endfacet
  facet normal 0.902961 0.313981 -0.29339
    outer loop
      vertex 63.447 62 15.3495
      vertex 63.4947 62 15.4965
      vertex 64.1018 60 15.2245
    endloop
  endfacet
  facet normal 0.902961 0.313981 -0.29339
    outer loop
      vertex 63.7981 62 16.4302
      vertex 64.4013 60 16.1463
      vertex 64.3407 60 15.9596
    endloop
  endfacet
  facet normal 0.902961 0.313981 -0.29339
    outer loop
      vertex 63.4947 62 15.4965
      vertex 63.7981 62 16.4302
      vertex 64.3407 60 15.9596
    endloop
  endfacet
  facet normal 0.80163 0.313981 -0.508729
    outer loop
      vertex 63.8809 62 16.5607
      vertex 64.8155 60 16.7989
      vertex 64.4013 60 16.1463
    endloop
  endfacet
  facet normal 0.80163 0.313981 -0.508729
    outer loop
      vertex 63.7981 62 16.4302
      vertex 63.8809 62 16.5607
      vertex 64.4013 60 16.1463
    endloop
  endfacet
  facet normal 0.80163 0.313981 -0.50873
    outer loop
      vertex 64.407 62 17.3897
      vertex 64.9207 60 16.9647
      vertex 64.8155 60 16.7989
    endloop
  endfacet
  facet normal 0.80163 0.313981 -0.50873
    outer loop
      vertex 63.8809 62 16.5607
      vertex 64.407 62 17.3897
      vertex 64.8155 60 16.7989
    endloop
  endfacet
  facet normal 0.649929 0.313981 -0.692104
    outer loop
      vertex 65.4841 60 17.4938
      vertex 64.9207 60 16.9647
      vertex 64.5197 62 17.4955
    endloop
  endfacet
  facet normal 0.649929 0.313981 -0.692104
    outer loop
      vertex 64.5197 62 17.4955
      vertex 64.9207 60 16.9647
      vertex 64.407 62 17.3897
    endloop
  endfacet
  facet normal 0.649929 0.313981 -0.692104
    outer loop
      vertex 65.6272 60 17.6282
      vertex 65.4841 60 17.4938
      vertex 65.2354 62 18.1675
    endloop
  endfacet
  facet normal 0.649929 0.313981 -0.692104
    outer loop
      vertex 65.2354 62 18.1675
      vertex 65.4841 60 17.4938
      vertex 64.5197 62 17.4955
    endloop
  endfacet
  facet normal 0.457391 0.313981 -0.831991
    outer loop
      vertex 66.3045 60 18.0005
      vertex 65.6272 60 17.6282
      vertex 65.3708 62 18.242
    endloop
  endfacet
  facet normal 0.457391 0.313981 -0.831991
    outer loop
      vertex 65.3708 62 18.242
      vertex 65.6272 60 17.6282
      vertex 65.2354 62 18.1675
    endloop
  endfacet
  facet normal 0.45739 0.313981 -0.831992
    outer loop
      vertex 66.4766 60 18.0951
      vertex 66.3045 60 18.0005
      vertex 66.2312 62 18.715
    endloop
  endfacet
  facet normal 0.45739 0.313981 -0.831992
    outer loop
      vertex 66.2312 62 18.715
      vertex 66.3045 60 18.0005
      vertex 65.3708 62 18.242
    endloop
  endfacet
  facet normal 0.236113 0.313981 -0.919601
    outer loop
      vertex 67.2252 60 18.2873
      vertex 66.4766 60 18.0951
      vertex 66.3809 62 18.7534
    endloop
  endfacet
  facet normal 0.236113 0.313981 -0.919601
    outer loop
      vertex 66.3809 62 18.7534
      vertex 66.4766 60 18.0951
      vertex 66.2312 62 18.715
    endloop
  endfacet
  facet normal 0.236114 0.313981 -0.919601
    outer loop
      vertex 67.4154 60 18.3362
      vertex 67.2252 60 18.2873
      vertex 67.3318 62 18.9976
    endloop
  endfacet
  facet normal 0.236114 0.313981 -0.919601
    outer loop
      vertex 67.3318 62 18.9976
      vertex 67.2252 60 18.2873
      vertex 66.3809 62 18.7534
    endloop
  endfacet
  facet normal 0 0.313981 -0.949429
    outer loop
      vertex 68.3846 60 18.3362
      vertex 67.4154 60 18.3362
      vertex 68.4682 62 18.9976
    endloop
  endfacet
  facet normal 0 0.313981 -0.949429
    outer loop
      vertex 68.4682 62 18.9976
      vertex 67.4154 60 18.3362
      vertex 67.3318 62 18.9976
    endloop
  endfacet
  facet normal -0.236113 0.313981 -0.919601
    outer loop
      vertex 68.6179 62 18.9591
      vertex 69.1332 60 18.144
      vertex 68.4682 62 18.9976
    endloop
  endfacet
  facet normal -0.236113 0.313981 -0.919601
    outer loop
      vertex 68.4682 62 18.9976
      vertex 69.1332 60 18.144
      vertex 68.3846 60 18.3362
    endloop
  endfacet
  facet normal -0.236114 0.313981 -0.919601
    outer loop
      vertex 69.3234 60 18.0951
      vertex 69.1332 60 18.144
      vertex 69.5688 62 18.715
    endloop
  endfacet
  facet normal -0.236114 0.313981 -0.919601
    outer loop
      vertex 69.5688 62 18.715
      vertex 69.1332 60 18.144
      vertex 68.6179 62 18.9591
    endloop
  endfacet
  facet normal -0.457391 0.313981 -0.831991
    outer loop
      vertex 69.7043 62 18.6405
      vertex 70.0007 60 17.7228
      vertex 69.5688 62 18.715
    endloop
  endfacet
  facet normal -0.457391 0.313981 -0.831991
    outer loop
      vertex 69.5688 62 18.715
      vertex 70.0007 60 17.7228
      vertex 69.3234 60 18.0951
    endloop
  endfacet
  facet normal -0.45739 0.313981 -0.831992
    outer loop
      vertex 70.1728 60 17.6282
      vertex 70.0007 60 17.7228
      vertex 70.5646 62 18.1675
    endloop
  endfacet
  facet normal -0.45739 0.313981 -0.831992
    outer loop
      vertex 70.5646 62 18.1675
      vertex 70.0007 60 17.7228
      vertex 69.7043 62 18.6405
    endloop
  endfacet
  facet normal -0.649929 0.313981 -0.692104
    outer loop
      vertex 70.6773 62 18.0617
      vertex 70.7362 60 17.0991
      vertex 70.5646 62 18.1675
    endloop
  endfacet
  facet normal -0.649929 0.313981 -0.692104
    outer loop
      vertex 70.5646 62 18.1675
      vertex 70.7362 60 17.0991
      vertex 70.1728 60 17.6282
    endloop
  endfacet
  facet normal -0.649929 0.313981 -0.692104
    outer loop
      vertex 70.8793 60 16.9647
      vertex 70.7362 60 17.0991
      vertex 71.393 62 17.3897
    endloop
  endfacet
  facet normal -0.649929 0.313981 -0.692104
    outer loop
      vertex 71.393 62 17.3897
      vertex 70.7362 60 17.0991
      vertex 70.6773 62 18.0617
    endloop
  endfacet
  facet normal -0.80163 0.313981 -0.508729
    outer loop
      vertex 71.4758 62 17.2591
      vertex 71.2935 60 16.3121
      vertex 71.393 62 17.3897
    endloop
  endfacet
  facet normal -0.80163 0.313981 -0.508729
    outer loop
      vertex 71.393 62 17.3897
      vertex 71.2935 60 16.3121
      vertex 70.8793 60 16.9647
    endloop
  endfacet
  facet normal -0.80163 0.313981 -0.50873
    outer loop
      vertex 72.0019 62 16.4302
      vertex 71.3987 60 16.1463
      vertex 71.4758 62 17.2591
    endloop
  endfacet
  facet normal -0.80163 0.313981 -0.50873
    outer loop
      vertex 71.4758 62 17.2591
      vertex 71.3987 60 16.1463
      vertex 71.2935 60 16.3121
    endloop
  endfacet
  facet normal -0.902961 0.313981 -0.29339
    outer loop
      vertex 72.0496 62 16.2832
      vertex 71.6375 60 15.4113
      vertex 72.0019 62 16.4302
    endloop
  endfacet
  facet normal -0.902961 0.313981 -0.29339
    outer loop
      vertex 72.0019 62 16.4302
      vertex 71.6375 60 15.4113
      vertex 71.3987 60 16.1463
    endloop
  endfacet
  facet normal -0.902961 0.313981 -0.29339
    outer loop
      vertex 72.353 62 15.3495
      vertex 71.6982 60 15.2245
      vertex 72.0496 62 16.2832
    endloop
  endfacet
  facet normal -0.902961 0.313981 -0.29339
    outer loop
      vertex 72.0496 62 16.2832
      vertex 71.6982 60 15.2245
      vertex 71.6375 60 15.4113
    endloop
  endfacet
  facet normal -0.947556 0.313981 -0.0596151
    outer loop
      vertex 72.3627 62 15.1952
      vertex 71.7467 60 14.4532
      vertex 72.353 62 15.3495
    endloop
  endfacet
  facet normal -0.947556 0.313981 -0.0596151
    outer loop
      vertex 72.353 62 15.3495
      vertex 71.7467 60 14.4532
      vertex 71.6982 60 15.2245
    endloop
  endfacet
  facet normal -0.947556 0.313981 -0.0596156
    outer loop
      vertex 72.4244 62 14.2154
      vertex 71.759 60 14.2572
      vertex 72.3627 62 15.1952
    endloop
  endfacet
  facet normal -0.947556 0.313981 -0.0596156
    outer loop
      vertex 72.3627 62 15.1952
      vertex 71.759 60 14.2572
      vertex 71.7467 60 14.4532
    endloop
  endfacet
  facet normal -0.932612 0.313981 0.177906
    outer loop
      vertex 72.4244 62 14.2154
      vertex 72.3954 62 14.0635
      vertex 71.759 60 14.2572
    endloop
  endfacet
  facet normal -0.932612 0.313981 0.177906
    outer loop
      vertex 71.759 60 14.2572
      vertex 72.3954 62 14.0635
      vertex 72.3077 61.7754 14
    endloop
  endfacet
  facet normal -0.932612 0.313981 0.177906
    outer loop
      vertex 71.759 60 14.2572
      vertex 72.3077 61.7754 14
      vertex 71.71 60 14
    endloop
  endfacet
  facet normal -0.932612 0.313981 0.177905
    outer loop
      vertex 72.3954 62 14.0635
      vertex 72.3833 62 14
      vertex 72.3077 61.7754 14
    endloop
  endfacet
  facet normal -0 0 -1
    outer loop
      vertex 71.71 60 14
      vertex 72.3077 61.7754 14
      vertex 75 60 14
    endloop
  endfacet
  facet normal 0 0 -1
    outer loop
      vertex 75 60 14
      vertex 72.3077 61.7754 14
      vertex 72.3833 62 14
    endloop
  endfacet
  facet normal 0 -0 -1
    outer loop
      vertex 75 60 14
      vertex 72.3833 62 14
      vertex 97.5 62 14
    endloop
  endfacet
  facet normal -0 0 -1
    outer loop
      vertex 95.5 60 14
      vertex 97.5 62 14
      vertex 97.5 39.7 14
    endloop
  endfacet
  facet normal -0 0 -1
    outer loop
      vertex 75 60 14
      vertex 97.5 62 14
      vertex 95 60 14
    endloop
  endfacet
  facet normal 0 0 -1
    outer loop
      vertex 97.5 62 14
      vertex 95.5 60 14
      vertex 95 60 14
    endloop
  endfacet
  facet normal 0 0 -1
    outer loop
      vertex 95.5 60 14
      vertex 97.5 39.7 14
      vertex 95.5 39.7 14
    endloop
  endfacet
  facet normal 1 0 -0
    outer loop
      vertex 97.5 21 28
      vertex 97.5 21 14
      vertex 97.5 26.6 14
    endloop
  endfacet
  facet normal 1 -0 0
    outer loop
      vertex 97.5 26.6 17.5
      vertex 97.5 21 28
      vertex 97.5 26.6 14.3
    endloop
  endfacet
  facet normal 1 -0 0
    outer loop
      vertex 97.5 26.6 14.3
      vertex 97.5 21 28
      vertex 97.5 26.6 14
    endloop
  endfacet
  facet normal 1 0 0
    outer loop
      vertex 97.5 26.6 23
      vertex 97.5 39.7 23
      vertex 97.5 21 28
    endloop
  endfacet
  facet normal 1 -0 0
    outer loop
      vertex 97.5 62 14
      vertex 97.5 39.7 14.3
      vertex 97.5 39.7 14
    endloop
  endfacet
  facet normal 1 -0 0
    outer loop
      vertex 97.5 39.7 14.3
      vertex 97.5 26.6 17.5
      vertex 97.5 26.6 14.3
    endloop
  endfacet
  facet normal 1 -0 0
    outer loop
      vertex 97.5 26.6 23
      vertex 97.5 21 28
      vertex 97.5 26.6 17.5
    endloop
  endfacet
  facet normal 1 0 -0
    outer loop
      vertex 97.5 39.7 23
      vertex 97.5 39.7 17.5
      vertex 97.5 62 14
    endloop
  endfacet
  facet normal 1 0 0
    outer loop
      vertex 97.5 62 28
      vertex 97.5 39.7 23
      vertex 97.5 62 14
    endloop
  endfacet
  facet normal 1 0 0
    outer loop
      vertex 97.5 62 28
      vertex 97.5 21 28
      vertex 97.5 39.7 23
    endloop
  endfacet
  facet normal 1 0 0
    outer loop
      vertex 97.5 62 14
      vertex 97.5 39.7 17.5
      vertex 97.5 39.7 14.3
    endloop
  endfacet
  facet normal 1 0 0
    outer loop
      vertex 97.5 39.7 17.5
      vertex 97.5 26.6 17.5
      vertex 97.5 39.7 14.3
    endloop
  endfacet
  facet normal -1 -0 -0
    outer loop
      vertex 15 53 26
      vertex 15 53 28
      vertex 15 60 26
    endloop
  endfacet
  facet normal -1 0 0
    outer loop
      vertex 15 62 28
      vertex 15 62 19
      vertex 15 60 26
    endloop
  endfacet
  facet normal -1 0 0
    outer loop
      vertex 15 62 28
      vertex 15 60 26
      vertex 15 53 28
    endloop
  endfacet
  facet normal -1 0 0
    outer loop
      vertex 15 60 26
      vertex 15 62 19
      vertex 15 60 19
    endloop
  endfacet
  facet normal 0 0 1
    outer loop
      vertex 15 60 19
      vertex 15 62 19
      vertex 13 62 19
    endloop
  endfacet
  facet normal 0 0 1
    outer loop
      vertex 13 60 19
      vertex 15 60 19
      vertex 13 62 19
    endloop
  endfacet
  facet normal 1 0 -0
    outer loop
      vertex 13 60 26
      vertex 13 60 19
      vertex 13 62 19
    endloop
  endfacet
  facet normal 1 0 0
    outer loop
      vertex 13 53 28
      vertex 13 60 26
      vertex 13 62 28
    endloop
  endfacet
  facet normal 1 0 0
    outer loop
      vertex 13 62 28
      vertex 13 60 26
      vertex 13 62 19
    endloop
  endfacet
  facet normal 1 0 0
    outer loop
      vertex 13 53 26
      vertex 13 60 26
      vertex 13 53 28
    endloop
  endfacet
  facet normal -1 -0 -0
    outer loop
      vertex 11 53 26
      vertex 11 53 28
      vertex 11 60 26
    endloop
  endfacet
  facet normal -1 0 0
    outer loop
      vertex 11 62 28
      vertex 11 62 19
      vertex 11 60 26
    endloop
  endfacet
  facet normal -1 0 0
    outer loop
      vertex 11 62 28
      vertex 11 60 26
      vertex 11 53 28
    endloop
  endfacet
  facet normal -1 0 0
    outer loop
      vertex 11 60 26
      vertex 11 62 19
      vertex 11 60 19
    endloop
  endfacet
  facet normal 0 0 1
    outer loop
      vertex 11 60 19
      vertex 11 62 19
      vertex 9 62 19
    endloop
  endfacet
  facet normal 0 0 1
    outer loop
      vertex 9 60 19
      vertex 11 60 19
      vertex 9 62 19
    endloop
  endfacet
  facet normal 1 0 -0
    outer loop
      vertex 9 60 26
      vertex 9 60 19
      vertex 9 62 19
    endloop
  endfacet
  facet normal 1 0 0
    outer loop
      vertex 9 53 28
      vertex 9 60 26
      vertex 9 62 28
    endloop
  endfacet
  facet normal 1 0 0
    outer loop
      vertex 9 62 28
      vertex 9 60 26
      vertex 9 62 19
    endloop
  endfacet
  facet normal 1 0 0
    outer loop
      vertex 9 53 26
      vertex 9 60 26
      vertex 9 53 28
    endloop
  endfacet
  facet normal -1 -0 -0
    outer loop
      vertex 7 53 26
      vertex 7 53 28
      vertex 7 60 26
    endloop
  endfacet
  facet normal -1 0 0
    outer loop
      vertex 7 62 28
      vertex 7 62 19
      vertex 7 60 26
    endloop
  endfacet
  facet normal -1 0 0
    outer loop
      vertex 7 62 28
      vertex 7 60 26
      vertex 7 53 28
    endloop
  endfacet
  facet normal -1 0 0
    outer loop
      vertex 7 60 26
      vertex 7 62 19
      vertex 7 60 19
    endloop
  endfacet
  facet normal 0 0 1
    outer loop
      vertex 7 60 19
      vertex 7 62 19
      vertex 5 62 19
    endloop
  endfacet
  facet normal 0 0 1
    outer loop
      vertex 5 60 19
      vertex 7 60 19
      vertex 5 62 19
    endloop
  endfacet
  facet normal 1 0 -0
    outer loop
      vertex 5 60 26
      vertex 5 60 19
      vertex 5 62 19
    endloop
  endfacet
  facet normal 1 0 0
    outer loop
      vertex 5 53 28
      vertex 5 60 26
      vertex 5 62 28
    endloop
  endfacet
  facet normal 1 0 0
    outer loop
      vertex 5 62 28
      vertex 5 60 26
      vertex 5 62 19
    endloop
  endfacet
  facet normal 1 0 0
    outer loop
      vertex 5 53 26
      vertex 5 60 26
      vertex 5 53 28
    endloop
  endfacet
  facet normal 0 1 0
    outer loop
      vertex 7 53 28
      vertex 7 53 26
      vertex 5 53 28
    endloop
  endfacet
  facet normal 0 1 -0
    outer loop
      vertex 5 53 28
      vertex 7 53 26
      vertex 5 53 26
    endloop
  endfacet
  facet normal 0 1 0
    outer loop
      vertex 11 53 28
      vertex 11 53 26
      vertex 9 53 28
    endloop
  endfacet
  facet normal 0 1 -0
    outer loop
      vertex 9 53 28
      vertex 11 53 26
      vertex 9 53 26
    endloop
  endfacet
  facet normal 0 1 0
    outer loop
      vertex 15 53 28
      vertex 15 53 26
      vertex 13 53 28
    endloop
  endfacet
  facet normal 0 1 -0
    outer loop
      vertex 13 53 28
      vertex 15 53 26
      vertex 13 53 26
    endloop
  endfacet
  facet normal 0 -1 0
    outer loop
      vertex 97.5 21 14
      vertex 97.5 21 28
      vertex 91 21 28
    endloop
  endfacet
  facet normal -0 -1 -0
    outer loop
      vertex 91 21 14
      vertex 97.5 21 14
      vertex 91 21 28
    endloop
  endfacet
  facet normal 0 -1 0
    outer loop
      vertex 15 9 26
      vertex 15 9 28
      vertex 13 9 28
    endloop
  endfacet
  facet normal -0 -1 -0
    outer loop
      vertex 13 9 26
      vertex 15 9 26
      vertex 13 9 28
    endloop
  endfacet
  facet normal 0 -1 0
    outer loop
      vertex 11 9 26
      vertex 11 9 28
      vertex 9 9 28
    endloop
  endfacet
  facet normal -0 -1 -0
    outer loop
      vertex 9 9 26
      vertex 11 9 26
      vertex 9 9 28
    endloop
  endfacet
  facet normal 0 -1 0
    outer loop
      vertex 7 9 26
      vertex 7 9 28
      vertex 5 9 28
    endloop
  endfacet
  facet normal -0 -1 -0
    outer loop
      vertex 5 9 26
      vertex 7 9 26
      vertex 5 9 28
    endloop
  endfacet
  facet normal 0 0 -1
    outer loop
      vertex 2 60 26
      vertex 4 40 26
      vertex 2 40 26
    endloop
  endfacet
  facet normal 0 0 -1
    outer loop
      vertex 5 60 26
      vertex 4 40 26
      vertex 2 60 26
    endloop
  endfacet
  facet normal 0 -0 -1
    outer loop
      vertex 4 20 26
      vertex 4 40 26
      vertex 5 60 26
    endloop
  endfacet
  facet normal 0 0 -1
    outer loop
      vertex 4 20 26
      vertex 5 60 26
      vertex 5 53 26
    endloop
  endfacet
  facet normal 0 0 -1
    outer loop
      vertex 4 20 26
      vertex 5 53 26
      vertex 7 53 26
    endloop
  endfacet
  facet normal 0 -0 -1
    outer loop
      vertex 7 53 26
      vertex 7 60 26
      vertex 9 60 26
    endloop
  endfacet
  facet normal -0 0 -1
    outer loop
      vertex 7 53 26
      vertex 9 60 26
      vertex 4 20 26
    endloop
  endfacet
  facet normal 0 0 -1
    outer loop
      vertex 4 20 26
      vertex 9 60 26
      vertex 9 53 26
    endloop
  endfacet
  facet normal 0 0 -1
    outer loop
      vertex 4 20 26
      vertex 9 53 26
      vertex 11 53 26
    endloop
  endfacet
  facet normal 0 -0 -1
    outer loop
      vertex 11 53 26
      vertex 11 60 26
      vertex 13 60 26
    endloop
  endfacet
  facet normal -0 0 -1
    outer loop
      vertex 11 53 26
      vertex 13 60 26
      vertex 4 20 26
    endloop
  endfacet
  facet normal 0 0 -1
    outer loop
      vertex 4 20 26
      vertex 13 60 26
      vertex 13 53 26
    endloop
  endfacet
  facet normal 0 0 -1
    outer loop
      vertex 4 20 26
      vertex 13 53 26
      vertex 15 53 26
    endloop
  endfacet
  facet normal 0 -0 -1
    outer loop
      vertex 15 53 26
      vertex 15 60 26
      vertex 18 60 26
    endloop
  endfacet
  facet normal -0 0 -1
    outer loop
      vertex 15 53 26
      vertex 18 60 26
      vertex 4 20 26
    endloop
  endfacet
  facet normal 0 0 -1
    outer loop
      vertex 4 20 26
      vertex 18 60 26
      vertex 18 58 26
    endloop
  endfacet
  facet normal 0 0 -1
    outer loop
      vertex 4 20 26
      vertex 18 58 26
      vertex 38 58 26
    endloop
  endfacet
  facet normal 0 -0 -1
    outer loop
      vertex 38 58 26
      vertex 38 60 26
      vertex 75 60 26
    endloop
  endfacet
  facet normal -0 0 -1
    outer loop
      vertex 38 58 26
      vertex 75 60 26
      vertex 4 20 26
    endloop
  endfacet
  facet normal 0 0 -1
    outer loop
      vertex 4 20 26
      vertex 75 60 26
      vertex 75 58 26
    endloop
  endfacet
  facet normal 0 0 -1
    outer loop
      vertex 4 20 26
      vertex 75 58 26
      vertex 95 58 26
    endloop
  endfacet
  facet normal 0 -0 -1
    outer loop
      vertex 95 58 26
      vertex 95 60 26
      vertex 95.5 60 26
    endloop
  endfacet
  facet normal -0 0 -1
    outer loop
      vertex 95 58 26
      vertex 95.5 60 26
      vertex 95.5 23 26
    endloop
  endfacet
  facet normal 0 0 -1
    outer loop
      vertex 95 58 26
      vertex 95.5 23 26
      vertex 89 23 26
    endloop
  endfacet
  facet normal 0 0 -1
    outer loop
      vertex 95 58 26
      vertex 89 23 26
      vertex 4 20 26
    endloop
  endfacet
  facet normal 0 0 -1
    outer loop
      vertex 88 4 26
      vertex 89 2 26
      vertex 88 2 26
    endloop
  endfacet
  facet normal -0 -0 -1
    outer loop
      vertex 68 4 26
      vertex 4 20 26
      vertex 88 4 26
    endloop
  endfacet
  facet normal -0 -0 -1
    outer loop
      vertex 18 4 26
      vertex 15 9 26
      vertex 38 4 26
    endloop
  endfacet
  facet normal 0 0 -1
    outer loop
      vertex 68 4 26
      vertex 2 20 26
      vertex 4 20 26
    endloop
  endfacet
  facet normal -0 -0 -1
    outer loop
      vertex 15 9 26
      vertex 2 20 26
      vertex 38 4 26
    endloop
  endfacet
  facet normal 0 0 -1
    outer loop
      vertex 68 4 26
      vertex 68 2 26
      vertex 2 20 26
    endloop
  endfacet
  facet normal -0 -0 -1
    outer loop
      vertex 11 9 26
      vertex 2 20 26
      vertex 13 9 26
    endloop
  endfacet
  facet normal 0 0 -1
    outer loop
      vertex 68 2 26
      vertex 38 2 26
      vertex 38 4 26
    endloop
  endfacet
  facet normal 0 0 -1
    outer loop
      vertex 68 2 26
      vertex 38 4 26
      vertex 2 20 26
    endloop
  endfacet
  facet normal 0 0 -1
    outer loop
      vertex 15 9 26
      vertex 13 9 26
      vertex 2 20 26
    endloop
  endfacet
  facet normal 0 0 -1
    outer loop
      vertex 13 2 26
      vertex 11 9 26
      vertex 13 9 26
    endloop
  endfacet
  facet normal 0 0 -1
    outer loop
      vertex 15 9 26
      vertex 18 4 26
      vertex 18 2 26
    endloop
  endfacet
  facet normal 0 0 -1
    outer loop
      vertex 15 9 26
      vertex 18 2 26
      vertex 15 2 26
    endloop
  endfacet
  facet normal -0 -0 -1
    outer loop
      vertex 7 9 26
      vertex 2 20 26
      vertex 9 9 26
    endloop
  endfacet
  facet normal -0 -0 -1
    outer loop
      vertex 9 9 26
      vertex 2 20 26
      vertex 11 9 26
    endloop
  endfacet
  facet normal 0 0 -1
    outer loop
      vertex 9 2 26
      vertex 7 9 26
      vertex 9 9 26
    endloop
  endfacet
  facet normal 0 0 -1
    outer loop
      vertex 11 9 26
      vertex 13 2 26
      vertex 11 2 26
    endloop
  endfacet
  facet normal -0 -0 -1
    outer loop
      vertex 5 9 26
      vertex 2 20 26
      vertex 7 9 26
    endloop
  endfacet
  facet normal 0 0 -1
    outer loop
      vertex 7 9 26
      vertex 9 2 26
      vertex 7 2 26
    endloop
  endfacet
  facet normal 0 0 -1
    outer loop
      vertex 5 9 26
      vertex 5 2 26
      vertex 2 20 26
    endloop
  endfacet
  facet normal 0 0 -1
    outer loop
      vertex 5 2 26
      vertex 2 2 26
      vertex 2 20 26
    endloop
  endfacet
  facet normal 0 -0 -1
    outer loop
      vertex 88 4 26
      vertex 4 20 26
      vertex 89 23 26
    endloop
  endfacet
  facet normal 0 0 -1
    outer loop
      vertex 89 2 26
      vertex 88 4 26
      vertex 89 23 26
    endloop
  endfacet
  facet normal 0 1 0
    outer loop
      vertex 91 5 20
      vertex 91 5 14
      vertex 89 5 20
    endloop
  endfacet
  facet normal 0 1 -0
    outer loop
      vertex 89 5 20
      vertex 91 5 14
      vertex 89 5 14
    endloop
  endfacet
  facet normal -0 -0 -1
    outer loop
      vertex 89 19 14
      vertex 89 23 14
      vertex 91 19 14
    endloop
  endfacet
  facet normal 0 -0 -1
    outer loop
      vertex 91 21 14
      vertex 89 23 14
      vertex 95.5 23 14
    endloop
  endfacet
  facet normal 0 -0 -1
    outer loop
      vertex 95.5 23 14
      vertex 95.5 26.6 14
      vertex 97.5 26.6 14
    endloop
  endfacet
  facet normal -0 0 -1
    outer loop
      vertex 95.5 23 14
      vertex 97.5 26.6 14
      vertex 97.5 21 14
    endloop
  endfacet
  facet normal 0 0 -1
    outer loop
      vertex 91 19 14
      vertex 89 23 14
      vertex 91 21 14
    endloop
  endfacet
  facet normal -0 0 -1
    outer loop
      vertex 91 21 14
      vertex 95.5 23 14
      vertex 97.5 21 14
    endloop
  endfacet
  facet normal 0 -1 0
    outer loop
      vertex 91 19 14
      vertex 91 19 20
      vertex 89 19 20
    endloop
  endfacet
  facet normal -0 -1 -0
    outer loop
      vertex 89 19 14
      vertex 91 19 14
      vertex 89 19 20
    endloop
  endfacet
  facet normal 0 0 -1
    outer loop
      vertex 91 19 20
      vertex 91 5 20
      vertex 89 19 20
    endloop
  endfacet
  facet normal 0 0 -1
    outer loop
      vertex 89 19 20
      vertex 91 5 20
      vertex 89 5 20
    endloop
  endfacet
  facet normal -1 -0 -0
    outer loop
      vertex 89 2 14
      vertex 89 2 26
      vertex 89 5 14
    endloop
  endfacet
  facet normal -1 0 -0
    outer loop
      vertex 89 5 20
      vertex 89 2 26
      vertex 89 23 26
    endloop
  endfacet
  facet normal -1 -0 0
    outer loop
      vertex 89 19 14
      vertex 89 23 26
      vertex 89 23 14
    endloop
  endfacet
  facet normal -1 -0 0
    outer loop
      vertex 89 19 20
      vertex 89 23 26
      vertex 89 19 14
    endloop
  endfacet
  facet normal -1 0 0
    outer loop
      vertex 89 5 14
      vertex 89 2 26
      vertex 89 5 20
    endloop
  endfacet
  facet normal -1 -0 0
    outer loop
      vertex 89 5 20
      vertex 89 23 26
      vertex 89 19 20
    endloop
  endfacet
  facet normal 0 1 0
    outer loop
      vertex 89 2 26
      vertex 89 2 14
      vertex 88 2 26
    endloop
  endfacet
  facet normal 0 1 -0
    outer loop
      vertex 88 2 26
      vertex 89 2 14
      vertex 88 2 14
    endloop
  endfacet
  facet normal 1 0 -0
    outer loop
      vertex 88 2 14
      vertex 88 2 9
      vertex 88 4 9
    endloop
  endfacet
  facet normal 1 0 -0
    outer loop
      vertex 88 2 26
      vertex 88 2 14
      vertex 88 4 26
    endloop
  endfacet
  facet normal 1 0 0
    outer loop
      vertex 88 4 26
      vertex 88 2 14
      vertex 88 4 9
    endloop
  endfacet
  facet normal 0 -1 0
    outer loop
      vertex 68 2 14
      vertex 68 2 9
      vertex 88 2 9
    endloop
  endfacet
  facet normal 0 -1 0
    outer loop
      vertex 88 2 14
      vertex 68 2 14
      vertex 88 2 9
    endloop
  endfacet
  facet normal -1 -0 -0
    outer loop
      vertex 68 2 9
      vertex 68 2 14
      vertex 68 4 9
    endloop
  endfacet
  facet normal -1 0 0
    outer loop
      vertex 68 4 9
      vertex 68 2 14
      vertex 68 2 26
    endloop
  endfacet
  facet normal -1 0 0
    outer loop
      vertex 68 4 9
      vertex 68 2 26
      vertex 68 4 26
    endloop
  endfacet
  facet normal 0 1 0
    outer loop
      vertex 18 4 9
      vertex 18 4 26
      vertex 38 4 9
    endloop
  endfacet
  facet normal 0 1 0
    outer loop
      vertex 38 4 9
      vertex 18 4 26
      vertex 38 4 26
    endloop
  endfacet
  facet normal -0 -0 -1
    outer loop
      vertex 18 2 9
      vertex 18 4 9
      vertex 38 2 9
    endloop
  endfacet
  facet normal 0 0 -1
    outer loop
      vertex 38 2 9
      vertex 18 4 9
      vertex 38 4 9
    endloop
  endfacet
  facet normal 1 0 -0
    outer loop
      vertex 4 20 26
      vertex 4 20 9
      vertex 4 40 9
    endloop
  endfacet
  facet normal 1 0 0
    outer loop
      vertex 4 40 26
      vertex 4 20 26
      vertex 4 40 9
    endloop
  endfacet
  facet normal -0 -0 -1
    outer loop
      vertex 2 20 9
      vertex 2 40 9
      vertex 4 20 9
    endloop
  endfacet
  facet normal 0 0 -1
    outer loop
      vertex 4 20 9
      vertex 2 40 9
      vertex 4 40 9
    endloop
  endfacet
  facet normal -0 -0 -1
    outer loop
      vertex 18 58 9
      vertex 18 60 9
      vertex 38 58 9
    endloop
  endfacet
  facet normal 0 0 -1
    outer loop
      vertex 38 58 9
      vertex 18 60 9
      vertex 38 60 9
    endloop
  endfacet
  facet normal 0 -1 0
    outer loop
      vertex 18 58 26
      vertex 18 58 9
      vertex 38 58 9
    endloop
  endfacet
  facet normal 0 -1 0
    outer loop
      vertex 38 58 26
      vertex 18 58 26
      vertex 38 58 9
    endloop
  endfacet
  facet normal -1 -0 -0
    outer loop
      vertex 75 58 9
      vertex 75 58 26
      vertex 75 60 9
    endloop
  endfacet
  facet normal -1 0 0
    outer loop
      vertex 75 60 14
      vertex 75 58 26
      vertex 75 60 26
    endloop
  endfacet
  facet normal -1 0 0
    outer loop
      vertex 75 60 9
      vertex 75 58 26
      vertex 75 60 14
    endloop
  endfacet
  facet normal 0 1 0
    outer loop
      vertex 95 60 14
      vertex 95 60 9
      vertex 75 60 14
    endloop
  endfacet
  facet normal 0 1 -0
    outer loop
      vertex 75 60 14
      vertex 95 60 9
      vertex 75 60 9
    endloop
  endfacet
  facet normal 0.932612 0.313981 0.177906
    outer loop
      vertex 64.0778 60 14.0643
      vertex 64.09 60 14
      vertex 64.0368 60.1582 14
    endloop
  endfacet
  facet normal 1 0 -0
    outer loop
      vertex 95 58 26
      vertex 95 58 9
      vertex 95 60 9
    endloop
  endfacet
  facet normal 1 0 0
    outer loop
      vertex 95 60 26
      vertex 95 58 26
      vertex 95 60 14
    endloop
  endfacet
  facet normal 1 -0 0
    outer loop
      vertex 95 60 14
      vertex 95 58 26
      vertex 95 60 9
    endloop
  endfacet
  facet normal 0 -1 0
    outer loop
      vertex 95.5 60 14
      vertex 95.5 60 26
      vertex 95 60 26
    endloop
  endfacet
  facet normal -0 -1 -0
    outer loop
      vertex 95 60 14
      vertex 95.5 60 14
      vertex 95 60 26
    endloop
  endfacet
  facet normal -1 -0 -0
    outer loop
      vertex 95.5 26.6 23
      vertex 95.5 23 26
      vertex 95.5 39.7 23
    endloop
  endfacet
  facet normal -1 0 0
    outer loop
      vertex 95.5 39.7 14.3
      vertex 95.5 60 14
      vertex 95.5 39.7 14
    endloop
  endfacet
  facet normal -1 0 0
    outer loop
      vertex 95.5 39.7 17.5
      vertex 95.5 60 14
      vertex 95.5 39.7 14.3
    endloop
  endfacet
  facet normal -1 0 0
    outer loop
      vertex 95.5 39.7 17.5
      vertex 95.5 39.7 14.3
      vertex 95.5 26.6 17.5
    endloop
  endfacet
  facet normal -1 0 0
    outer loop
      vertex 95.5 23 26
      vertex 95.5 26.6 14.3
      vertex 95.5 26.6 14
    endloop
  endfacet
  facet normal -1 0 0
    outer loop
      vertex 95.5 23 26
      vertex 95.5 26.6 14
      vertex 95.5 23 14
    endloop
  endfacet
  facet normal -1 0 0
    outer loop
      vertex 95.5 23 26
      vertex 95.5 26.6 17.5
      vertex 95.5 26.6 14.3
    endloop
  endfacet
  facet normal -1 0 0
    outer loop
      vertex 95.5 39.7 23
      vertex 95.5 60 14
      vertex 95.5 39.7 17.5
    endloop
  endfacet
  facet normal -1 0 0
    outer loop
      vertex 95.5 60 26
      vertex 95.5 60 14
      vertex 95.5 39.7 23
    endloop
  endfacet
  facet normal -1 0 0
    outer loop
      vertex 95.5 60 26
      vertex 95.5 39.7 23
      vertex 95.5 23 26
    endloop
  endfacet
  facet normal -1 0 0
    outer loop
      vertex 95.5 23 26
      vertex 95.5 26.6 23
      vertex 95.5 26.6 17.5
    endloop
  endfacet
  facet normal -1 -0 -0
    outer loop
      vertex 95.5 26.6 14.3
      vertex 95.5 26.6 17.5
      vertex 95.5 39.7 14.3
    endloop
  endfacet
  facet normal 0 -1 0
    outer loop
      vertex 97.5 39.7 14
      vertex 97.5 39.7 14.3
      vertex 95.5 39.7 14.3
    endloop
  endfacet
  facet normal -0 -1 -0
    outer loop
      vertex 95.5 39.7 14
      vertex 97.5 39.7 14
      vertex 95.5 39.7 14.3
    endloop
  endfacet
  facet normal 0 0 -1
    outer loop
      vertex 97.5 39.7 14.3
      vertex 97.5 26.6 14.3
      vertex 95.5 39.7 14.3
    endloop
  endfacet
  facet normal 0 0 -1
    outer loop
      vertex 95.5 39.7 14.3
      vertex 97.5 26.6 14.3
      vertex 95.5 26.6 14.3
    endloop
  endfacet
  facet normal 0 1 0
    outer loop
      vertex 97.5 26.6 14.3
      vertex 97.5 26.6 14
      vertex 95.5 26.6 14.3
    endloop
  endfacet
  facet normal 0 1 -0
    outer loop
      vertex 95.5 26.6 14.3
      vertex 97.5 26.6 14
      vertex 95.5 26.6 14
    endloop
  endfacet
  facet normal 0 1 0
    outer loop
      vertex 97.5 26.6 23
      vertex 97.5 26.6 17.5
      vertex 95.5 26.6 23
    endloop
  endfacet
  facet normal 0 1 -0
    outer loop
      vertex 95.5 26.6 23
      vertex 97.5 26.6 17.5
      vertex 95.5 26.6 17.5
    endloop
  endfacet
  facet normal 0 0 1
    outer loop
      vertex 97.5 26.6 17.5
      vertex 97.5 39.7 17.5
      vertex 95.5 39.7 17.5
    endloop
  endfacet
  facet normal 0 0 1
    outer loop
      vertex 95.5 26.6 17.5
      vertex 97.5 26.6 17.5
      vertex 95.5 39.7 17.5
    endloop
  endfacet
  facet normal 0 -1 0
    outer loop
      vertex 97.5 39.7 17.5
      vertex 97.5 39.7 23
      vertex 95.5 39.7 23
    endloop
  endfacet
  facet normal -0 -1 -0
    outer loop
      vertex 95.5 39.7 17.5
      vertex 97.5 39.7 17.5
      vertex 95.5 39.7 23
    endloop
  endfacet
  facet normal 0 0 -1
    outer loop
      vertex 97.5 39.7 23
      vertex 97.5 26.6 23
      vertex 95.5 39.7 23
    endloop
  endfacet
  facet normal 0 0 -1
    outer loop
      vertex 95.5 39.7 23
      vertex 97.5 26.6 23
      vertex 95.5 26.6 23
    endloop
  endfacet
  facet normal 0 1 0
    outer loop
      vertex 68 4 9
      vertex 68 4 26
      vertex 88 4 9
    endloop
  endfacet
  facet normal 0 1 0
    outer loop
      vertex 88 4 9
      vertex 68 4 26
      vertex 88 4 26
    endloop
  endfacet
  facet normal 0 1 0
    outer loop
      vertex 89 23 14
      vertex 89 23 26
      vertex 95.5 23 14
    endloop
  endfacet
  facet normal 0 1 0
    outer loop
      vertex 95.5 23 14
      vertex 89 23 26
      vertex 95.5 23 26
    endloop
  endfacet
  facet normal 0 -1 0
    outer loop
      vertex 75 58 26
      vertex 75 58 9
      vertex 95 58 9
    endloop
  endfacet
  facet normal 0 -1 0
    outer loop
      vertex 95 58 26
      vertex 75 58 26
      vertex 95 58 9
    endloop
  endfacet
  facet normal -0 -0 -1
    outer loop
      vertex 68 2 9
      vertex 68 4 9
      vertex 88 2 9
    endloop
  endfacet
  facet normal 0 0 -1
    outer loop
      vertex 88 2 9
      vertex 68 4 9
      vertex 88 4 9
    endloop
  endfacet
  facet normal -0 -0 -1
    outer loop
      vertex 75 58 9
      vertex 75 60 9
      vertex 95 58 9
    endloop
  endfacet
  facet normal 0 0 -1
    outer loop
      vertex 95 58 9
      vertex 75 60 9
      vertex 95 60 9
    endloop
  endfacet
endsolid OpenSCAD_Model
