solid OpenSCAD_Model
  facet normal -1 0 0
    outer loop
      vertex 0 12.8 8
      vertex 0 19 6.5
      vertex 0 6.9 8
    endloop
  endfacet
  facet normal -1 0 -0
    outer loop
      vertex 0 13.8 11
      vertex 0 0 14
      vertex 0 62 14
    endloop
  endfacet
  facet normal -1 0 -0
    outer loop
      vertex 0 0 0
      vertex 0 0 14
      vertex 0 5.9 11
    endloop
  endfacet
  facet normal -1 -0 -0
    outer loop
      vertex 0 19 6.5
      vertex 0 13.8 11
      vertex 0 47 6.5
    endloop
  endfacet
  facet normal -1 0 0
    outer loop
      vertex 0 0 0
      vertex 0 5.9 11
      vertex 0 5.9 9
    endloop
  endfacet
  facet normal -1 0 0
    outer loop
      vertex 0 0 0
      vertex 0 5.9 9
      vertex 0 6.9 8
    endloop
  endfacet
  facet normal -1 0 0
    outer loop
      vertex 0 47 3
      vertex 0 62 0
      vertex 0 19 3
    endloop
  endfacet
  facet normal -1 0 -0
    outer loop
      vertex 0 47 6.5
      vertex 0 13.8 11
      vertex 0 62 14
    endloop
  endfacet
  facet normal -1 0 0
    outer loop
      vertex 0 0 0
      vertex 0 6.9 8
      vertex 0 19 3
    endloop
  endfacet
  facet normal -1 -0 0
    outer loop
      vertex 0 0 0
      vertex 0 19 3
      vertex 0 62 0
    endloop
  endfacet
  facet normal -1 0 0
    outer loop
      vertex 0 19 3
      vertex 0 6.9 8
      vertex 0 19 6.5
    endloop
  endfacet
  facet normal -1 0 0
    outer loop
      vertex 0 19 6.5
      vertex 0 13.8 9
      vertex 0 13.8 11
    endloop
  endfacet
  facet normal -1 0 0
    outer loop
      vertex 0 62 0
      vertex 0 47 6.5
      vertex 0 62 14
    endloop
  endfacet
  facet normal -1 -0 -0
    outer loop
      vertex 0 5.9 11
      vertex 0 0 14
      vertex 0 13.8 11
    endloop
  endfacet
  facet normal -1 0 0
    outer loop
      vertex 0 19 6.5
      vertex 0 12.8 8
      vertex 0 13.8 9
    endloop
  endfacet
  facet normal -1 0 0
    outer loop
      vertex 0 47 6.5
      vertex 0 62 0
      vertex 0 47 3
    endloop
  endfacet
  facet normal 0 -1 0
    outer loop
      vertex 0 0 14
      vertex 0 0 0
      vertex 91 0 0
    endloop
  endfacet
  facet normal 0 -1 0
    outer loop
      vertex 42.9 0 8
      vertex 0 0 14
      vertex 91 0 0
    endloop
  endfacet
  facet normal 0 -1 0
    outer loop
      vertex 91 0 14
      vertex 55.4 0 14
      vertex 91 0 0
    endloop
  endfacet
  facet normal 0 -1 0
    outer loop
      vertex 55.4 0 14
      vertex 55.4 0 10.5
      vertex 91 0 0
    endloop
  endfacet
  facet normal 0 -1 0
    outer loop
      vertex 55.4 0 10.5
      vertex 52.9 0 8
      vertex 91 0 0
    endloop
  endfacet
  facet normal 0 -1 0
    outer loop
      vertex 52.9 0 8
      vertex 42.9 0 8
      vertex 91 0 0
    endloop
  endfacet
  facet normal 0 -1 0
    outer loop
      vertex 40.4 0 10.5
      vertex 40.4 0 14
      vertex 0 0 14
    endloop
  endfacet
  facet normal 0 -1 0
    outer loop
      vertex 42.9 0 8
      vertex 40.4 0 10.5
      vertex 0 0 14
    endloop
  endfacet
  facet normal -0 -0 -1
    outer loop
      vertex 0 0 0
      vertex 0 62 0
      vertex 91 0 0
    endloop
  endfacet
  facet normal 0 -0 -1
    outer loop
      vertex 91 21 0
      vertex 0 62 0
      vertex 97.5 62 0
    endloop
  endfacet
  facet normal 0 0 -1
    outer loop
      vertex 91 0 0
      vertex 0 62 0
      vertex 91 21 0
    endloop
  endfacet
  facet normal -0 0 -1
    outer loop
      vertex 91 21 0
      vertex 97.5 62 0
      vertex 97.5 21 0
    endloop
  endfacet
  facet normal 0 1 0
    outer loop
      vertex 0 62 0
      vertex 0 62 14
      vertex 97.5 62 0
    endloop
  endfacet
  facet normal 0 1 0
    outer loop
      vertex 43.5858 62 13.2634
      vertex 0 62 14
      vertex 43.2392 62 14
    endloop
  endfacet
  facet normal 0 1 0
    outer loop
      vertex 43.6748 62 13.0743
      vertex 0 62 14
      vertex 43.5858 62 13.2634
    endloop
  endfacet
  facet normal 0 1 0
    outer loop
      vertex 44.4737 62 12.1086
      vertex 0 62 14
      vertex 43.6748 62 13.0743
    endloop
  endfacet
  facet normal 0 1 0
    outer loop
      vertex 44.6068 62 11.9477
      vertex 0 62 14
      vertex 44.4737 62 12.1086
    endloop
  endfacet
  facet normal 0 1 0
    outer loop
      vertex 45.6208 62 11.211
      vertex 0 62 14
      vertex 44.6068 62 11.9477
    endloop
  endfacet
  facet normal 0 1 0
    outer loop
      vertex 45.7898 62 11.0882
      vertex 0 62 14
      vertex 45.6208 62 11.211
    endloop
  endfacet
  facet normal 0 1 0
    outer loop
      vertex 46.9551 62 10.6268
      vertex 0 62 14
      vertex 45.7898 62 11.0882
    endloop
  endfacet
  facet normal 0 1 0
    outer loop
      vertex 47.1493 62 10.5499
      vertex 0 62 14
      vertex 46.9551 62 10.6268
    endloop
  endfacet
  facet normal 0 1 0
    outer loop
      vertex 97.5 62 0
      vertex 0 62 14
      vertex 47.1493 62 10.5499
    endloop
  endfacet
  facet normal 0 1 -0
    outer loop
      vertex 49.8434 62 10.5238
      vertex 97.5 62 0
      vertex 48.6 62 10.3667
    endloop
  endfacet
  facet normal 0 1 0
    outer loop
      vertex 97.5 62 0
      vertex 48.3928 62 10.3928
      vertex 48.6 62 10.3667
    endloop
  endfacet
  facet normal 0 1 -0
    outer loop
      vertex 51.216 62 11.0113
      vertex 97.5 62 0
      vertex 50.0507 62 10.5499
    endloop
  endfacet
  facet normal 0 1 0
    outer loop
      vertex 97.5 62 0
      vertex 49.8434 62 10.5238
      vertex 50.0507 62 10.5499
    endloop
  endfacet
  facet normal 0 1 -0
    outer loop
      vertex 52.4242 62 11.8249
      vertex 97.5 62 0
      vertex 51.4102 62 11.0882
    endloop
  endfacet
  facet normal 0 1 0
    outer loop
      vertex 97.5 62 0
      vertex 51.216 62 11.0113
      vertex 51.4102 62 11.0882
    endloop
  endfacet
  facet normal -0 1 -0
    outer loop
      vertex 67.7466 62 9.98604
      vertex 97.5 62 0
      vertex 66.7726 62 10.1091
    endloop
  endfacet
  facet normal 0 1 0
    outer loop
      vertex 97.5 62 0
      vertex 52.4242 62 11.8249
      vertex 52.5932 62 11.9477
    endloop
  endfacet
  facet normal 0 1 0
    outer loop
      vertex 52.5932 62 11.9477
      vertex 53.3921 62 12.9134
      vertex 97.5 62 0
    endloop
  endfacet
  facet normal 0 1 0
    outer loop
      vertex 53.3921 62 12.9134
      vertex 53.5252 62 13.0743
      vertex 97.5 62 0
    endloop
  endfacet
  facet normal 0 1 0
    outer loop
      vertex 53.5252 62 13.0743
      vertex 53.9608 62 14
      vertex 97.5 62 0
    endloop
  endfacet
  facet normal 0 1 0
    outer loop
      vertex 63.5596 62 13.251
      vertex 53.9608 62 14
      vertex 63.4167 62 14
    endloop
  endfacet
  facet normal 0 1 0
    outer loop
      vertex 63.5885 62 13.0991
      vertex 53.9608 62 14
      vertex 63.5596 62 13.251
    endloop
  endfacet
  facet normal 0 1 0
    outer loop
      vertex 64.0066 62 12.2108
      vertex 53.9608 62 14
      vertex 63.5885 62 13.0991
    endloop
  endfacet
  facet normal 0 1 0
    outer loop
      vertex 64.0724 62 12.0709
      vertex 53.9608 62 14
      vertex 64.0066 62 12.2108
    endloop
  endfacet
  facet normal 0 1 0
    outer loop
      vertex 64.6982 62 11.3144
      vertex 53.9608 62 14
      vertex 64.0724 62 12.0709
    endloop
  endfacet
  facet normal 0 1 0
    outer loop
      vertex 64.7967 62 11.1953
      vertex 53.9608 62 14
      vertex 64.6982 62 11.3144
    endloop
  endfacet
  facet normal 0 1 0
    outer loop
      vertex 65.591 62 10.6183
      vertex 53.9608 62 14
      vertex 64.7967 62 11.1953
    endloop
  endfacet
  facet normal 0 1 0
    outer loop
      vertex 65.7161 62 10.5274
      vertex 53.9608 62 14
      vertex 65.591 62 10.6183
    endloop
  endfacet
  facet normal 0 1 0
    outer loop
      vertex 66.6289 62 10.166
      vertex 53.9608 62 14
      vertex 65.7161 62 10.5274
    endloop
  endfacet
  facet normal 0 1 0
    outer loop
      vertex 66.7726 62 10.1091
      vertex 53.9608 62 14
      vertex 66.6289 62 10.166
    endloop
  endfacet
  facet normal 0 1 0
    outer loop
      vertex 97.5 62 0
      vertex 53.9608 62 14
      vertex 66.7726 62 10.1091
    endloop
  endfacet
  facet normal 0 1 -0
    outer loop
      vertex 68.874 62 10.0897
      vertex 97.5 62 0
      vertex 67.9 62 9.96667
    endloop
  endfacet
  facet normal 0 1 0
    outer loop
      vertex 97.5 62 0
      vertex 67.7466 62 9.98604
      vertex 67.9 62 9.96667
    endloop
  endfacet
  facet normal 0 1 -0
    outer loop
      vertex 69.9402 62 10.4705
      vertex 97.5 62 0
      vertex 69.0274 62 10.1091
    endloop
  endfacet
  facet normal 0 1 0
    outer loop
      vertex 97.5 62 0
      vertex 68.874 62 10.0897
      vertex 69.0274 62 10.1091
    endloop
  endfacet
  facet normal 0 1 -0
    outer loop
      vertex 70.8782 62 11.1045
      vertex 97.5 62 0
      vertex 70.0839 62 10.5274
    endloop
  endfacet
  facet normal 0 1 0
    outer loop
      vertex 97.5 62 0
      vertex 69.9402 62 10.4705
      vertex 70.0839 62 10.5274
    endloop
  endfacet
  facet normal 0 1 0
    outer loop
      vertex 97.5 62 0
      vertex 70.8782 62 11.1045
      vertex 71.0033 62 11.1953
    endloop
  endfacet
  facet normal 0 1 0
    outer loop
      vertex 71.0033 62 11.1953
      vertex 71.6291 62 11.9518
      vertex 97.5 62 0
    endloop
  endfacet
  facet normal 0 1 0
    outer loop
      vertex 71.6291 62 11.9518
      vertex 71.7276 62 12.0709
      vertex 97.5 62 0
    endloop
  endfacet
  facet normal 0 1 0
    outer loop
      vertex 71.7276 62 12.0709
      vertex 72.1456 62 12.9593
      vertex 97.5 62 0
    endloop
  endfacet
  facet normal 0 1 0
    outer loop
      vertex 72.1456 62 12.9593
      vertex 72.2115 62 13.0991
      vertex 97.5 62 0
    endloop
  endfacet
  facet normal 0 1 0
    outer loop
      vertex 72.2115 62 13.0991
      vertex 72.3833 62 14
      vertex 97.5 62 0
    endloop
  endfacet
  facet normal 0 1 0
    outer loop
      vertex 97.5 62 0
      vertex 72.3833 62 14
      vertex 97.5 62 14
    endloop
  endfacet
  facet normal -0 1 -0
    outer loop
      vertex 48.3928 62 10.3928
      vertex 97.5 62 0
      vertex 47.1493 62 10.5499
    endloop
  endfacet
  facet normal 0 -0 1
    outer loop
      vertex 2 2 14
      vertex 0 0 14
      vertex 40.4 0 14
    endloop
  endfacet
  facet normal 0 0 1
    outer loop
      vertex 2 2 14
      vertex 2 60 14
      vertex 0 62 14
    endloop
  endfacet
  facet normal 0 -0 1
    outer loop
      vertex 0 62 14
      vertex 0 0 14
      vertex 2 2 14
    endloop
  endfacet
  facet normal -0 0 1
    outer loop
      vertex 43.9702 60 14
      vertex 0 62 14
      vertex 2 60 14
    endloop
  endfacet
  facet normal -0 -0 1
    outer loop
      vertex 43.7229 60.6766 14
      vertex 0 62 14
      vertex 43.9702 60 14
    endloop
  endfacet
  facet normal 0 -0 1
    outer loop
      vertex 43.2392 62 14
      vertex 0 62 14
      vertex 43.7229 60.6766 14
    endloop
  endfacet
  facet normal 0 0 1
    outer loop
      vertex 40.4 2 14
      vertex 2 2 14
      vertex 40.4 0 14
    endloop
  endfacet
  facet normal 0 0 -1
    outer loop
      vertex 2 13.8 11
      vertex 2 5.9 11
      vertex 0 13.8 11
    endloop
  endfacet
  facet normal 0 0 -1
    outer loop
      vertex 0 13.8 11
      vertex 2 5.9 11
      vertex 0 5.9 11
    endloop
  endfacet
  facet normal 0 1 0
    outer loop
      vertex 2 5.9 11
      vertex 2 5.9 9
      vertex 0 5.9 11
    endloop
  endfacet
  facet normal 0 1 -0
    outer loop
      vertex 0 5.9 11
      vertex 2 5.9 9
      vertex 0 5.9 9
    endloop
  endfacet
  facet normal 0 -1 0
    outer loop
      vertex 2 13.8 9
      vertex 2 13.8 11
      vertex 0 13.8 11
    endloop
  endfacet
  facet normal -0 -1 -0
    outer loop
      vertex 0 13.8 9
      vertex 2 13.8 9
      vertex 0 13.8 11
    endloop
  endfacet
  facet normal 0 -0.707107 0.707107
    outer loop
      vertex 2 12.8 8
      vertex 2 13.8 9
      vertex 0 13.8 9
    endloop
  endfacet
  facet normal 0 -0.707107 0.707107
    outer loop
      vertex 0 12.8 8
      vertex 2 12.8 8
      vertex 0 13.8 9
    endloop
  endfacet
  facet normal 0 0 1
    outer loop
      vertex 2 6.9 8
      vertex 2 12.8 8
      vertex 0 12.8 8
    endloop
  endfacet
  facet normal 0 0 1
    outer loop
      vertex 0 6.9 8
      vertex 2 6.9 8
      vertex 0 12.8 8
    endloop
  endfacet
  facet normal -0 0.707107 0.707107
    outer loop
      vertex 2 6.9 8
      vertex 0 6.9 8
      vertex 2 5.9 9
    endloop
  endfacet
  facet normal -0 0.707107 0.707107
    outer loop
      vertex 2 5.9 9
      vertex 0 6.9 8
      vertex 0 5.9 9
    endloop
  endfacet
  facet normal 0 0 -1
    outer loop
      vertex 2 47 6.5
      vertex 2 19 6.5
      vertex 0 47 6.5
    endloop
  endfacet
  facet normal 0 0 -1
    outer loop
      vertex 0 47 6.5
      vertex 2 19 6.5
      vertex 0 19 6.5
    endloop
  endfacet
  facet normal 0 1 0
    outer loop
      vertex 2 19 6.5
      vertex 2 19 3
      vertex 0 19 6.5
    endloop
  endfacet
  facet normal 0 1 -0
    outer loop
      vertex 0 19 6.5
      vertex 2 19 3
      vertex 0 19 3
    endloop
  endfacet
  facet normal 0 -1 0
    outer loop
      vertex 2 47 3
      vertex 2 47 6.5
      vertex 0 47 6.5
    endloop
  endfacet
  facet normal -0 -1 -0
    outer loop
      vertex 0 47 3
      vertex 2 47 3
      vertex 0 47 6.5
    endloop
  endfacet
  facet normal 0 0 1
    outer loop
      vertex 2 19 3
      vertex 2 47 3
      vertex 0 47 3
    endloop
  endfacet
  facet normal 0 0 1
    outer loop
      vertex 0 19 3
      vertex 2 19 3
      vertex 0 47 3
    endloop
  endfacet
  facet normal 1 0 0
    outer loop
      vertex 40.4 2 10.5
      vertex 40.4 2 14
      vertex 40.4 0 14
    endloop
  endfacet
  facet normal 1 0 0
    outer loop
      vertex 40.4 0 10.5
      vertex 40.4 2 10.5
      vertex 40.4 0 14
    endloop
  endfacet
  facet normal 0.707107 0 0.707107
    outer loop
      vertex 42.9 0 8
      vertex 42.9 2 8
      vertex 40.4 2 10.5
    endloop
  endfacet
  facet normal 0.707107 0 0.707107
    outer loop
      vertex 40.4 0 10.5
      vertex 42.9 0 8
      vertex 40.4 2 10.5
    endloop
  endfacet
  facet normal 0 0 1
    outer loop
      vertex 52.9 0 8
      vertex 52.9 2 8
      vertex 42.9 2 8
    endloop
  endfacet
  facet normal 0 0 1
    outer loop
      vertex 42.9 0 8
      vertex 52.9 0 8
      vertex 42.9 2 8
    endloop
  endfacet
  facet normal -0.707107 0 0.707107
    outer loop
      vertex 55.4 2 10.5
      vertex 52.9 2 8
      vertex 55.4 0 10.5
    endloop
  endfacet
  facet normal -0.707107 0 0.707107
    outer loop
      vertex 55.4 0 10.5
      vertex 52.9 2 8
      vertex 52.9 0 8
    endloop
  endfacet
  facet normal -1 0 0
    outer loop
      vertex 55.4 2 14
      vertex 55.4 2 10.5
      vertex 55.4 0 14
    endloop
  endfacet
  facet normal -1 0 0
    outer loop
      vertex 55.4 0 14
      vertex 55.4 2 10.5
      vertex 55.4 0 10.5
    endloop
  endfacet
  facet normal 0 -0 1
    outer loop
      vertex 55.4 2 14
      vertex 55.4 0 14
      vertex 91 0 14
    endloop
  endfacet
  facet normal 0 -0 1
    outer loop
      vertex 89 2 14
      vertex 55.4 2 14
      vertex 91 0 14
    endloop
  endfacet
  facet normal 0 0 1
    outer loop
      vertex 91 5 14
      vertex 89 2 14
      vertex 91 0 14
    endloop
  endfacet
  facet normal 0 -0 1
    outer loop
      vertex 89 5 14
      vertex 89 2 14
      vertex 91 5 14
    endloop
  endfacet
  facet normal 1 0 0
    outer loop
      vertex 91 21 0
      vertex 91 21 14
      vertex 91 19 14
    endloop
  endfacet
  facet normal 1 0 0
    outer loop
      vertex 91 15.5 11.5
      vertex 91 21 0
      vertex 91 19 11.5
    endloop
  endfacet
  facet normal 1 0 0
    outer loop
      vertex 91 19 11.5
      vertex 91 21 0
      vertex 91 19 14
    endloop
  endfacet
  facet normal 1 0 0
    outer loop
      vertex 91 15.5 9.7
      vertex 91 21 0
      vertex 91 15.5 11.5
    endloop
  endfacet
  facet normal 1 0 0
    outer loop
      vertex 91 14.5 9.7
      vertex 91 21 0
      vertex 91 15.5 9.7
    endloop
  endfacet
  facet normal 1 0 0
    outer loop
      vertex 91 14.5 8.5
      vertex 91 21 0
      vertex 91 14.5 9.7
    endloop
  endfacet
  facet normal 1 0 0
    outer loop
      vertex 91 9.5 8.5
      vertex 91 21 0
      vertex 91 14.5 8.5
    endloop
  endfacet
  facet normal 1 0 0
    outer loop
      vertex 91 5 11.5
      vertex 91 21 0
      vertex 91 9.5 8.5
    endloop
  endfacet
  facet normal 1 0 0
    outer loop
      vertex 91 8.5 9.7
      vertex 91 9.5 8.5
      vertex 91 9.5 9.7
    endloop
  endfacet
  facet normal 1 0 0
    outer loop
      vertex 91 5 11.5
      vertex 91 9.5 8.5
      vertex 91 8.5 9.7
    endloop
  endfacet
  facet normal 1 0 0
    outer loop
      vertex 91 5 11.5
      vertex 91 8.5 9.7
      vertex 91 8.5 11.5
    endloop
  endfacet
  facet normal 1 0 0
    outer loop
      vertex 91 0 14
      vertex 91 21 0
      vertex 91 5 11.5
    endloop
  endfacet
  facet normal 1 0 0
    outer loop
      vertex 91 0 14
      vertex 91 5 11.5
      vertex 91 5 14
    endloop
  endfacet
  facet normal 1 0 0
    outer loop
      vertex 91 0 0
      vertex 91 21 0
      vertex 91 0 14
    endloop
  endfacet
  facet normal 0 -1 0
    outer loop
      vertex 97.5 21 0
      vertex 97.5 21 14
      vertex 91 21 14
    endloop
  endfacet
  facet normal -0 -1 -0
    outer loop
      vertex 91 21 0
      vertex 97.5 21 0
      vertex 91 21 14
    endloop
  endfacet
  facet normal 1 0 -0
    outer loop
      vertex 97.5 26.6 8.8
      vertex 97.5 21 0
      vertex 97.5 62 0
    endloop
  endfacet
  facet normal 1 0 0
    outer loop
      vertex 97.5 26.6 8.8
      vertex 97.5 26.6 14
      vertex 97.5 21 14
    endloop
  endfacet
  facet normal 1 0 0
    outer loop
      vertex 97.5 62 14
      vertex 97.5 39.7 14
      vertex 97.5 62 0
    endloop
  endfacet
  facet normal 1 0 -0
    outer loop
      vertex 97.5 39.7 14
      vertex 97.5 39.7 8.8
      vertex 97.5 62 0
    endloop
  endfacet
  facet normal 1 0 -0
    outer loop
      vertex 97.5 21 14
      vertex 97.5 21 0
      vertex 97.5 26.6 8.8
    endloop
  endfacet
  facet normal 1 0 -0
    outer loop
      vertex 97.5 39.7 8.8
      vertex 97.5 26.6 8.8
      vertex 97.5 62 0
    endloop
  endfacet
  facet normal 0 -0 1
    outer loop
      vertex 72.3077 61.7754 14
      vertex 71.71 60 14
      vertex 95.5 60 14
    endloop
  endfacet
  facet normal 0 0 1
    outer loop
      vertex 97.5 62 14
      vertex 72.3077 61.7754 14
      vertex 95.5 60 14
    endloop
  endfacet
  facet normal 0 0 1
    outer loop
      vertex 95.5 39.7 14
      vertex 97.5 39.7 14
      vertex 95.5 60 14
    endloop
  endfacet
  facet normal 0 0 1
    outer loop
      vertex 97.5 39.7 14
      vertex 97.5 62 14
      vertex 95.5 60 14
    endloop
  endfacet
  facet normal 0 0 1
    outer loop
      vertex 97.5 62 14
      vertex 72.3833 62 14
      vertex 72.3077 61.7754 14
    endloop
  endfacet
  facet normal -0.932612 0.313981 0.177905
    outer loop
      vertex 72.3077 61.7754 14
      vertex 72.3833 62 14
      vertex 71.6142 60 13.498
    endloop
  endfacet
  facet normal -0.932612 0.313981 0.177905
    outer loop
      vertex 71.6142 60 13.498
      vertex 72.3833 62 14
      vertex 72.2115 62 13.0991
    endloop
  endfacet
  facet normal -0.932612 0.313981 0.177905
    outer loop
      vertex 71.6142 60 13.498
      vertex 72.2115 62 13.0991
      vertex 71.5774 60 13.3051
    endloop
  endfacet
  facet normal -0.859069 0.313981 0.404248
    outer loop
      vertex 72.2115 62 13.0991
      vertex 72.1456 62 12.9593
      vertex 71.5774 60 13.3051
    endloop
  endfacet
  facet normal -0.859069 0.313981 0.404248
    outer loop
      vertex 71.5774 60 13.3051
      vertex 72.1456 62 12.9593
      vertex 71.2483 60 12.6058
    endloop
  endfacet
  facet normal -0.859069 0.313981 0.404248
    outer loop
      vertex 72.1456 62 12.9593
      vertex 71.7276 62 12.0709
      vertex 71.2483 60 12.6058
    endloop
  endfacet
  facet normal -0.859069 0.313981 0.404248
    outer loop
      vertex 71.2483 60 12.6058
      vertex 71.7276 62 12.0709
      vertex 71.1647 60 12.4281
    endloop
  endfacet
  facet normal -0.731548 0.313981 0.605189
    outer loop
      vertex 71.7276 62 12.0709
      vertex 71.6291 62 11.9518
      vertex 71.1647 60 12.4281
    endloop
  endfacet
  facet normal -0.731548 0.313981 0.605189
    outer loop
      vertex 71.1647 60 12.4281
      vertex 71.6291 62 11.9518
      vertex 70.6721 60 11.8326
    endloop
  endfacet
  facet normal -0.731548 0.313981 0.605189
    outer loop
      vertex 71.6291 62 11.9518
      vertex 71.0033 62 11.1953
      vertex 70.6721 60 11.8326
    endloop
  endfacet
  facet normal -0.731548 0.313981 0.605189
    outer loop
      vertex 70.6721 60 11.8326
      vertex 71.0033 62 11.1953
      vertex 70.5469 60 11.6813
    endloop
  endfacet
  facet normal -0.558061 0.313981 0.768104
    outer loop
      vertex 70.5469 60 11.6813
      vertex 71.0033 62 11.1953
      vertex 70.8782 62 11.1045
    endloop
  endfacet
  facet normal -0.558061 0.313981 0.768104
    outer loop
      vertex 69.9216 60 11.227
      vertex 70.5469 60 11.6813
      vertex 70.8782 62 11.1045
    endloop
  endfacet
  facet normal -0.55806 0.313981 0.768105
    outer loop
      vertex 69.9216 60 11.227
      vertex 70.8782 62 11.1045
      vertex 70.0839 62 10.5274
    endloop
  endfacet
  facet normal -0.55806 0.313981 0.768105
    outer loop
      vertex 69.7628 60 11.1116
      vertex 69.9216 60 11.227
      vertex 70.0839 62 10.5274
    endloop
  endfacet
  facet normal -0.349508 0.313981 0.882757
    outer loop
      vertex 69.7628 60 11.1116
      vertex 70.0839 62 10.5274
      vertex 69.9402 62 10.4705
    endloop
  endfacet
  facet normal -0.349508 0.313981 0.882757
    outer loop
      vertex 69.0442 60 10.8271
      vertex 69.7628 60 11.1116
      vertex 69.9402 62 10.4705
    endloop
  endfacet
  facet normal -0.349509 0.313981 0.882757
    outer loop
      vertex 69.0442 60 10.8271
      vertex 69.9402 62 10.4705
      vertex 69.0274 62 10.1091
    endloop
  endfacet
  facet normal -0.349509 0.313981 0.882757
    outer loop
      vertex 68.8616 60 10.7548
      vertex 69.0442 60 10.8271
      vertex 69.0274 62 10.1091
    endloop
  endfacet
  facet normal -0.118995 0.313981 0.941943
    outer loop
      vertex 68.8616 60 10.7548
      vertex 69.0274 62 10.1091
      vertex 68.874 62 10.0897
    endloop
  endfacet
  facet normal -0.118995 0.313981 0.941943
    outer loop
      vertex 68.0948 60 10.6579
      vertex 68.8616 60 10.7548
      vertex 68.874 62 10.0897
    endloop
  endfacet
  facet normal -0.118995 0.313981 0.941943
    outer loop
      vertex 67.9 60 10.6333
      vertex 68.0948 60 10.6579
      vertex 68.874 62 10.0897
    endloop
  endfacet
  facet normal -0.118995 0.313981 0.941943
    outer loop
      vertex 67.9 62 9.96667
      vertex 67.9 60 10.6333
      vertex 68.874 62 10.0897
    endloop
  endfacet
  facet normal 0.118995 0.313981 0.941943
    outer loop
      vertex 67.9 60 10.6333
      vertex 67.9 62 9.96667
      vertex 67.7466 62 9.98604
    endloop
  endfacet
  facet normal 0.118995 0.313981 0.941943
    outer loop
      vertex 67.1332 60 10.7302
      vertex 67.9 60 10.6333
      vertex 67.7466 62 9.98604
    endloop
  endfacet
  facet normal 0.118995 0.313981 0.941943
    outer loop
      vertex 66.9384 60 10.7548
      vertex 67.1332 60 10.7302
      vertex 67.7466 62 9.98604
    endloop
  endfacet
  facet normal 0.118995 0.313981 0.941943
    outer loop
      vertex 66.7726 62 10.1091
      vertex 66.9384 60 10.7548
      vertex 67.7466 62 9.98604
    endloop
  endfacet
  facet normal 0.349508 0.313981 0.882757
    outer loop
      vertex 66.9384 60 10.7548
      vertex 66.7726 62 10.1091
      vertex 66.6289 62 10.166
    endloop
  endfacet
  facet normal 0.349508 0.313981 0.882757
    outer loop
      vertex 66.2198 60 11.0393
      vertex 66.9384 60 10.7548
      vertex 66.6289 62 10.166
    endloop
  endfacet
  facet normal 0.349509 0.313981 0.882757
    outer loop
      vertex 66.0372 60 11.1116
      vertex 66.2198 60 11.0393
      vertex 66.6289 62 10.166
    endloop
  endfacet
  facet normal 0.349509 0.313981 0.882757
    outer loop
      vertex 65.7161 62 10.5274
      vertex 66.0372 60 11.1116
      vertex 66.6289 62 10.166
    endloop
  endfacet
  facet normal 0.558061 0.313981 0.768104
    outer loop
      vertex 66.0372 60 11.1116
      vertex 65.7161 62 10.5274
      vertex 65.591 62 10.6183
    endloop
  endfacet
  facet normal 0.558061 0.313981 0.768104
    outer loop
      vertex 65.4119 60 11.5659
      vertex 66.0372 60 11.1116
      vertex 65.591 62 10.6183
    endloop
  endfacet
  facet normal 0.55806 0.313981 0.768105
    outer loop
      vertex 65.2531 60 11.6813
      vertex 65.4119 60 11.5659
      vertex 65.591 62 10.6183
    endloop
  endfacet
  facet normal 0.55806 0.313981 0.768105
    outer loop
      vertex 64.7967 62 11.1953
      vertex 65.2531 60 11.6813
      vertex 65.591 62 10.6183
    endloop
  endfacet
  facet normal 0.731548 0.313981 0.605189
    outer loop
      vertex 64.7604 60 12.2768
      vertex 65.2531 60 11.6813
      vertex 64.7967 62 11.1953
    endloop
  endfacet
  facet normal 0.731548 0.313981 0.605189
    outer loop
      vertex 64.6982 62 11.3144
      vertex 64.7604 60 12.2768
      vertex 64.7967 62 11.1953
    endloop
  endfacet
  facet normal 0.731548 0.313981 0.605189
    outer loop
      vertex 64.6353 60 12.4281
      vertex 64.7604 60 12.2768
      vertex 64.6982 62 11.3144
    endloop
  endfacet
  facet normal 0.731548 0.313981 0.605189
    outer loop
      vertex 64.0724 62 12.0709
      vertex 64.6353 60 12.4281
      vertex 64.6982 62 11.3144
    endloop
  endfacet
  facet normal 0.859069 0.313981 0.404248
    outer loop
      vertex 64.3062 60 13.1275
      vertex 64.6353 60 12.4281
      vertex 64.0724 62 12.0709
    endloop
  endfacet
  facet normal 0.859069 0.313981 0.404248
    outer loop
      vertex 64.0066 62 12.2108
      vertex 64.3062 60 13.1275
      vertex 64.0724 62 12.0709
    endloop
  endfacet
  facet normal 0.859069 0.313981 0.404248
    outer loop
      vertex 64.2226 60 13.3051
      vertex 64.3062 60 13.1275
      vertex 64.0066 62 12.2108
    endloop
  endfacet
  facet normal 0.859069 0.313981 0.404248
    outer loop
      vertex 63.5885 62 13.0991
      vertex 64.2226 60 13.3051
      vertex 64.0066 62 12.2108
    endloop
  endfacet
  facet normal 0.932612 0.313981 0.177906
    outer loop
      vertex 64.0368 60.1582 14
      vertex 64.09 60 14
      vertex 64.2226 60 13.3051
    endloop
  endfacet
  facet normal 0.932612 0.313981 0.177906
    outer loop
      vertex 63.5596 62 13.251
      vertex 64.0368 60.1582 14
      vertex 63.5885 62 13.0991
    endloop
  endfacet
  facet normal 0.932612 0.313981 0.177906
    outer loop
      vertex 63.5885 62 13.0991
      vertex 64.0368 60.1582 14
      vertex 64.2226 60 13.3051
    endloop
  endfacet
  facet normal 0.932612 0.313981 0.177905
    outer loop
      vertex 64.0368 60.1582 14
      vertex 63.5596 62 13.251
      vertex 63.4167 62 14
    endloop
  endfacet
  facet normal 0 -0 1
    outer loop
      vertex 53.6839 61.2422 14
      vertex 53.2298 60 14
      vertex 64.09 60 14
    endloop
  endfacet
  facet normal 0 -0 1
    outer loop
      vertex 63.4167 62 14
      vertex 53.6839 61.2422 14
      vertex 64.0368 60.1582 14
    endloop
  endfacet
  facet normal -0 -0 1
    outer loop
      vertex 64.0368 60.1582 14
      vertex 53.6839 61.2422 14
      vertex 64.09 60 14
    endloop
  endfacet
  facet normal 0 -0 1
    outer loop
      vertex 53.9608 62 14
      vertex 53.6839 61.2422 14
      vertex 63.4167 62 14
    endloop
  endfacet
  facet normal -0.859069 0.313981 0.404247
    outer loop
      vertex 53.6839 61.2422 14
      vertex 53.9608 62 14
      vertex 53.0691 60 13.6584
    endloop
  endfacet
  facet normal -0.859069 0.313981 0.404247
    outer loop
      vertex 53.0691 60 13.6584
      vertex 53.9608 62 14
      vertex 53.5252 62 13.0743
    endloop
  endfacet
  facet normal -0.859069 0.313981 0.404247
    outer loop
      vertex 53.0691 60 13.6584
      vertex 53.5252 62 13.0743
      vertex 52.9624 60 13.4316
    endloop
  endfacet
  facet normal -0.731548 0.313981 0.605189
    outer loop
      vertex 53.5252 62 13.0743
      vertex 53.3921 62 12.9134
      vertex 52.9624 60 13.4316
    endloop
  endfacet
  facet normal -0.731548 0.313981 0.605189
    outer loop
      vertex 52.9624 60 13.4316
      vertex 53.3921 62 12.9134
      vertex 52.2966 60 12.6268
    endloop
  endfacet
  facet normal -0.731548 0.313981 0.605189
    outer loop
      vertex 53.3921 62 12.9134
      vertex 52.5932 62 11.9477
      vertex 52.2966 60 12.6268
    endloop
  endfacet
  facet normal -0.731548 0.313981 0.605189
    outer loop
      vertex 52.2966 60 12.6268
      vertex 52.5932 62 11.9477
      vertex 52.1368 60 12.4337
    endloop
  endfacet
  facet normal -0.55806 0.313981 0.768105
    outer loop
      vertex 52.1368 60 12.4337
      vertex 52.5932 62 11.9477
      vertex 52.4242 62 11.8249
    endloop
  endfacet
  facet normal -0.55806 0.313981 0.768105
    outer loop
      vertex 51.2919 60 11.8198
      vertex 52.1368 60 12.4337
      vertex 52.4242 62 11.8249
    endloop
  endfacet
  facet normal -0.55806 0.313981 0.768105
    outer loop
      vertex 51.2919 60 11.8198
      vertex 52.4242 62 11.8249
      vertex 51.4102 62 11.0882
    endloop
  endfacet
  facet normal -0.55806 0.313981 0.768105
    outer loop
      vertex 51.0891 60 11.6724
      vertex 51.2919 60 11.8198
      vertex 51.4102 62 11.0882
    endloop
  endfacet
  facet normal -0.349509 0.313981 0.882757
    outer loop
      vertex 51.0891 60 11.6724
      vertex 51.4102 62 11.0882
      vertex 51.216 62 11.0113
    endloop
  endfacet
  facet normal -0.349509 0.313981 0.882757
    outer loop
      vertex 50.118 60 11.2879
      vertex 51.0891 60 11.6724
      vertex 51.216 62 11.0113
    endloop
  endfacet
  facet normal -0.349508 0.313981 0.882757
    outer loop
      vertex 50.118 60 11.2879
      vertex 51.216 62 11.0113
      vertex 50.0507 62 10.5499
    endloop
  endfacet
  facet normal -0.349508 0.313981 0.882757
    outer loop
      vertex 49.8849 60 11.1957
      vertex 50.118 60 11.2879
      vertex 50.0507 62 10.5499
    endloop
  endfacet
  facet normal -0.118995 0.313981 0.941943
    outer loop
      vertex 49.8849 60 11.1957
      vertex 50.0507 62 10.5499
      vertex 49.8434 62 10.5238
    endloop
  endfacet
  facet normal -0.118995 0.313981 0.941943
    outer loop
      vertex 48.8487 60 11.0648
      vertex 49.8849 60 11.1957
      vertex 49.8434 62 10.5238
    endloop
  endfacet
  facet normal -0.118995 0.313981 0.941943
    outer loop
      vertex 48.6 60 11.0333
      vertex 48.8487 60 11.0648
      vertex 49.8434 62 10.5238
    endloop
  endfacet
  facet normal -0.118995 0.313981 0.941943
    outer loop
      vertex 48.6 62 10.3667
      vertex 48.6 60 11.0333
      vertex 49.8434 62 10.5238
    endloop
  endfacet
  facet normal 0.118995 0.313981 0.941943
    outer loop
      vertex 48.6 60 11.0333
      vertex 48.6 62 10.3667
      vertex 48.3928 62 10.3928
    endloop
  endfacet
  facet normal 0.118995 0.313981 0.941943
    outer loop
      vertex 47.5638 60 11.1642
      vertex 48.6 60 11.0333
      vertex 48.3928 62 10.3928
    endloop
  endfacet
  facet normal 0.118995 0.313981 0.941943
    outer loop
      vertex 47.3151 60 11.1957
      vertex 47.5638 60 11.1642
      vertex 48.3928 62 10.3928
    endloop
  endfacet
  facet normal 0.118995 0.313981 0.941943
    outer loop
      vertex 47.1493 62 10.5499
      vertex 47.3151 60 11.1957
      vertex 48.3928 62 10.3928
    endloop
  endfacet
  facet normal 0.349509 0.313981 0.882757
    outer loop
      vertex 47.3151 60 11.1957
      vertex 47.1493 62 10.5499
      vertex 46.9551 62 10.6268
    endloop
  endfacet
  facet normal 0.349509 0.313981 0.882757
    outer loop
      vertex 46.344 60 11.5801
      vertex 47.3151 60 11.1957
      vertex 46.9551 62 10.6268
    endloop
  endfacet
  facet normal 0.349508 0.313981 0.882757
    outer loop
      vertex 46.1109 60 11.6724
      vertex 46.344 60 11.5801
      vertex 46.9551 62 10.6268
    endloop
  endfacet
  facet normal 0.349508 0.313981 0.882757
    outer loop
      vertex 45.7898 62 11.0882
      vertex 46.1109 60 11.6724
      vertex 46.9551 62 10.6268
    endloop
  endfacet
  facet normal 0.55806 0.313981 0.768105
    outer loop
      vertex 46.1109 60 11.6724
      vertex 45.7898 62 11.0882
      vertex 45.6208 62 11.211
    endloop
  endfacet
  facet normal 0.55806 0.313981 0.768105
    outer loop
      vertex 45.266 60 12.2863
      vertex 46.1109 60 11.6724
      vertex 45.6208 62 11.211
    endloop
  endfacet
  facet normal 0.55806 0.313981 0.768105
    outer loop
      vertex 45.0632 60 12.4337
      vertex 45.266 60 12.2863
      vertex 45.6208 62 11.211
    endloop
  endfacet
  facet normal 0.55806 0.313981 0.768105
    outer loop
      vertex 44.6068 62 11.9477
      vertex 45.0632 60 12.4337
      vertex 45.6208 62 11.211
    endloop
  endfacet
  facet normal 0.731548 0.313981 0.605189
    outer loop
      vertex 45.0632 60 12.4337
      vertex 44.6068 62 11.9477
      vertex 44.4737 62 12.1086
    endloop
  endfacet
  facet normal 0.731548 0.313981 0.605189
    outer loop
      vertex 44.3974 60 13.2384
      vertex 45.0632 60 12.4337
      vertex 44.4737 62 12.1086
    endloop
  endfacet
  facet normal 0.731548 0.313981 0.605189
    outer loop
      vertex 44.2376 60 13.4316
      vertex 44.3974 60 13.2384
      vertex 44.4737 62 12.1086
    endloop
  endfacet
  facet normal 0.731548 0.313981 0.605189
    outer loop
      vertex 43.6748 62 13.0743
      vertex 44.2376 60 13.4316
      vertex 44.4737 62 12.1086
    endloop
  endfacet
  facet normal 0.859069 0.313981 0.404247
    outer loop
      vertex 43.7229 60.6766 14
      vertex 43.9702 60 14
      vertex 44.2376 60 13.4316
    endloop
  endfacet
  facet normal 0.859069 0.313981 0.404247
    outer loop
      vertex 43.5858 62 13.2634
      vertex 43.7229 60.6766 14
      vertex 43.6748 62 13.0743
    endloop
  endfacet
  facet normal 0.859069 0.313981 0.404247
    outer loop
      vertex 43.6748 62 13.0743
      vertex 43.7229 60.6766 14
      vertex 44.2376 60 13.4316
    endloop
  endfacet
  facet normal 0.859069 0.313981 0.404247
    outer loop
      vertex 43.7229 60.6766 14
      vertex 43.5858 62 13.2634
      vertex 43.2392 62 14
    endloop
  endfacet
  facet normal 0 -1 0
    outer loop
      vertex 22 60 6
      vertex 22 60 2
      vertex 75 60 2
    endloop
  endfacet
  facet normal 0 -1 0
    outer loop
      vertex 67.9 60 10.6333
      vertex 22 60 6
      vertex 75 60 6
    endloop
  endfacet
  facet normal 0 -1 0
    outer loop
      vertex 75 60 6
      vertex 22 60 6
      vertex 75 60 2
    endloop
  endfacet
  facet normal 0 -1 0
    outer loop
      vertex 95.5 60 14
      vertex 75 60 6
      vertex 95 60 6
    endloop
  endfacet
  facet normal 0 -1 0
    outer loop
      vertex 95.5 60 2
      vertex 95 60 6
      vertex 95 60 2
    endloop
  endfacet
  facet normal 0 -1 0
    outer loop
      vertex 95.5 60 14
      vertex 95 60 6
      vertex 95.5 60 2
    endloop
  endfacet
  facet normal 0 -1 0
    outer loop
      vertex 71.71 60 14
      vertex 71.6142 60 13.498
      vertex 95.5 60 14
    endloop
  endfacet
  facet normal 0 -1 0
    outer loop
      vertex 47.3151 60 11.1957
      vertex 46.344 60 11.5801
      vertex 22 60 6
    endloop
  endfacet
  facet normal -0 -1 0
    outer loop
      vertex 71.6142 60 13.498
      vertex 71.5774 60 13.3051
      vertex 95.5 60 14
    endloop
  endfacet
  facet normal -0 -1 0
    outer loop
      vertex 71.5774 60 13.3051
      vertex 71.2483 60 12.6058
      vertex 95.5 60 14
    endloop
  endfacet
  facet normal -0 -1 0
    outer loop
      vertex 71.2483 60 12.6058
      vertex 71.1647 60 12.4281
      vertex 95.5 60 14
    endloop
  endfacet
  facet normal -0 -1 0
    outer loop
      vertex 71.1647 60 12.4281
      vertex 70.6721 60 11.8326
      vertex 95.5 60 14
    endloop
  endfacet
  facet normal -0 -1 0
    outer loop
      vertex 70.6721 60 11.8326
      vertex 70.5469 60 11.6813
      vertex 95.5 60 14
    endloop
  endfacet
  facet normal 0 -1 0
    outer loop
      vertex 65.4119 60 11.5659
      vertex 65.2531 60 11.6813
      vertex 22 60 6
    endloop
  endfacet
  facet normal -0 -1 0
    outer loop
      vertex 70.5469 60 11.6813
      vertex 69.9216 60 11.227
      vertex 95.5 60 14
    endloop
  endfacet
  facet normal 0 -1 0
    outer loop
      vertex 95.5 60 14
      vertex 69.7628 60 11.1116
      vertex 75 60 6
    endloop
  endfacet
  facet normal 0 -1 0
    outer loop
      vertex 69.7628 60 11.1116
      vertex 69.0442 60 10.8271
      vertex 75 60 6
    endloop
  endfacet
  facet normal 0 -1 0
    outer loop
      vertex 69.0442 60 10.8271
      vertex 68.8616 60 10.7548
      vertex 75 60 6
    endloop
  endfacet
  facet normal 0 -1 0
    outer loop
      vertex 68.8616 60 10.7548
      vertex 68.0948 60 10.6579
      vertex 75 60 6
    endloop
  endfacet
  facet normal 0 -1 0
    outer loop
      vertex 66.9384 60 10.7548
      vertex 66.2198 60 11.0393
      vertex 22 60 6
    endloop
  endfacet
  facet normal 0 -1 0
    outer loop
      vertex 68.0948 60 10.6579
      vertex 67.9 60 10.6333
      vertex 75 60 6
    endloop
  endfacet
  facet normal -0 -1 0
    outer loop
      vertex 51.0891 60 11.6724
      vertex 50.118 60 11.2879
      vertex 64.09 60 14
    endloop
  endfacet
  facet normal 0 -1 0
    outer loop
      vertex 66.9384 60 10.7548
      vertex 22 60 6
      vertex 67.1332 60 10.7302
    endloop
  endfacet
  facet normal 0 -1 0
    outer loop
      vertex 66.0372 60 11.1116
      vertex 65.4119 60 11.5659
      vertex 22 60 6
    endloop
  endfacet
  facet normal 0 -1 0
    outer loop
      vertex 66.0372 60 11.1116
      vertex 22 60 6
      vertex 66.2198 60 11.0393
    endloop
  endfacet
  facet normal 0 -1 0
    outer loop
      vertex 64.6353 60 12.4281
      vertex 64.3062 60 13.1275
      vertex 22 60 6
    endloop
  endfacet
  facet normal 0 -1 0
    outer loop
      vertex 65.2531 60 11.6813
      vertex 64.7604 60 12.2768
      vertex 22 60 6
    endloop
  endfacet
  facet normal 0 -1 0
    outer loop
      vertex 64.7604 60 12.2768
      vertex 64.6353 60 12.4281
      vertex 22 60 6
    endloop
  endfacet
  facet normal 0 -1 0
    outer loop
      vertex 64.2226 60 13.3051
      vertex 22 60 6
      vertex 64.3062 60 13.1275
    endloop
  endfacet
  facet normal -0 -1 0
    outer loop
      vertex 49.8849 60 11.1957
      vertex 22 60 6
      vertex 64.2226 60 13.3051
    endloop
  endfacet
  facet normal 0 -1 0
    outer loop
      vertex 46.1109 60 11.6724
      vertex 45.266 60 12.2863
      vertex 22 60 6
    endloop
  endfacet
  facet normal 0 -1 0
    outer loop
      vertex 53.2298 60 14
      vertex 53.0691 60 13.6584
      vertex 64.09 60 14
    endloop
  endfacet
  facet normal -0 -1 0
    outer loop
      vertex 53.0691 60 13.6584
      vertex 52.9624 60 13.4316
      vertex 64.09 60 14
    endloop
  endfacet
  facet normal -0 -1 0
    outer loop
      vertex 52.9624 60 13.4316
      vertex 52.2966 60 12.6268
      vertex 64.09 60 14
    endloop
  endfacet
  facet normal -0 -1 0
    outer loop
      vertex 52.2966 60 12.6268
      vertex 52.1368 60 12.4337
      vertex 64.09 60 14
    endloop
  endfacet
  facet normal -0 -1 0
    outer loop
      vertex 52.1368 60 12.4337
      vertex 51.2919 60 11.8198
      vertex 64.09 60 14
    endloop
  endfacet
  facet normal -0 -1 0
    outer loop
      vertex 51.2919 60 11.8198
      vertex 51.0891 60 11.6724
      vertex 64.09 60 14
    endloop
  endfacet
  facet normal 0 -1 0
    outer loop
      vertex 64.09 60 14
      vertex 50.118 60 11.2879
      vertex 64.2226 60 13.3051
    endloop
  endfacet
  facet normal -0 -1 0
    outer loop
      vertex 50.118 60 11.2879
      vertex 49.8849 60 11.1957
      vertex 64.2226 60 13.3051
    endloop
  endfacet
  facet normal -0 -1 0
    outer loop
      vertex 48.6 60 11.0333
      vertex 22 60 6
      vertex 48.8487 60 11.0648
    endloop
  endfacet
  facet normal 0 -1 0
    outer loop
      vertex 49.8849 60 11.1957
      vertex 48.8487 60 11.0648
      vertex 22 60 6
    endloop
  endfacet
  facet normal 0 -1 0
    outer loop
      vertex 48.6 60 11.0333
      vertex 47.5638 60 11.1642
      vertex 22 60 6
    endloop
  endfacet
  facet normal 0 -1 0
    outer loop
      vertex 47.3151 60 11.1957
      vertex 22 60 6
      vertex 47.5638 60 11.1642
    endloop
  endfacet
  facet normal 0 -1 0
    outer loop
      vertex 46.1109 60 11.6724
      vertex 22 60 6
      vertex 46.344 60 11.5801
    endloop
  endfacet
  facet normal 0 -1 0
    outer loop
      vertex 45.0632 60 12.4337
      vertex 22 60 6
      vertex 45.266 60 12.2863
    endloop
  endfacet
  facet normal 0 -1 0
    outer loop
      vertex 44.3974 60 13.2384
      vertex 22 60 6
      vertex 45.0632 60 12.4337
    endloop
  endfacet
  facet normal 0 -1 0
    outer loop
      vertex 44.2376 60 13.4316
      vertex 22 60 6
      vertex 44.3974 60 13.2384
    endloop
  endfacet
  facet normal 0 -1 0
    outer loop
      vertex 43.9702 60 14
      vertex 22 60 6
      vertex 44.2376 60 13.4316
    endloop
  endfacet
  facet normal 0 -1 0
    outer loop
      vertex 2 60 14
      vertex 22 60 6
      vertex 43.9702 60 14
    endloop
  endfacet
  facet normal -0 -1 0
    outer loop
      vertex 69.9216 60 11.227
      vertex 69.7628 60 11.1116
      vertex 95.5 60 14
    endloop
  endfacet
  facet normal -0 -1 -0
    outer loop
      vertex 2 60 6
      vertex 22 60 6
      vertex 2 60 14
    endloop
  endfacet
  facet normal 0 -1 0
    outer loop
      vertex 67.9 60 10.6333
      vertex 67.1332 60 10.7302
      vertex 22 60 6
    endloop
  endfacet
  facet normal 1 0 -0
    outer loop
      vertex 2 19 3
      vertex 2 4 2
      vertex 2 58 2
    endloop
  endfacet
  facet normal 1 0 0
    outer loop
      vertex 2 60 14
      vertex 2 58 6
      vertex 2 60 6
    endloop
  endfacet
  facet normal 1 0 -0
    outer loop
      vertex 2 12.8 8
      vertex 2 4 6
      vertex 2 60 14
    endloop
  endfacet
  facet normal 1 0 0
    outer loop
      vertex 2 2 14
      vertex 2 5.9 11
      vertex 2 60 14
    endloop
  endfacet
  facet normal 1 0 0
    outer loop
      vertex 2 2 14
      vertex 2 4 6
      vertex 2 5.9 11
    endloop
  endfacet
  facet normal 1 0 0
    outer loop
      vertex 2 5.9 11
      vertex 2 13.8 11
      vertex 2 60 14
    endloop
  endfacet
  facet normal 1 0 -0
    outer loop
      vertex 2 13.8 11
      vertex 2 13.8 9
      vertex 2 60 14
    endloop
  endfacet
  facet normal 1 0 -0
    outer loop
      vertex 2 47 3
      vertex 2 19 3
      vertex 2 58 2
    endloop
  endfacet
  facet normal 1 0 -0
    outer loop
      vertex 2 13.8 9
      vertex 2 12.8 8
      vertex 2 60 14
    endloop
  endfacet
  facet normal 1 0 -0
    outer loop
      vertex 2 5.9 9
      vertex 2 4 6
      vertex 2 6.9 8
    endloop
  endfacet
  facet normal 1 0 0
    outer loop
      vertex 2 5.9 11
      vertex 2 4 6
      vertex 2 5.9 9
    endloop
  endfacet
  facet normal 1 0 0
    outer loop
      vertex 2 60 14
      vertex 2 4 6
      vertex 2 19 6.5
    endloop
  endfacet
  facet normal 1 0 0
    outer loop
      vertex 2 60 14
      vertex 2 47 6.5
      vertex 2 58 6
    endloop
  endfacet
  facet normal 1 0 0
    outer loop
      vertex 2 60 14
      vertex 2 19 6.5
      vertex 2 47 6.5
    endloop
  endfacet
  facet normal 1 0 0
    outer loop
      vertex 2 58 6
      vertex 2 47 3
      vertex 2 58 2
    endloop
  endfacet
  facet normal 1 0 -0
    outer loop
      vertex 2 47 6.5
      vertex 2 47 3
      vertex 2 58 6
    endloop
  endfacet
  facet normal 1 0 -0
    outer loop
      vertex 2 4 6
      vertex 2 4 2
      vertex 2 19 3
    endloop
  endfacet
  facet normal 1 0 0
    outer loop
      vertex 2 2 6
      vertex 2 4 6
      vertex 2 2 14
    endloop
  endfacet
  facet normal 1 0 0
    outer loop
      vertex 2 12.8 8
      vertex 2 6.9 8
      vertex 2 4 6
    endloop
  endfacet
  facet normal 1 0 0
    outer loop
      vertex 2 19 3
      vertex 2 19 6.5
      vertex 2 4 6
    endloop
  endfacet
  facet normal 0 1 0
    outer loop
      vertex 40.4 2 14
      vertex 40.4 2 10.5
      vertex 2 2 14
    endloop
  endfacet
  facet normal 0 1 0
    outer loop
      vertex 2 2 14
      vertex 40.4 2 10.5
      vertex 42.9 2 8
    endloop
  endfacet
  facet normal 0 1 0
    outer loop
      vertex 55.4 2 10.5
      vertex 55.4 2 14
      vertex 89 2 14
    endloop
  endfacet
  facet normal 0 1 -0
    outer loop
      vertex 55.4 2 10.5
      vertex 89 2 14
      vertex 52.9 2 8
    endloop
  endfacet
  facet normal 0 1 0
    outer loop
      vertex 88 2 6
      vertex 89 2 14
      vertex 89 2 2
    endloop
  endfacet
  facet normal 0 1 0
    outer loop
      vertex 52.9 2 8
      vertex 89 2 14
      vertex 88 2 6
    endloop
  endfacet
  facet normal 0 1 0
    outer loop
      vertex 68 2 2
      vertex 42.9 2 8
      vertex 52.9 2 8
    endloop
  endfacet
  facet normal 0 1 0
    outer loop
      vertex 52.9 2 8
      vertex 88 2 6
      vertex 68 2 6
    endloop
  endfacet
  facet normal 0 1 0
    outer loop
      vertex 68 2 2
      vertex 52.9 2 8
      vertex 68 2 6
    endloop
  endfacet
  facet normal 0 1 0
    outer loop
      vertex 2 2 6
      vertex 2 2 14
      vertex 22 2 6
    endloop
  endfacet
  facet normal -0 1 -0
    outer loop
      vertex 42.9 2 8
      vertex 68 2 2
      vertex 2 2 14
    endloop
  endfacet
  facet normal 0 1 -0
    outer loop
      vertex 22 2 6
      vertex 68 2 2
      vertex 22 2 2
    endloop
  endfacet
  facet normal 0 1 0
    outer loop
      vertex 2 2 14
      vertex 68 2 2
      vertex 22 2 6
    endloop
  endfacet
  facet normal 0 1 -0
    outer loop
      vertex 88 2 6
      vertex 89 2 2
      vertex 88 2 2
    endloop
  endfacet
  facet normal -1 0 -0
    outer loop
      vertex 89 2 2
      vertex 89 2 14
      vertex 89 5 11.5
    endloop
  endfacet
  facet normal -1 0 0
    outer loop
      vertex 89 14.5 8.5
      vertex 89 23 2
      vertex 89 9.5 8.5
    endloop
  endfacet
  facet normal -1 0 0
    outer loop
      vertex 89 8.5 11.5
      vertex 89 8.5 9.7
      vertex 89 5 11.5
    endloop
  endfacet
  facet normal -1 0 0
    outer loop
      vertex 89 2 2
      vertex 89 5 11.5
      vertex 89 9.5 8.5
    endloop
  endfacet
  facet normal -1 -0 0
    outer loop
      vertex 89 2 2
      vertex 89 9.5 8.5
      vertex 89 23 2
    endloop
  endfacet
  facet normal -1 0 0
    outer loop
      vertex 89 23 2
      vertex 89 14.5 8.5
      vertex 89 14.5 9.7
    endloop
  endfacet
  facet normal -1 0 0
    outer loop
      vertex 89 23 2
      vertex 89 14.5 9.7
      vertex 89 15.5 9.7
    endloop
  endfacet
  facet normal -1 -0 -0
    outer loop
      vertex 89 15.5 9.7
      vertex 89 15.5 11.5
      vertex 89 23 2
    endloop
  endfacet
  facet normal -1 0 0
    outer loop
      vertex 89 23 2
      vertex 89 15.5 11.5
      vertex 89 19 11.5
    endloop
  endfacet
  facet normal -1 -0 -0
    outer loop
      vertex 89 19 11.5
      vertex 89 19 14
      vertex 89 23 2
    endloop
  endfacet
  facet normal -1 0 0
    outer loop
      vertex 89 23 2
      vertex 89 19 14
      vertex 89 23 14
    endloop
  endfacet
  facet normal -1 0 0
    outer loop
      vertex 89 5 11.5
      vertex 89 2 14
      vertex 89 5 14
    endloop
  endfacet
  facet normal -1 0 0
    outer loop
      vertex 89 9.5 8.5
      vertex 89 5 11.5
      vertex 89 8.5 9.7
    endloop
  endfacet
  facet normal -1 0 0
    outer loop
      vertex 89 9.5 8.5
      vertex 89 8.5 9.7
      vertex 89 9.5 9.7
    endloop
  endfacet
  facet normal 0 1 0
    outer loop
      vertex 91 5 14
      vertex 91 5 11.5
      vertex 89 5 14
    endloop
  endfacet
  facet normal 0 1 -0
    outer loop
      vertex 89 5 14
      vertex 91 5 11.5
      vertex 89 5 11.5
    endloop
  endfacet
  facet normal 0 0 1
    outer loop
      vertex 91 5 11.5
      vertex 91 8.5 11.5
      vertex 89 8.5 11.5
    endloop
  endfacet
  facet normal 0 0 1
    outer loop
      vertex 89 5 11.5
      vertex 91 5 11.5
      vertex 89 8.5 11.5
    endloop
  endfacet
  facet normal 0 1 0
    outer loop
      vertex 91 8.5 11.5
      vertex 91 8.5 9.7
      vertex 89 8.5 11.5
    endloop
  endfacet
  facet normal 0 1 -0
    outer loop
      vertex 89 8.5 11.5
      vertex 91 8.5 9.7
      vertex 89 8.5 9.7
    endloop
  endfacet
  facet normal 0 0 1
    outer loop
      vertex 91 8.5 9.7
      vertex 91 9.5 9.7
      vertex 89 9.5 9.7
    endloop
  endfacet
  facet normal 0 0 1
    outer loop
      vertex 89 8.5 9.7
      vertex 91 8.5 9.7
      vertex 89 9.5 9.7
    endloop
  endfacet
  facet normal 0 1 0
    outer loop
      vertex 91 9.5 9.7
      vertex 91 9.5 8.5
      vertex 89 9.5 9.7
    endloop
  endfacet
  facet normal 0 1 -0
    outer loop
      vertex 89 9.5 9.7
      vertex 91 9.5 8.5
      vertex 89 9.5 8.5
    endloop
  endfacet
  facet normal 0 0 1
    outer loop
      vertex 91 9.5 8.5
      vertex 91 14.5 8.5
      vertex 89 14.5 8.5
    endloop
  endfacet
  facet normal 0 0 1
    outer loop
      vertex 89 9.5 8.5
      vertex 91 9.5 8.5
      vertex 89 14.5 8.5
    endloop
  endfacet
  facet normal 0 -1 0
    outer loop
      vertex 91 14.5 8.5
      vertex 91 14.5 9.7
      vertex 89 14.5 9.7
    endloop
  endfacet
  facet normal -0 -1 -0
    outer loop
      vertex 89 14.5 8.5
      vertex 91 14.5 8.5
      vertex 89 14.5 9.7
    endloop
  endfacet
  facet normal 0 0 1
    outer loop
      vertex 91 14.5 9.7
      vertex 91 15.5 9.7
      vertex 89 15.5 9.7
    endloop
  endfacet
  facet normal 0 0 1
    outer loop
      vertex 89 14.5 9.7
      vertex 91 14.5 9.7
      vertex 89 15.5 9.7
    endloop
  endfacet
  facet normal 0 -1 0
    outer loop
      vertex 91 15.5 9.7
      vertex 91 15.5 11.5
      vertex 89 15.5 11.5
    endloop
  endfacet
  facet normal -0 -1 -0
    outer loop
      vertex 89 15.5 9.7
      vertex 91 15.5 9.7
      vertex 89 15.5 11.5
    endloop
  endfacet
  facet normal 0 0 1
    outer loop
      vertex 91 15.5 11.5
      vertex 91 19 11.5
      vertex 89 19 11.5
    endloop
  endfacet
  facet normal 0 0 1
    outer loop
      vertex 89 15.5 11.5
      vertex 91 15.5 11.5
      vertex 89 19 11.5
    endloop
  endfacet
  facet normal 0 -1 0
    outer loop
      vertex 91 19 11.5
      vertex 91 19 14
      vertex 89 19 14
    endloop
  endfacet
  facet normal -0 -1 -0
    outer loop
      vertex 89 19 11.5
      vertex 91 19 11.5
      vertex 89 19 14
    endloop
  endfacet
  facet normal 0 -0 1
    outer loop
      vertex 89 23 14
      vertex 89 19 14
      vertex 91 19 14
    endloop
  endfacet
  facet normal -0 0 1
    outer loop
      vertex 97.5 21 14
      vertex 89 23 14
      vertex 91 21 14
    endloop
  endfacet
  facet normal -0 0 1
    outer loop
      vertex 91 21 14
      vertex 89 23 14
      vertex 91 19 14
    endloop
  endfacet
  facet normal 0 -0 1
    outer loop
      vertex 95.5 23 14
      vertex 89 23 14
      vertex 97.5 21 14
    endloop
  endfacet
  facet normal 0 0 1
    outer loop
      vertex 97.5 26.6 14
      vertex 95.5 23 14
      vertex 97.5 21 14
    endloop
  endfacet
  facet normal 0 -0 1
    outer loop
      vertex 95.5 26.6 14
      vertex 95.5 23 14
      vertex 97.5 26.6 14
    endloop
  endfacet
  facet normal 0 1 0
    outer loop
      vertex 97.5 26.6 14
      vertex 97.5 26.6 8.8
      vertex 95.5 26.6 14
    endloop
  endfacet
  facet normal 0 1 -0
    outer loop
      vertex 95.5 26.6 14
      vertex 97.5 26.6 8.8
      vertex 95.5 26.6 8.8
    endloop
  endfacet
  facet normal 0 0 1
    outer loop
      vertex 97.5 26.6 8.8
      vertex 97.5 39.7 8.8
      vertex 95.5 39.7 8.8
    endloop
  endfacet
  facet normal 0 0 1
    outer loop
      vertex 95.5 26.6 8.8
      vertex 97.5 26.6 8.8
      vertex 95.5 39.7 8.8
    endloop
  endfacet
  facet normal 0 -1 0
    outer loop
      vertex 97.5 39.7 8.8
      vertex 97.5 39.7 14
      vertex 95.5 39.7 14
    endloop
  endfacet
  facet normal -0 -1 -0
    outer loop
      vertex 95.5 39.7 8.8
      vertex 97.5 39.7 8.8
      vertex 95.5 39.7 14
    endloop
  endfacet
  facet normal -0.932612 0.313981 0.177906
    outer loop
      vertex 71.71 60 14
      vertex 72.3077 61.7754 14
      vertex 71.6142 60 13.498
    endloop
  endfacet
  facet normal -1 0 0
    outer loop
      vertex 95.5 26.6 14
      vertex 95.5 26.6 8.8
      vertex 95.5 23 14
    endloop
  endfacet
  facet normal -1 -0 0
    outer loop
      vertex 95.5 23 2
      vertex 95.5 26.6 8.8
      vertex 95.5 60 2
    endloop
  endfacet
  facet normal -1 0 0
    outer loop
      vertex 95.5 60 14
      vertex 95.5 39.7 8.8
      vertex 95.5 39.7 14
    endloop
  endfacet
  facet normal -1 0 0
    outer loop
      vertex 95.5 60 2
      vertex 95.5 39.7 8.8
      vertex 95.5 60 14
    endloop
  endfacet
  facet normal -1 0 0
    outer loop
      vertex 95.5 26.6 8.8
      vertex 95.5 39.7 8.8
      vertex 95.5 60 2
    endloop
  endfacet
  facet normal -1 0 0
    outer loop
      vertex 95.5 23 14
      vertex 95.5 26.6 8.8
      vertex 95.5 23 2
    endloop
  endfacet
  facet normal -0.859069 0.313981 0.404247
    outer loop
      vertex 53.2298 60 14
      vertex 53.6839 61.2422 14
      vertex 53.0691 60 13.6584
    endloop
  endfacet
  facet normal 0 -0 1
    outer loop
      vertex 2 60 6
      vertex 2 58 6
      vertex 22 58 6
    endloop
  endfacet
  facet normal 0 0 1
    outer loop
      vertex 22 60 6
      vertex 2 60 6
      vertex 22 58 6
    endloop
  endfacet
  facet normal 1 0 -0
    outer loop
      vertex 22 58 6
      vertex 22 58 2
      vertex 22 60 2
    endloop
  endfacet
  facet normal 1 0 0
    outer loop
      vertex 22 60 6
      vertex 22 58 6
      vertex 22 60 2
    endloop
  endfacet
  facet normal 0 -0 1
    outer loop
      vertex 22 4 2
      vertex 22 2 2
      vertex 68 2 2
    endloop
  endfacet
  facet normal 0 0 1
    outer loop
      vertex 89 23 2
      vertex 22 4 2
      vertex 68 4 2
    endloop
  endfacet
  facet normal 0 0 1
    outer loop
      vertex 68 4 2
      vertex 22 4 2
      vertex 68 2 2
    endloop
  endfacet
  facet normal 0 0 1
    outer loop
      vertex 89 23 2
      vertex 68 4 2
      vertex 88 4 2
    endloop
  endfacet
  facet normal -0 0 1
    outer loop
      vertex 89 2 2
      vertex 88 4 2
      vertex 88 2 2
    endloop
  endfacet
  facet normal 0 0 1
    outer loop
      vertex 89 23 2
      vertex 88 4 2
      vertex 89 2 2
    endloop
  endfacet
  facet normal 0 0 1
    outer loop
      vertex 95 58 2
      vertex 22 4 2
      vertex 89 23 2
    endloop
  endfacet
  facet normal 0 0 1
    outer loop
      vertex 95.5 60 2
      vertex 89 23 2
      vertex 95.5 23 2
    endloop
  endfacet
  facet normal 0 0 1
    outer loop
      vertex 95 58 2
      vertex 75 58 2
      vertex 22 4 2
    endloop
  endfacet
  facet normal 0 0 1
    outer loop
      vertex 95.5 60 2
      vertex 95 58 2
      vertex 89 23 2
    endloop
  endfacet
  facet normal 0 0 1
    outer loop
      vertex 75 60 2
      vertex 22 4 2
      vertex 75 58 2
    endloop
  endfacet
  facet normal 0 -0 1
    outer loop
      vertex 22 58 2
      vertex 22 4 2
      vertex 75 60 2
    endloop
  endfacet
  facet normal 0 0 1
    outer loop
      vertex 2 58 2
      vertex 22 4 2
      vertex 22 58 2
    endloop
  endfacet
  facet normal 0 -0 1
    outer loop
      vertex 22 60 2
      vertex 22 58 2
      vertex 75 60 2
    endloop
  endfacet
  facet normal 0 -0 1
    outer loop
      vertex 95 60 2
      vertex 95 58 2
      vertex 95.5 60 2
    endloop
  endfacet
  facet normal 0 0 1
    outer loop
      vertex 2 4 2
      vertex 22 4 2
      vertex 2 58 2
    endloop
  endfacet
  facet normal 1 0 -0
    outer loop
      vertex 95 58 6
      vertex 95 58 2
      vertex 95 60 2
    endloop
  endfacet
  facet normal 1 0 0
    outer loop
      vertex 95 60 6
      vertex 95 58 6
      vertex 95 60 2
    endloop
  endfacet
  facet normal 0 -0 1
    outer loop
      vertex 75 60 6
      vertex 75 58 6
      vertex 95 58 6
    endloop
  endfacet
  facet normal 0 0 1
    outer loop
      vertex 95 60 6
      vertex 75 60 6
      vertex 95 58 6
    endloop
  endfacet
  facet normal -1 -0 -0
    outer loop
      vertex 75 58 2
      vertex 75 58 6
      vertex 75 60 2
    endloop
  endfacet
  facet normal -1 0 0
    outer loop
      vertex 75 60 2
      vertex 75 58 6
      vertex 75 60 6
    endloop
  endfacet
  facet normal 0 1 0
    outer loop
      vertex 2 4 2
      vertex 2 4 6
      vertex 22 4 2
    endloop
  endfacet
  facet normal 0 1 0
    outer loop
      vertex 22 4 2
      vertex 2 4 6
      vertex 22 4 6
    endloop
  endfacet
  facet normal 0 -0 1
    outer loop
      vertex 2 4 6
      vertex 2 2 6
      vertex 22 2 6
    endloop
  endfacet
  facet normal 0 0 1
    outer loop
      vertex 22 4 6
      vertex 2 4 6
      vertex 22 2 6
    endloop
  endfacet
  facet normal 0 -1 0
    outer loop
      vertex 2 58 6
      vertex 2 58 2
      vertex 22 58 2
    endloop
  endfacet
  facet normal 0 -1 0
    outer loop
      vertex 22 58 6
      vertex 2 58 6
      vertex 22 58 2
    endloop
  endfacet
  facet normal 1 0 -0
    outer loop
      vertex 22 2 6
      vertex 22 2 2
      vertex 22 4 2
    endloop
  endfacet
  facet normal 1 0 0
    outer loop
      vertex 22 4 6
      vertex 22 2 6
      vertex 22 4 2
    endloop
  endfacet
  facet normal -1 -0 -0
    outer loop
      vertex 68 2 2
      vertex 68 2 6
      vertex 68 4 2
    endloop
  endfacet
  facet normal -1 0 0
    outer loop
      vertex 68 4 2
      vertex 68 2 6
      vertex 68 4 6
    endloop
  endfacet
  facet normal 0 -0 1
    outer loop
      vertex 68 4 6
      vertex 68 2 6
      vertex 88 2 6
    endloop
  endfacet
  facet normal 0 0 1
    outer loop
      vertex 88 4 6
      vertex 68 4 6
      vertex 88 2 6
    endloop
  endfacet
  facet normal 1 0 -0
    outer loop
      vertex 88 2 6
      vertex 88 2 2
      vertex 88 4 2
    endloop
  endfacet
  facet normal 1 0 0
    outer loop
      vertex 88 4 6
      vertex 88 2 6
      vertex 88 4 2
    endloop
  endfacet
  facet normal 0 1 0
    outer loop
      vertex 89 23 2
      vertex 89 23 14
      vertex 95.5 23 2
    endloop
  endfacet
  facet normal 0 1 0
    outer loop
      vertex 95.5 23 2
      vertex 89 23 14
      vertex 95.5 23 14
    endloop
  endfacet
  facet normal 0 -1 0
    outer loop
      vertex 75 58 6
      vertex 75 58 2
      vertex 95 58 2
    endloop
  endfacet
  facet normal 0 -1 0
    outer loop
      vertex 95 58 6
      vertex 75 58 6
      vertex 95 58 2
    endloop
  endfacet
  facet normal 0 1 0
    outer loop
      vertex 68 4 2
      vertex 68 4 6
      vertex 88 4 2
    endloop
  endfacet
  facet normal 0 1 0
    outer loop
      vertex 88 4 2
      vertex 68 4 6
      vertex 88 4 6
    endloop
  endfacet
endsolid OpenSCAD_Model
