solid ASCII
  facet normal 9.945992e-001 0.000000e+000 1.037906e-001
    outer loop
      vertex   8.426421e+000 2.000000e+000 6.886837e+000
      vertex   8.375754e+000 2.000000e+000 7.372361e+000
      vertex   8.426421e+000 0.000000e+000 6.886837e+000
    endloop
  endfacet
  facet normal 9.945992e-001 -9.772377e-016 1.037906e-001
    outer loop
      vertex   8.426421e+000 0.000000e+000 6.886837e+000
      vertex   8.375754e+000 2.000000e+000 7.372361e+000
      vertex   8.375754e+000 0.000000e+000 7.372361e+000
    endloop
  endfacet
  facet normal 9.554683e-001 -1.110722e-015 2.950937e-001
    outer loop
      vertex   8.375754e+000 0.000000e+000 7.372361e+000
      vertex   8.375754e+000 2.000000e+000 7.372361e+000
      vertex   8.231701e+000 0.000000e+000 7.838783e+000
    endloop
  endfacet
  facet normal 9.554683e-001 -0.000000e+000 2.950937e-001
    outer loop
      vertex   8.231701e+000 0.000000e+000 7.838783e+000
      vertex   8.375754e+000 2.000000e+000 7.372361e+000
      vertex   8.231701e+000 2.000000e+000 7.838783e+000
    endloop
  endfacet
  facet normal 8.799072e-001 -0.000000e+000 4.751455e-001
    outer loop
      vertex   8.231701e+000 0.000000e+000 7.838783e+000
      vertex   8.231701e+000 2.000000e+000 7.838783e+000
      vertex   7.999754e+000 0.000000e+000 8.268319e+000
    endloop
  endfacet
  facet normal 8.799072e-001 -0.000000e+000 4.751455e-001
    outer loop
      vertex   7.999754e+000 0.000000e+000 8.268319e+000
      vertex   8.231701e+000 2.000000e+000 7.838783e+000
      vertex   7.999754e+000 2.000000e+000 8.268319e+000
    endloop
  endfacet
  facet normal 7.707969e-001 -0.000000e+000 6.370809e-001
    outer loop
      vertex   7.999754e+000 0.000000e+000 8.268319e+000
      vertex   7.999754e+000 2.000000e+000 8.268319e+000
      vertex   7.688756e+000 0.000000e+000 8.644592e+000
    endloop
  endfacet
  facet normal 7.707969e-001 -0.000000e+000 6.370809e-001
    outer loop
      vertex   7.688756e+000 0.000000e+000 8.644592e+000
      vertex   7.999754e+000 2.000000e+000 8.268319e+000
      vertex   7.688756e+000 2.000000e+000 8.644592e+000
    endloop
  endfacet
  facet normal 6.322976e-001 -0.000000e+000 7.747256e-001
    outer loop
      vertex   7.688756e+000 0.000000e+000 8.644592e+000
      vertex   7.688756e+000 2.000000e+000 8.644592e+000
      vertex   7.310565e+000 0.000000e+000 8.953255e+000
    endloop
  endfacet
  facet normal 6.322976e-001 -0.000000e+000 7.747256e-001
    outer loop
      vertex   7.310565e+000 0.000000e+000 8.953255e+000
      vertex   7.688756e+000 2.000000e+000 8.644592e+000
      vertex   7.310565e+000 2.000000e+000 8.953255e+000
    endloop
  endfacet
  facet normal 4.696899e-001 -0.000000e+000 8.828315e-001
    outer loop
      vertex   7.310565e+000 0.000000e+000 8.953255e+000
      vertex   7.310565e+000 2.000000e+000 8.953255e+000
      vertex   6.879602e+000 0.000000e+000 9.182539e+000
    endloop
  endfacet
  facet normal 4.696899e-001 -0.000000e+000 8.828315e-001
    outer loop
      vertex   6.879602e+000 0.000000e+000 9.182539e+000
      vertex   7.310565e+000 2.000000e+000 8.953255e+000
      vertex   6.879602e+000 2.000000e+000 9.182539e+000
    endloop
  endfacet
  facet normal 2.891738e-001 -0.000000e+000 9.572766e-001
    outer loop
      vertex   6.879602e+000 0.000000e+000 9.182539e+000
      vertex   6.879602e+000 2.000000e+000 9.182539e+000
      vertex   6.412297e+000 0.000000e+000 9.323702e+000
    endloop
  endfacet
  facet normal 2.891738e-001 -0.000000e+000 9.572766e-001
    outer loop
      vertex   6.412297e+000 0.000000e+000 9.323702e+000
      vertex   6.879602e+000 2.000000e+000 9.182539e+000
      vertex   6.412297e+000 2.000000e+000 9.323702e+000
    endloop
  endfacet
  facet normal 9.763213e-002 -0.000000e+000 9.952226e-001
    outer loop
      vertex   6.412297e+000 0.000000e+000 9.323702e+000
      vertex   6.412297e+000 2.000000e+000 9.323702e+000
      vertex   5.926469e+000 2.000000e+000 9.371362e+000
    endloop
  endfacet
  facet normal 9.763213e-002 0.000000e+000 9.952226e-001
    outer loop
      vertex   5.926469e+000 2.000000e+000 9.371362e+000
      vertex   5.926469e+000 0.000000e+000 9.371362e+000
      vertex   6.412297e+000 0.000000e+000 9.323702e+000
    endloop
  endfacet
  facet normal 0.000000e+000 0.000000e+000 1.000000e+000
    outer loop
      vertex   5.926469e+000 2.000000e+000 9.371362e+000
      vertex   4.039532e+000 2.000000e+000 9.371362e+000
      vertex   5.926469e+000 0.000000e+000 9.371362e+000
    endloop
  endfacet
  facet normal 0.000000e+000 0.000000e+000 1.000000e+000
    outer loop
      vertex   5.926469e+000 0.000000e+000 9.371362e+000
      vertex   4.039532e+000 2.000000e+000 9.371362e+000
      vertex   4.039532e+000 0.000000e+000 9.371362e+000
    endloop
  endfacet
  facet normal 9.999808e-001 -0.000000e+000 6.189870e-003
    outer loop
      vertex   8.426421e+000 0.000000e+000 6.886837e+000
      vertex   8.531002e+000 0.000000e+000 -1.000832e+001
      vertex   8.426421e+000 2.000000e+000 6.886837e+000
    endloop
  endfacet
  facet normal 9.999808e-001 -8.871017e-016 6.189870e-003
    outer loop
      vertex   8.426421e+000 2.000000e+000 6.886837e+000
      vertex   8.531002e+000 0.000000e+000 -1.000832e+001
      vertex   8.531002e+000 2.000000e+000 -1.000832e+001
    endloop
  endfacet
  facet normal -9.781009e-002 0.000000e+000 9.952051e-001
    outer loop
      vertex   4.039532e+000 0.000000e+000 9.371362e+000
      vertex   4.039532e+000 2.000000e+000 9.371362e+000
      vertex   3.552826e+000 0.000000e+000 9.323528e+000
    endloop
  endfacet
  facet normal -9.781009e-002 0.000000e+000 9.952051e-001
    outer loop
      vertex   3.552826e+000 0.000000e+000 9.323528e+000
      vertex   4.039532e+000 2.000000e+000 9.371362e+000
      vertex   3.552826e+000 2.000000e+000 9.323528e+000
    endloop
  endfacet
  facet normal -2.896873e-001 0.000000e+000 9.571213e-001
    outer loop
      vertex   3.552826e+000 0.000000e+000 9.323528e+000
      vertex   3.552826e+000 2.000000e+000 9.323528e+000
      vertex   3.084746e+000 0.000000e+000 9.181856e+000
    endloop
  endfacet
  facet normal -2.896873e-001 0.000000e+000 9.571213e-001
    outer loop
      vertex   3.084746e+000 0.000000e+000 9.181856e+000
      vertex   3.552826e+000 2.000000e+000 9.323528e+000
      vertex   3.084746e+000 2.000000e+000 9.181856e+000
    endloop
  endfacet
  facet normal -4.704791e-001 0.000000e+000 8.824112e-001
    outer loop
      vertex   3.084746e+000 0.000000e+000 9.181856e+000
      vertex   3.084746e+000 2.000000e+000 9.181856e+000
      vertex   2.653202e+000 0.000000e+000 8.951768e+000
    endloop
  endfacet
  facet normal -4.704791e-001 0.000000e+000 8.824112e-001
    outer loop
      vertex   2.653202e+000 0.000000e+000 8.951768e+000
      vertex   3.084746e+000 2.000000e+000 9.181856e+000
      vertex   2.653202e+000 2.000000e+000 8.951768e+000
    endloop
  endfacet
  facet normal -6.332668e-001 0.000000e+000 7.739335e-001
    outer loop
      vertex   2.653202e+000 0.000000e+000 8.951768e+000
      vertex   2.653202e+000 2.000000e+000 8.951768e+000
      vertex   2.274710e+000 0.000000e+000 8.642069e+000
    endloop
  endfacet
  facet normal -6.332668e-001 0.000000e+000 7.739335e-001
    outer loop
      vertex   2.274710e+000 0.000000e+000 8.642069e+000
      vertex   2.653202e+000 2.000000e+000 8.951768e+000
      vertex   2.274710e+000 2.000000e+000 8.642069e+000
    endloop
  endfacet
  facet normal -7.718212e-001 0.000000e+000 6.358396e-001
    outer loop
      vertex   2.274710e+000 0.000000e+000 8.642069e+000
      vertex   2.274710e+000 2.000000e+000 8.642069e+000
      vertex   1.963752e+000 0.000000e+000 8.264609e+000
    endloop
  endfacet
  facet normal -7.718212e-001 0.000000e+000 6.358396e-001
    outer loop
      vertex   1.963752e+000 0.000000e+000 8.264609e+000
      vertex   2.274710e+000 2.000000e+000 8.642069e+000
      vertex   1.963752e+000 2.000000e+000 8.264609e+000
    endloop
  endfacet
  facet normal -8.808401e-001 0.000000e+000 4.734138e-001
    outer loop
      vertex   1.963752e+000 0.000000e+000 8.264609e+000
      vertex   1.963752e+000 2.000000e+000 8.264609e+000
      vertex   1.732229e+000 0.000000e+000 7.833834e+000
    endloop
  endfacet
  facet normal -8.808401e-001 0.000000e+000 4.734138e-001
    outer loop
      vertex   1.732229e+000 0.000000e+000 7.833834e+000
      vertex   1.963752e+000 2.000000e+000 8.264609e+000
      vertex   1.732229e+000 2.000000e+000 7.833834e+000
    endloop
  endfacet
  facet normal -9.561517e-001 0.000000e+000 2.928718e-001
    outer loop
      vertex   1.732229e+000 0.000000e+000 7.833834e+000
      vertex   1.732229e+000 2.000000e+000 7.833834e+000
      vertex   1.589000e+000 0.000000e+000 7.366228e+000
    endloop
  endfacet
  facet normal -9.561517e-001 -1.061542e-016 2.928718e-001
    outer loop
      vertex   1.589000e+000 0.000000e+000 7.366228e+000
      vertex   1.732229e+000 2.000000e+000 7.833834e+000
      vertex   1.589000e+000 2.000000e+000 7.366228e+000
    endloop
  endfacet
  facet normal -9.948740e-001 -1.104532e-016 1.011224e-001
    outer loop
      vertex   1.589000e+000 0.000000e+000 7.366228e+000
      vertex   1.589000e+000 2.000000e+000 7.366228e+000
      vertex   1.539546e+000 0.000000e+000 6.879684e+000
    endloop
  endfacet
  facet normal -9.948740e-001 0.000000e+000 1.011224e-001
    outer loop
      vertex   1.539546e+000 0.000000e+000 6.879684e+000
      vertex   1.589000e+000 2.000000e+000 7.366228e+000
      vertex   1.539546e+000 2.000000e+000 6.879684e+000
    endloop
  endfacet
  facet normal -9.999945e-001 0.000000e+000 3.328832e-003
    outer loop
      vertex   1.539546e+000 2.000000e+000 6.879684e+000
      vertex   1.486081e+000 2.000000e+000 -9.181424e+000
      vertex   1.539546e+000 0.000000e+000 6.879684e+000
    endloop
  endfacet
  facet normal -9.999945e-001 0.000000e+000 3.328832e-003
    outer loop
      vertex   1.539546e+000 0.000000e+000 6.879684e+000
      vertex   1.486081e+000 2.000000e+000 -9.181424e+000
      vertex   1.486081e+000 0.000000e+000 -9.181424e+000
    endloop
  endfacet
  facet normal -9.984989e-001 0.000000e+000 5.477262e-002
    outer loop
      vertex   1.486081e+000 2.000000e+000 -9.181424e+000
      vertex   1.438175e+000 2.000000e+000 -1.005473e+001
      vertex   1.486081e+000 0.000000e+000 -9.181424e+000
    endloop
  endfacet
  facet normal -9.984989e-001 0.000000e+000 5.477262e-002
    outer loop
      vertex   1.486081e+000 0.000000e+000 -9.181424e+000
      vertex   1.438175e+000 2.000000e+000 -1.005473e+001
      vertex   1.438175e+000 0.000000e+000 -1.005473e+001
    endloop
  endfacet
  facet normal -9.875844e-001 0.000000e+000 1.570891e-001
    outer loop
      vertex   1.438175e+000 0.000000e+000 -1.005473e+001
      vertex   1.438175e+000 2.000000e+000 -1.005473e+001
      vertex   1.300781e+000 2.000000e+000 -1.091850e+001
    endloop
  endfacet
  facet normal -9.875844e-001 1.110700e-016 1.570891e-001
    outer loop
      vertex   1.438175e+000 0.000000e+000 -1.005473e+001
      vertex   1.300781e+000 2.000000e+000 -1.091850e+001
      vertex   1.300781e+000 0.000000e+000 -1.091850e+001
    endloop
  endfacet
  facet normal -9.662137e-001 1.072713e-016 2.577423e-001
    outer loop
      vertex   1.300781e+000 0.000000e+000 -1.091850e+001
      vertex   1.300781e+000 2.000000e+000 -1.091850e+001
      vertex   1.075354e+000 2.000000e+000 -1.176357e+001
    endloop
  endfacet
  facet normal -9.662137e-001 1.110700e-016 2.577423e-001
    outer loop
      vertex   1.300781e+000 0.000000e+000 -1.091850e+001
      vertex   1.075354e+000 2.000000e+000 -1.176357e+001
      vertex   1.075354e+000 0.000000e+000 -1.176357e+001
    endloop
  endfacet
  facet normal -9.346129e-001 1.037629e-016 3.556666e-001
    outer loop
      vertex   1.075354e+000 0.000000e+000 -1.176357e+001
      vertex   1.075354e+000 2.000000e+000 -1.176357e+001
      vertex   7.642791e-001 2.000000e+000 -1.258101e+001
    endloop
  endfacet
  facet normal -9.346129e-001 2.538743e-016 3.556666e-001
    outer loop
      vertex   1.075354e+000 0.000000e+000 -1.176357e+001
      vertex   7.642791e-001 2.000000e+000 -1.258101e+001
      vertex   7.642791e-001 0.000000e+000 -1.258101e+001
    endloop
  endfacet
  facet normal -8.931166e-001 2.478897e-016 4.498252e-001
    outer loop
      vertex   7.642791e-001 0.000000e+000 -1.258101e+001
      vertex   7.642791e-001 2.000000e+000 -1.258101e+001
      vertex   3.708511e-001 2.000000e+000 -1.336215e+001
    endloop
  endfacet
  facet normal -8.931166e-001 -1.586715e-016 4.498252e-001
    outer loop
      vertex   7.642791e-001 0.000000e+000 -1.258101e+001
      vertex   3.708511e-001 2.000000e+000 -1.336215e+001
      vertex   3.708511e-001 0.000000e+000 -1.336215e+001
    endloop
  endfacet
  facet normal -8.421642e-001 -2.451771e-016 5.392212e-001
    outer loop
      vertex   3.708511e-001 0.000000e+000 -1.336215e+001
      vertex   3.708511e-001 2.000000e+000 -1.336215e+001
      vertex   -1.007648e-001 0.000000e+000 -1.409873e+001
    endloop
  endfacet
  facet normal -8.421642e-001 2.162165e-016 5.392212e-001
    outer loop
      vertex   -1.007648e-001 0.000000e+000 -1.409873e+001
      vertex   3.708511e-001 2.000000e+000 -1.336215e+001
      vertex   -1.007648e-001 2.000000e+000 -1.409873e+001
    endloop
  endfacet
  facet normal -7.822951e-001 2.008457e-016 6.229080e-001
    outer loop
      vertex   -1.007648e-001 0.000000e+000 -1.409873e+001
      vertex   -1.007648e-001 2.000000e+000 -1.409873e+001
      vertex   -6.455751e-001 2.000000e+000 -1.478294e+001
    endloop
  endfacet
  facet normal -7.822951e-001 -3.173429e-016 6.229080e-001
    outer loop
      vertex   -1.007648e-001 0.000000e+000 -1.409873e+001
      vertex   -6.455751e-001 2.000000e+000 -1.478294e+001
      vertex   -6.455751e-001 0.000000e+000 -1.478294e+001
    endloop
  endfacet
  facet normal -7.141433e-001 -4.235099e-016 6.999995e-001
    outer loop
      vertex   -6.455751e-001 0.000000e+000 -1.478294e+001
      vertex   -6.455751e-001 2.000000e+000 -1.478294e+001
      vertex   -1.257812e+000 2.000000e+000 -1.540755e+001
    endloop
  endfacet
  facet normal -7.141433e-001 3.173429e-017 6.999995e-001
    outer loop
      vertex   -6.455751e-001 0.000000e+000 -1.478294e+001
      vertex   -1.257812e+000 2.000000e+000 -1.540755e+001
      vertex   -1.257812e+000 0.000000e+000 -1.540755e+001
    endloop
  endfacet
  facet normal -6.384303e-001 -1.165729e-016 7.696797e-001
    outer loop
      vertex   -1.257812e+000 0.000000e+000 -1.540755e+001
      vertex   -1.257812e+000 2.000000e+000 -1.540755e+001
      vertex   -1.930992e+000 2.000000e+000 -1.596593e+001
    endloop
  endfacet
  facet normal -6.384303e-001 9.520287e-017 7.696797e-001
    outer loop
      vertex   -1.257812e+000 0.000000e+000 -1.540755e+001
      vertex   -1.930992e+000 2.000000e+000 -1.596593e+001
      vertex   -1.930992e+000 0.000000e+000 -1.596593e+001
    endloop
  endfacet
  facet normal -5.559577e-001 6.172370e-017 8.312106e-001
    outer loop
      vertex   -1.930992e+000 0.000000e+000 -1.596593e+001
      vertex   -1.930992e+000 2.000000e+000 -1.596593e+001
      vertex   -2.657989e+000 2.000000e+000 -1.645219e+001
    endloop
  endfacet
  facet normal -5.559577e-001 0.000000e+000 8.312106e-001
    outer loop
      vertex   -1.930992e+000 0.000000e+000 -1.596593e+001
      vertex   -2.657989e+000 2.000000e+000 -1.645219e+001
      vertex   -2.657989e+000 0.000000e+000 -1.645219e+001
    endloop
  endfacet
  facet normal -4.675987e-001 0.000000e+000 8.839409e-001
    outer loop
      vertex   -2.657989e+000 0.000000e+000 -1.645219e+001
      vertex   -2.657989e+000 2.000000e+000 -1.645219e+001
      vertex   -3.431105e+000 2.000000e+000 -1.686116e+001
    endloop
  endfacet
  facet normal -4.675987e-001 0.000000e+000 8.839409e-001
    outer loop
      vertex   -2.657989e+000 0.000000e+000 -1.645219e+001
      vertex   -3.431105e+000 2.000000e+000 -1.686116e+001
      vertex   -3.431105e+000 0.000000e+000 -1.686116e+001
    endloop
  endfacet
  facet normal -4.523219e-001 0.000000e+000 8.918547e-001
    outer loop
      vertex   -3.431105e+000 2.000000e+000 -1.686116e+001
      vertex   -4.653434e+000 2.000000e+000 -1.748109e+001
      vertex   -3.431105e+000 0.000000e+000 -1.686116e+001
    endloop
  endfacet
  facet normal -4.523219e-001 0.000000e+000 8.918547e-001
    outer loop
      vertex   -3.431105e+000 0.000000e+000 -1.686116e+001
      vertex   -4.653434e+000 2.000000e+000 -1.748109e+001
      vertex   -4.653434e+000 0.000000e+000 -1.748109e+001
    endloop
  endfacet
  facet normal -5.123330e-001 0.000000e+000 8.587869e-001
    outer loop
      vertex   -4.653434e+000 0.000000e+000 -1.748109e+001
      vertex   -4.653434e+000 2.000000e+000 -1.748109e+001
      vertex   -5.830442e+000 2.000000e+000 -1.818327e+001
    endloop
  endfacet
  facet normal -5.123330e-001 0.000000e+000 8.587869e-001
    outer loop
      vertex   -4.653434e+000 0.000000e+000 -1.748109e+001
      vertex   -5.830442e+000 2.000000e+000 -1.818327e+001
      vertex   -5.830442e+000 0.000000e+000 -1.818327e+001
    endloop
  endfacet
  facet normal -5.699388e-001 0.000000e+000 8.216871e-001
    outer loop
      vertex   -5.830442e+000 0.000000e+000 -1.818327e+001
      vertex   -5.830442e+000 2.000000e+000 -1.818327e+001
      vertex   -6.956604e+000 2.000000e+000 -1.896440e+001
    endloop
  endfacet
  facet normal -5.699388e-001 0.000000e+000 8.216871e-001
    outer loop
      vertex   -5.830442e+000 0.000000e+000 -1.818327e+001
      vertex   -6.956604e+000 2.000000e+000 -1.896440e+001
      vertex   -6.956604e+000 0.000000e+000 -1.896440e+001
    endloop
  endfacet
  facet normal -6.248688e-001 0.000000e+000 7.807297e-001
    outer loop
      vertex   -6.956604e+000 0.000000e+000 -1.896440e+001
      vertex   -6.956604e+000 2.000000e+000 -1.896440e+001
      vertex   -8.026631e+000 2.000000e+000 -1.982081e+001
    endloop
  endfacet
  facet normal -6.248688e-001 0.000000e+000 7.807297e-001
    outer loop
      vertex   -6.956604e+000 0.000000e+000 -1.896440e+001
      vertex   -8.026631e+000 2.000000e+000 -1.982081e+001
      vertex   -8.026631e+000 0.000000e+000 -1.982081e+001
    endloop
  endfacet
  facet normal -6.768652e-001 0.000000e+000 7.361070e-001
    outer loop
      vertex   -8.026631e+000 0.000000e+000 -1.982081e+001
      vertex   -8.026631e+000 2.000000e+000 -1.982081e+001
      vertex   -9.035501e+000 2.000000e+000 -2.074848e+001
    endloop
  endfacet
  facet normal -6.768652e-001 0.000000e+000 7.361070e-001
    outer loop
      vertex   -8.026631e+000 0.000000e+000 -1.982081e+001
      vertex   -9.035501e+000 2.000000e+000 -2.074848e+001
      vertex   -9.035501e+000 0.000000e+000 -2.074848e+001
    endloop
  endfacet
  facet normal -7.256839e-001 0.000000e+000 6.880283e-001
    outer loop
      vertex   -9.035501e+000 0.000000e+000 -2.074848e+001
      vertex   -9.035501e+000 2.000000e+000 -2.074848e+001
      vertex   -9.978476e+000 2.000000e+000 -2.174307e+001
    endloop
  endfacet
  facet normal -7.256839e-001 0.000000e+000 6.880283e-001
    outer loop
      vertex   -9.035501e+000 0.000000e+000 -2.074848e+001
      vertex   -9.978476e+000 2.000000e+000 -2.174307e+001
      vertex   -9.978476e+000 0.000000e+000 -2.174307e+001
    endloop
  endfacet
  facet normal -7.710955e-001 0.000000e+000 6.367195e-001
    outer loop
      vertex   -9.978476e+000 0.000000e+000 -2.174307e+001
      vertex   -9.978476e+000 2.000000e+000 -2.174307e+001
      vertex   -1.085113e+001 2.000000e+000 -2.279989e+001
    endloop
  endfacet
  facet normal -7.710955e-001 0.000000e+000 6.367195e-001
    outer loop
      vertex   -9.978476e+000 0.000000e+000 -2.174307e+001
      vertex   -1.085113e+001 2.000000e+000 -2.279989e+001
      vertex   -1.085113e+001 0.000000e+000 -2.279989e+001
    endloop
  endfacet
  facet normal -8.128870e-001 0.000000e+000 5.824214e-001
    outer loop
      vertex   -1.085113e+001 0.000000e+000 -2.279989e+001
      vertex   -1.085113e+001 2.000000e+000 -2.279989e+001
      vertex   -1.164937e+001 2.000000e+000 -2.391399e+001
    endloop
  endfacet
  facet normal -8.128870e-001 0.000000e+000 5.824214e-001
    outer loop
      vertex   -1.085113e+001 0.000000e+000 -2.279989e+001
      vertex   -1.164937e+001 2.000000e+000 -2.391399e+001
      vertex   -1.164937e+001 0.000000e+000 -2.391399e+001
    endloop
  endfacet
  facet normal -8.508622e-001 0.000000e+000 5.253889e-001
    outer loop
      vertex   -1.164937e+001 0.000000e+000 -2.391399e+001
      vertex   -1.164937e+001 2.000000e+000 -2.391399e+001
      vertex   -1.236944e+001 2.000000e+000 -2.508014e+001
    endloop
  endfacet
  facet normal -8.508622e-001 0.000000e+000 5.253889e-001
    outer loop
      vertex   -1.164937e+001 0.000000e+000 -2.391399e+001
      vertex   -1.236944e+001 2.000000e+000 -2.508014e+001
      vertex   -1.236944e+001 0.000000e+000 -2.508014e+001
    endloop
  endfacet
  facet normal -8.848427e-001 0.000000e+000 4.658898e-001
    outer loop
      vertex   -1.236944e+001 0.000000e+000 -2.508014e+001
      vertex   -1.236944e+001 2.000000e+000 -2.508014e+001
      vertex   -1.300796e+001 2.000000e+000 -2.629286e+001
    endloop
  endfacet
  facet normal -8.848427e-001 0.000000e+000 4.658898e-001
    outer loop
      vertex   -1.236944e+001 0.000000e+000 -2.508014e+001
      vertex   -1.300796e+001 2.000000e+000 -2.629286e+001
      vertex   -1.300796e+001 0.000000e+000 -2.629286e+001
    endloop
  endfacet
  facet normal -9.146691e-001 0.000000e+000 4.042035e-001
    outer loop
      vertex   -1.300796e+001 0.000000e+000 -2.629286e+001
      vertex   -1.300796e+001 2.000000e+000 -2.629286e+001
      vertex   -1.356194e+001 2.000000e+000 -2.754646e+001
    endloop
  endfacet
  facet normal -9.146691e-001 0.000000e+000 4.042035e-001
    outer loop
      vertex   -1.300796e+001 0.000000e+000 -2.629286e+001
      vertex   -1.356194e+001 2.000000e+000 -2.754646e+001
      vertex   -1.356194e+001 0.000000e+000 -2.754646e+001
    endloop
  endfacet
  facet normal -9.402012e-001 0.000000e+000 3.406195e-001
    outer loop
      vertex   -1.356194e+001 0.000000e+000 -2.754646e+001
      vertex   -1.356194e+001 2.000000e+000 -2.754646e+001
      vertex   -1.402878e+001 2.000000e+000 -2.883505e+001
    endloop
  endfacet
  facet normal -9.402012e-001 0.000000e+000 3.406195e-001
    outer loop
      vertex   -1.356194e+001 0.000000e+000 -2.754646e+001
      vertex   -1.402878e+001 2.000000e+000 -2.883505e+001
      vertex   -1.402878e+001 0.000000e+000 -2.883505e+001
    endloop
  endfacet
  facet normal -9.613193e-001 0.000000e+000 2.754363e-001
    outer loop
      vertex   -1.402878e+001 0.000000e+000 -2.883505e+001
      vertex   -1.402878e+001 2.000000e+000 -2.883505e+001
      vertex   -1.440627e+001 2.000000e+000 -3.015258e+001
    endloop
  endfacet
  facet normal -9.613193e-001 0.000000e+000 2.754363e-001
    outer loop
      vertex   -1.402878e+001 0.000000e+000 -2.883505e+001
      vertex   -1.440627e+001 2.000000e+000 -3.015258e+001
      vertex   -1.440627e+001 0.000000e+000 -3.015258e+001
    endloop
  endfacet
  facet normal -9.779242e-001 0.000000e+000 2.089601e-001
    outer loop
      vertex   -1.440627e+001 0.000000e+000 -3.015258e+001
      vertex   -1.440627e+001 2.000000e+000 -3.015258e+001
      vertex   -1.469266e+001 2.000000e+000 -3.149287e+001
    endloop
  endfacet
  facet normal -9.779242e-001 0.000000e+000 2.089601e-001
    outer loop
      vertex   -1.440627e+001 0.000000e+000 -3.015258e+001
      vertex   -1.469266e+001 2.000000e+000 -3.149287e+001
      vertex   -1.469266e+001 0.000000e+000 -3.149287e+001
    endloop
  endfacet
  facet normal -9.899379e-001 0.000000e+000 1.415028e-001
    outer loop
      vertex   -1.469266e+001 0.000000e+000 -3.149287e+001
      vertex   -1.469266e+001 2.000000e+000 -3.149287e+001
      vertex   -1.488660e+001 2.000000e+000 -3.284963e+001
    endloop
  endfacet
  facet normal -9.899379e-001 0.000000e+000 1.415028e-001
    outer loop
      vertex   -1.469266e+001 0.000000e+000 -3.149287e+001
      vertex   -1.488660e+001 2.000000e+000 -3.284963e+001
      vertex   -1.488660e+001 0.000000e+000 -3.284963e+001
    endloop
  endfacet
  facet normal -9.973040e-001 0.000000e+000 7.338113e-002
    outer loop
      vertex   -1.488660e+001 0.000000e+000 -3.284963e+001
      vertex   -1.488660e+001 2.000000e+000 -3.284963e+001
      vertex   -1.498717e+001 2.000000e+000 -3.421648e+001
    endloop
  endfacet
  facet normal -9.973040e-001 0.000000e+000 7.338113e-002
    outer loop
      vertex   -1.488660e+001 0.000000e+000 -3.284963e+001
      vertex   -1.498717e+001 2.000000e+000 -3.421648e+001
      vertex   -1.498717e+001 0.000000e+000 -3.421648e+001
    endloop
  endfacet
  facet normal -9.999879e-001 0.000000e+000 4.914992e-003
    outer loop
      vertex   -1.498717e+001 0.000000e+000 -3.421648e+001
      vertex   -1.498717e+001 2.000000e+000 -3.421648e+001
      vertex   -1.499391e+001 2.000000e+000 -3.558701e+001
    endloop
  endfacet
  facet normal -9.999879e-001 0.000000e+000 4.914992e-003
    outer loop
      vertex   -1.498717e+001 0.000000e+000 -3.421648e+001
      vertex   -1.499391e+001 2.000000e+000 -3.558701e+001
      vertex   -1.499391e+001 0.000000e+000 -3.558701e+001
    endloop
  endfacet
  facet normal -9.979771e-001 0.000000e+000 -6.357422e-002
    outer loop
      vertex   -1.499391e+001 0.000000e+000 -3.558701e+001
      vertex   -1.499391e+001 2.000000e+000 -3.558701e+001
      vertex   -1.490678e+001 2.000000e+000 -3.695479e+001
    endloop
  endfacet
  facet normal -9.979771e-001 0.000000e+000 -6.357422e-002
    outer loop
      vertex   -1.499391e+001 0.000000e+000 -3.558701e+001
      vertex   -1.490678e+001 2.000000e+000 -3.695479e+001
      vertex   -1.490678e+001 0.000000e+000 -3.695479e+001
    endloop
  endfacet
  facet normal -9.912810e-001 0.000000e+000 -1.317650e-001
    outer loop
      vertex   -1.490678e+001 0.000000e+000 -3.695479e+001
      vertex   -1.490678e+001 2.000000e+000 -3.695479e+001
      vertex   -1.472619e+001 2.000000e+000 -3.831338e+001
    endloop
  endfacet
  facet normal -9.912810e-001 0.000000e+000 -1.317650e-001
    outer loop
      vertex   -1.490678e+001 0.000000e+000 -3.695479e+001
      vertex   -1.472619e+001 2.000000e+000 -3.831338e+001
      vertex   -1.472619e+001 0.000000e+000 -3.831338e+001
    endloop
  endfacet
  facet normal -9.799310e-001 0.000000e+000 -1.993371e-001
    outer loop
      vertex   -1.472619e+001 0.000000e+000 -3.831338e+001
      vertex   -1.472619e+001 2.000000e+000 -3.831338e+001
      vertex   -1.445299e+001 2.000000e+000 -3.965643e+001
    endloop
  endfacet
  facet normal -9.799310e-001 0.000000e+000 -1.993371e-001
    outer loop
      vertex   -1.472619e+001 0.000000e+000 -3.831338e+001
      vertex   -1.445299e+001 2.000000e+000 -3.965643e+001
      vertex   -1.445299e+001 0.000000e+000 -3.965643e+001
    endloop
  endfacet
  facet normal -9.639804e-001 0.000000e+000 -2.659734e-001
    outer loop
      vertex   -1.445299e+001 0.000000e+000 -3.965643e+001
      vertex   -1.445299e+001 2.000000e+000 -3.965643e+001
      vertex   -1.408846e+001 2.000000e+000 -4.097761e+001
    endloop
  endfacet
  facet normal -9.639804e-001 0.000000e+000 -2.659734e-001
    outer loop
      vertex   -1.445299e+001 0.000000e+000 -3.965643e+001
      vertex   -1.408846e+001 2.000000e+000 -4.097761e+001
      vertex   -1.408846e+001 0.000000e+000 -4.097761e+001
    endloop
  endfacet
  facet normal -9.435041e-001 0.000000e+000 -3.313610e-001
    outer loop
      vertex   -1.408846e+001 0.000000e+000 -4.097761e+001
      vertex   -1.408846e+001 2.000000e+000 -4.097761e+001
      vertex   -1.363431e+001 2.000000e+000 -4.227072e+001
    endloop
  endfacet
  facet normal -9.435041e-001 0.000000e+000 -3.313610e-001
    outer loop
      vertex   -1.408846e+001 0.000000e+000 -4.097761e+001
      vertex   -1.363431e+001 2.000000e+000 -4.227072e+001
      vertex   -1.363431e+001 0.000000e+000 -4.227072e+001
    endloop
  endfacet
  facet normal -9.185982e-001 0.000000e+000 -3.951929e-001
    outer loop
      vertex   -1.363431e+001 0.000000e+000 -4.227072e+001
      vertex   -1.363431e+001 2.000000e+000 -4.227072e+001
      vertex   -1.309268e+001 2.000000e+000 -4.352971e+001
    endloop
  endfacet
  facet normal -9.185982e-001 0.000000e+000 -3.951929e-001
    outer loop
      vertex   -1.363431e+001 0.000000e+000 -4.227072e+001
      vertex   -1.309268e+001 2.000000e+000 -4.352971e+001
      vertex   -1.309268e+001 0.000000e+000 -4.352971e+001
    endloop
  endfacet
  facet normal -8.893796e-001 0.000000e+000 -4.571694e-001
    outer loop
      vertex   -1.309268e+001 0.000000e+000 -4.352971e+001
      vertex   -1.309268e+001 2.000000e+000 -4.352971e+001
      vertex   -1.246611e+001 2.000000e+000 -4.474864e+001
    endloop
  endfacet
  facet normal -8.893796e-001 0.000000e+000 -4.571694e-001
    outer loop
      vertex   -1.309268e+001 0.000000e+000 -4.352971e+001
      vertex   -1.246611e+001 2.000000e+000 -4.474864e+001
      vertex   -1.246611e+001 0.000000e+000 -4.474864e+001
    endloop
  endfacet
  facet normal -8.559856e-001 0.000000e+000 -5.169997e-001
    outer loop
      vertex   -1.246611e+001 0.000000e+000 -4.474864e+001
      vertex   -1.246611e+001 2.000000e+000 -4.474864e+001
      vertex   -1.175754e+001 2.000000e+000 -4.592181e+001
    endloop
  endfacet
  facet normal -8.559856e-001 0.000000e+000 -5.169997e-001
    outer loop
      vertex   -1.246611e+001 0.000000e+000 -4.474864e+001
      vertex   -1.175754e+001 2.000000e+000 -4.592181e+001
      vertex   -1.175754e+001 0.000000e+000 -4.592181e+001
    endloop
  endfacet
  facet normal -8.185729e-001 0.000000e+000 -5.744027e-001
    outer loop
      vertex   -1.175754e+001 0.000000e+000 -4.592181e+001
      vertex   -1.175754e+001 2.000000e+000 -4.592181e+001
      vertex   -1.097029e+001 2.000000e+000 -4.704371e+001
    endloop
  endfacet
  facet normal -8.185729e-001 0.000000e+000 -5.744027e-001
    outer loop
      vertex   -1.175754e+001 0.000000e+000 -4.592181e+001
      vertex   -1.097029e+001 2.000000e+000 -4.704371e+001
      vertex   -1.097029e+001 0.000000e+000 -4.704371e+001
    endloop
  endfacet
  facet normal -7.773171e-001 0.000000e+000 -6.291089e-001
    outer loop
      vertex   -1.097029e+001 0.000000e+000 -4.704371e+001
      vertex   -1.097029e+001 2.000000e+000 -4.704371e+001
      vertex   -1.010807e+001 2.000000e+000 -4.810906e+001
    endloop
  endfacet
  facet normal -7.773171e-001 0.000000e+000 -6.291089e-001
    outer loop
      vertex   -1.097029e+001 0.000000e+000 -4.704371e+001
      vertex   -1.010807e+001 2.000000e+000 -4.810906e+001
      vertex   -1.010807e+001 0.000000e+000 -4.810906e+001
    endloop
  endfacet
  facet normal -7.324120e-001 0.000000e+000 -6.808617e-001
    outer loop
      vertex   -1.010807e+001 0.000000e+000 -4.810906e+001
      vertex   -1.010807e+001 2.000000e+000 -4.810906e+001
      vertex   -9.174913e+000 2.000000e+000 -4.911286e+001
    endloop
  endfacet
  facet normal -7.324120e-001 0.000000e+000 -6.808617e-001
    outer loop
      vertex   -1.010807e+001 0.000000e+000 -4.810906e+001
      vertex   -9.174913e+000 2.000000e+000 -4.911286e+001
      vertex   -9.174913e+000 0.000000e+000 -4.911286e+001
    endloop
  endfacet
  facet normal -6.840684e-001 0.000000e+000 -7.294179e-001
    outer loop
      vertex   -9.174913e+000 0.000000e+000 -4.911286e+001
      vertex   -9.174913e+000 2.000000e+000 -4.911286e+001
      vertex   -8.175211e+000 2.000000e+000 -5.005041e+001
    endloop
  endfacet
  facet normal -6.840684e-001 0.000000e+000 -7.294179e-001
    outer loop
      vertex   -9.174913e+000 0.000000e+000 -4.911286e+001
      vertex   -8.175211e+000 2.000000e+000 -5.005041e+001
      vertex   -8.175211e+000 0.000000e+000 -5.005041e+001
    endloop
  endfacet
  facet normal -6.325131e-001 0.000000e+000 -7.745496e-001
    outer loop
      vertex   -8.175211e+000 0.000000e+000 -5.005041e+001
      vertex   -8.175211e+000 2.000000e+000 -5.005041e+001
      vertex   -7.113654e+000 2.000000e+000 -5.091730e+001
    endloop
  endfacet
  facet normal -6.325131e-001 0.000000e+000 -7.745496e-001
    outer loop
      vertex   -8.175211e+000 0.000000e+000 -5.005041e+001
      vertex   -7.113654e+000 2.000000e+000 -5.091730e+001
      vertex   -7.113654e+000 0.000000e+000 -5.091730e+001
    endloop
  endfacet
  facet normal -5.779884e-001 0.000000e+000 -8.160450e-001
    outer loop
      vertex   -7.113654e+000 0.000000e+000 -5.091730e+001
      vertex   -7.113654e+000 2.000000e+000 -5.091730e+001
      vertex   -5.995225e+000 2.000000e+000 -5.170946e+001
    endloop
  endfacet
  facet normal -5.779884e-001 0.000000e+000 -8.160450e-001
    outer loop
      vertex   -7.113654e+000 0.000000e+000 -5.091730e+001
      vertex   -5.995225e+000 2.000000e+000 -5.170946e+001
      vertex   -5.995225e+000 0.000000e+000 -5.170946e+001
    endloop
  endfacet
  facet normal -5.207500e-001 0.000000e+000 -8.537092e-001
    outer loop
      vertex   -5.995225e+000 0.000000e+000 -5.170946e+001
      vertex   -5.995225e+000 2.000000e+000 -5.170946e+001
      vertex   -4.825176e+000 2.000000e+000 -5.242317e+001
    endloop
  endfacet
  facet normal -5.207500e-001 0.000000e+000 -8.537092e-001
    outer loop
      vertex   -5.995225e+000 0.000000e+000 -5.170946e+001
      vertex   -4.825176e+000 2.000000e+000 -5.242317e+001
      vertex   -4.825176e+000 0.000000e+000 -5.242317e+001
    endloop
  endfacet
  facet normal -4.610669e-001 0.000000e+000 -8.873654e-001
    outer loop
      vertex   -4.825176e+000 0.000000e+000 -5.242317e+001
      vertex   -4.825176e+000 2.000000e+000 -5.242317e+001
      vertex   -3.609000e+000 2.000000e+000 -5.305509e+001
    endloop
  endfacet
  facet normal -4.610669e-001 0.000000e+000 -8.873654e-001
    outer loop
      vertex   -4.825176e+000 0.000000e+000 -5.242317e+001
      vertex   -3.609000e+000 2.000000e+000 -5.305509e+001
      vertex   -3.609000e+000 0.000000e+000 -5.305509e+001
    endloop
  endfacet
  facet normal -3.992191e-001 0.000000e+000 -9.168555e-001
    outer loop
      vertex   -3.609000e+000 0.000000e+000 -5.305509e+001
      vertex   -3.609000e+000 2.000000e+000 -5.305509e+001
      vertex   -2.352406e+000 2.000000e+000 -5.360224e+001
    endloop
  endfacet
  facet normal -3.992191e-001 0.000000e+000 -9.168555e-001
    outer loop
      vertex   -3.609000e+000 0.000000e+000 -5.305509e+001
      vertex   -2.352406e+000 2.000000e+000 -5.360224e+001
      vertex   -2.352406e+000 0.000000e+000 -5.360224e+001
    endloop
  endfacet
  facet normal -3.354971e-001 0.000000e+000 -9.420412e-001
    outer loop
      vertex   -2.352406e+000 0.000000e+000 -5.360224e+001
      vertex   -2.352406e+000 2.000000e+000 -5.360224e+001
      vertex   -1.061293e+000 2.000000e+000 -5.406205e+001
    endloop
  endfacet
  facet normal -3.354971e-001 0.000000e+000 -9.420412e-001
    outer loop
      vertex   -2.352406e+000 0.000000e+000 -5.360224e+001
      vertex   -1.061293e+000 2.000000e+000 -5.406205e+001
      vertex   -1.061293e+000 0.000000e+000 -5.406205e+001
    endloop
  endfacet
  facet normal -2.702000e-001 0.000000e+000 -9.628042e-001
    outer loop
      vertex   -1.061293e+000 0.000000e+000 -5.406205e+001
      vertex   -1.061293e+000 2.000000e+000 -5.406205e+001
      vertex   2.582755e-001 2.000000e+000 -5.443237e+001
    endloop
  endfacet
  facet normal -2.702000e-001 0.000000e+000 -9.628042e-001
    outer loop
      vertex   -1.061293e+000 0.000000e+000 -5.406205e+001
      vertex   2.582755e-001 2.000000e+000 -5.443237e+001
      vertex   2.582755e-001 0.000000e+000 -5.443237e+001
    endloop
  endfacet
  facet normal -2.036343e-001 0.000000e+000 -9.790470e-001
    outer loop
      vertex   2.582755e-001 0.000000e+000 -5.443237e+001
      vertex   2.582755e-001 2.000000e+000 -5.443237e+001
      vertex   1.600106e+000 2.000000e+000 -5.471146e+001
    endloop
  endfacet
  facet normal -2.036343e-001 0.000000e+000 -9.790470e-001
    outer loop
      vertex   2.582755e-001 0.000000e+000 -5.443237e+001
      vertex   1.600106e+000 2.000000e+000 -5.471146e+001
      vertex   1.600106e+000 0.000000e+000 -5.471146e+001
    endloop
  endfacet
  facet normal -1.361126e-001 0.000000e+000 -9.906934e-001
    outer loop
      vertex   1.600106e+000 0.000000e+000 -5.471146e+001
      vertex   1.600106e+000 2.000000e+000 -5.471146e+001
      vertex   2.957898e+000 2.000000e+000 -5.489801e+001
    endloop
  endfacet
  facet normal -1.361126e-001 0.000000e+000 -9.906934e-001
    outer loop
      vertex   1.600106e+000 0.000000e+000 -5.471146e+001
      vertex   2.957898e+000 2.000000e+000 -5.489801e+001
      vertex   2.957898e+000 0.000000e+000 -5.489801e+001
    endloop
  endfacet
  facet normal -6.795191e-002 0.000000e+000 -9.976886e-001
    outer loop
      vertex   2.957898e+000 0.000000e+000 -5.489801e+001
      vertex   2.957898e+000 2.000000e+000 -5.489801e+001
      vertex   4.325278e+000 2.000000e+000 -5.499114e+001
    endloop
  endfacet
  facet normal -6.795191e-002 0.000000e+000 -9.976886e-001
    outer loop
      vertex   2.957898e+000 0.000000e+000 -5.489801e+001
      vertex   4.325278e+000 2.000000e+000 -5.499114e+001
      vertex   4.325278e+000 0.000000e+000 -5.499114e+001
    endloop
  endfacet
  facet normal 5.278218e-004 0.000000e+000 -9.999999e-001
    outer loop
      vertex   4.325278e+000 0.000000e+000 -5.499114e+001
      vertex   4.325278e+000 2.000000e+000 -5.499114e+001
      vertex   5.695825e+000 2.000000e+000 -5.499042e+001
    endloop
  endfacet
  facet normal 5.278218e-004 0.000000e+000 -9.999999e-001
    outer loop
      vertex   4.325278e+000 0.000000e+000 -5.499114e+001
      vertex   5.695825e+000 2.000000e+000 -5.499042e+001
      vertex   5.695825e+000 0.000000e+000 -5.499042e+001
    endloop
  endfacet
  facet normal 6.900508e-002 0.000000e+000 -9.976163e-001
    outer loop
      vertex   5.695825e+000 0.000000e+000 -5.499042e+001
      vertex   5.695825e+000 2.000000e+000 -5.499042e+001
      vertex   7.063106e+000 2.000000e+000 -5.489584e+001
    endloop
  endfacet
  facet normal 6.900508e-002 0.000000e+000 -9.976163e-001
    outer loop
      vertex   5.695825e+000 0.000000e+000 -5.499042e+001
      vertex   7.063106e+000 2.000000e+000 -5.489584e+001
      vertex   7.063106e+000 0.000000e+000 -5.489584e+001
    endloop
  endfacet
  facet normal 1.371584e-001 0.000000e+000 -9.905491e-001
    outer loop
      vertex   7.063106e+000 0.000000e+000 -5.489584e+001
      vertex   7.063106e+000 2.000000e+000 -5.489584e+001
      vertex   8.420701e+000 2.000000e+000 -5.470786e+001
    endloop
  endfacet
  facet normal 1.371584e-001 0.000000e+000 -9.905491e-001
    outer loop
      vertex   7.063106e+000 0.000000e+000 -5.489584e+001
      vertex   8.420701e+000 2.000000e+000 -5.470786e+001
      vertex   8.420701e+000 0.000000e+000 -5.470786e+001
    endloop
  endfacet
  facet normal 2.046677e-001 0.000000e+000 -9.788315e-001
    outer loop
      vertex   8.420701e+000 0.000000e+000 -5.470786e+001
      vertex   8.420701e+000 2.000000e+000 -5.470786e+001
      vertex   9.762236e+000 2.000000e+000 -5.442736e+001
    endloop
  endfacet
  facet normal 2.046677e-001 0.000000e+000 -9.788315e-001
    outer loop
      vertex   8.420701e+000 0.000000e+000 -5.470786e+001
      vertex   9.762236e+000 2.000000e+000 -5.442736e+001
      vertex   9.762236e+000 0.000000e+000 -5.442736e+001
    endloop
  endfacet
  facet normal 2.712162e-001 0.000000e+000 -9.625185e-001
    outer loop
      vertex   9.762236e+000 0.000000e+000 -5.442736e+001
      vertex   9.762236e+000 2.000000e+000 -5.442736e+001
      vertex   1.108141e+001 2.000000e+000 -5.405564e+001
    endloop
  endfacet
  facet normal 2.712162e-001 0.000000e+000 -9.625185e-001
    outer loop
      vertex   9.762236e+000 0.000000e+000 -5.442736e+001
      vertex   1.108141e+001 2.000000e+000 -5.405564e+001
      vertex   1.108141e+001 0.000000e+000 -5.405564e+001
    endloop
  endfacet
  facet normal 3.364914e-001 0.000000e+000 -9.416865e-001
    outer loop
      vertex   1.108141e+001 0.000000e+000 -5.405564e+001
      vertex   1.108141e+001 2.000000e+000 -5.405564e+001
      vertex   1.237204e+001 2.000000e+000 -5.359446e+001
    endloop
  endfacet
  facet normal 3.364914e-001 0.000000e+000 -9.416865e-001
    outer loop
      vertex   1.108141e+001 0.000000e+000 -5.405564e+001
      vertex   1.237204e+001 2.000000e+000 -5.359446e+001
      vertex   1.237204e+001 0.000000e+000 -5.359446e+001
    endloop
  endfacet
  facet normal 4.001868e-001 0.000000e+000 -9.164336e-001
    outer loop
      vertex   1.237204e+001 0.000000e+000 -5.359446e+001
      vertex   1.237204e+001 2.000000e+000 -5.359446e+001
      vertex   1.362805e+001 2.000000e+000 -5.304599e+001
    endloop
  endfacet
  facet normal 4.001868e-001 0.000000e+000 -9.164336e-001
    outer loop
      vertex   1.237204e+001 0.000000e+000 -5.359446e+001
      vertex   1.362805e+001 2.000000e+000 -5.304599e+001
      vertex   1.362805e+001 0.000000e+000 -5.304599e+001
    endloop
  endfacet
  facet normal 4.620034e-001 0.000000e+000 -8.868782e-001
    outer loop
      vertex   1.362805e+001 0.000000e+000 -5.304599e+001
      vertex   1.362805e+001 2.000000e+000 -5.304599e+001
      vertex   1.484356e+001 2.000000e+000 -5.241279e+001
    endloop
  endfacet
  facet normal 4.620034e-001 0.000000e+000 -8.868782e-001
    outer loop
      vertex   1.362805e+001 0.000000e+000 -5.304599e+001
      vertex   1.484356e+001 2.000000e+000 -5.241279e+001
      vertex   1.484356e+001 0.000000e+000 -5.241279e+001
    endloop
  endfacet
  facet normal 5.216510e-001 0.000000e+000 -8.531590e-001
    outer loop
      vertex   1.484356e+001 0.000000e+000 -5.241279e+001
      vertex   1.484356e+001 2.000000e+000 -5.241279e+001
      vertex   1.601286e+001 2.000000e+000 -5.169784e+001
    endloop
  endfacet
  facet normal 5.216510e-001 0.000000e+000 -8.531590e-001
    outer loop
      vertex   1.484356e+001 0.000000e+000 -5.241279e+001
      vertex   1.601286e+001 2.000000e+000 -5.169784e+001
      vertex   1.601286e+001 0.000000e+000 -5.169784e+001
    endloop
  endfacet
  facet normal 5.788495e-001 0.000000e+000 -8.154344e-001
    outer loop
      vertex   1.601286e+001 0.000000e+000 -5.169784e+001
      vertex   1.601286e+001 2.000000e+000 -5.169784e+001
      vertex   1.713045e+001 0.000000e+000 -5.090450e+001
    endloop
  endfacet
  facet normal 5.788495e-001 0.000000e+000 -8.154344e-001
    outer loop
      vertex   1.713045e+001 0.000000e+000 -5.090450e+001
      vertex   1.601286e+001 2.000000e+000 -5.169784e+001
      vertex   1.713045e+001 2.000000e+000 -5.090450e+001
    endloop
  endfacet
  facet normal 6.333304e-001 0.000000e+000 -7.738815e-001
    outer loop
      vertex   1.713045e+001 0.000000e+000 -5.090450e+001
      vertex   1.713045e+001 2.000000e+000 -5.090450e+001
      vertex   1.819109e+001 0.000000e+000 -5.003649e+001
    endloop
  endfacet
  facet normal 6.333304e-001 0.000000e+000 -7.738815e-001
    outer loop
      vertex   1.819109e+001 0.000000e+000 -5.003649e+001
      vertex   1.713045e+001 2.000000e+000 -5.090450e+001
      vertex   1.819109e+001 2.000000e+000 -5.003649e+001
    endloop
  endfacet
  facet normal 6.848380e-001 0.000000e+000 -7.286954e-001
    outer loop
      vertex   1.819109e+001 0.000000e+000 -5.003649e+001
      vertex   1.819109e+001 2.000000e+000 -5.003649e+001
      vertex   1.918980e+001 0.000000e+000 -4.909789e+001
    endloop
  endfacet
  facet normal 6.848380e-001 0.000000e+000 -7.286954e-001
    outer loop
      vertex   1.918980e+001 0.000000e+000 -4.909789e+001
      vertex   1.819109e+001 2.000000e+000 -5.003649e+001
      vertex   1.918980e+001 2.000000e+000 -4.909789e+001
    endloop
  endfacet
  facet normal 7.331304e-001 0.000000e+000 -6.800881e-001
    outer loop
      vertex   1.918980e+001 0.000000e+000 -4.909789e+001
      vertex   1.918980e+001 2.000000e+000 -4.909789e+001
      vertex   2.012190e+001 0.000000e+000 -4.809310e+001
    endloop
  endfacet
  facet normal 7.331304e-001 0.000000e+000 -6.800881e-001
    outer loop
      vertex   2.012190e+001 0.000000e+000 -4.809310e+001
      vertex   1.918980e+001 2.000000e+000 -4.909789e+001
      vertex   2.012190e+001 2.000000e+000 -4.809310e+001
    endloop
  endfacet
  facet normal 7.779808e-001 0.000000e+000 -6.282880e-001
    outer loop
      vertex   2.012190e+001 0.000000e+000 -4.809310e+001
      vertex   2.012190e+001 2.000000e+000 -4.809310e+001
      vertex   2.098300e+001 2.000000e+000 -4.702684e+001
    endloop
  endfacet
  facet normal 7.779808e-001 0.000000e+000 -6.282880e-001
    outer loop
      vertex   2.012190e+001 0.000000e+000 -4.809310e+001
      vertex   2.098300e+001 2.000000e+000 -4.702684e+001
      vertex   2.098300e+001 0.000000e+000 -4.702684e+001
    endloop
  endfacet
  facet normal 8.191788e-001 0.000000e+000 -5.735382e-001
    outer loop
      vertex   2.098300e+001 0.000000e+000 -4.702684e+001
      vertex   2.098300e+001 2.000000e+000 -4.702684e+001
      vertex   2.176906e+001 2.000000e+000 -4.590412e+001
    endloop
  endfacet
  facet normal 8.191788e-001 0.000000e+000 -5.735382e-001
    outer loop
      vertex   2.098300e+001 0.000000e+000 -4.702684e+001
      vertex   2.176906e+001 2.000000e+000 -4.590412e+001
      vertex   2.176906e+001 0.000000e+000 -4.590412e+001
    endloop
  endfacet
  facet normal 8.565309e-001 0.000000e+000 -5.160957e-001
    outer loop
      vertex   2.176906e+001 0.000000e+000 -4.590412e+001
      vertex   2.176906e+001 2.000000e+000 -4.590412e+001
      vertex   2.247639e+001 2.000000e+000 -4.473020e+001
    endloop
  endfacet
  facet normal 8.565309e-001 0.000000e+000 -5.160957e-001
    outer loop
      vertex   2.176906e+001 0.000000e+000 -4.590412e+001
      vertex   2.247639e+001 2.000000e+000 -4.473020e+001
      vertex   2.247639e+001 0.000000e+000 -4.473020e+001
    endloop
  endfacet
  facet normal 8.898617e-001 0.000000e+000 -4.562303e-001
    outer loop
      vertex   2.247639e+001 0.000000e+000 -4.473020e+001
      vertex   2.247639e+001 2.000000e+000 -4.473020e+001
      vertex   2.310168e+001 2.000000e+000 -4.351060e+001
    endloop
  endfacet
  facet normal 8.898617e-001 0.000000e+000 -4.562303e-001
    outer loop
      vertex   2.247639e+001 0.000000e+000 -4.473020e+001
      vertex   2.310168e+001 2.000000e+000 -4.351060e+001
      vertex   2.310168e+001 0.000000e+000 -4.351060e+001
    endloop
  endfacet
  facet normal 9.190148e-001 0.000000e+000 -3.942229e-001
    outer loop
      vertex   2.310168e+001 0.000000e+000 -4.351060e+001
      vertex   2.310168e+001 2.000000e+000 -4.351060e+001
      vertex   2.364198e+001 2.000000e+000 -4.225105e+001
    endloop
  endfacet
  facet normal 9.190148e-001 0.000000e+000 -3.942229e-001
    outer loop
      vertex   2.310168e+001 0.000000e+000 -4.351060e+001
      vertex   2.364198e+001 2.000000e+000 -4.225105e+001
      vertex   2.364198e+001 0.000000e+000 -4.225105e+001
    endloop
  endfacet
  facet normal 9.438533e-001 0.000000e+000 -3.303648e-001
    outer loop
      vertex   2.364198e+001 0.000000e+000 -4.225105e+001
      vertex   2.364198e+001 2.000000e+000 -4.225105e+001
      vertex   2.409476e+001 2.000000e+000 -4.095745e+001
    endloop
  endfacet
  facet normal 9.438533e-001 0.000000e+000 -3.303648e-001
    outer loop
      vertex   2.364198e+001 0.000000e+000 -4.225105e+001
      vertex   2.409476e+001 2.000000e+000 -4.095745e+001
      vertex   2.409476e+001 0.000000e+000 -4.095745e+001
    endloop
  endfacet
  facet normal 9.642606e-001 0.000000e+000 -2.649556e-001
    outer loop
      vertex   2.409476e+001 0.000000e+000 -4.095745e+001
      vertex   2.409476e+001 2.000000e+000 -4.095745e+001
      vertex   2.445789e+001 2.000000e+000 -3.963589e+001
    endloop
  endfacet
  facet normal 9.642606e-001 0.000000e+000 -2.649556e-001
    outer loop
      vertex   2.409476e+001 0.000000e+000 -4.095745e+001
      vertex   2.445789e+001 2.000000e+000 -3.963589e+001
      vertex   2.445789e+001 0.000000e+000 -3.963589e+001
    endloop
  endfacet
  facet normal 9.801409e-001 0.000000e+000 -1.983025e-001
    outer loop
      vertex   2.445789e+001 0.000000e+000 -3.963589e+001
      vertex   2.445789e+001 2.000000e+000 -3.963589e+001
      vertex   2.472967e+001 2.000000e+000 -3.829256e+001
    endloop
  endfacet
  facet normal 9.801409e-001 0.000000e+000 -1.983025e-001
    outer loop
      vertex   2.445789e+001 0.000000e+000 -3.963589e+001
      vertex   2.472967e+001 2.000000e+000 -3.829256e+001
      vertex   2.472967e+001 0.000000e+000 -3.829256e+001
    endloop
  endfacet
  facet normal 9.914195e-001 0.000000e+000 -1.307185e-001
    outer loop
      vertex   2.472967e+001 0.000000e+000 -3.829256e+001
      vertex   2.472967e+001 2.000000e+000 -3.829256e+001
      vertex   2.490883e+001 2.000000e+000 -3.693377e+001
    endloop
  endfacet
  facet normal 9.914195e-001 0.000000e+000 -1.307185e-001
    outer loop
      vertex   2.472967e+001 0.000000e+000 -3.829256e+001
      vertex   2.490883e+001 2.000000e+000 -3.693377e+001
      vertex   2.490883e+001 0.000000e+000 -3.693377e+001
    endloop
  endfacet
  facet normal 9.980437e-001 0.000000e+000 -6.252068e-002
    outer loop
      vertex   2.490883e+001 0.000000e+000 -3.693377e+001
      vertex   2.490883e+001 2.000000e+000 -3.693377e+001
      vertex   2.499452e+001 2.000000e+000 -3.556590e+001
    endloop
  endfacet
  facet normal 9.980437e-001 0.000000e+000 -6.252068e-002
    outer loop
      vertex   2.490883e+001 0.000000e+000 -3.693377e+001
      vertex   2.499452e+001 2.000000e+000 -3.556590e+001
      vertex   2.499452e+001 0.000000e+000 -3.556590e+001
    endloop
  endfacet
  facet normal 9.999822e-001 -0.000000e+000 5.970620e-003
    outer loop
      vertex   2.499452e+001 0.000000e+000 -3.556590e+001
      vertex   2.499452e+001 2.000000e+000 -3.556590e+001
      vertex   2.498634e+001 2.000000e+000 -3.419538e+001
    endloop
  endfacet
  facet normal 9.999822e-001 0.000000e+000 5.970620e-003
    outer loop
      vertex   2.499452e+001 0.000000e+000 -3.556590e+001
      vertex   2.498634e+001 2.000000e+000 -3.419538e+001
      vertex   2.498634e+001 0.000000e+000 -3.419538e+001
    endloop
  endfacet
  facet normal 9.972260e-001 -0.000000e+000 7.443389e-002
    outer loop
      vertex   2.498634e+001 0.000000e+000 -3.419538e+001
      vertex   2.498634e+001 2.000000e+000 -3.419538e+001
      vertex   2.488432e+001 2.000000e+000 -3.282864e+001
    endloop
  endfacet
  facet normal 9.972260e-001 0.000000e+000 7.443389e-002
    outer loop
      vertex   2.498634e+001 0.000000e+000 -3.419538e+001
      vertex   2.488432e+001 2.000000e+000 -3.282864e+001
      vertex   2.488432e+001 0.000000e+000 -3.282864e+001
    endloop
  endfacet
  facet normal 9.897879e-001 -0.000000e+000 1.425477e-001
    outer loop
      vertex   2.488432e+001 0.000000e+000 -3.282864e+001
      vertex   2.488432e+001 2.000000e+000 -3.282864e+001
      vertex   2.468895e+001 2.000000e+000 -3.147208e+001
    endloop
  endfacet
  facet normal 9.897879e-001 0.000000e+000 1.425477e-001
    outer loop
      vertex   2.488432e+001 0.000000e+000 -3.282864e+001
      vertex   2.468895e+001 2.000000e+000 -3.147208e+001
      vertex   2.468895e+001 0.000000e+000 -3.147208e+001
    endloop
  endfacet
  facet normal 9.777030e-001 -0.000000e+000 2.099923e-001
    outer loop
      vertex   2.468895e+001 0.000000e+000 -3.147208e+001
      vertex   2.468895e+001 2.000000e+000 -3.147208e+001
      vertex   2.440115e+001 2.000000e+000 -3.013210e+001
    endloop
  endfacet
  facet normal 9.777030e-001 0.000000e+000 2.099923e-001
    outer loop
      vertex   2.468895e+001 0.000000e+000 -3.147208e+001
      vertex   2.440115e+001 2.000000e+000 -3.013210e+001
      vertex   2.440115e+001 0.000000e+000 -3.013210e+001
    endloop
  endfacet
  facet normal 9.610280e-001 -0.000000e+000 2.764510e-001
    outer loop
      vertex   2.440115e+001 0.000000e+000 -3.013210e+001
      vertex   2.440115e+001 2.000000e+000 -3.013210e+001
      vertex   2.402226e+001 2.000000e+000 -2.881496e+001
    endloop
  endfacet
  facet normal 9.610280e-001 0.000000e+000 2.764510e-001
    outer loop
      vertex   2.440115e+001 0.000000e+000 -3.013210e+001
      vertex   2.402226e+001 2.000000e+000 -2.881496e+001
      vertex   2.402226e+001 0.000000e+000 -2.881496e+001
    endloop
  endfacet
  facet normal 9.398411e-001 -0.000000e+000 3.416118e-001
    outer loop
      vertex   2.402226e+001 0.000000e+000 -2.881496e+001
      vertex   2.402226e+001 2.000000e+000 -2.881496e+001
      vertex   2.355406e+001 2.000000e+000 -2.752686e+001
    endloop
  endfacet
  facet normal 9.398411e-001 0.000000e+000 3.416118e-001
    outer loop
      vertex   2.402226e+001 0.000000e+000 -2.881496e+001
      vertex   2.355406e+001 2.000000e+000 -2.752686e+001
      vertex   2.355406e+001 0.000000e+000 -2.752686e+001
    endloop
  endfacet
  facet normal 9.142419e-001 -0.000000e+000 4.051688e-001
    outer loop
      vertex   2.355406e+001 0.000000e+000 -2.752686e+001
      vertex   2.355406e+001 2.000000e+000 -2.752686e+001
      vertex   2.299876e+001 2.000000e+000 -2.627385e+001
    endloop
  endfacet
  facet normal 9.142419e-001 0.000000e+000 4.051688e-001
    outer loop
      vertex   2.355406e+001 0.000000e+000 -2.752686e+001
      vertex   2.299876e+001 2.000000e+000 -2.627385e+001
      vertex   2.299876e+001 0.000000e+000 -2.627385e+001
    endloop
  endfacet
  facet normal 8.843504e-001 -0.000000e+000 4.668236e-001
    outer loop
      vertex   2.299876e+001 0.000000e+000 -2.627385e+001
      vertex   2.299876e+001 2.000000e+000 -2.627385e+001
      vertex   2.235896e+001 2.000000e+000 -2.506181e+001
    endloop
  endfacet
  facet normal 8.843504e-001 0.000000e+000 4.668236e-001
    outer loop
      vertex   2.299876e+001 0.000000e+000 -2.627385e+001
      vertex   2.235896e+001 2.000000e+000 -2.506181e+001
      vertex   2.235896e+001 0.000000e+000 -2.506181e+001
    endloop
  endfacet
  facet normal 8.503071e-001 -0.000000e+000 5.262868e-001
    outer loop
      vertex   2.235896e+001 0.000000e+000 -2.506181e+001
      vertex   2.235896e+001 2.000000e+000 -2.506181e+001
      vertex   2.163765e+001 2.000000e+000 -2.389642e+001
    endloop
  endfacet
  facet normal 8.503071e-001 0.000000e+000 5.262868e-001
    outer loop
      vertex   2.235896e+001 0.000000e+000 -2.506181e+001
      vertex   2.163765e+001 2.000000e+000 -2.389642e+001
      vertex   2.163765e+001 0.000000e+000 -2.389642e+001
    endloop
  endfacet
  facet normal 8.122718e-001 -0.000000e+000 5.832792e-001
    outer loop
      vertex   2.163765e+001 0.000000e+000 -2.389642e+001
      vertex   2.163765e+001 2.000000e+000 -2.389642e+001
      vertex   2.083824e+001 2.000000e+000 -2.278316e+001
    endloop
  endfacet
  facet normal 8.122718e-001 0.000000e+000 5.832792e-001
    outer loop
      vertex   2.163765e+001 0.000000e+000 -2.389642e+001
      vertex   2.083824e+001 2.000000e+000 -2.278316e+001
      vertex   2.083824e+001 0.000000e+000 -2.278316e+001
    endloop
  endfacet
  facet normal 7.704229e-001 -0.000000e+000 6.375331e-001
    outer loop
      vertex   2.083824e+001 0.000000e+000 -2.278316e+001
      vertex   2.083824e+001 2.000000e+000 -2.278316e+001
      vertex   1.996447e+001 2.000000e+000 -2.172726e+001
    endloop
  endfacet
  facet normal 7.704229e-001 0.000000e+000 6.375331e-001
    outer loop
      vertex   2.083824e+001 0.000000e+000 -2.278316e+001
      vertex   1.996447e+001 2.000000e+000 -2.172726e+001
      vertex   1.996447e+001 0.000000e+000 -2.172726e+001
    endloop
  endfacet
  facet normal 7.249571e-001 -0.000000e+000 6.887940e-001
    outer loop
      vertex   1.996447e+001 0.000000e+000 -2.172726e+001
      vertex   1.996447e+001 2.000000e+000 -2.172726e+001
      vertex   1.902045e+001 2.000000e+000 -2.073368e+001
    endloop
  endfacet
  facet normal 7.249571e-001 0.000000e+000 6.887940e-001
    outer loop
      vertex   1.996447e+001 0.000000e+000 -2.172726e+001
      vertex   1.902045e+001 2.000000e+000 -2.073368e+001
      vertex   1.902045e+001 0.000000e+000 -2.073368e+001
    endloop
  endfacet
  facet normal 6.760878e-001 -0.000000e+000 7.368211e-001
    outer loop
      vertex   1.902045e+001 0.000000e+000 -2.073368e+001
      vertex   1.902045e+001 2.000000e+000 -2.073368e+001
      vertex   1.801060e+001 2.000000e+000 -1.980706e+001
    endloop
  endfacet
  facet normal 6.760878e-001 0.000000e+000 7.368211e-001
    outer loop
      vertex   1.902045e+001 0.000000e+000 -2.073368e+001
      vertex   1.801060e+001 2.000000e+000 -1.980706e+001
      vertex   1.801060e+001 0.000000e+000 -1.980706e+001
    endloop
  endfacet
  facet normal 6.240443e-001 -0.000000e+000 7.813889e-001
    outer loop
      vertex   1.801060e+001 0.000000e+000 -1.980706e+001
      vertex   1.801060e+001 2.000000e+000 -1.980706e+001
      vertex   1.693967e+001 2.000000e+000 -1.895178e+001
    endloop
  endfacet
  facet normal 6.240443e-001 0.000000e+000 7.813889e-001
    outer loop
      vertex   1.801060e+001 0.000000e+000 -1.980706e+001
      vertex   1.693967e+001 2.000000e+000 -1.895178e+001
      vertex   1.693967e+001 0.000000e+000 -1.895178e+001
    endloop
  endfacet
  facet normal 5.690711e-001 -0.000000e+000 8.222883e-001
    outer loop
      vertex   1.693967e+001 0.000000e+000 -1.895178e+001
      vertex   1.693967e+001 2.000000e+000 -1.895178e+001
      vertex   1.581268e+001 2.000000e+000 -1.817184e+001
    endloop
  endfacet
  facet normal 5.690711e-001 0.000000e+000 8.222883e-001
    outer loop
      vertex   1.693967e+001 0.000000e+000 -1.895178e+001
      vertex   1.581268e+001 2.000000e+000 -1.817184e+001
      vertex   1.581268e+001 0.000000e+000 -1.817184e+001
    endloop
  endfacet
  facet normal 5.114262e-001 -0.000000e+000 8.593272e-001
    outer loop
      vertex   1.581268e+001 0.000000e+000 -1.817184e+001
      vertex   1.581268e+001 2.000000e+000 -1.817184e+001
      vertex   1.463494e+001 2.000000e+000 -1.747091e+001
    endloop
  endfacet
  facet normal 5.114262e-001 0.000000e+000 8.593272e-001
    outer loop
      vertex   1.581268e+001 0.000000e+000 -1.817184e+001
      vertex   1.463494e+001 2.000000e+000 -1.747091e+001
      vertex   1.463494e+001 0.000000e+000 -1.747091e+001
    endloop
  endfacet
  facet normal 4.513802e-001 -0.000000e+000 8.923317e-001
    outer loop
      vertex   1.463494e+001 0.000000e+000 -1.747091e+001
      vertex   1.463494e+001 2.000000e+000 -1.747091e+001
      vertex   1.341195e+001 2.000000e+000 -1.685227e+001
    endloop
  endfacet
  facet normal 4.513802e-001 0.000000e+000 8.923317e-001
    outer loop
      vertex   1.463494e+001 0.000000e+000 -1.747091e+001
      vertex   1.341195e+001 2.000000e+000 -1.685227e+001
      vertex   1.341195e+001 0.000000e+000 -1.685227e+001
    endloop
  endfacet
  facet normal 9.881650e-001 -8.776668e-016 1.533949e-001
    outer loop
      vertex   8.531002e+000 2.000000e+000 -1.000832e+001
      vertex   8.531002e+000 0.000000e+000 -1.000832e+001
      vertex   8.665822e+000 2.000000e+000 -1.087683e+001
    endloop
  endfacet
  facet normal 9.881650e-001 -2.724842e-016 1.533949e-001
    outer loop
      vertex   8.665822e+000 2.000000e+000 -1.087683e+001
      vertex   8.531002e+000 0.000000e+000 -1.000832e+001
      vertex   8.665822e+000 0.000000e+000 -1.087683e+001
    endloop
  endfacet
  facet normal 9.670423e-001 -4.522882e-016 2.546156e-001
    outer loop
      vertex   8.665822e+000 2.000000e+000 -1.087683e+001
      vertex   8.665822e+000 0.000000e+000 -1.087683e+001
      vertex   8.889606e+000 2.000000e+000 -1.172677e+001
    endloop
  endfacet
  facet normal 9.670423e-001 8.589061e-016 2.546156e-001
    outer loop
      vertex   8.889606e+000 2.000000e+000 -1.172677e+001
      vertex   8.665822e+000 0.000000e+000 -1.087683e+001
      vertex   8.889606e+000 0.000000e+000 -1.172677e+001
    endloop
  endfacet
  facet normal 9.355803e-001 8.309623e-016 3.531139e-001
    outer loop
      vertex   8.889606e+000 2.000000e+000 -1.172677e+001
      vertex   8.889606e+000 0.000000e+000 -1.172677e+001
      vertex   9.199961e+000 2.000000e+000 -1.254906e+001
    endloop
  endfacet
  facet normal 9.355803e-001 2.037059e-016 3.531139e-001
    outer loop
      vertex   9.199961e+000 2.000000e+000 -1.254906e+001
      vertex   8.889606e+000 0.000000e+000 -1.172677e+001
      vertex   9.199961e+000 0.000000e+000 -1.254906e+001
    endloop
  endfacet
  facet normal 8.941153e-001 -1.384031e-018 4.478368e-001
    outer loop
      vertex   9.199961e+000 2.000000e+000 -1.254906e+001
      vertex   9.199961e+000 0.000000e+000 -1.254906e+001
      vertex   9.593568e+000 2.000000e+000 -1.333491e+001
    endloop
  endfacet
  facet normal 8.941153e-001 -3.977590e-016 4.478368e-001
    outer loop
      vertex   9.593568e+000 2.000000e+000 -1.333491e+001
      vertex   9.199961e+000 0.000000e+000 -1.254906e+001
      vertex   9.593568e+000 0.000000e+000 -1.333491e+001
    endloop
  endfacet
  facet normal 8.430906e-001 -4.776371e-016 5.377715e-001
    outer loop
      vertex   9.593568e+000 2.000000e+000 -1.333491e+001
      vertex   9.593568e+000 0.000000e+000 -1.333491e+001
      vertex   1.006622e+001 2.000000e+000 -1.407590e+001
    endloop
  endfacet
  facet normal 8.430906e-001 0.000000e+000 5.377715e-001
    outer loop
      vertex   1.006622e+001 2.000000e+000 -1.407590e+001
      vertex   9.593568e+000 0.000000e+000 -1.333491e+001
      vertex   1.006622e+001 0.000000e+000 -1.407590e+001
    endloop
  endfacet
  facet normal 7.830518e-001 0.000000e+000 6.219565e-001
    outer loop
      vertex   1.006622e+001 2.000000e+000 -1.407590e+001
      vertex   1.006622e+001 0.000000e+000 -1.407590e+001
      vertex   1.061286e+001 2.000000e+000 -1.476414e+001
    endloop
  endfacet
  facet normal 7.830518e-001 6.954897e-016 6.219565e-001
    outer loop
      vertex   1.061286e+001 2.000000e+000 -1.476414e+001
      vertex   1.006622e+001 0.000000e+000 -1.407590e+001
      vertex   1.061286e+001 0.000000e+000 -1.476414e+001
    endloop
  endfacet
  facet normal 7.146408e-001 6.347285e-016 6.994917e-001
    outer loop
      vertex   1.061286e+001 2.000000e+000 -1.476414e+001
      vertex   1.061286e+001 0.000000e+000 -1.476414e+001
      vertex   1.122765e+001 2.000000e+000 -1.539224e+001
    endloop
  endfacet
  facet normal 7.146408e-001 0.000000e+000 6.994917e-001
    outer loop
      vertex   1.122765e+001 2.000000e+000 -1.539224e+001
      vertex   1.061286e+001 0.000000e+000 -1.476414e+001
      vertex   1.122765e+001 0.000000e+000 -1.539224e+001
    endloop
  endfacet
  facet normal 6.385890e-001 0.000000e+000 7.695480e-001
    outer loop
      vertex   1.122765e+001 2.000000e+000 -1.539224e+001
      vertex   1.122765e+001 0.000000e+000 -1.539224e+001
      vertex   1.190401e+001 2.000000e+000 -1.595350e+001
    endloop
  endfacet
  facet normal 6.385890e-001 1.134362e-015 7.695480e-001
    outer loop
      vertex   1.190401e+001 2.000000e+000 -1.595350e+001
      vertex   1.122765e+001 0.000000e+000 -1.539224e+001
      vertex   1.190401e+001 0.000000e+000 -1.595350e+001
    endloop
  endfacet
  facet normal 5.557095e-001 9.871384e-016 8.313765e-001
    outer loop
      vertex   1.190401e+001 2.000000e+000 -1.595350e+001
      vertex   1.190401e+001 0.000000e+000 -1.595350e+001
      vertex   1.263472e+001 2.000000e+000 -1.644192e+001
    endloop
  endfacet
  facet normal 5.557095e-001 0.000000e+000 8.313765e-001
    outer loop
      vertex   1.263472e+001 2.000000e+000 -1.644192e+001
      vertex   1.190401e+001 0.000000e+000 -1.595350e+001
      vertex   1.263472e+001 0.000000e+000 -1.644192e+001
    endloop
  endfacet
  facet normal 4.668885e-001 0.000000e+000 8.843162e-001
    outer loop
      vertex   1.263472e+001 2.000000e+000 -1.644192e+001
      vertex   1.263472e+001 0.000000e+000 -1.644192e+001
      vertex   1.341195e+001 2.000000e+000 -1.685227e+001
    endloop
  endfacet
  facet normal 4.668885e-001 0.000000e+000 8.843162e-001
    outer loop
      vertex   1.341195e+001 2.000000e+000 -1.685227e+001
      vertex   1.263472e+001 0.000000e+000 -1.644192e+001
      vertex   1.341195e+001 0.000000e+000 -1.685227e+001
    endloop
  endfacet
endsolid
